<svg xmlns="http://www.w3.org/2000/svg" width="222" height="201" viewBox="0 0 222 201">
  <g id="Grupo_147184" data-name="Grupo 147184" transform="translate(2494 4590)">
    <rect id="Rectángulo_45239" data-name="Rectángulo 45239" width="222" height="201" rx="12" transform="translate(-2494 -4590)" fill="#fff"/>
    <g id="internet" transform="translate(-2455.492 -4565.979)">
      <g id="Grupo_147171" data-name="Grupo 147171" transform="translate(5.731 2.106)">
        <path id="Trazado_198980" data-name="Trazado 198980" d="M198.589,404.047h32.238V420.6H198.589Z" transform="translate(-145.956 -292.711)" fill="#92bfb1"/>
        <path id="Trazado_198981" data-name="Trazado 198981" d="M198.589,404.047h11.677V420.6H198.589Z" transform="translate(-145.956 -292.711)" fill="#d0eae2"/>
        <g id="Grupo_147161" data-name="Grupo 147161" transform="translate(17.435 127.886)">
          <path id="Trazado_198982" data-name="Trazado 198982" d="M175.856,464.4v8.845a1.4,1.4,0,0,1-1.4,1.4H74.626a1.4,1.4,0,0,1-1.4-1.4V464.4a1.4,1.4,0,0,1,1.4-1.4h99.826A1.4,1.4,0,0,1,175.856,464.4Z" transform="translate(-73.222 -462.996)" fill="#d0eae2"/>
        </g>
        <g id="Grupo_147162" data-name="Grupo 147162" transform="translate(17.435 127.886)">
          <path id="Trazado_198983" data-name="Trazado 198983" d="M84.952,473.245V464.4a1.4,1.4,0,0,1,1.4-1.4H74.626a1.4,1.4,0,0,0-1.4,1.4v8.845a1.4,1.4,0,0,0,1.4,1.4h11.73A1.4,1.4,0,0,1,84.952,473.245Z" transform="translate(-73.222 -462.996)" fill="#d0eae2"/>
        </g>
        <path id="Trazado_198984" data-name="Trazado 198984" d="M11.125,346.261V356.87a5.615,5.615,0,0,0,5.615,5.615H143.013a5.615,5.615,0,0,0,5.615-5.615V346.261Z" transform="translate(-11.125 -251.15)" fill="#d0eae2"/>
        <g id="Grupo_147163" data-name="Grupo 147163" transform="translate(0 95.392)">
          <path id="Trazado_198985" data-name="Trazado 198985" d="M23.163,357.589V347.261H11.125v10.328A5.615,5.615,0,0,0,16.74,363.2H28.778A5.615,5.615,0,0,1,23.163,357.589Z" transform="translate(-11.125 -347.261)" fill="#92bfb1"/>
        </g>
        <path id="Trazado_198986" data-name="Trazado 198986" d="M144.417,66.86H113.266a41.778,41.778,0,1,1-66.779,0H15.336a4.212,4.212,0,0,0-4.211,4.211v74.515h137.5V71.071A4.212,4.212,0,0,0,144.417,66.86Z" transform="translate(-11.125 -50.194)" fill="#fafdfc"/>
        <g id="Grupo_147164" data-name="Grupo 147164" transform="translate(0 16.666)">
          <path id="Trazado_198987" data-name="Trazado 198987" d="M23.163,71.071a4.212,4.212,0,0,1,4.211-4.211H15.336a4.212,4.212,0,0,0-4.211,4.211v74.515H23.163Z" transform="translate(-11.125 -66.86)" fill="#e5e5e5"/>
        </g>
        <g id="Grupo_147170" data-name="Grupo 147170" transform="translate(26.974)">
          <g id="Grupo_147165" data-name="Grupo 147165">
            <circle id="Elipse_1355" data-name="Elipse 1355" cx="41.777" cy="41.777" r="41.777" fill="#ffa400"/>
          </g>
          <g id="Grupo_147168" data-name="Grupo 147168" transform="translate(21.053)">
            <ellipse id="Elipse_1356" data-name="Elipse 1356" cx="20.724" cy="41.777" rx="20.724" ry="41.777" fill="#fff3dd"/>
          </g>
          <g id="Grupo_147169" data-name="Grupo 147169" transform="translate(21.053)">
            <path id="Trazado_198989" data-name="Trazado 198989" d="M190.942,49.277c0-20.045,7-36.789,16.346-40.84A10.936,10.936,0,0,0,202.91,7.5c-11.446,0-20.724,18.7-20.724,41.777s9.279,41.777,20.724,41.777a10.936,10.936,0,0,0,4.378-.937c-9.343-4.051-16.346-20.8-16.346-40.84Z" transform="translate(-182.186 -7.5)" fill="#fff3dd"/>
          </g>
        </g>
      </g>
      <g id="Grupo_147172" data-name="Grupo 147172" transform="translate(3.625)">
        <circle id="Elipse_1357" data-name="Elipse 1357" cx="2.106" cy="2.106" r="2.106" transform="translate(111.568 103.018)"/>
        <circle id="Elipse_1358" data-name="Elipse 1358" cx="2.106" cy="2.106" r="2.106" transform="translate(119.008 103.018)"/>
        <circle id="Elipse_1359" data-name="Elipse 1359" cx="2.106" cy="2.106" r="2.106" transform="translate(126.448 103.018)"/>
        <path id="Trazado_198990" data-name="Trazado 198990" d="M139.023,16.666H108.881a43.832,43.832,0,0,0-68.8,0H9.942a6.324,6.324,0,0,0-6.317,6.317v84.843a7.73,7.73,0,0,0,7.721,7.721H56.258v12.339H24.569a3.513,3.513,0,0,0-3.51,3.51v8.845a3.513,3.513,0,0,0,3.51,3.51H124.4a3.513,3.513,0,0,0,3.51-3.51V131.4a3.513,3.513,0,0,0-3.51-3.51H113.508a2.106,2.106,0,1,0,0,4.211h10.185v7.441H25.271V132.1h78.411a2.106,2.106,0,1,0,0-4.211H92.707V115.547h44.912a7.73,7.73,0,0,0,7.721-7.721V22.983a6.325,6.325,0,0,0-6.317-6.317Zm-29.009,9.585A39.382,39.382,0,0,1,114.1,41.777H97.287a80.214,80.214,0,0,0-1.853-15.526ZM89.921,65.726c-3,9.465-7.846,16.175-13.333,17.561V65.726ZM76.588,61.515V45.989H93.073a75.332,75.332,0,0,1-1.985,15.526ZM91.023,74.36a53.282,53.282,0,0,0,3.328-8.634h13.231A39.842,39.842,0,0,1,86.128,81.809,33.735,33.735,0,0,0,91.023,74.36Zm4.411-12.845a80.214,80.214,0,0,0,1.853-15.526H114.1a39.382,39.382,0,0,1-4.085,15.526ZM107.582,22.04H94.351a53.31,53.31,0,0,0-3.328-8.634,33.743,33.743,0,0,0-4.894-7.449A39.844,39.844,0,0,1,107.582,22.04ZM76.588,4.48c5.486,1.386,10.333,8.1,13.333,17.56H76.588ZM74.482,30.743a2.106,2.106,0,0,0,2.106-2.106V26.251h14.5a75.312,75.312,0,0,1,1.985,15.526H76.588V38.745a2.106,2.106,0,0,0-4.211,0v3.032H55.892a75.328,75.328,0,0,1,1.985-15.526h14.5v2.386a2.106,2.106,0,0,0,2.106,2.105ZM54.614,65.726a53.272,53.272,0,0,0,3.328,8.634,33.743,33.743,0,0,0,4.894,7.449A39.844,39.844,0,0,1,41.383,65.726ZM38.951,61.515a39.386,39.386,0,0,1-4.085-15.526H51.678a80.216,80.216,0,0,0,1.853,15.526Zm20.093,4.211H72.377V83.287C66.89,81.9,62.044,75.191,59.044,65.726Zm-1.167-4.211a75.312,75.312,0,0,1-1.985-15.526H72.377V61.515ZM72.377,4.48V22.04H59.044C62.044,12.575,66.891,5.865,72.377,4.48ZM62.836,5.957a33.727,33.727,0,0,0-4.894,7.449,53.308,53.308,0,0,0-3.328,8.634H41.383A39.843,39.843,0,0,1,62.836,5.957Zm-9.3,20.294a80.216,80.216,0,0,0-1.853,15.526H34.867a39.381,39.381,0,0,1,4.085-15.526ZM88.5,127.886H60.469V115.547H88.5Zm52.633-32.494H45.564a2.106,2.106,0,0,0,0,4.211h95.565v8.222a3.513,3.513,0,0,1-3.51,3.51H11.346a3.513,3.513,0,0,1-3.51-3.51V99.6h27.9a2.106,2.106,0,0,0,0-4.211H7.836V22.983a2.108,2.108,0,0,1,2.106-2.106H37.129a43.883,43.883,0,1,0,74.708,0h27.187a2.108,2.108,0,0,1,2.106,2.106Z" transform="translate(-3.625)"/>
        <path id="Trazado_198991" data-name="Trazado 198991" d="M58.207,299H44.731a2.106,2.106,0,1,0,0,4.211H58.207a2.106,2.106,0,1,0,0-4.211Z" transform="translate(-31.675 -215.052)"/>
        <path id="Trazado_198992" data-name="Trazado 198992" d="M44.731,277.211h5.054a2.106,2.106,0,1,0,0-4.211H44.731a2.106,2.106,0,1,0,0,4.211Z" transform="translate(-31.675 -196.352)"/>
        <path id="Trazado_198993" data-name="Trazado 198993" d="M442.346,299h-5.615a2.106,2.106,0,0,0,0,4.211h5.615a2.106,2.106,0,0,0,0-4.211Z" transform="translate(-313.616 -215.052)"/>
        <path id="Trazado_198994" data-name="Trazado 198994" d="M442.346,273h-5.615a2.106,2.106,0,0,0,0,4.211h5.615a2.106,2.106,0,0,0,0-4.211Z" transform="translate(-313.616 -196.352)"/>
        <path id="Trazado_198995" data-name="Trazado 198995" d="M442.346,247h-5.615a2.106,2.106,0,0,0,0,4.211h5.615a2.106,2.106,0,0,0,0-4.211Z" transform="translate(-313.616 -177.652)"/>
      </g>
    </g>
    <g id="Grupo_147173" data-name="Grupo 147173" transform="translate(-2325.814 -4443.028)">
      <g id="Grupo_147125" data-name="Grupo 147125">
        <path id="Trazado_198970" data-name="Trazado 198970" d="M220.568,199.26a5.347,5.347,0,0,1-4.252-4.184c0-.069-.206-.069-.206,0a5.347,5.347,0,0,1-4.252,4.184c-.069,0-.069.137,0,.206a5.347,5.347,0,0,1,4.252,4.184c0,.069.206.069.206,0a5.347,5.347,0,0,1,4.252-4.184C220.637,199.4,220.637,199.26,220.568,199.26Z" transform="translate(-211.806 -195.025)" fill="#16697a"/>
      </g>
    </g>
    <g id="Grupo_147174" data-name="Grupo 147174" transform="translate(-2464.657 -4512.32)">
      <g id="Grupo_147127" data-name="Grupo 147127" transform="translate(-10)">
        <path id="Trazado_198971" data-name="Trazado 198971" d="M19.188,97.772H17.541V96.195A2.167,2.167,0,0,0,15.347,94a2.2,2.2,0,0,0-2.195,2.126v1.646H11.574a2.167,2.167,0,0,0-2.195,2.195,2.125,2.125,0,0,0,2.195,2.195h1.578v1.578a2.167,2.167,0,0,0,2.195,2.195,2.2,2.2,0,0,0,2.195-2.126v-1.646h1.578a2.167,2.167,0,0,0,2.195-2.195A2.2,2.2,0,0,0,19.188,97.772Z" transform="translate(-9.376 -94)" fill="#ffa400"/>
      </g>
    </g>
    <g id="Grupo_147175" data-name="Grupo 147175" transform="translate(-2358.205 -4576.793)">
      <g id="Grupo_147129" data-name="Grupo 147129">
        <path id="Trazado_198972" data-name="Trazado 198972" d="M166.913,0a2.332,2.332,0,1,0,2.332,2.332A2.332,2.332,0,0,0,166.913,0Z" transform="translate(-164.581)" fill="#ffa400"/>
      </g>
    </g>
    <g id="Grupo_147176" data-name="Grupo 147176" transform="translate(-2462.72 -4489.5)">
      <g id="Grupo_147131" data-name="Grupo 147131">
        <path id="Trazado_198973" data-name="Trazado 198973" d="M23.913,131a2.332,2.332,0,1,0,2.332,2.332A2.332,2.332,0,0,0,23.913,131Z" transform="translate(-21.581 -131)" fill="#f5c84c"/>
      </g>
    </g>
    <g id="Grupo_147177" data-name="Grupo 147177" transform="translate(-2341.298 -4566.951)">
      <g id="Grupo_147133" data-name="Grupo 147133">
        <path id="Trazado_198974" data-name="Trazado 198974" d="M201.817,20.42a7.611,7.611,0,0,1-6.1-5.967c0-.137-.274-.137-.274,0a7.611,7.611,0,0,1-6.1,5.967c-.137,0-.137.206,0,.274a7.611,7.611,0,0,1,6.1,5.967c0,.137.274.137.274,0a7.611,7.611,0,0,1,6.1-5.967C201.954,20.626,201.954,20.42,201.817,20.42Z" transform="translate(-189.231 -14.35)" fill="#16697a"/>
      </g>
    </g>
  </g>
</svg>
