<svg xmlns="http://www.w3.org/2000/svg" xmlns:xlink="http://www.w3.org/1999/xlink" width="163" height="63" viewBox="0 0 163 63">
  <defs>
    <clipPath id="clip-path">
      <rect id="Rectángulo_45258" data-name="Rectángulo 45258" width="163" height="63" transform="translate(627.001 8781)" fill="#a35b5b" stroke="#707070" stroke-width="1"/>
    </clipPath>
    <clipPath id="clip-path-2">
      <path id="Trazado_199085" data-name="Trazado 199085" d="M474,62h8.357V77H474Zm0,0" transform="translate(-474 -62)"/>
    </clipPath>
  </defs>
  <g id="Enmascarar_grupo_21" data-name="Enmascarar grupo 21" transform="translate(-627.001 -8781)" clip-path="url(#clip-path)">
    <g id="surface1" transform="translate(630.885 8790.12)">
      <path id="Trazado_199071" data-name="Trazado 199071" d="M47.43,20.68a3.942,3.942,0,1,1-3.942,3.942A3.942,3.942,0,0,1,47.43,20.68Zm0,0" transform="translate(-29.579 -13.984)" fill="#00a3b4" fill-rule="evenodd"/>
      <path id="Trazado_199072" data-name="Trazado 199072" d="M39.477,59.246a3.942,3.942,0,1,1-3.942,3.942A3.942,3.942,0,0,1,39.477,59.246Zm0,0" transform="translate(-24.061 -40.746)" fill="#74b0d7" fill-rule="evenodd"/>
      <path id="Trazado_199073" data-name="Trazado 199073" d="M45.544,94.574A3.942,3.942,0,1,1,41.6,98.516,3.942,3.942,0,0,1,45.544,94.574Zm0,0" transform="translate(-28.27 -65.26)" fill="#0071b3" fill-rule="evenodd"/>
      <path id="Trazado_199074" data-name="Trazado 199074" d="M15.306,2.089a1.989,1.989,0,0,1,3.886.855c-.875,3.977-.219,7.072,1.3,9.337a11.138,11.138,0,0,0,4.8,3.906,14.492,14.492,0,0,0,6.211,1.22c2.81-.077,5.357-.994,6.741-2.719a1.984,1.984,0,1,1,3.093,2.487c-2.146,2.674-5.813,4.089-9.741,4.2a18.132,18.132,0,0,1-2.017-.059,4.612,4.612,0,0,0-7.522-2.329A14.648,14.648,0,0,1,17.2,14.488C15.105,11.368,14.172,7.237,15.306,2.089Zm0,0" transform="translate(-9.685 0)" fill="#00a3b4" fill-rule="evenodd"/>
      <path id="Trazado_199075" data-name="Trazado 199075" d="M1.058,67.615a1.832,1.832,0,0,1,3.271-1.649A12.332,12.332,0,0,0,8.38,70.727,11.13,11.13,0,0,0,14.5,72.606a13.977,13.977,0,0,0,6.47-1.539A14.5,14.5,0,0,0,26.439,66.3a1.829,1.829,0,0,1,3.027,2.052,18.171,18.171,0,0,1-6.845,5.985q-.75.378-1.532.686a4.82,4.82,0,0,0-8.284,1.13,14.589,14.589,0,0,1-6.478-2.4A15.953,15.953,0,0,1,1.058,67.615Zm0,0" transform="translate(0 -44.71)" fill="#74b0d7" fill-rule="evenodd"/>
      <path id="Trazado_199076" data-name="Trazado 199076" d="M20.971,104.171a1.831,1.831,0,0,1,1.2-3.458,18.531,18.531,0,0,0,3.721.9A11.5,11.5,0,0,0,38.74,93.92a11.369,11.369,0,0,0,.542-2.274,1.829,1.829,0,0,1,3.63.459,15.1,15.1,0,0,1-.714,3.02,15.142,15.142,0,0,1-16.761,10.118A22.059,22.059,0,0,1,20.971,104.171Zm0,0" transform="translate(-13.102 -62.118)" fill="#0071b3" fill-rule="evenodd"/>
      <path id="Trazado_199077" data-name="Trazado 199077" d="M287.129,72.435l3.118-.288a3.431,3.431,0,0,0,1.136,2.129,3.6,3.6,0,0,0,2.31.68,3.735,3.735,0,0,0,2.318-.605,1.761,1.761,0,0,0,.782-1.414,1.3,1.3,0,0,0-.328-.888,2.634,2.634,0,0,0-1.147-.633c-.373-.123-1.22-.335-2.547-.643a8.943,8.943,0,0,1-3.594-1.459,3.727,3.727,0,0,1-1.453-2.964,3.623,3.623,0,0,1,.683-2.106,4.23,4.23,0,0,1,1.972-1.49,8.391,8.391,0,0,1,3.108-.513,6.949,6.949,0,0,1,4.471,1.223,4.218,4.218,0,0,1,1.578,3.268l-3.207.1a2.483,2.483,0,0,0-.874-1.634,3.358,3.358,0,0,0-2.009-.5,3.8,3.8,0,0,0-2.164.533,1.061,1.061,0,0,0-.5.916,1.1,1.1,0,0,0,.476.892,8.65,8.65,0,0,0,2.929.989,16.181,16.181,0,0,1,3.44,1.056,4.344,4.344,0,0,1,1.747,1.493,4.343,4.343,0,0,1-.126,4.7,4.458,4.458,0,0,1-2.138,1.637,9.57,9.57,0,0,1-3.446.537,7.227,7.227,0,0,1-4.612-1.285A5.435,5.435,0,0,1,287.129,72.435Zm0,0" transform="translate(-198.644 -42.825)" fill="#00a3b4" fill-rule="evenodd"/>
      <path id="Trazado_199078" data-name="Trazado 199078" d="M441.737,125.327H438.07v-5.341h3.667v1.035h-2.357v.918h2.189v1.037h-2.189v1.314h2.357Zm6.084-3.656a2.141,2.141,0,0,1-.118.7,1.581,1.581,0,0,1-.341.575,2.068,2.068,0,0,1-.674.476,2.308,2.308,0,0,1-.925.163h-.813v1.741H443.64v-5.341h2.15a3.236,3.236,0,0,1,.815.088,1.858,1.858,0,0,1,.586.263,1.393,1.393,0,0,1,.469.542A1.784,1.784,0,0,1,447.821,121.671Zm-1.359.033a.657.657,0,0,0-.115-.389.636.636,0,0,0-.265-.226,1.158,1.158,0,0,0-.4-.1c-.128-.006-.3-.008-.513-.008h-.224v1.594h.372a2.848,2.848,0,0,0,.545-.043.755.755,0,0,0,.36-.171.677.677,0,0,0,.181-.274A1.186,1.186,0,0,0,446.461,121.7Zm7.142,1.944a1.546,1.546,0,0,1-.635,1.281,2.73,2.73,0,0,1-1.721.494,4.558,4.558,0,0,1-1.1-.117,5.384,5.384,0,0,1-.876-.294v-1.279h.143a3.01,3.01,0,0,0,.9.524,2.834,2.834,0,0,0,.964.182,2.979,2.979,0,0,0,.313-.022,1.2,1.2,0,0,0,.316-.071.811.811,0,0,0,.246-.163.43.43,0,0,0-.044-.591.955.955,0,0,0-.413-.195c-.191-.048-.392-.093-.605-.135a4.427,4.427,0,0,1-.6-.159,1.87,1.87,0,0,1-.919-.593,1.512,1.512,0,0,1-.281-.931,1.455,1.455,0,0,1,.635-1.217,2.659,2.659,0,0,1,1.631-.471,4.883,4.883,0,0,1,.988.1,4.5,4.5,0,0,1,.845.257v1.228h-.14a2.654,2.654,0,0,0-.748-.429,2.5,2.5,0,0,0-.906-.173,2.247,2.247,0,0,0-.324.024,1.223,1.223,0,0,0-.312.087.6.6,0,0,0-.227.163.366.366,0,0,0-.1.249.378.378,0,0,0,.154.324,1.643,1.643,0,0,0,.576.206l.537.118a5.13,5.13,0,0,1,.552.159,1.836,1.836,0,0,1,.858.545A1.4,1.4,0,0,1,453.6,123.649Zm0,0" transform="translate(-303.384 -82.828)" fill="#fff" fill-rule="evenodd"/>
      <path id="Trazado_199079" data-name="Trazado 199079" d="M274.023,78.031h3.082V63.723h-3.082Zm0,0" transform="translate(-189.55 -43.852)" fill="#0071b3" fill-rule="evenodd"/>
      <path id="Trazado_199080" data-name="Trazado 199080" d="M274.023,49.525h3.082V46.512h-3.082Zm0,0" transform="translate(-189.55 -31.909)" fill="#0071b3" fill-rule="evenodd"/>
      <path id="Trazado_199081" data-name="Trazado 199081" d="M123.378,46.738v2.669h-10.3v5.354h9.091V57.43h-9.091v8.816H110V49.2a2.469,2.469,0,0,1,2.462-2.462Zm0,0" transform="translate(-75.733 -32.066)" fill="#0071b3" fill-rule="evenodd"/>
      <path id="Trazado_199082" data-name="Trazado 199082" d="M381.266,62.943h3.081v1.988a4.588,4.588,0,0,1,4.563-2.531s4.011-.086,4.649,3a11.342,11.342,0,0,1,.224,2.367v9.349H390.7V67.764a2.593,2.593,0,0,0-2.514-2.867s-3.082-.275-3.839,3.357v8.859h-3.081Zm0,0" transform="translate(-263.966 -42.934)" fill="#00a3b4" fill-rule="evenodd"/>
      <path id="Trazado_199083" data-name="Trazado 199083" d="M221.12,67.507h0v9.607h-3.081V67.766h0s0-.014,0-.038v-.194a2.512,2.512,0,0,0-2.516-2.635,2.415,2.415,0,0,0-2.672,1.44,4.4,4.4,0,0,0-.208.96c.053,3.513.039,6.549.039,9.816h-3.048V66.672c0-1.19-1.648-1.73-2.616-1.773,0,0-2.394-.275-3.152,3.357v8.859h-3.081V62.945h3.081v1.988c.292.194.851-2.222,3.874-2.531,0,0,3.6-.077,4.52,2.532h.112c.292.194.851-2.222,3.874-2.531,0,0,4.011-.086,4.649,3A11.1,11.1,0,0,1,221.12,67.507Zm0,0" transform="translate(-138.732 -42.935)" fill="#0071b3" fill-rule="evenodd"/>
      <g id="Grupo_147205" data-name="Grupo 147205" transform="translate(145.684 19.343)" clip-path="url(#clip-path-2)">
        <path id="Trazado_199084" data-name="Trazado 199084" d="M474.637,63.039h3.082v2.109s.775-2.927,5.079-2.583V65.63s-2.789-.705-3.823.982c0,0-.6.413-1.257,3.271v7.326h-3.082Zm0,0" transform="translate(-474.442 -62.373)" fill="#00a3b4" fill-rule="evenodd"/>
      </g>
      <path id="Trazado_199086" data-name="Trazado 199086" d="M155.362,66.842a3.122,3.122,0,0,1,3.151-2.54s3.134-.1,3.048,2.54c0,0-.483,1.575-2.789,1.489,0,0-4.511.1-5.665,1.533a3.311,3.311,0,0,0-1.24,2.91s-.206,4.477,4.735,4.184c0,0,3.082.035,4.874-1.705.452-.151.146,2.96,4.442,1.447V74.564a2.4,2.4,0,0,1-1.4-.051s-.258-.172-.224-.792l.086-7.834a3.42,3.42,0,0,0-1.722-2.841c-3.127-2.234-10.131-1.254-10.261,3.8Zm-.477,5.425c.127-.643.682-1.779,3-2a10.28,10.28,0,0,0,3.306-.619s.379,3.513-1.033,4.374a3.136,3.136,0,0,1-1.71.563C156.951,74.722,154.494,74.259,154.885,72.267Zm0,0" transform="translate(-104.78 -42.598)" fill="#0071b3" fill-rule="evenodd"/>
      <path id="Trazado_199087" data-name="Trazado 199087" d="M336.261,66.842a3.122,3.122,0,0,1,3.151-2.54s3.134-.1,3.048,2.54c0,0-.483,1.575-2.789,1.489,0,0-4.511.1-5.665,1.533a3.311,3.311,0,0,0-1.24,2.91s-.206,4.477,4.735,4.184c0,0,3.082.035,4.874-1.705.452-.151.146,2.96,4.442,1.447V74.564a2.4,2.4,0,0,1-1.4-.051s-.258-.172-.224-.792l.086-7.834a3.42,3.42,0,0,0-1.722-2.841c-3.127-2.234-10.131-1.254-10.261,3.8Zm-.477,5.425c.127-.643.682-1.779,3-2a10.279,10.279,0,0,0,3.306-.619s.379,3.513-1.033,4.374a3.136,3.136,0,0,1-1.71.563C337.85,74.722,335.393,74.259,335.784,72.267Zm0,0" transform="translate(-230.307 -42.598)" fill="#00a3b4" fill-rule="evenodd"/>
      <path id="Trazado_199088" data-name="Trazado 199088" d="M429.412,66.842a3.122,3.122,0,0,1,3.151-2.54s3.134-.1,3.048,2.54c0,0-.482,1.575-2.789,1.489,0,0-4.511.1-5.665,1.533a3.309,3.309,0,0,0-1.239,2.91s-.207,4.477,4.735,4.184c0,0,3.081.035,4.872-1.705.453-.151.146,2.96,4.442,1.447V74.564a2.4,2.4,0,0,1-1.394-.051s-.258-.172-.225-.792l.086-7.834a3.42,3.42,0,0,0-1.722-2.841c-3.127-2.234-10.13-1.254-10.261,3.8Zm-.476,5.425c.126-.643.68-1.779,3-2a10.269,10.269,0,0,0,3.3-.619s.379,3.513-1.033,4.374a3.136,3.136,0,0,1-1.71.563C431,74.722,428.544,74.259,428.936,72.267Zm0,0" transform="translate(-294.946 -42.598)" fill="#00a3b4" fill-rule="evenodd"/>
    </g>
  </g>
</svg>
