<svg xmlns="http://www.w3.org/2000/svg" width="85" height="85" viewBox="0 0 85 85">
  <g id="Grupo_147322" data-name="Grupo 147322" transform="translate(-495 -12680)">
    <g id="registro" transform="translate(493.03 12691.54)">
      <g id="Grupo_147238" data-name="Grupo 147238" transform="translate(16.63 0.907)">
        <path id="Trazado_199166" data-name="Trazado 199166" d="M64.291,98.118H27.939a2.133,2.133,0,0,1-2.133-2.133V44.342a2.133,2.133,0,0,1,2.133-2.133H64.291a2.133,2.133,0,0,1,2.133,2.133V95.985A2.133,2.133,0,0,1,64.291,98.118Z" transform="translate(-25.806 -38.011)" fill="#d0eae2"/>
        <g id="Grupo_147237" data-name="Grupo 147237" transform="translate(48.918 17.995)">
          <path id="Trazado_199167" data-name="Trazado 199167" d="M0,0H21.21V7.116H0Z" transform="translate(7.116 5.676) rotate(90)" fill="#d83131"/>
          <path id="Trazado_199168" data-name="Trazado 199168" d="M430.29,157.435v4.538h7.116v-4.538a1.139,1.139,0,0,0-1.139-1.139h-4.839A1.139,1.139,0,0,0,430.29,157.435Z" transform="translate(-430.29 -156.296)" fill="#f47c7c"/>
          <path id="Trazado_199169" data-name="Trazado 199169" d="M437.406,378.614H430.29l2.976,5.963a.61.61,0,0,0,1.164,0Z" transform="translate(-430.29 -351.727)" fill="#f9c6c6"/>
          <path id="Trazado_199170" data-name="Trazado 199170" d="M0,0H21.21V7.116H0Z" transform="translate(7.116 5.676) rotate(90)" fill="#ffa400"/>
          <path id="Trazado_199171" data-name="Trazado 199171" d="M430.29,157.435v4.538h7.116v-4.538a1.139,1.139,0,0,0-1.139-1.139h-4.839A1.139,1.139,0,0,0,430.29,157.435Z" transform="translate(-430.29 -156.296)" fill="#f47c7c"/>
          <path id="Trazado_199172" data-name="Trazado 199172" d="M437.406,378.614H430.29l2.976,5.963a.61.61,0,0,0,1.164,0Z" transform="translate(-430.29 -351.727)" fill="#f9c6c6"/>
          <path id="Trazado_199173" data-name="Trazado 199173" d="M460.786,203.233h3.428v21.21h-3.428Z" transform="translate(-457.098 -197.557)" fill="#ffe8be"/>
          <path id="Trazado_199174" data-name="Trazado 199174" d="M454.8,156.3h-3.428a1.139,1.139,0,0,1,1.139,1.139v4.538h3.428v-4.538A1.139,1.139,0,0,0,454.8,156.3Z" transform="translate(-448.822 -156.296)" fill="#ee6161"/>
          <path id="Trazado_199175" data-name="Trazado 199175" d="M447.383,378.614l-1.844,3.695,1.132,2.268a.61.61,0,0,0,1.164,0l2.976-5.963Z" transform="translate(-443.695 -351.727)" fill="#f9b1b1"/>
        </g>
        <path id="Trazado_199176" data-name="Trazado 199176" d="M98.837,7.5H62.485a2.133,2.133,0,0,0-2.133,2.133V11.7H94.64a2.133,2.133,0,0,1,2.133,2.133V63.409h2.065a2.133,2.133,0,0,0,2.133-2.133V9.633A2.133,2.133,0,0,0,98.837,7.5Z" transform="translate(-56.174 -7.5)" fill="#ffa400"/>
        <path id="Trazado_199177" data-name="Trazado 199177" d="M71.684,413.859h-5a.968.968,0,0,1-.968-.968v-5a.968.968,0,0,1,.968-.968h5a.968.968,0,0,1,.968.968v5A.967.967,0,0,1,71.684,413.859Z" transform="translate(-60.891 -358.619)" fill="#d0eae2"/>
        <path id="Trazado_199178" data-name="Trazado 199178" d="M83.007,100.95H66.927a1.209,1.209,0,0,1-1.209-1.209V83.66a1.209,1.209,0,0,1,1.209-1.209h16.08a1.209,1.209,0,0,1,1.209,1.209V99.74A1.209,1.209,0,0,1,83.007,100.95Z" transform="translate(-60.891 -73.387)" fill="#ffa400"/>
        <circle id="Elipse_1369" data-name="Elipse 1369" cx="3.237" cy="3.237" r="3.237" transform="translate(10.839 12.332)" fill="#ffcebf"/>
        <path id="Trazado_199179" data-name="Trazado 199179" d="M113.006,168.494h7.061v-1.959a3.53,3.53,0,0,0-7.061,0Z" transform="translate(-102.46 -144.198)" fill="#fff"/>
        <path id="Trazado_199180" data-name="Trazado 199180" d="M316.528,42.209h-3.783a2.133,2.133,0,0,1,2.133,2.133V95.985a2.133,2.133,0,0,1-2.133,2.133h3.783a2.133,2.133,0,0,0,2.133-2.133V44.342a2.133,2.133,0,0,0-2.133-2.133Z" transform="translate(-278.043 -38.011)" fill="#92bfb1"/>
      </g>
      <g id="Grupo_147239" data-name="Grupo 147239" transform="translate(15.368 0)">
        <path id="Trazado_199181" data-name="Trazado 199181" d="M59.294,0H22.941A3.044,3.044,0,0,0,19.9,3.04V4.2H18.408a3.044,3.044,0,0,0-3.04,3.04V46.1a.907.907,0,1,0,1.814,0V7.238a1.228,1.228,0,0,1,1.226-1.226H54.76a1.228,1.228,0,0,1,1.226,1.226V58.88a1.228,1.228,0,0,1-1.226,1.226H18.408a1.228,1.228,0,0,1-1.226-1.226V50.33a.907.907,0,0,0-1.814,0v8.55a3.044,3.044,0,0,0,3.04,3.04H54.76a3.044,3.044,0,0,0,3.04-3.04V57.723h1.493a3.044,3.044,0,0,0,3.04-3.04V14.572a.907.907,0,1,0-1.814,0V54.683a1.228,1.228,0,0,1-1.226,1.226H58.136V7.238A3.044,3.044,0,0,0,55.1,4.2H21.715V3.04a1.228,1.228,0,0,1,1.226-1.226H59.294A1.228,1.228,0,0,1,60.52,3.04v7.3a.907.907,0,0,0,1.814,0V3.04A3.044,3.044,0,0,0,59.294,0Z" transform="translate(-15.368 0)"/>
        <path id="Trazado_199182" data-name="Trazado 199182" d="M429.674,148.8h-4.839a2.048,2.048,0,0,0-2.046,2.046V176.59c0,.018,0,.035,0,.052s0,.019,0,.028a.9.9,0,0,0,.044.209l.008.021c.01.028.022.055.034.082l.006.013,2.976,5.963a1.51,1.51,0,0,0,2.787,0l2.976-5.963c0-.005,0-.011.007-.016.012-.025.022-.05.032-.075l.01-.026a.9.9,0,0,0,.026-.1l0-.007a.918.918,0,0,0,.015-.1c0-.012,0-.024,0-.036s0-.031,0-.047V150.842a2.048,2.048,0,0,0-2.046-2.046Zm-2.42,32.892-2.092-4.191h4.183Zm2.651-6h-5.3v-19.4h5.3Zm0-21.21h-5.3v-3.631a.232.232,0,0,1,.232-.232h4.839a.232.232,0,0,1,.232.232v3.631Z" transform="translate(-373.516 -130.801)"/>
        <path id="Trazado_199183" data-name="Trazado 199183" d="M58.218,394.428a1.877,1.877,0,0,0,1.875,1.875h5a1.877,1.877,0,0,0,1.875-1.875v-4.777l2.069-2.2a.907.907,0,0,0-1.322-1.242l-1.571,1.671a1.863,1.863,0,0,0-1.051-.324h-5a1.877,1.877,0,0,0-1.875,1.875Zm6.934-2.847v2.847a.061.061,0,0,1-.06.06H62.4a.9.9,0,0,0,.1-.091Zm-5.12-2.152a.061.061,0,0,1,.06-.06h4.649l-2.771,2.948-1.626-2.477a.9.9,0,0,0-.313-.292v-.118Zm0,3.239c1.149,1.75,1.093,1.7,1.252,1.82H60.093a.061.061,0,0,1-.06-.06Z" transform="translate(-53.036 -339.249)"/>
        <path id="Trazado_199184" data-name="Trazado 199184" d="M168.969,428.091H149.7a.907.907,0,1,0,0,1.814h19.27a.907.907,0,1,0,0-1.814Z" transform="translate(-132.656 -376.318)"/>
        <path id="Trazado_199185" data-name="Trazado 199185" d="M60.334,95.264h16.08a2.119,2.119,0,0,0,2.116-2.116V77.067a2.119,2.119,0,0,0-2.116-2.116H60.334a2.119,2.119,0,0,0-2.116,2.116v16.08A2.119,2.119,0,0,0,60.334,95.264Zm-.3-18.2a.3.3,0,0,1,.3-.3h16.08a.3.3,0,0,1,.3.3v16.08a.3.3,0,0,1-.3.3H60.334a.3.3,0,0,1-.3-.3Z" transform="translate(-53.036 -65.887)"/>
        <path id="Trazado_199186" data-name="Trazado 199186" d="M106.416,115.745a.908.908,0,0,0,.908-.906V112.88a2.633,2.633,0,0,1,2.612-2.624h.022a2.633,2.633,0,0,1,2.612,2.624v1.052h-1.922a.907.907,0,1,0,0,1.814s0,0,0,0h2.826a.906.906,0,0,0,.907-.906V112.88a4.408,4.408,0,0,0-1.3-3.138,4.486,4.486,0,0,0-.5-.433,4.144,4.144,0,1,0-5.271,0,4.5,4.5,0,0,0-.5.434,4.407,4.407,0,0,0-1.3,3.138v1.959a.9.9,0,0,0,.906.906Zm3.531-11.964a2.33,2.33,0,0,1,.008,4.66h-.016a2.33,2.33,0,0,1,.008-4.66Z" transform="translate(-94.608 -89.635)"/>
        <path id="Trazado_199187" data-name="Trazado 199187" d="M242.744,113.381h8.017a.907.907,0,0,0,0-1.814h-8.017a.907.907,0,0,0,0,1.814Z" transform="translate(-214.448 -98.074)"/>
        <path id="Trazado_199188" data-name="Trazado 199188" d="M242.744,155.9h8.017a.907.907,0,1,0,0-1.814h-8.017a.907.907,0,0,0,0,1.814Z" transform="translate(-214.448 -135.453)"/>
        <path id="Trazado_199189" data-name="Trazado 199189" d="M242.744,201.255h8.017a.907.907,0,1,0,0-1.814h-8.017a.907.907,0,0,0,0,1.814Z" transform="translate(-214.448 -175.321)"/>
        <path id="Trazado_199190" data-name="Trazado 199190" d="M59.125,273.679H89.348a.907.907,0,0,0,0-1.814H59.125a.907.907,0,0,0,0,1.814Z" transform="translate(-53.036 -238.986)"/>
        <path id="Trazado_199191" data-name="Trazado 199191" d="M59.125,316.2H89.348a.907.907,0,1,0,0-1.814H59.125a.907.907,0,1,0,0,1.814Z" transform="translate(-53.036 -276.364)"/>
        <path id="Trazado_199192" data-name="Trazado 199192" d="M59.125,358.719H89.348a.907.907,0,1,0,0-1.814H59.125a.907.907,0,1,0,0,1.814Z" transform="translate(-53.036 -313.741)"/>
      </g>
    </g>
    <rect id="Rectángulo_45375" data-name="Rectángulo 45375" width="85" height="85" transform="translate(495 12680)" fill="none"/>
  </g>
</svg>
