<svg id="Grupo_147315" data-name="Grupo 147315" xmlns="http://www.w3.org/2000/svg" xmlns:xlink="http://www.w3.org/1999/xlink" width="505" height="304.279" viewBox="0 0 505 304.279">
  <defs>
    <clipPath id="clip-path">
      <rect id="Rectángulo_45355" data-name="Rectángulo 45355" width="505" height="304.279" fill="none"/>
    </clipPath>
    <clipPath id="clip-path-2">
      <rect id="Rectángulo_45354" data-name="Rectángulo 45354" width="505" height="304.28" fill="none"/>
    </clipPath>
    <clipPath id="clip-path-3">
      <rect id="Rectángulo_45343" data-name="Rectángulo 45343" width="43.66" height="14.323" fill="none"/>
    </clipPath>
    <clipPath id="clip-path-4">
      <rect id="Rectángulo_45344" data-name="Rectángulo 45344" width="15.46" height="58.444" fill="none"/>
    </clipPath>
    <clipPath id="clip-path-5">
      <rect id="Rectángulo_45345" data-name="Rectángulo 45345" width="15.352" height="50.174" fill="none"/>
    </clipPath>
    <clipPath id="clip-path-6">
      <rect id="Rectángulo_45346" data-name="Rectángulo 45346" width="10.945" height="11.394" fill="none"/>
    </clipPath>
    <clipPath id="clip-path-7">
      <rect id="Rectángulo_45351" data-name="Rectángulo 45351" width="2.021" height="5.091" fill="none"/>
    </clipPath>
    <clipPath id="clip-path-8">
      <rect id="Rectángulo_45352" data-name="Rectángulo 45352" width="5.038" height="5.039" fill="none"/>
    </clipPath>
    <clipPath id="clip-path-9">
      <rect id="Rectángulo_45353" data-name="Rectángulo 45353" width="4.374" height="11.016" fill="none"/>
    </clipPath>
  </defs>
  <g id="Enmascarar_grupo_147314" data-name="Enmascarar grupo 147314" clip-path="url(#clip-path)">
    <g id="Grupo_147313" data-name="Grupo 147313" transform="translate(0 -0.001)">
      <g id="Grupo_147312" data-name="Grupo 147312" clip-path="url(#clip-path-2)">
        <path id="Trazado_199311" data-name="Trazado 199311" d="M593.922,579.915c24.465,43.779-10.936,129.674-235.452,69.979-112.569-29.93-196.653,37.494-213.98-9.568-40.36-109.624,124.466-236.433,216.123-147.9C444.392,573.347,549.4,500.236,593.922,579.915Z" transform="translate(-111.243 -372.311)" fill="none" stroke="#e4e4e4" stroke-miterlimit="10" stroke-width="4" stroke-dasharray="32.088 32.088"/>
        <path id="Trazado_199312" data-name="Trazado 199312" d="M578.675,782.963H120.9C135.222,677.115,232.227,595.24,349.785,595.24s214.564,81.874,228.89,187.723" transform="translate(-97.285 -478.994)" fill="#ebfdf8"/>
        <path id="Trazado_199313" data-name="Trazado 199313" d="M1390.116,414.374H1217.93a14.515,14.515,0,0,1-14.515-14.515V152.872a14.515,14.515,0,0,1,14.515-14.515h172.186a14.515,14.515,0,0,1,14.515,14.515V399.859a14.515,14.515,0,0,1-14.515,14.515" transform="translate(-968.398 -111.336)" fill="#16697a"/>
        <rect id="Rectángulo_45322" data-name="Rectángulo 45322" width="165.616" height="240.576" transform="translate(253.203 38.144)" fill="#f6f5f5"/>
        <path id="Trazado_199314" data-name="Trazado 199314" d="M1462.142,195.323c.052,93.812,3.08,206.954-7.457,232-46.415,4.522-100.762,5.974-158.16,6.244l21.818-237.523Z" transform="translate(-1043.323 -157.177)" fill="#e4e4e4"/>
        <path id="Trazado_199315" data-name="Trazado 199315" d="M1409.489,419.791c-72.344,11.578-120.7,12.189-159.911,9.277,5.082-54.1,7.119-143.965,9.168-233.689l87.176.194,78.9,5.208c1.15,93.124,1.275,179.145-15.332,219.011" transform="translate(-1005.545 -157.222)" fill="#fff"/>
        <rect id="Rectángulo_45323" data-name="Rectángulo 45323" width="13.274" height="87.148" transform="translate(290.945 73.602) rotate(-88.652)" fill="#ffa400"/>
        <rect id="Rectángulo_45324" data-name="Rectángulo 45324" width="6.076" height="78.607" transform="translate(316.449 99.081) rotate(-88.652)" fill="#92bfb1"/>
        <rect id="Rectángulo_45325" data-name="Rectángulo 45325" width="6.076" height="53.43" transform="translate(316.137 112.325) rotate(-88.652)" fill="#d0eae2"/>
        <rect id="Rectángulo_45326" data-name="Rectángulo 45326" width="18.609" height="18.609" transform="translate(272.788 110.947) rotate(-88.652)" fill="#fff"/>
        <rect id="Rectángulo_45327" data-name="Rectángulo 45327" width="18.609" height="18.609" transform="translate(272.788 110.947) rotate(-88.652)" fill="none" stroke="#92bfb1" stroke-miterlimit="10" stroke-width="3"/>
        <path id="Trazado_199316" data-name="Trazado 199316" d="M1414.434,452.541c.574,2.2,1.635,11.41,6.248,8.834,1.064-.594,1.964-2.164,2.76-3.068l4.291-4.872,8.582-9.744c.733-.832-2.5-2.92-3.424-1.875l-7.628,8.661-3.814,4.331c-.882,1-2.923,4.233-4.232,4.519l2.136.69c.5.413-.432-2.513-.452-2.593l-1.064-4.076c-.293-1.122-3.835-2.472-3.4-.808" transform="translate(-1138.177 -355.302)" fill="#ffa400"/>
        <rect id="Rectángulo_45328" data-name="Rectángulo 45328" width="6.076" height="64.731" transform="translate(315.653 132.904) rotate(-88.652)" fill="#92bfb1"/>
        <rect id="Rectángulo_45329" data-name="Rectángulo 45329" width="6.076" height="78.607" transform="translate(315.341 146.148) rotate(-88.652)" fill="#d0eae2"/>
        <rect id="Rectángulo_45330" data-name="Rectángulo 45330" width="18.609" height="18.609" transform="translate(271.992 144.77) rotate(-88.652)" fill="#fff"/>
        <rect id="Rectángulo_45331" data-name="Rectángulo 45331" width="18.609" height="18.609" transform="translate(271.992 144.77) rotate(-88.652)" fill="none" stroke="#92bfb1" stroke-miterlimit="10" stroke-width="3"/>
        <path id="Trazado_199317" data-name="Trazado 199317" d="M1410.3,628.419c.574,2.2,1.635,11.41,6.248,8.834,1.064-.594,1.964-2.164,2.76-3.068l4.291-4.872,8.582-9.744c.733-.832-2.5-2.92-3.425-1.875l-7.628,8.661-3.815,4.331c-.883,1-2.923,4.233-4.232,4.52l2.136.69c.5.413-.432-2.513-.453-2.593l-1.064-4.076c-.293-1.122-3.835-2.472-3.4-.808" transform="translate(-1134.846 -496.832)" fill="#ffa400"/>
        <rect id="Rectángulo_45332" data-name="Rectángulo 45332" width="6.076" height="78.607" transform="translate(314.857 166.727) rotate(-88.652)" fill="#92bfb1"/>
        <rect id="Rectángulo_45333" data-name="Rectángulo 45333" width="6.076" height="35.154" transform="matrix(0.024, -1, 1, 0.024, 314.545, 179.971)" fill="#d0eae2"/>
        <rect id="Rectángulo_45334" data-name="Rectángulo 45334" width="18.609" height="18.609" transform="translate(271.195 178.593) rotate(-88.652)" fill="#fff"/>
        <rect id="Rectángulo_45335" data-name="Rectángulo 45335" width="18.609" height="18.609" transform="translate(271.195 178.593) rotate(-88.652)" fill="none" stroke="#92bfb1" stroke-miterlimit="10" stroke-width="3"/>
        <path id="Trazado_199318" data-name="Trazado 199318" d="M1407.511,802.84c.574,2.2,1.635,11.41,6.248,8.834,1.064-.594,1.965-2.164,2.76-3.067l4.291-4.872,8.582-9.744c.733-.832-2.5-2.92-3.425-1.875l-7.628,8.661-3.814,4.331c-.882,1-2.922,4.233-4.232,4.519l2.135.69c.5.413-.431-2.513-.452-2.593l-1.065-4.076c-.293-1.122-3.835-2.471-3.4-.809" transform="translate(-1132.606 -637.191)" fill="#ffa400"/>
        <rect id="Rectángulo_45336" data-name="Rectángulo 45336" width="6.076" height="78.607" transform="translate(314.061 200.549) rotate(-88.652)" fill="#92bfb1"/>
        <rect id="Rectángulo_45337" data-name="Rectángulo 45337" width="6.076" height="62.097" transform="translate(313.749 213.794) rotate(-88.652)" fill="#d0eae2"/>
        <rect id="Rectángulo_45338" data-name="Rectángulo 45338" width="18.609" height="18.609" transform="translate(270.399 212.416) rotate(-88.652)" fill="#fff"/>
        <rect id="Rectángulo_45339" data-name="Rectángulo 45339" width="18.609" height="18.609" transform="translate(270.399 212.416) rotate(-88.652)" fill="none" stroke="#92bfb1" stroke-miterlimit="10" stroke-width="3"/>
        <path id="Trazado_199319" data-name="Trazado 199319" d="M1403.463,974.9c.574,2.2,1.635,11.41,6.248,8.834,1.064-.594,1.964-2.164,2.76-3.068l4.291-4.872,8.582-9.743c.733-.832-2.5-2.92-3.424-1.875l-7.629,8.661-3.814,4.331c-.882,1-2.923,4.233-4.232,4.519l2.135.69c.5.413-.432-2.513-.452-2.593q-.532-2.038-1.064-4.076c-.293-1.122-3.835-2.472-3.4-.808" transform="translate(-1129.348 -775.645)" fill="#ffa400"/>
        <rect id="Rectángulo_45340" data-name="Rectángulo 45340" width="6.076" height="31.16" transform="matrix(0.024, -1, 1, 0.024, 313.271, 234.116)" fill="#92bfb1"/>
        <path id="Trazado_199320" data-name="Trazado 199320" d="M1681.245,1237.362l-78.585-1.85-.143,6.074c30.4.713,69.116,2.138,77.015.926a6.819,6.819,0,0,0,1.713-5.15" transform="translate(-1289.558 -994.225)" fill="#d0eae2"/>
        <rect id="Rectángulo_45341" data-name="Rectángulo 45341" width="18.609" height="18.609" transform="translate(269.87 245.989) rotate(-88.652)" fill="#fff"/>
        <rect id="Rectángulo_45342" data-name="Rectángulo 45342" width="18.609" height="18.609" transform="translate(269.87 245.989) rotate(-88.652)" fill="none" stroke="#92bfb1" stroke-miterlimit="10" stroke-width="3"/>
        <path id="Trazado_199321" data-name="Trazado 199321" d="M1399.448,1145.444c.574,2.2,1.635,11.41,6.248,8.834,1.064-.594,1.965-2.164,2.76-3.068l4.291-4.872,8.582-9.744c.733-.833-2.5-2.921-3.425-1.875l-7.628,8.661-3.814,4.331c-.882,1-2.922,4.233-4.232,4.52l2.135.69c.5.412-.432-2.513-.452-2.593l-1.064-4.076c-.293-1.122-3.835-2.472-3.4-.808" transform="translate(-1126.117 -912.886)" fill="#ffa400"/>
        <path id="Trazado_199322" data-name="Trazado 199322" d="M1602.177,28.688V47.257h-74.6V28.688a10.718,10.718,0,0,1,3.14-7.585,8.813,8.813,0,0,1,.758-.68,10.645,10.645,0,0,1,6.827-2.461,12.632,12.632,0,0,0,5.484-1.25,13.161,13.161,0,0,0,2.063-1.242,12.625,12.625,0,0,0,4.577-6.492A12.677,12.677,0,0,1,1562.548,0h4.656a12.676,12.676,0,0,1,12.124,8.983,12.625,12.625,0,0,0,4.578,6.492,13.123,13.123,0,0,0,2.062,1.242,12.635,12.635,0,0,0,5.484,1.25,10.739,10.739,0,0,1,10.725,10.725" transform="translate(-1229.252 0.004)" fill="#ffa400"/>
        <path id="Trazado_199323" data-name="Trazado 199323" d="M1583.285,195.316v13.8h-86.709v-13.8h6.054v9.116h74.6v-9.116Z" transform="translate(-1204.306 -157.171)" fill="#e4e4e4"/>
        <path id="Trazado_199324" data-name="Trazado 199324" d="M1697.933,31.075a6.626,6.626,0,0,1-13.234,0,6.626,6.626,0,0,1,13.234,0" transform="translate(-1355.69 -19.945)" fill="#fff"/>
        <path id="Trazado_199325" data-name="Trazado 199325" d="M960.925,405.995c-2.646-.5-5.119-4.922-5.979-6.617a2.107,2.107,0,0,1-.19-1.345l1.053-5.581s2.43.413,2.242,3.649a2.38,2.38,0,0,0,.169.985l.93,2.434,2.75-2.129-1.508-4.258a7.319,7.319,0,0,1-3.061.222c-2.14-.683.665-2.351,1.552-2.528s2.839-.887,3.726.621,1.419,2.4,1.419,2.4.976-3.371.311-10.912c-.03-.339.82-.332,1.059-.089.714.727,1.852,2.94,1.913,9.67,0,0,.119-7.843,1.464-8.649,1.109-.665,1.669,3.173.888,9.683,0,0,1.448-5.637,2.483-5.647,1.748-.017.023,15.053-4.371,19.545Z" transform="translate(-768.27 -307.933)" fill="#f9b384"/>
        <path id="Trazado_199326" data-name="Trazado 199326" d="M976.64,490.316q-.117,1.125-.258,2.179v.008a63.324,63.324,0,0,1-1.156,6.648c-.023.094-.039.18-.062.266-1.336,5.476-1.578,8.155-6.14,7.437l-4.695-5.343-.047-.055-.344-.391.953-2.812.125-.367.7-2.047.086-.266,1.2-3.523.484-1.429Z" transform="translate(-775.689 -394.561)" fill="#f9b384"/>
        <path id="Trazado_199327" data-name="Trazado 199327" d="M522.72,1486.578l-1.2,3.735c-8.194,2.692-12.974,5.776-13.28,9.374h23.7l1.9-12.505a18.381,18.381,0,0,1-11.12-.6" transform="translate(-408.989 -1196.26)" fill="#1f3c88"/>
        <path id="Trazado_199328" data-name="Trazado 199328" d="M585.336,1439.036l-2.971,9.285a18.383,18.383,0,0,0,11.12.6l1.225-8.065Z" transform="translate(-468.634 -1158.003)" fill="#f9b384"/>
        <path id="Trazado_199329" data-name="Trazado 199329" d="M759.508,1445.492l.7-9.457-11.132.586-.608,8.718a18.213,18.213,0,0,0,11.045.153" transform="translate(-602.294 -1155.588)" fill="#f9b384"/>
        <path id="Trazado_199330" data-name="Trazado 199330" d="M768.966,1497.35c-.306-3.6-4.492-8.527-13.67-9.7l.281-3.823a18.218,18.218,0,0,1-11.045-.153l-.954,13.676Z" transform="translate(-598.363 -1193.923)" fill="#1f3c88"/>
        <path id="Trazado_199331" data-name="Trazado 199331" d="M703.486,431.252l-13.428.094v-20.31H703.08l.008,1.242.062,6.437.094,10.335Z" transform="translate(-555.295 -330.763)" fill="#f9b384"/>
        <path id="Trazado_199332" data-name="Trazado 199332" d="M710.264,428.833c-2.414,2.539-8.71-.328-11.366-3.125l11.3-3.312Z" transform="translate(-562.409 -339.905)" fill="#e28b6d"/>
        <path id="Trazado_199333" data-name="Trazado 199333" d="M685.5,331.286a29.05,29.05,0,0,1-.352,4.57c-.656,4.093-2.391,7.632-6.39,7.741-9.452.273-12.147-5.132-13.928-9.554s1.109-15.077,1.109-15.077l12.233-1.211,6.718,5.507a50.119,50.119,0,0,1,.609,8.023" transform="translate(-534.526 -255.7)" fill="#f9b384"/>
        <path id="Trazado_199334" data-name="Trazado 199334" d="M640.726,298.315s2.7-.124,3.157-7.085c4.822,1.614,8.346.142,11.137-3.069,2.382,3.146,9.051,4.132,11.3-2.31,1.627-4.654-2.864-11.587-9.406-7.388-6.412-3.239-16.137-3.017-18.935,4.929,0,0-9.729,4.486.572,14.362a11.906,11.906,0,0,0,2.171.562" transform="translate(-510.042 -222.504)" fill="#102048"/>
        <path id="Trazado_199335" data-name="Trazado 199335" d="M757.114,888.336l-7.422,112.234H732.245l4.361-108.908,2.669-1.237Z" transform="translate(-589.243 -714.85)" fill="#0f5969"/>
        <path id="Trazado_199336" data-name="Trazado 199336" d="M576.483,775.368,564.244,902.959h19.009l18.1-105.979,20.571-6.249.911-22.654L577,767.036Z" transform="translate(-454.052 -617.239)" fill="#16697a"/>
        <g id="Grupo_147290" data-name="Grupo 147290" transform="translate(121.299 145.496)" opacity="0.6">
          <g id="Grupo_147289" data-name="Grupo 147289">
            <g id="Grupo_147288" data-name="Grupo 147288" clip-path="url(#clip-path-3)">
              <path id="Trazado_199337" data-name="Trazado 199337" d="M624.978,757.926c10.383,3.727,34.742-.532,39.8-5.724l-3.594-7.188-40.066,5.324Z" transform="translate(-621.118 -745.014)" fill="#102048"/>
            </g>
          </g>
        </g>
        <path id="Trazado_199338" data-name="Trazado 199338" d="M689.611,535.632c-.336.141-.68.289-1.031.422a70.511,70.511,0,0,1-13.014,3.875A59.751,59.751,0,0,1,666.84,541a50.426,50.426,0,0,1-13.7-1.109l5.82-54.26.711-6.617s7.616,9.374,16.014-.976Z" transform="translate(-525.585 -384.679)" fill="#fff"/>
        <g id="Grupo_147293" data-name="Grupo 147293" transform="translate(127.553 97.948)" opacity="0.3">
          <g id="Grupo_147292" data-name="Grupo 147292">
            <g id="Grupo_147291" data-name="Grupo 147291" clip-path="url(#clip-path-4)">
              <path id="Trazado_199339" data-name="Trazado 199339" d="M666.84,559.909a50.416,50.416,0,0,1-13.7-1.109l5.82-54.26,2.078-3c5.132,12.483,10.39,40.125,5.8,58.373" transform="translate(-653.138 -501.537)" fill="#1f3c88"/>
            </g>
          </g>
        </g>
        <path id="Trazado_199340" data-name="Trazado 199340" d="M423.854,472.036c5.786,24.568,8.167,49.849-.358,77.921-6.322,2.405-13.205,2.378-20.571.26l1.823-51.036-42.9,29.489-2.6-16.079c16.491-15.768,45-39.589,64.609-40.556" transform="translate(-289.087 -379.85)" fill="#92bfb1"/>
        <g id="Grupo_147296" data-name="Grupo 147296" transform="translate(147.643 105.076)" opacity="0.3">
          <g id="Grupo_147295" data-name="Grupo 147295">
            <g id="Grupo_147294" data-name="Grupo 147294" clip-path="url(#clip-path-5)">
              <path id="Trazado_199341" data-name="Trazado 199341" d="M771.361,584.336a70.535,70.535,0,0,1-13.014,3.875c-2.586-14.827-3.156-39.183-1.055-50.174Z" transform="translate(-756.01 -538.037)" fill="#1f3c88"/>
            </g>
          </g>
        </g>
        <g id="Grupo_147299" data-name="Grupo 147299" transform="translate(188.593 101.014)" opacity="0.6">
          <g id="Grupo_147298" data-name="Grupo 147298">
            <g id="Grupo_147297" data-name="Grupo 147297" clip-path="url(#clip-path-6)">
              <path id="Trazado_199342" data-name="Trazado 199342" d="M976.642,520.814c-.023.094-.039.18-.062.266-1.336,5.476-1.578,8.155-6.14,7.437l-4.695-5.343-.047-.055.609-3.2.125-.367.7-2.047.086-.266Z" transform="translate(-965.698 -517.237)" fill="#e28b6d"/>
            </g>
          </g>
        </g>
        <path id="Trazado_199343" data-name="Trazado 199343" d="M807.75,488.21s-11.522,24.411-18.357,25c-6.627.568-9.765-5.859-9.765-5.859l4.687,35.676a29.91,29.91,0,0,1-18.49,2.6c-6.195-20.115-8.536-46.124-9-75.09,5.015.312,14.948.741,18.5,3.027,6.38,4.1,14.256,18.748,14.256,18.748l9.179-12.5Z" transform="translate(-609.026 -378.643)" fill="#92bfb1"/>
        <path id="Trazado_199344" data-name="Trazado 199344" d="M298.319,338.983s.7-11.678,1.886-11.127,3.572,10.705,3.572,10.705l-2.549,4.113Z" transform="translate(-240.06 -263.812)" fill="#6f3428"/>
        <path id="Trazado_199345" data-name="Trazado 199345" d="M372.561,1464.7l.345,3.844a12.336,12.336,0,0,1-11.181,13.389l-.988.089a12.335,12.335,0,0,1-13.389-11.182L347,1467Z" transform="translate(-279.236 -1178.657)" fill="#ffa400"/>
        <rect id="Rectángulo_45347" data-name="Rectángulo 45347" width="25.661" height="186.855" transform="matrix(0.996, -0.089, 0.089, 0.996, 51.047, 102.236)" fill="#0c0a3e"/>
        <path id="Trazado_199346" data-name="Trazado 199346" d="M361.916,1346.359l-25.552,2.3-.672-7.5-.469-5.21-1.445-16.014,25.56-2.3,1.437,16.014.469,5.211Z" transform="translate(-268.594 -1060.311)" fill="#102048"/>
        <rect id="Rectángulo_45350" data-name="Rectángulo 45350" width="25.655" height="5.231" transform="matrix(0.996, -0.09, 0.09, 0.996, 66.63, 275.635)" fill="#ffa400"/>
        <path id="Trazado_199347" data-name="Trazado 199347" d="M261.368,403.178l7.1-28.452a6.1,6.1,0,0,0,5.423-.749l13.038,26.9Z" transform="translate(-210.325 -300.941)" fill="#ffa400"/>
        <path id="Trazado_199348" data-name="Trazado 199348" d="M651.046,376.889c-.114-.42-2.022-1-2.442-1.113a2.929,2.929,0,0,0-1.992.019c-2.307,1.042-2,4.345-.8,6.081a5.2,5.2,0,0,0,2.821,2.07c.419.12,4.387.167,4.213-.47l-1.8-6.587" transform="translate(-518.948 -302.256)" fill="#f9b384"/>
        <path id="Trazado_199349" data-name="Trazado 199349" d="M262.035,711.806a3.474,3.474,0,0,0-4.438-2.293c-2.907,1-5.44,2.707-5.832,5.6-.357,2.639.962,11.067,6.857,12.149l-.481-4.33s3.609-.842,4.33-2.406c.505-1.095.539-5.667-.435-8.724" transform="translate(-202.554 -570.797)" fill="#f9b384"/>
        <path id="Trazado_199350" data-name="Trazado 199350" d="M863.1,573.612c.31,1.844.574,3.694.827,5.545s.47,3.706.708,5.559l.606,5.571c.177,1.86.349,3.72.464,5.588l-.3.036c-.319-1.843-.581-3.693-.838-5.544l-.7-5.561c-.2-1.858-.422-3.712-.594-5.573s-.351-3.72-.475-5.586Z" transform="translate(-694.303 -461.589)" fill="#1f3c88"/>
        <path id="Trazado_199351" data-name="Trazado 199351" d="M589.272,572.013c0,2.071-.055,4.14-.116,6.209s-.159,4.135-.236,6.2l-.339,6.2c-.138,2.065-.281,4.13-.481,6.192l-.305-.014c-.005-2.072.048-4.141.1-6.209l.247-6.2c.118-2.066.207-4.133.35-6.2s.279-4.13.47-6.192Z" transform="translate(-473.003 -460.291)" fill="#1f3c88"/>
        <path id="Trazado_199352" data-name="Trazado 199352" d="M716.72,376.5a1.228,1.228,0,0,1-.678,1.553c-.54.121-1.111-.378-1.276-1.115a1.228,1.228,0,0,1,.677-1.553c.539-.121,1.111.379,1.276,1.115" transform="translate(-575.142 -302.056)" fill="#102048"/>
        <path id="Trazado_199353" data-name="Trazado 199353" d="M756.575,370.7c-.032.754-.505,1.347-1.058,1.323s-.974-.654-.942-1.408.506-1.347,1.058-1.323.974.654.942,1.408" transform="translate(-607.211 -297.169)" fill="#102048"/>
        <path id="Trazado_199354" data-name="Trazado 199354" d="M741.363,379.67a17.811,17.811,0,0,1,.4,1.871,1.465,1.465,0,0,0,.378.649,2.471,2.471,0,0,0,.733.36,2.038,2.038,0,0,1,.926.7,1.212,1.212,0,0,1,.095,1.278,2.4,2.4,0,0,1-.763.772c-.268.181-.526.373-.8.542l-.2-.23c.2-.253.431-.482.646-.724a2.287,2.287,0,0,0,.5-.658c.165-.361-.188-.757-.7-.961a2.719,2.719,0,0,1-.952-.541,1.905,1.905,0,0,1-.5-1.033c-.129-.724.019-1.343-.052-1.945Z" transform="translate(-596.341 -305.523)" fill="#e28b6d"/>
        <path id="Trazado_199355" data-name="Trazado 199355" d="M705.87,363.817a2.273,2.273,0,0,1,.8-1.218,2.426,2.426,0,0,1,1.416-.53,2.62,2.62,0,0,1,2.463,1.384l-.239.19a3.355,3.355,0,0,0-2.186-.8,2.553,2.553,0,0,0-1.974,1.1Z" transform="translate(-568.019 -291.356)" fill="#102048"/>
        <path id="Trazado_199356" data-name="Trazado 199356" d="M747.154,359.7a2.351,2.351,0,0,1,.613-.987,2.042,2.042,0,0,1,1.109-.549,1.945,1.945,0,0,1,2.071,1.033l-.244.183a2.476,2.476,0,0,0-1.712-.448,2.2,2.2,0,0,0-.816.3,5.409,5.409,0,0,0-.758.623Z" transform="translate(-601.241 -288.199)" fill="#102048"/>
        <path id="Trazado_199357" data-name="Trazado 199357" d="M725.027,418.409c1.364,2.135,3.181,2.367,4.585.12Z" transform="translate(-583.435 -336.696)" fill="#fff"/>
        <g id="Grupo_147305" data-name="Grupo 147305" transform="translate(148.988 75.065)" opacity="0.4">
          <g id="Grupo_147304" data-name="Grupo 147304">
            <g id="Grupo_147303" data-name="Grupo 147303" clip-path="url(#clip-path-7)">
              <path id="Trazado_199358" data-name="Trazado 199358" d="M764.919,384.369a36.023,36.023,0,0,1-.388,5.091,2.353,2.353,0,0,1-1.633-2.242,3.006,3.006,0,0,1,2.021-2.849" transform="translate(-762.898 -384.369)" fill="#fc8879"/>
            </g>
          </g>
        </g>
        <g id="Grupo_147308" data-name="Grupo 147308" transform="translate(135.743 76.79)" opacity="0.4">
          <g id="Grupo_147307" data-name="Grupo 147307">
            <g id="Grupo_147306" data-name="Grupo 147306" clip-path="url(#clip-path-8)">
              <path id="Trazado_199359" data-name="Trazado 199359" d="M700.116,395.722A2.519,2.519,0,1,1,697.6,393.2a2.519,2.519,0,0,1,2.519,2.519" transform="translate(-695.078 -393.202)" fill="#fc8879"/>
            </g>
          </g>
        </g>
        <path id="Trazado_199360" data-name="Trazado 199360" d="M655.858,387.514a12.563,12.563,0,0,0-1.409-.927,1.227,1.227,0,0,0-.621-.161,1.391,1.391,0,0,0-.65.3l-.256-.166a1.215,1.215,0,0,1,.742-.8,1.451,1.451,0,0,1,1.131.131,2.925,2.925,0,0,1,1.307,1.439Z" transform="translate(-525.412 -310.371)" fill="#e28b6d"/>
        <g id="Grupo_147311" data-name="Grupo 147311" transform="translate(55.543 149.733)" opacity="0.6">
          <g id="Grupo_147310" data-name="Grupo 147310">
            <g id="Grupo_147309" data-name="Grupo 147309" clip-path="url(#clip-path-9)">
              <path id="Trazado_199361" data-name="Trazado 199361" d="M288.782,766.709l-3.626,11.016-.749-8.609a7.514,7.514,0,0,0,4.374-2.407" transform="translate(-284.408 -766.709)" fill="#6f3428"/>
            </g>
          </g>
        </g>
        <line id="Línea_148" data-name="Línea 148" x2="505" transform="translate(0 303.498)" fill="none" stroke="#16697a" stroke-miterlimit="10" stroke-width="8"/>
      </g>
    </g>
  </g>
</svg>
