<svg xmlns="http://www.w3.org/2000/svg" width="160.167" height="158.353" viewBox="0 0 160.167 158.353">
  <g id="reclutamiento" transform="translate(-0.586 -1.293)">
    <path id="Trazado_198033" data-name="Trazado 198033" d="M30.513,54.746,19.017,67.4,7.52,54.746a25.441,25.441,0,0,1,22.993,0Z" transform="translate(10.86 79.418)" fill="#e6e9ed"/>
    <path id="Trazado_198034" data-name="Trazado 198034" d="M53.324,75.986H2A25.582,25.582,0,0,1,9.519,57.843a25.024,25.024,0,0,1,6.646-4.773l11.5,12.651,11.5-12.651A25.6,25.6,0,0,1,53.324,75.986Z" transform="translate(2.215 81.094)" fill="#92bfb1"/>
    <path id="Trazado_198035" data-name="Trazado 198035" d="M59.159,46.07A25.6,25.6,0,0,1,73.324,68.986H22a25.582,25.582,0,0,1,7.519-18.143,25.023,25.023,0,0,1,6.646-4.773l11.5,12.651Z" transform="translate(33.539 70.13)" fill="#ffa400"/>
    <path id="Trazado_198036" data-name="Trazado 198036" d="M50.513,47.746,39.017,60.4,27.52,47.746a25.441,25.441,0,0,1,22.993,0Z" transform="translate(42.184 68.454)" fill="#fcd770"/>
    <path id="Trazado_198037" data-name="Trazado 198037" d="M93.324,75.986H42a25.582,25.582,0,0,1,7.519-18.143,25.024,25.024,0,0,1,6.646-4.773l11.5,12.651,11.5-12.651A25.6,25.6,0,0,1,93.324,75.986Z" transform="translate(64.863 81.094)" fill="#d0eae2"/>
    <path id="Trazado_198038" data-name="Trazado 198038" d="M70.513,54.746,59.017,67.4,47.52,54.746a25.441,25.441,0,0,1,22.993,0Z" transform="translate(73.508 79.418)" fill="#ccd1d9"/>
    <g id="Grupo_146631" data-name="Grupo 146631" transform="translate(17.046 87.792)">
      <circle id="Elipse_11" data-name="Elipse 11" cx="12.831" cy="12.831" r="12.831" transform="translate(102.648 17.963)" fill="#f0d0b4"/>
      <path id="Trazado_198039" data-name="Trazado 198039" d="M39.831,35A12.855,12.855,0,0,1,50.1,40.132a12.68,12.68,0,0,1,2.566,7.7,4.35,4.35,0,0,1-.026.59A12.825,12.825,0,0,1,27,47.831a14.055,14.055,0,0,1,.334-2.951,8.468,8.468,0,0,0,2.541.385h1.078a8.849,8.849,0,0,0,8.879-8.879,5.966,5.966,0,0,0-.128-1.36Z" transform="translate(24.324 -35)" fill="#f0d0b4"/>
      <circle id="Elipse_12" data-name="Elipse 12" cx="12.831" cy="12.831" r="12.831" transform="translate(0 17.963)" fill="#f0d0b4"/>
    </g>
    <path id="Trazado_198040" data-name="Trazado 198040" d="M50.758,21.963,45.626,27.1l-23.1,23.1-2.566,2.566L2,34.795,32.795,4Z" transform="translate(2.215 4.24)" fill="#16697a"/>
    <path id="Trazado_198041" data-name="Trazado 198041" d="M65.4,50.529a7.7,7.7,0,0,1-6.877,13.011A8.008,8.008,0,0,1,54.318,61.2L42,48.886V23.25a40.544,40.544,0,0,1,4,4.132Z" transform="translate(64.863 34.389)" fill="#f0d0b4"/>
    <path id="Trazado_198042" data-name="Trazado 198042" d="M63.865,77.13a8.928,8.928,0,0,1-6.287,2.592H56.5a8.468,8.468,0,0,1-2.541-.385,8.339,8.339,0,0,1-2.669-1.309L28.271,61.27a43.907,43.907,0,0,1-5.389-4.594,45.126,45.126,0,0,1-8.468-11.753L10,36.1,33.1,13l17.117,1.9a25.38,25.38,0,0,1,11.035,3.926L86.858,35.275A40.217,40.217,0,0,1,92.119,39.3V77.155a7.7,7.7,0,0,1-12.857,5.723,4.35,4.35,0,0,0,.026-.59,12.68,12.68,0,0,0-2.566-7.7V61.168a13.293,13.293,0,0,0-9.777-12.805l-26.15-7.134v2.566L63.505,64.247a8.824,8.824,0,0,1,2.823,5.235,5.966,5.966,0,0,1,.128,1.36A8.928,8.928,0,0,1,63.865,77.13Z" transform="translate(14.744 18.336)" fill="#f0d0b4"/>
    <circle id="Elipse_13" data-name="Elipse 13" cx="5.132" cy="5.132" r="5.132" transform="translate(132.525 36.468)" fill="#ffa400"/>
    <path id="Trazado_198043" data-name="Trazado 198043" d="M142.159,128.556a15.4,15.4,0,1,0-19.267,0,28.324,28.324,0,0,0-13.462,10.321v-1.786a28.249,28.249,0,0,0-18.595-26.5,15.415,15.415,0,0,0,5.071-7.424,10.187,10.187,0,0,0,13.524-9.7V87.451l7.94,7.94a10.554,10.554,0,0,0,5.561,3.036,10.883,10.883,0,0,0,1.922.175,10.264,10.264,0,0,0,10.239-10.267,10.026,10.026,0,0,0-2.856-7.093l-19.4-23.134A43.62,43.62,0,0,0,103,49.437L77.385,32.97a28.327,28.327,0,0,0-12.146-4.309L53.429,27.35,56.6,24.178,35.009,2.586.586,37.009,22.178,58.6l1.863-1.863,2.825,5.648A47.864,47.864,0,0,0,41.5,79.665L64.526,96.409a11.58,11.58,0,0,0,1.355.834c-.038.449-.077.9-.077,1.355a15.376,15.376,0,0,0,5.764,11.994,28.249,28.249,0,0,0-18.595,26.5v1.784A28.34,28.34,0,0,0,39.51,128.554a15.4,15.4,0,1,0-19.267,0,28.249,28.249,0,0,0-18.595,26.5v2.566H58.105v-2.566a28.047,28.047,0,0,0-4.6-15.4H108.9a28.028,28.028,0,0,0-4.6,15.4v2.566h56.457v-2.566a28.249,28.249,0,0,0-18.595-26.5ZM19.612,116.562a10.265,10.265,0,1,1,10.265,10.265A10.275,10.275,0,0,1,19.612,116.562Zm17.412,16.552-7.147,7.86-7.147-7.86a22.693,22.693,0,0,1,14.294,0Zm-30.1,19.375a23.13,23.13,0,0,1,10.912-17.129l12.043,13.247,12.041-13.247a23.123,23.123,0,0,1,10.912,17.129ZM83.043,83.321a11.386,11.386,0,0,0-3.064-4.673L61.192,61.74l19.824,5.407A10.692,10.692,0,0,1,88.9,77.471v7.814A15.264,15.264,0,0,0,83.043,83.321ZM128.455,84.7a5.137,5.137,0,0,1-4.614,8.671A5.564,5.564,0,0,1,121,91.762L109.429,80.193V62.027ZM7.843,37.009,35.009,9.843,49.344,24.178,22.178,51.344ZM44.522,75.515a43.033,43.033,0,0,1-5.073-4.334,42.574,42.574,0,0,1-7.991-11.089l-3.59-7.178L48.785,32l15.89,1.768a23.2,23.2,0,0,1,9.939,3.526l25.613,16.467A38.352,38.352,0,0,1,104.3,56.8V93.466a5.123,5.123,0,0,1-7.735,4.416,15.311,15.311,0,0,0-2.53-7.778V77.468A15.833,15.833,0,0,0,82.368,62.194l-26.15-7.131a2.572,2.572,0,0,0-3.246,2.476v2.566a2.557,2.557,0,0,0,.849,1.907l22.724,20.45a6.313,6.313,0,0,1-4.221,11H71.257a6.28,6.28,0,0,1-3.711-1.206ZM70.936,98.6c0-.008,0-.015,0-.026.108,0,.21.026.318.026h1.068a11.427,11.427,0,0,0,11.294-9.947A10.252,10.252,0,1,1,70.936,98.6ZM88.348,115.15,81.2,123.01l-7.147-7.86a22.693,22.693,0,0,1,14.294,0Zm-30.1,19.375A23.13,23.13,0,0,1,69.158,117.4L81.2,130.642,93.242,117.4a23.123,23.123,0,0,1,10.912,17.129Zm64.014-17.963a10.265,10.265,0,1,1,10.265,10.265A10.275,10.275,0,0,1,122.26,116.562Zm17.412,16.552-7.147,7.86-7.147-7.86a22.693,22.693,0,0,1,14.294,0Zm-30.1,19.375a23.13,23.13,0,0,1,10.912-17.129l12.043,13.247,12.041-13.247a23.123,23.123,0,0,1,10.912,17.129Z" transform="translate(0 2.025)"/>
    <path id="Trazado_198044" data-name="Trazado 198044" d="M80.584,4.922,76.955,1.293,58.24,20.008,54.922,16.69l-3.629,3.629,6.947,6.947Z" transform="translate(79.418 0)"/>
    <path id="Trazado_198045" data-name="Trazado 198045" d="M58.7,29.4A7.7,7.7,0,1,0,51,21.7,7.708,7.708,0,0,0,58.7,29.4Zm0-10.265A2.566,2.566,0,1,1,56.132,21.7,2.57,2.57,0,0,1,58.7,19.132Z" transform="translate(78.959 19.902)"/>
    <path id="Trazado_198046" data-name="Trazado 198046" d="M37,8H67.795v5.132H37Z" transform="translate(57.032 10.505)"/>
    <path id="Trazado_198047" data-name="Trazado 198047" d="M37,16H57.53v5.132H37Z" transform="translate(57.032 23.034)"/>
    <path id="Trazado_198048" data-name="Trazado 198048" d="M47,16h5.132v5.132H47Z" transform="translate(72.694 23.034)"/>
    <path id="Trazado_198049" data-name="Trazado 198049" d="M37,12H67.795v5.132H37Z" transform="translate(57.032 16.769)"/>
  </g>
</svg>
