<svg xmlns="http://www.w3.org/2000/svg" width="110.108" height="110.107" viewBox="0 0 110.108 110.107">
  <g id="subasta" transform="translate(-1 -1)">
    <g id="Grupo_146696" data-name="Grupo 146696" transform="translate(9.88 2.776)">
      <path id="Trazado_198181" data-name="Trazado 198181" d="M84.14,97.9H27.311v3.552a7.1,7.1,0,1,1-14.207,0V9.1A7.1,7.1,0,0,0,6,2H71.709A12.431,12.431,0,0,1,84.14,14.431Z" transform="translate(-6 -2)" fill="#e5e5e5"/>
    </g>
    <g id="Grupo_146697" data-name="Grupo 146697" transform="translate(9.88 2.776)">
      <path id="Trazado_198182" data-name="Trazado 198182" d="M13.1,9.1V81.781A39.326,39.326,0,0,0,37.967,90.8c23.54,0,42.622-21.467,42.622-47.95,0-17.271-8.119-32.405-20.3-40.846H6A7.1,7.1,0,0,1,13.1,9.1Z" transform="translate(-6 -2)" fill="#fff"/>
    </g>
    <g id="Grupo_146699" data-name="Grupo 146699" transform="translate(24.087 98.676)">
      <g id="Grupo_146698" data-name="Grupo 146698">
        <path id="Trazado_198183" data-name="Trazado 198183" d="M77.933,56H21.1v3.552a7.1,7.1,0,0,1-7.1,7.1H77.933a7.1,7.1,0,0,0,7.1-7.1V56Z" transform="translate(-14 -56)" fill="#d0d0d0"/>
      </g>
    </g>
    <g id="Grupo_146700" data-name="Grupo 146700" transform="translate(2.776 2.776)">
      <path id="Trazado_198184" data-name="Trazado 198184" d="M16.207,23.311H2V9.1a7.1,7.1,0,0,1,14.207,0Z" transform="translate(-2 -2)" fill="#ffa400"/>
    </g>
    <g id="Grupo_146701" data-name="Grupo 146701" transform="translate(24.119 62.767)">
      <circle id="Elipse_15" data-name="Elipse 15" cx="14.187" cy="14.187" r="14.187" transform="translate(0 0)" fill="#92bfb1"/>
    </g>
    <g id="Grupo_146702" data-name="Grupo 146702" transform="translate(31.475 70.123)">
      <ellipse id="Elipse_16" data-name="Elipse 16" cx="6.831" cy="7.356" rx="6.831" ry="7.356" transform="translate(0 0)" fill="#ffa400"/>
    </g>
    <g id="Grupo_146703" data-name="Grupo 146703" transform="translate(82.674 64.936)">
      <path id="Trazado_198185" data-name="Trazado 198185" d="M0,0H6.28V31.395H0Z" transform="translate(0 4.44) rotate(-45)" fill="#d0eae2"/>
    </g>
    <g id="Grupo_146704" data-name="Grupo 146704" transform="translate(70.246 52.505)">
      <path id="Trazado_198186" data-name="Trazado 198186" d="M0,0H17.58V12.558H0Z" transform="translate(0 12.429) rotate(-45)" fill="#d0eae2"/>
    </g>
    <g id="Grupo_146705" data-name="Grupo 146705" transform="translate(63.143 63.157)">
      <path id="Trazado_198187" data-name="Trazado 198187" d="M0,0H7.535V17.58H0Z" transform="translate(0 5.327) rotate(-45)" fill="#92bfb1"/>
    </g>
    <g id="Grupo_146706" data-name="Grupo 146706" transform="translate(80.902 45.402)">
      <path id="Trazado_198188" data-name="Trazado 198188" d="M0,0H7.535V17.58H0Z" transform="translate(0 5.327) rotate(-45)" fill="#92bfb1"/>
    </g>
    <g id="Grupo_146707" data-name="Grupo 146707" transform="translate(1 1)">
      <path id="Trazado_198189" data-name="Trazado 198189" d="M88.02,111.107H24.087a8.89,8.89,0,0,1-8.88-8.88V25.863H2.776A1.775,1.775,0,0,1,1,24.087V9.88a8.88,8.88,0,0,1,17.759,0v92.348a5.328,5.328,0,0,0,10.656,0V98.676A1.775,1.775,0,0,1,31.191,96.9H95.124A1.775,1.775,0,0,1,96.9,98.676v3.552A8.89,8.89,0,0,1,88.02,111.107Zm-56.833-3.552H88.02a5.334,5.334,0,0,0,5.328-5.328v-1.776H32.967v1.776a8.832,8.832,0,0,1-1.779,5.328ZM4.552,22.311H15.207V9.88a5.328,5.328,0,0,0-10.656,0Z" transform="translate(-1 -1)"/>
    </g>
    <g id="Grupo_146708" data-name="Grupo 146708" transform="translate(86.244 74.701)">
      <path id="Trazado_198190" data-name="Trazado 198190" d="M49,42.5h3.552V66.475H49Z" transform="translate(-49 -42.5)"/>
    </g>
    <g id="Grupo_146709" data-name="Grupo 146709" transform="translate(9.88 1)">
      <path id="Trazado_198191" data-name="Trazado 198191" d="M85.916,47.174H82.365V13.431a8.89,8.89,0,0,0-8.88-8.88H6V1H73.485A12.446,12.446,0,0,1,85.916,13.431Z" transform="translate(-6 -1)"/>
    </g>
    <g id="Grupo_146710" data-name="Grupo 146710" transform="translate(61.381 61.381)">
      <path id="Trazado_198192" data-name="Trazado 198192" d="M49.208,56.311a1.771,1.771,0,0,1-1.256-.52L35.521,43.359a1.774,1.774,0,0,1,0-2.511l5.328-5.328a1.774,1.774,0,0,1,2.511,0L55.791,47.952a1.774,1.774,0,0,1,0,2.511l-5.328,5.328A1.771,1.771,0,0,1,49.208,56.311ZM39.287,42.1l9.92,9.92,2.817-2.817-9.92-9.92Z" transform="translate(-35 -35)"/>
    </g>
    <g id="Grupo_146711" data-name="Grupo 146711" transform="translate(79.14 43.622)">
      <path id="Trazado_198193" data-name="Trazado 198193" d="M59.208,46.311a1.771,1.771,0,0,1-1.256-.52L45.521,33.359a1.774,1.774,0,0,1,0-2.511l5.328-5.328a1.774,1.774,0,0,1,2.511,0L65.791,37.952a1.774,1.774,0,0,1,0,2.511l-5.328,5.328A1.771,1.771,0,0,1,59.208,46.311ZM49.287,32.1l9.92,9.92,2.817-2.817-9.92-9.92Z" transform="translate(-45 -25)"/>
    </g>
    <g id="Grupo_146712" data-name="Grupo 146712" transform="translate(68.992 51.25)">
      <path id="Trazado_198194" data-name="Trazado 198194" d="M0,0H17.58V3.552H0Z" transform="translate(0 12.429) rotate(-45)"/>
    </g>
    <g id="Grupo_146713" data-name="Grupo 146713" transform="translate(77.87 60.129)">
      <path id="Trazado_198195" data-name="Trazado 198195" d="M0,0H17.58V3.552H0Z" transform="translate(0 12.429) rotate(-45)"/>
    </g>
    <g id="Grupo_146714" data-name="Grupo 146714" transform="translate(81.437 63.678)">
      <path id="Trazado_198196" data-name="Trazado 198196" d="M69.748,65.963a1.771,1.771,0,0,1-1.256-.52l-22.2-22.2L48.8,40.733,69.748,61.676l1.929-1.929L50.733,38.8l2.511-2.511,22.2,22.2a1.774,1.774,0,0,1,0,2.511L71,65.443A1.771,1.771,0,0,1,69.748,65.963Z" transform="translate(-46.293 -36.293)"/>
    </g>
    <g id="Grupo_146715" data-name="Grupo 146715" transform="translate(24.087 32.967)">
      <path id="Trazado_198197" data-name="Trazado 198197" d="M14,19H72.605v3.552H14Z" transform="translate(-14 -19)"/>
    </g>
    <g id="Grupo_146716" data-name="Grupo 146716" transform="translate(24.087 47.174)">
      <path id="Trazado_198198" data-name="Trazado 198198" d="M14,27H65.5v3.552H14Z" transform="translate(-14 -27)"/>
    </g>
    <g id="Grupo_146717" data-name="Grupo 146717" transform="translate(24.087 40.07)">
      <path id="Trazado_198199" data-name="Trazado 198199" d="M14,23H72.605v3.552H14Z" transform="translate(-14 -23)"/>
    </g>
    <g id="Grupo_146718" data-name="Grupo 146718" transform="translate(24.087 18.759)">
      <path id="Trazado_198200" data-name="Trazado 198200" d="M14,11H72.605v3.552H14Z" transform="translate(-14 -11)"/>
    </g>
    <g id="Grupo_146719" data-name="Grupo 146719" transform="translate(24.087 11.656)">
      <path id="Trazado_198201" data-name="Trazado 198201" d="M14,7H72.605v3.552H14Z" transform="translate(-14 -7)"/>
    </g>
    <g id="Grupo_146720" data-name="Grupo 146720" transform="translate(24.087 25.863)">
      <path id="Trazado_198202" data-name="Trazado 198202" d="M14,15H72.605v3.552H14Z" transform="translate(-14 -15)"/>
    </g>
    <g id="Grupo_146721" data-name="Grupo 146721" transform="translate(24.087 54.278)">
      <path id="Trazado_198203" data-name="Trazado 198203" d="M14,31H61.95v3.552H14Z" transform="translate(-14 -31)"/>
    </g>
    <g id="Grupo_146722" data-name="Grupo 146722" transform="translate(22.311 61.381)">
      <path id="Trazado_198204" data-name="Trazado 198204" d="M28.983,66.967A15.983,15.983,0,1,1,44.967,50.983,16,16,0,0,1,28.983,66.967Zm0-28.415A12.431,12.431,0,1,0,41.415,50.983,12.446,12.446,0,0,0,28.983,38.552Z" transform="translate(-13 -35)"/>
    </g>
    <g id="Grupo_146723" data-name="Grupo 146723" transform="translate(29.415 68.485)">
      <path id="Trazado_198205" data-name="Trazado 198205" d="M25.88,56.759a8.88,8.88,0,1,1,8.88-8.88A8.89,8.89,0,0,1,25.88,56.759Zm0-14.207a5.328,5.328,0,1,0,5.328,5.328A5.334,5.334,0,0,0,25.88,42.552Z" transform="translate(-17 -39)"/>
    </g>
    <g id="Grupo_146724" data-name="Grupo 146724" transform="translate(57.829 84.467)">
      <path id="Trazado_198206" data-name="Trazado 198206" d="M54.311,56.88h-7.1a7.106,7.106,0,0,1-6.017-3.33A11.711,11.711,0,0,1,33,56.88V53.328a8.164,8.164,0,0,0,6.805-3.642l.6-.9a1.776,1.776,0,0,1,3.253.986,3.555,3.555,0,0,0,3.552,3.552h7.1Z" transform="translate(-33 -47.999)"/>
    </g>
  </g>
</svg>
