<svg xmlns="http://www.w3.org/2000/svg" width="47.437" height="56.441" viewBox="0 0 47.437 56.441">
  <g id="resignacion" transform="translate(-40.837)">
    <g id="Grupo_146929" data-name="Grupo 146929" transform="translate(41.662 0.825)">
      <g id="Grupo_146926" data-name="Grupo 146926" transform="translate(0 3.867)">
        <g id="Grupo_146921" data-name="Grupo 146921">
          <path id="Trazado_198585" data-name="Trazado 198585" d="M74.826,93.487H49.171a.848.848,0,0,1-.848-.848V43.411a.848.848,0,0,1,.848-.848H81.437a.848.848,0,0,1,.848.848V86.543Z" transform="translate(-48.323 -42.563)" fill="#d0eae2"/>
        </g>
        <g id="Grupo_146922" data-name="Grupo 146922" transform="translate(26.503 43.98)">
          <path id="Trazado_198586" data-name="Trazado 198586" d="M288.747,448.466v-6.3a.649.649,0,0,1,.649-.648h6.81Z" transform="translate(-288.747 -441.522)" fill="#fae2c0"/>
        </g>
        <g id="Grupo_146923" data-name="Grupo 146923" transform="translate(26.503 43.98)">
          <path id="Trazado_198587" data-name="Trazado 198587" d="M296.2,441.524l-7.459,6.944v-2.539l5.161-4.4Z" transform="translate(-288.744 -441.524)" fill="#fdd79b"/>
        </g>
        <g id="Grupo_146925" data-name="Grupo 146925" transform="translate(30.816 0)">
          <g id="Grupo_146924" data-name="Grupo 146924">
            <path id="Trazado_198588" data-name="Trazado 198588" d="M331.01,43.415V86.546h-2.3V43.415a.848.848,0,0,0-.849-.848h2.3A.847.847,0,0,1,331.01,43.415Z" transform="translate(-327.864 -42.567)" fill="#fae2c0"/>
          </g>
        </g>
      </g>
      <g id="Grupo_146927" data-name="Grupo 146927" transform="translate(28.149)">
        <circle id="Elipse_17" data-name="Elipse 17" cx="8.848" cy="8.848" r="8.848" fill="#ffa400"/>
      </g>
    </g>
    <g id="Grupo_146930" data-name="Grupo 146930" transform="translate(40.837 0)">
      <path id="Trazado_198590" data-name="Trazado 198590" d="M103.839,88.677h4.931a.825.825,0,0,0,0-1.65h-4.931a.825.825,0,1,0,0,1.65Z" transform="translate(-96.16 -77.433)"/>
      <path id="Trazado_198591" data-name="Trazado 198591" d="M103.839,125.424h4.931a.825.825,0,1,0,0-1.65h-4.931a.825.825,0,1,0,0,1.65Z" transform="translate(-96.16 -110.13)"/>
      <path id="Trazado_198592" data-name="Trazado 198592" d="M103.839,162.17h20.254a.825.825,0,1,0,0-1.65H103.839a.825.825,0,0,0,0,1.65Z" transform="translate(-96.16 -142.825)"/>
      <path id="Trazado_198593" data-name="Trazado 198593" d="M103.839,198.916h20.254a.825.825,0,1,0,0-1.65H103.839a.825.825,0,1,0,0,1.65Z" transform="translate(-96.16 -175.52)"/>
      <path id="Trazado_198594" data-name="Trazado 198594" d="M103.839,235.662h20.254a.825.825,0,0,0,0-1.65H103.839a.825.825,0,0,0,0,1.65Z" transform="translate(-96.16 -208.215)"/>
      <path id="Trazado_198595" data-name="Trazado 198595" d="M103.839,272.409h20.254a.825.825,0,1,0,0-1.65H103.839a.825.825,0,1,0,0,1.65Z" transform="translate(-96.16 -240.912)"/>
      <path id="Trazado_198596" data-name="Trazado 198596" d="M103.839,309.155h20.254a.825.825,0,1,0,0-1.65H103.839a.825.825,0,1,0,0,1.65Z" transform="translate(-96.16 -273.607)"/>
      <path id="Trazado_198597" data-name="Trazado 198597" d="M124.918,345.076a.825.825,0,0,0-.825-.825H103.839a.825.825,0,1,0,0,1.65h20.254A.825.825,0,0,0,124.918,345.076Z" transform="translate(-96.16 -306.302)"/>
      <path id="Trazado_198598" data-name="Trazado 198598" d="M86.629,8.754a.825.825,0,1,0,1.64-.187,9.67,9.67,0,0,0-17.342-4.7H42.51A1.675,1.675,0,0,0,40.837,5.54V54.768a1.675,1.675,0,0,0,1.673,1.673h4.163a.825.825,0,1,0,0-1.65H42.51a.023.023,0,0,1-.023-.023V5.54a.023.023,0,0,1,.023-.023H69.926A9.669,9.669,0,0,0,74.8,18.541V47.847H68.814A1.475,1.475,0,0,0,67.34,49.32v5.47H50.36a.825.825,0,1,0,0,1.65H68.166c.418,0,.652-.3.931-.564l7.089-6.6a.887.887,0,0,0,.264-.6V19.09a9.679,9.679,0,0,0,11.437-6.51.825.825,0,1,0-1.574-.5,8.026,8.026,0,1,1,.317-3.331ZM68.991,53.72V49.5h4.536Z" transform="translate(-40.837 0)"/>
      <path id="Trazado_198600" data-name="Trazado 198600" d="M198.46,383.817a.825.825,0,0,0-1.092.412v0a5.375,5.375,0,0,1-3.617,2.964.825.825,0,0,0,.185,1.629.834.834,0,0,0,.187-.021,7.023,7.023,0,0,0,3.4-1.928,1.362,1.362,0,0,0,.836.657,2.291,2.291,0,0,0,1.933-.679,2.656,2.656,0,0,0,3.008-.5.825.825,0,1,0-1.178-1.156,1.016,1.016,0,0,1-1.317.031.825.825,0,0,0-1.07-.045c-.071.055-.146.117-.225.18a7,7,0,0,1-.619.464,3.478,3.478,0,0,1,0-.942A.825.825,0,0,0,198.46,383.817Zm.412,1.092,0-.011Z" transform="translate(-176.325 -341.441)"/>
      <path id="Trazado_198601" data-name="Trazado 198601" d="M33.614,8.927l2.938,2.938,5.991-5.991" fill="none" stroke="#000" stroke-linecap="round" stroke-width="2"/>
    </g>
  </g>
</svg>
