<svg xmlns="http://www.w3.org/2000/svg" width="139.841" height="157.519" viewBox="0 0 139.841 157.519">
  <g id="Grupo_146694" data-name="Grupo 146694" transform="translate(-287 -482.103)">
    <g id="Grupo_146690" data-name="Grupo 146690" transform="translate(288.347 485.372)">
      <g id="Grupo_146689" data-name="Grupo 146689" transform="translate(0 0)">
        <g id="Grupo_146677" data-name="Grupo 146677" transform="translate(0)">
          <g id="Grupo_146676" data-name="Grupo 146676">
            <g id="Grupo_146675" data-name="Grupo 146675">
              <path id="Trazado_198163" data-name="Trazado 198163" d="M45.738,7.5a9.5,9.5,0,0,0-9.5,9.5v122.43a9.5,9.5,0,0,0,9.5,9.5H135.1a9.5,9.5,0,0,0,9.5-9.5V36.808a7.2,7.2,0,0,0-2.109-5.091L120.386,9.609A7.2,7.2,0,0,0,115.295,7.5Z" transform="translate(-36.234 -7.5)" fill="#f4f8f8"/>
              <path id="Trazado_198164" data-name="Trazado 198164" d="M307.725,92.548a9.537,9.537,0,0,1-2.082-.232v105.84a9.5,9.5,0,0,1-9.5,9.5h18.9a9.5,9.5,0,0,0,9.5-9.5V95.53a7.192,7.192,0,0,0-.649-2.982Z" transform="translate(-216.178 -66.222)" fill="#e7ecf1"/>
              <path id="Trazado_198165" data-name="Trazado 198165" d="M327.124,33.176,305.016,11.068a7.193,7.193,0,0,0-2.109-1.46V25.78a9.5,9.5,0,0,0,9.5,9.5h16.173A7.2,7.2,0,0,0,327.124,33.176Z" transform="translate(-220.864 -8.959)" fill="#92bfb1"/>
            </g>
          </g>
        </g>
        <g id="Grupo_146687" data-name="Grupo 146687" transform="translate(18.983 76.857)">
          <g id="Grupo_146685" data-name="Grupo 146685" transform="translate(5.27 6.188)">
            <g id="Grupo_146684" data-name="Grupo 146684">
              <g id="Grupo_146679" data-name="Grupo 146679">
                <g id="Grupo_146678" data-name="Grupo 146678">
                  <path id="Trazado_198166" data-name="Trazado 198166" d="M204.608,320.167l-33.948-20.1a3.665,3.665,0,0,1-1.284-5.02l1.737-2.932-6.868-4.063c-4.531-2.6-6.649-3.081-10.737-1.5l-4.455,1.722a9.483,9.483,0,0,1-8.253-.686l-11.924-7.03-16.935,28.586,15.268,9.012a9.487,9.487,0,0,1,2.677,2.368l5.145,6.672c2.842,3.324,8.707,7.635,12.469,9.864l19.637,11.633A5.455,5.455,0,1,0,172.7,339.3l6.135,3.635a5.455,5.455,0,0,0,5.561-9.386l4.09,2.423a5.455,5.455,0,1,0,5.561-9.386l5.005,2.965a5.454,5.454,0,1,0,5.56-9.385Z" transform="translate(-111.941 -280.553)" fill="#ffece3"/>
                </g>
                <path id="Trazado_198167" data-name="Trazado 198167" d="M294.969,393.723l-11.7-6.928a6.255,6.255,0,0,1-1.564,2.811,6.5,6.5,0,0,1-7.98.981l-3.328-1.971a.293.293,0,0,0-.387.424,6.351,6.351,0,0,1-8.432,9.119l-2.614-1.56a.252.252,0,0,0-.329.37,6.347,6.347,0,0,1,.347,7.172,6.462,6.462,0,0,1-8.786,2.042l-2.147-1.272a1.255,1.255,0,0,0-1.871,1.324,6.327,6.327,0,0,1-3.724,7.1l14.919,8.838a5.572,5.572,0,0,0,7.649-1.93,5.455,5.455,0,0,0-1.965-7.383l6.012,3.562a5.571,5.571,0,0,0,7.649-1.93,5.455,5.455,0,0,0-1.965-7.383l3.967,2.35a5.571,5.571,0,0,0,7.649-1.93,5.455,5.455,0,0,0-1.965-7.383l4.882,2.893a5.571,5.571,0,0,0,7.648-1.93A5.456,5.456,0,0,0,294.969,393.723Z" transform="translate(-202.301 -354.109)" fill="#ffddce"/>
              </g>
              <g id="Grupo_146680" data-name="Grupo 146680" transform="translate(48.568 1.708)">
                <path id="Trazado_198168" data-name="Trazado 198168" d="M310.965,286.1l-9.158,5.323a9.484,9.484,0,0,1-8.253.686l-5.024-1.974a8.072,8.072,0,0,0-4.934-.312l-7.7,1.948a8.074,8.074,0,0,0-6.093,7.828v10.276a2.635,2.635,0,0,0,2.63,2.635,7.928,7.928,0,0,0,7.934-7.928v-.435l32.949,19.512a9.476,9.476,0,0,1,2.08-1.668l12.5-7.3Z" transform="translate(-269.805 -286.104)" fill="#fcd0a3"/>
              </g>
              <g id="Grupo_146681" data-name="Grupo 146681" transform="translate(73.125 9.953)">
                <path id="Trazado_198169" data-name="Trazado 198169" d="M371.114,312.9l-1.761,6.529-19.726,11.559,18.955,11.225a9.485,9.485,0,0,1,2.08-1.668l12.5-7.3Z" transform="translate(-349.627 -312.905)" fill="#ffb983"/>
              </g>
              <g id="Grupo_146683" data-name="Grupo 146683" transform="translate(8.987 35.018)">
                <g id="Grupo_146682" data-name="Grupo 146682">
                  <path id="Trazado_198170" data-name="Trazado 198170" d="M154.124,403.008l-3.089,4.3a5.453,5.453,0,0,1-8.86-6.36l3.089-4.3a5.453,5.453,0,0,1,8.86,6.36Z" transform="translate(-141.151 -394.375)" fill="#fcd0a3"/>
                  <path id="Trazado_198171" data-name="Trazado 198171" d="M186.331,408.247l-6.5,9.051a5.453,5.453,0,0,1-8.86-6.36l6.5-9.052a5.453,5.453,0,0,1,8.86,6.36Z" transform="translate(-161.09 -398.002)" fill="#fcd0a3"/>
                  <path id="Trazado_198172" data-name="Trazado 198172" d="M215.129,428.922l-6.5,9.052a5.453,5.453,0,0,1-8.86-6.36l6.5-9.052a5.453,5.453,0,1,1,8.86,6.36Z" transform="translate(-181.028 -412.316)" fill="#fcd0a3"/>
                </g>
                <path id="Trazado_198173" data-name="Trazado 198173" d="M244.3,462.669l-2.161,3.01a5.453,5.453,0,1,1-8.86-6.36l2.161-3.01a5.453,5.453,0,0,1,8.86,6.36Z" transform="translate(-204.229 -435.681)" fill="#ffb983"/>
              </g>
            </g>
          </g>
          <g id="Grupo_146686" data-name="Grupo 146686">
            <path id="Trazado_198174" data-name="Trazado 198174" d="M123.4,263.657l-4.776-2.829a2.765,2.765,0,0,0-3.788.97L95.2,294.943a2.765,2.765,0,0,0,.97,3.788l4.776,2.83a6.742,6.742,0,0,0,9.237-2.364l15.582-26.3A6.742,6.742,0,0,0,123.4,263.657Z" transform="translate(-94.812 -260.441)" fill="#ffa400"/>
            <path id="Trazado_198175" data-name="Trazado 198175" d="M380.178,260.827l-4.776,2.829a6.742,6.742,0,0,0-2.364,9.237l15.582,26.3a6.743,6.743,0,0,0,9.237,2.364l4.776-2.83a2.765,2.765,0,0,0,.97-3.788L383.966,261.8A2.765,2.765,0,0,0,380.178,260.827Z" transform="translate(-286.787 -260.441)" fill="#ffa400"/>
          </g>
        </g>
      </g>
    </g>
    <g id="Grupo_146693" data-name="Grupo 146693" transform="translate(287 482.103)">
      <g id="Grupo_146692" data-name="Grupo 146692" transform="translate(0 0)">
        <g id="Grupo_146691" data-name="Grupo 146691">
          <path id="Trazado_198176" data-name="Trazado 198176" d="M159.984,137.8H84.55a2.317,2.317,0,0,0,0,4.635h75.434a2.317,2.317,0,1,0,0-4.635Z" transform="translate(-65.773 -95.408)"/>
          <path id="Trazado_198177" data-name="Trazado 198177" d="M84.55,90.192h37.717a2.317,2.317,0,1,0,0-4.635H84.55a2.317,2.317,0,0,0,0,4.635Z" transform="translate(-65.773 -59.235)"/>
          <path id="Trazado_198178" data-name="Trazado 198178" d="M159.984,184.1H84.55a2.317,2.317,0,0,0,0,4.635h75.434a2.317,2.317,0,1,0,0-4.635Z" transform="translate(-65.773 -127.458)"/>
          <path id="Trazado_198179" data-name="Trazado 198179" d="M64.691,141.419H40.55a7.194,7.194,0,0,1-7.186-7.186V11.82A7.2,7.2,0,0,1,40.55,4.634H110.1a4.958,4.958,0,0,1,.665.05V19.136a11.834,11.834,0,0,0,11.82,11.82h14.451a4.916,4.916,0,0,1,.05.665v39.46a2.317,2.317,0,1,0,4.635,0V31.622a9.456,9.456,0,0,0-2.787-6.729l-22.1-22.1A9.454,9.454,0,0,0,110.1,0H40.55A11.834,11.834,0,0,0,28.73,11.82V134.233a11.834,11.834,0,0,0,11.82,11.82H64.691a2.317,2.317,0,1,0,0-4.634Zm69.116-115.1H122.583a7.2,7.2,0,0,1-7.186-7.186V7.912Z" transform="translate(-28.73 0)"/>
          <path id="Trazado_198180" data-name="Trazado 198180" d="M208.408,288.537,188.774,255.4a5.079,5.079,0,0,0-6.963-1.783l-4.776,2.829a9.073,9.073,0,0,0-4,10.578,7.1,7.1,0,0,1-5-.054c-3.771-1.186-6.637-3.573-11.372-2.375-8.039,2.047-7.795,1.944-8.522,2.194-4.707-2.68-7.537-3.477-12.534-1.544l-4.454,1.722a7.126,7.126,0,0,1-6.24-.521l-1.216-.716a9.053,9.053,0,0,0-4.32-9.282h0l-4.775-2.829a5.088,5.088,0,0,0-6.962,1.782L88.007,288.537a5.079,5.079,0,0,0,1.782,6.962l4.775,2.829a9,9,0,0,0,4.6,1.263,9.121,9.121,0,0,0,4.95-1.462l1,.587-2.1,2.927a7.763,7.763,0,0,0,7.517,12.2,7.757,7.757,0,0,0,8.86,6.364,7.765,7.765,0,0,0,10.719,5.828,7.762,7.762,0,0,0,13.2,2.183l5.584,3.308a7.781,7.781,0,0,0,11.681-5.759l.013.008a7.771,7.771,0,0,0,11.711-6.112,7.771,7.771,0,0,0,9.628-6.721,7.774,7.774,0,0,0,8.785-12.239l3.078-1.8a9.039,9.039,0,0,0,8.065-.577l4.775-2.829a5.078,5.078,0,0,0,1.783-6.962Zm-111.481,5.8-4.775-2.829a.448.448,0,0,1-.157-.613l19.635-33.141a.448.448,0,0,1,.613-.157l4.775,2.829a4.424,4.424,0,0,1,1.552,6.062l-15.58,26.3a4.43,4.43,0,0,1-6.062,1.552Zm10.566,14.38a3.134,3.134,0,0,1-.718-4.376l3.089-4.3a3.135,3.135,0,0,1,5.094,3.657l-3.089,4.3A3.139,3.139,0,0,1,107.493,308.722Zm8.859,6.36a3.139,3.139,0,0,1-.718-4.376l3.089-4.3h0l3.408-4.748a3.114,3.114,0,0,1,2.039-1.265,3.163,3.163,0,0,1,.514-.042,3.136,3.136,0,0,1,2.54,4.964l-6.5,9.051A3.133,3.133,0,0,1,116.352,315.082Zm8.859,6.36a3.139,3.139,0,0,1-.72-4.374v0l6.5-9.05a3.135,3.135,0,1,1,5.094,3.657l-2.887,4.021h0l-3.61,5.029A3.138,3.138,0,0,1,125.211,321.442Zm10.308,4.34a3.139,3.139,0,0,1-.721-4.373l2.163-3.012a3.135,3.135,0,1,1,5.094,3.657l-2.161,3.009A3.138,3.138,0,0,1,135.519,325.782Zm51.938-18.475a3.14,3.14,0,0,1-4.3,1.1l-20.511-12.152a2.317,2.317,0,0,0-2.362,3.987l15.507,9.187h0a3.137,3.137,0,0,1-3.2,5.4l-15.515-9.192a2.317,2.317,0,1,0-2.362,3.987l11.426,6.769h0a3.137,3.137,0,0,1-3.2,5.4l-6.132-3.632h0l-4.475-2.651a2.317,2.317,0,1,0-2.362,3.987l4.476,2.652h0a3.137,3.137,0,1,1-3.2,5.4l-5.221-3.093a7.765,7.765,0,0,0-5.218-11.879,7.763,7.763,0,0,0-8.477-10.4,7.768,7.768,0,0,0-13.18-4.153,7.762,7.762,0,0,0-10.8-2.772l-1.062-.627,14.574-24.6.694.409a11.733,11.733,0,0,0,10.269.853l4.454-1.722c2.549-.985,3.955-1.049,6.476.14a10.373,10.373,0,0,0-2.629,6.909v10.274a4.957,4.957,0,0,0,4.945,4.952h.007a10.263,10.263,0,0,0,9.7-6.936l30.577,18.108a3.135,3.135,0,0,1,1.1,4.3Zm16.807-15.795-4.776,2.829a4.43,4.43,0,0,1-6.061-1.551l-7.3-12.326a2.317,2.317,0,0,0-3.988,2.362l7.3,12.327c.138.232.287.453.441.668l-2.03,1.186a11.746,11.746,0,0,0-1.183.8l-31.48-18.642a2.318,2.318,0,0,0-3.5,1.994,5.918,5.918,0,0,1-1.644,4.4,5.575,5.575,0,0,1-3.966,1.642h0a.317.317,0,0,1-.314-.318V276.612a5.765,5.765,0,0,1,4.344-5.581l7.7-1.948c2.793-.706,4.371.785,8.552,2.2a11.714,11.714,0,0,0,8.86-.143l1.4,2.361a2.317,2.317,0,1,0,3.988-2.362l-2.755-4.65a4.423,4.423,0,0,1,1.552-6.062l4.775-2.829a.447.447,0,0,1,.614.157L204.42,290.9A.447.447,0,0,1,204.264,291.512Z" transform="translate(-69.278 -175.096)"/>
        </g>
      </g>
    </g>
  </g>
</svg>
