<svg xmlns="http://www.w3.org/2000/svg" width="113" height="113" viewBox="0 0 113 113">
  <g id="Grupo_147351" data-name="Grupo 147351" transform="translate(-330 -6526)">
    <circle id="Elipse_1396" data-name="Elipse 1396" cx="56.5" cy="56.5" r="56.5" transform="translate(330 6526)" fill="#d0eae2"/>
    <g id="trabajador" transform="translate(312.456 6543.897)">
      <g id="Grupo_147346" data-name="Grupo 147346" transform="translate(42.865 1.131)">
        <path id="Trazado_199393" data-name="Trazado 199393" d="M128.094,181.686c-2.2,0-3.982-2.159-4.009-4.843-.027-2.731,1.776-4.964,4.009-4.964Z" transform="translate(-112.798 -147.092)" fill="#ffab8a"/>
        <g id="Grupo_147341" data-name="Grupo 147341" transform="translate(0 24.787)">
          <path id="Trazado_199394" data-name="Trazado 199394" d="M111.593,411.465v3.3H49.234v-3.3a9.238,9.238,0,0,1,7.487-9.07l2.532-.5,6.2-1.229,9.259-1.834H85.967l5.269,1.036,4.071.8,6.2,1.218,2.6.511A9.238,9.238,0,0,1,111.593,411.465Z" transform="translate(-49.234 -364.607)" fill="#92bfb1"/>
          <path id="Trazado_199395" data-name="Trazado 199395" d="M405.987,428.661v3.3h-3.77v-3.3c0-4.426-1.968-8.741-6.314-9.581l2.6.511A9.238,9.238,0,0,1,405.987,428.661Z" transform="translate(-343.629 -381.804)" fill="#16697a"/>
          <path id="Trazado_199396" data-name="Trazado 199396" d="M331.845,406.5v14.1h-4.071V405.7Z" transform="translate(-285.772 -370.441)" fill="#92bfb1"/>
          <path id="Trazado_199397" data-name="Trazado 199397" d="M156.814,467.63h29.851v5.54H156.814Z" transform="translate(-140.592 -423.033)" fill="#668fa3"/>
          <path id="Trazado_199398" data-name="Trazado 199398" d="M327.774,467.63h4.071v5.54h-4.071Z" transform="translate(-285.772 -423.033)" fill="#4c7889"/>
          <g id="Grupo_147339" data-name="Grupo 147339" transform="translate(10.019 36.056)">
            <path id="Trazado_199399" data-name="Trazado 199399" d="M121.878,410.99v14.081h-6.2V412.219Z" transform="translate(-115.674 -410.99)" fill="#668fa3"/>
            <path id="Trazado_199400" data-name="Trazado 199400" d="M360.976,412.218V425.08h-6.2V411l3.121.614Z" transform="translate(-318.719 -410.999)" fill="#668fa3"/>
          </g>
          <path id="Trazado_199401" data-name="Trazado 199401" d="M378.555,415.675v12.861h-3.081V415.07Z" transform="translate(-326.279 -378.399)" fill="#4c7889"/>
          <path id="Trazado_199402" data-name="Trazado 199402" d="M354.774,467.63h6.2v5.54h-6.2Z" transform="translate(-308.701 -423.033)" fill="#d4efff"/>
          <path id="Trazado_199403" data-name="Trazado 199403" d="M115.677,467.634h6.2v5.54h-6.2Z" transform="translate(-105.658 -423.036)" fill="#d4efff"/>
          <path id="Trazado_199404" data-name="Trazado 199404" d="M375.474,467.63h3.081v5.54h-3.081Z" transform="translate(-326.279 -423.033)" fill="#b7d4e2"/>
          <path id="Trazado_199405" data-name="Trazado 199405" d="M228.712,356.558a7.724,7.724,0,0,0,.754,2.419,5.626,5.626,0,0,1-11.252,0,7.543,7.543,0,0,0,.48-1.184,7.742,7.742,0,0,0,.274-1.233c.017-.118.03-.235.039-.354a7.679,7.679,0,0,0-.443-3.355l-.35-.95h11.252l-.35.95a7.7,7.7,0,0,0-.442,3.355C228.684,356.323,228.7,356.44,228.712,356.558Z" transform="translate(-192.733 -324.754)" fill="#ffd9c0"/>
          <g id="Grupo_147340" data-name="Grupo 147340" transform="translate(47.039)">
            <path id="Trazado_199406" data-name="Trazado 199406" d="M361.182,181.686c2.2,0,3.982-2.159,4.009-4.843.027-2.731-1.776-4.964-4.009-4.964Z" transform="translate(-361.182 -171.879)" fill="#ffab8a"/>
          </g>
          <path id="Trazado_199407" data-name="Trazado 199407" d="M229.116,352.85a7.7,7.7,0,0,0-.442,3.355,11.108,11.108,0,0,1-9.667,0,7.679,7.679,0,0,0-.443-3.355l-.35-.95h11.252Z" transform="translate(-192.733 -324.754)" fill="#ffbca1"/>
          <path id="Trazado_199408" data-name="Trazado 199408" d="M181.636,184.961c0,3.818-3.247,8.38-9.652,13.561a10.038,10.038,0,0,1-6.163,2.247c-.065,0-.13,0-.195,0a10.052,10.052,0,0,1-6.365-2.254c-6.4-5.178-9.648-9.74-9.648-13.556,0-.406.015-.811.05-1.2.166-1.689.2-6.912.11-11.881l28.574.006h3.17c-.087,4.91-.1,10.2.069,11.864C181.62,184.15,181.636,184.556,181.636,184.961Z" transform="translate(-134.477 -171.88)" fill="#ffd9c0"/>
          <path id="Trazado_199409" data-name="Trazado 199409" d="M272.909,185c0,3.818-3.247,8.38-9.652,13.561a10.038,10.038,0,0,1-6.163,2.247,7.149,7.149,0,0,0,4.895-2.247c5.127-5.181,7.727-9.743,7.727-13.561,0-.406-.014-.811-.041-1.211-.131-1.666-.125-6.955-.054-11.864h3.17c-.087,4.91-.1,10.2.069,11.864C272.893,184.184,272.909,184.59,272.909,185Z" transform="translate(-225.75 -171.914)" fill="#ffbca1"/>
        </g>
        <g id="Grupo_147345" data-name="Grupo 147345" transform="translate(8.793)">
          <g id="Grupo_147343" data-name="Grupo 147343" transform="translate(4.447 2.508)">
            <path id="Trazado_199410" data-name="Trazado 199410" d="M172.7,38.19v5.89H137.034V38.19A14.062,14.062,0,0,1,151.1,24.13h7.541A14.062,14.062,0,0,1,172.7,38.19Z" transform="translate(-137.034 -24.13)" fill="#ffa400"/>
            <g id="Grupo_147342" data-name="Grupo 147342" transform="translate(20.432)">
              <path id="Trazado_199411" data-name="Trazado 199411" d="M287.769,38.19v5.89h-4.412V38.19c0-7.764-4.583-14.06-10.822-14.06h1.172a14.062,14.062,0,0,1,14.063,14.06Z" transform="translate(-272.534 -24.13)" fill="#ffa73e"/>
            </g>
          </g>
          <path id="Trazado_199412" data-name="Trazado 199412" d="M137.034,117.37H172.7v5.89H137.034Z" transform="translate(-132.587 -100.802)" fill="#ffa73e"/>
          <g id="Grupo_147344" data-name="Grupo 147344" transform="translate(35.702 16.568)">
            <path id="Trazado_199413" data-name="Trazado 199413" d="M344.3,117.37h4.412v5.89H344.3Z" transform="translate(-344.304 -117.37)" fill="#ff8440"/>
          </g>
          <path id="Trazado_199414" data-name="Trazado 199414" d="M152.173,156.43v2.007a3.024,3.024,0,0,1-3.025,3.023H110.569a3.024,3.024,0,0,1-3.025-3.023V156.43Z" transform="translate(-107.544 -133.972)" fill="#f7da93"/>
          <path id="Trazado_199415" data-name="Trazado 199415" d="M360.993,156.43v2.007a3.024,3.024,0,0,1-3.025,3.023h-4.524a3.025,3.025,0,0,0,3.025-3.025V156.43Z" transform="translate(-316.364 -133.972)" fill="#ffa73e"/>
          <path id="Trazado_199416" data-name="Trazado 199416" d="M239.614,7.5h4.964V29.958h-4.964Z" transform="translate(-219.699 -7.5)" fill="#ffa73e"/>
          <path id="Trazado_199417" data-name="Trazado 199417" d="M239.614,117.37h4.964v5.89h-4.964Z" transform="translate(-219.699 -100.802)" fill="#ff8440"/>
        </g>
      </g>
      <g id="Grupo_147347" data-name="Grupo 147347" transform="translate(41.734 0)">
        <path id="Trazado_199418" data-name="Trazado 199418" d="M97.955,62.595,80.386,59.143a6.562,6.562,0,0,1-.077-4.738l.193-.525q.3-.21.58-.44C87.765,48.034,91.154,43.176,91.154,39c0-.436-.018-.875-.054-1.3l0-.017c-.023-.236-.043-.563-.06-.971a5.92,5.92,0,0,0,4.006-5.814,7.075,7.075,0,0,0-.139-1.482,4.161,4.161,0,0,0,2.512-3.816V23.589a1.131,1.131,0,0,0-1.131-1.131H92.9V17.7A15.21,15.21,0,0,0,77.708,2.508h-.04V1.131A1.131,1.131,0,0,0,76.537,0H71.573a1.131,1.131,0,0,0-1.131,1.131V2.508h-.275A15.21,15.21,0,0,0,54.973,17.7v4.76H51.658a1.131,1.131,0,0,0-1.131,1.131v2.006a4.162,4.162,0,0,0,2.627,3.864,7.109,7.109,0,0,0-.132,1.434,5.929,5.929,0,0,0,3.968,5.8c-.019.413-.041.751-.066,1-.036.4-.054.841-.054,1.3,0,4.175,3.387,9.032,10.065,14.434q.234.19.478.367l.223.6a6.563,6.563,0,0,1-.077,4.739L50.136,62.595a10.387,10.387,0,0,0-8.4,10.181v3.3a1.131,1.131,0,0,0,1.131,1.131H78.8a1.131,1.131,0,1,0,0-2.262H60.217v-3.3H87.806v3.3h-3.7a1.131,1.131,0,0,0,0,2.262h21.117a1.131,1.131,0,0,0,1.131-1.131v-3.3a10.387,10.387,0,0,0-8.4-10.181Zm-3.946,6.79H90.068V63.351l3.941.774ZM92.782,30.87a3.916,3.916,0,0,1-1.8,3.446c-.014-1.274-.014-2.82,0-4.566h1.678a4.833,4.833,0,0,1,.12,1.12ZM77.708,4.77a12.949,12.949,0,0,1,12.884,11.8H85.76a1.131,1.131,0,0,0,0,2.262h4.881v3.629H77.668V4.77Zm-5,14.06h2.7v3.629H72.7Zm2.7-16.568V16.568H72.7V2.262ZM57.235,18.829h4.881a1.131,1.131,0,0,0,0-2.262H57.284A12.949,12.949,0,0,1,70.167,4.77h.275V22.458H57.235ZM55.283,30.871a4.841,4.841,0,0,1,.12-1.12h1.673c.009,1.7,0,3.251-.019,4.553A3.928,3.928,0,0,1,55.283,30.871ZM59.131,39c0-.393.015-.763.044-1.089.143-1.458.178-4.981.162-8.16H61.9a1.131,1.131,0,1,0,0-2.262H54.683a1.9,1.9,0,0,1-1.894-1.894V24.72H95.155v.875a1.9,1.9,0,0,1-1.894,1.894H67.187a1.131,1.131,0,0,0,0,2.262H88.723c-.02,2.525-.026,6.6.124,8.14.03.365.045.738.045,1.109,0,3.411-3.193,7.8-9.234,12.684a8.937,8.937,0,0,1-5.624,2h-.023a9,9,0,0,1-5.652-2C62.322,46.793,59.131,42.409,59.131,39ZM73.989,55.941h.05A11.172,11.172,0,0,0,77.75,55.3a8.811,8.811,0,0,0,.711,5.082,4.5,4.5,0,0,1-8.977,0,8.812,8.812,0,0,0,.706-5.114,11.182,11.182,0,0,0,3.8.668ZM54.014,64.132l3.941-.781v6.033H54.014ZM44,74.944V72.776a8.123,8.123,0,0,1,6.574-7.962l1.182-.234V74.944Zm13.96-.02H54.014V71.647h3.941Zm2.262-5.54V62.9l7.131-1.412A6.763,6.763,0,0,0,73.972,66.9a6.768,6.768,0,0,0,6.622-5.407l7.212,1.417v6.479H60.217Zm33.792,2.262v3.278H90.068V71.647Zm10.082,3.3H96.271V64.569l1.251.246a8.122,8.122,0,0,1,6.569,7.961Z" transform="translate(-41.734 0)"/>
        <path id="Trazado_199419" data-name="Trazado 199419" d="M226.39,281.181a5.322,5.322,0,0,0,5.135-3.936,1.131,1.131,0,0,0-2.185-.585,3.055,3.055,0,0,1-5.9,0,1.131,1.131,0,1,0-2.185.585A5.321,5.321,0,0,0,226.39,281.181Z" transform="translate(-194.152 -234.229)"/>
      </g>
    </g>
  </g>
</svg>
