<svg id="Grupo_147003" data-name="Grupo 147003" xmlns="http://www.w3.org/2000/svg" xmlns:xlink="http://www.w3.org/1999/xlink" width="362.856" height="308.121" viewBox="0 0 362.856 308.121">
  <defs>
    <clipPath id="clip-path">
      <rect id="Rectángulo_45170" data-name="Rectángulo 45170" width="362.856" height="308.121" fill="none"/>
    </clipPath>
    <clipPath id="clip-path-3">
      <rect id="Rectángulo_45151" data-name="Rectángulo 45151" width="195.04" height="280.485" transform="translate(161.384 17.623)" fill="none"/>
    </clipPath>
    <clipPath id="clip-path-4">
      <rect id="Rectángulo_45152" data-name="Rectángulo 45152" width="220.028" height="272.014" transform="translate(134.395 17.623)" fill="none"/>
    </clipPath>
    <clipPath id="clip-path-5">
      <rect id="Rectángulo_45153" data-name="Rectángulo 45153" width="74.061" height="51.62" transform="translate(189.64 204.586)" fill="none"/>
    </clipPath>
    <clipPath id="clip-path-7">
      <rect id="Rectángulo_45155" data-name="Rectángulo 45155" width="60.11" height="71.4" transform="translate(48.777 46.179)" fill="none"/>
    </clipPath>
    <clipPath id="clip-path-8">
      <rect id="Rectángulo_45156" data-name="Rectángulo 45156" width="7.095" height="16.07" transform="translate(90.981 37.919)" fill="none"/>
    </clipPath>
    <clipPath id="clip-path-9">
      <rect id="Rectángulo_45157" data-name="Rectángulo 45157" width="5.145" height="34.913" transform="translate(73.383 138.162)" fill="none"/>
    </clipPath>
    <clipPath id="clip-path-10">
      <rect id="Rectángulo_45158" data-name="Rectángulo 45158" width="9.833" height="20.71" transform="translate(57.607 55.559)" fill="none"/>
    </clipPath>
    <clipPath id="clip-path-11">
      <rect id="Rectángulo_45161" data-name="Rectángulo 45161" width="20.562" height="20.916" transform="translate(0 11.161)" fill="none"/>
    </clipPath>
    <clipPath id="clip-path-12">
      <rect id="Rectángulo_45165" data-name="Rectángulo 45165" width="52.321" height="41.913" transform="translate(8.427 14.785)" fill="none"/>
    </clipPath>
    <clipPath id="clip-path-13">
      <rect id="Rectángulo_45168" data-name="Rectángulo 45168" width="4.99" height="10.16" transform="translate(103.087 72.829)" fill="none"/>
    </clipPath>
  </defs>
  <g id="Grupo_147002" data-name="Grupo 147002" clip-path="url(#clip-path)">
    <g id="Grupo_146963" data-name="Grupo 146963">
      <g id="Grupo_146962" data-name="Grupo 146962" clip-path="url(#clip-path)">
        <path id="Trazado_198609" data-name="Trazado 198609" d="M327.593,306.855H159.353a5.134,5.134,0,0,1-5.2-5.781L183.022,14.656a6.544,6.544,0,0,1,6.365-5.78h168.24a5.133,5.133,0,0,1,5.2,5.78L333.958,301.074a6.545,6.545,0,0,1-6.365,5.781" fill="#92bfb1"/>
        <path id="Trazado_198610" data-name="Trazado 198610" d="M302.4,30.576H240.237a4.123,4.123,0,0,1-4.175-4.642L237.8,8.707a.942.942,0,0,1,.916-.831H308.5a.738.738,0,0,1,.748.831l-1.736,17.227a5.255,5.255,0,0,1-5.111,4.642" fill="#263238"/>
        <path id="Trazado_198611" data-name="Trazado 198611" d="M274.4,0a5.262,5.262,0,0,0-5.117,4.648l-.728,7.218h9.3l.727-7.218A4.127,4.127,0,0,0,274.4,0m-.7,6.922a1.669,1.669,0,0,1-1.69-1.879,2.127,2.127,0,0,1,2.069-1.878,1.669,1.669,0,0,1,1.69,1.878A2.127,2.127,0,0,1,273.7,6.922" fill="#263238"/>
        <path id="Trazado_198612" data-name="Trazado 198612" d="M302.909,12.862l-1.257,12.467H276.483a4.12,4.12,0,0,0-4.19-4.369,5.274,5.274,0,0,0-5.08,4.369H242.042L243.3,12.862Z" fill="none" stroke="#fff" stroke-linecap="round" stroke-linejoin="round" stroke-width="2"/>
        <path id="Trazado_198613" data-name="Trazado 198613" d="M298.206,12.929a1.622,1.622,0,0,1,.786-1.359h-52a1.622,1.622,0,0,0-.786,1.359c-.109,1.079.512,1.36.512,1.36h52s-.621-.281-.512-1.36" fill="#92bfb1"/>
        <path id="Trazado_198614" data-name="Trazado 198614" d="M328.153,298.108H161.384L189.655,17.623H356.424Z" fill="#fff"/>
        <path id="Trazado_198615" data-name="Trazado 198615" d="M343.19,47.219H197.023a.5.5,0,0,1,0-1H343.19a.5.5,0,0,1,0,1" fill="#263238"/>
        <path id="Trazado_198616" data-name="Trazado 198616" d="M216.064,33.95a8.973,8.973,0,0,1-8.727,7.927,7.04,7.04,0,0,1-7.13-7.927,8.973,8.973,0,0,1,8.727-7.927,7.04,7.04,0,0,1,7.13,7.927" fill="#407bff"/>
        <path id="Trazado_198617" data-name="Trazado 198617" d="M203.623,32.761s-4.258,5.614-2.98,7.328,13.093-7.91,15.931-11.206-.493-1.978-.493-1.978,1.251.07.583,1.088c-1.363,2.076-12.594,9.492-13.741,9.1s.7-4.329.7-4.329" fill="#263238"/>
        <path id="Trazado_198618" data-name="Trazado 198618" d="M342.949,31.292H327.916a1,1,0,0,1,0-2h15.033a1,1,0,0,1,0,2" fill="#263238"/>
        <path id="Trazado_198619" data-name="Trazado 198619" d="M342.48,35.95h-9.692a1,1,0,0,1,0-2h9.692a1,1,0,0,1,0,2" fill="#263238"/>
        <path id="Trazado_198620" data-name="Trazado 198620" d="M342.01,40.608H316.691a1,1,0,0,1,0-2H342.01a1,1,0,0,1,0,2" fill="#263238"/>
        <path id="Trazado_198621" data-name="Trazado 198621" d="M234.833,59.217a4.832,4.832,0,0,1,4.933-4.317,3.834,3.834,0,0,1,3.181,1.4l-1.1.948a2.65,2.65,0,0,0-2.142-.984,3.235,3.235,0,0,0-3.3,2.95,2.553,2.553,0,0,0,2.7,2.951,3.239,3.239,0,0,0,2.344-1l.909.96a4.709,4.709,0,0,1-3.475,1.4,3.8,3.8,0,0,1-4.05-4.318"/>
        <path id="Trazado_198622" data-name="Trazado 198622" d="M243.377,59.217a4.855,4.855,0,0,1,4.957-4.317,3.819,3.819,0,0,1,4.086,4.317,4.846,4.846,0,0,1-4.957,4.318,3.826,3.826,0,0,1-4.086-4.318m7.472,0a2.546,2.546,0,0,0-2.653-2.95,3.232,3.232,0,0,0-3.248,2.95,2.547,2.547,0,0,0,2.653,2.951,3.232,3.232,0,0,0,3.248-2.951"/>
        <path id="Trazado_198623" data-name="Trazado 198623" d="M261.964,55.02l-.846,8.4h-1.283l-4.058-5.686-.572,5.686h-1.547l.846-8.4h1.283l4.057,5.685.573-5.685Z"/>
        <path id="Trazado_198624" data-name="Trazado 198624" d="M265.794,56.338h-2.783l.133-1.319h7.124l-.133,1.319h-2.782l-.713,7.077h-1.559Z"/>
        <path id="Trazado_198625" data-name="Trazado 198625" d="M276.1,63.415l-1.468-2.459a2.952,2.952,0,0,1-.325.012h-1.895l-.246,2.447H270.6l.846-8.4H274.9c2.207,0,3.461,1.127,3.274,2.986a3.048,3.048,0,0,1-2.055,2.651l1.653,2.759Zm-1.4-7.077h-1.823l-.337,3.346h1.823c1.367,0,2.138-.623,2.244-1.679s-.539-1.667-1.907-1.667"/>
        <path id="Trazado_198626" data-name="Trazado 198626" d="M285.014,61.472h-4.2l-1.023,1.943h-1.607l4.624-8.4h1.535l2.944,8.4h-1.631Zm-.392-1.223-1.213-3.67-1.941,3.67Z"/>
        <path id="Trazado_198627" data-name="Trazado 198627" d="M288.065,59.217A4.831,4.831,0,0,1,293,54.9a3.831,3.831,0,0,1,3.18,1.4l-1.1.948a2.652,2.652,0,0,0-2.143-.984,3.235,3.235,0,0,0-3.3,2.95,2.553,2.553,0,0,0,2.7,2.951,3.238,3.238,0,0,0,2.343-1l.91.96a4.711,4.711,0,0,1-3.475,1.4,3.8,3.8,0,0,1-4.05-4.318"/>
        <path id="Trazado_198628" data-name="Trazado 198628" d="M299.286,56.338H296.5l.133-1.319h7.124l-.133,1.319h-2.782l-.713,7.077h-1.559Z"/>
        <path id="Trazado_198629" data-name="Trazado 198629" d="M229.976,75.219H196.012a1,1,0,0,1,0-2h33.964a1,1,0,0,1,0,2" fill="#263238"/>
        <path id="Trazado_198630" data-name="Trazado 198630" d="M212.45,80.621H195.468a1,1,0,0,1,0-2H212.45a1,1,0,0,1,0,2" fill="#263238"/>
        <path id="Trazado_198631" data-name="Trazado 198631" d="M334.216,108.851H192.622a1,1,0,0,1,0-2H334.216a1,1,0,0,1,0,2" fill="#263238"/>
        <path id="Trazado_198632" data-name="Trazado 198632" d="M333.6,115.014H192a1,1,0,0,1,0-2H333.6a1,1,0,0,1,0,2" fill="#263238"/>
        <path id="Trazado_198633" data-name="Trazado 198633" d="M332.974,121.177H191.38a1,1,0,0,1,0-2H332.974a1,1,0,0,1,0,2" fill="#263238"/>
        <path id="Trazado_198634" data-name="Trazado 198634" d="M332.353,127.34H190.759a1,1,0,0,1,0-2H332.353a1,1,0,0,1,0,2" fill="#263238"/>
        <path id="Trazado_198635" data-name="Trazado 198635" d="M331.731,133.5H190.137a1,1,0,0,1,0-2H331.731a1,1,0,0,1,0,2" fill="#263238"/>
        <path id="Trazado_198636" data-name="Trazado 198636" d="M331.11,139.665H189.516a1,1,0,1,1,0-2H331.11a1,1,0,0,1,0,2" fill="#263238"/>
        <path id="Trazado_198637" data-name="Trazado 198637" d="M330.489,145.828H188.9a1,1,0,0,1,0-2H330.489a1,1,0,0,1,0,2" fill="#263238"/>
        <path id="Trazado_198638" data-name="Trazado 198638" d="M329.868,151.991H188.274a1,1,0,0,1,0-2H329.868a1,1,0,0,1,0,2" fill="#263238"/>
        <path id="Trazado_198639" data-name="Trazado 198639" d="M259.247,158.153H187.653a1,1,0,0,1,0-2h71.594a1,1,0,0,1,0,2" fill="#263238"/>
        <path id="Trazado_198640" data-name="Trazado 198640" d="M338.658,75.219H314.24a1,1,0,0,1,0-2h24.418a1,1,0,0,1,0,2" fill="#263238"/>
        <path id="Trazado_198641" data-name="Trazado 198641" d="M328.467,166.51H201.95a1,1,0,0,1,0-2H328.467a1,1,0,0,1,0,2" fill="#263238"/>
        <path id="Trazado_198642" data-name="Trazado 198642" d="M327.784,172.673H186.19a1,1,0,0,1,0-2H327.784a1,1,0,0,1,0,2" fill="#263238"/>
        <path id="Trazado_198643" data-name="Trazado 198643" d="M327.162,178.836H185.568a1,1,0,0,1,0-2H327.162a1,1,0,0,1,0,2" fill="#263238"/>
        <path id="Trazado_198644" data-name="Trazado 198644" d="M326.541,185H184.947a1,1,0,0,1,0-2H326.541a1,1,0,0,1,0,2" fill="#263238"/>
        <path id="Trazado_198645" data-name="Trazado 198645" d="M325.92,191.161H184.326a1,1,0,0,1,0-2H325.92a1,1,0,0,1,0,2" fill="#263238"/>
        <path id="Trazado_198646" data-name="Trazado 198646" d="M235.3,197.324H183.705a1,1,0,0,1,0-2H235.3a1,1,0,0,1,0,2" fill="#263238"/>
        <g id="Grupo_146955" data-name="Grupo 146955" opacity="0.2" style="isolation: isolate">
          <g id="Grupo_146954" data-name="Grupo 146954">
            <g id="Grupo_146953" data-name="Grupo 146953" clip-path="url(#clip-path-3)">
              <path id="Trazado_198647" data-name="Trazado 198647" d="M328.153,298.108H161.384L189.655,17.623H356.424Z"/>
            </g>
          </g>
        </g>
        <path id="Trazado_198648" data-name="Trazado 198648" d="M301.164,289.637H134.4c30.62-90.217,49.12-181.8,53.26-272.014H354.424c-4.14,90.217-22.64,181.8-53.26,272.014" fill="#fff"/>
        <path id="Trazado_198649" data-name="Trazado 198649" d="M341.416,46.224H195.25a.509.509,0,0,1-.513-.484.474.474,0,0,1,.486-.484H341.389a.508.508,0,0,1,.514.484.476.476,0,0,1-.487.484" fill="#263238"/>
        <path id="Trazado_198650" data-name="Trazado 198650" d="M213.851,33.391a8.455,8.455,0,0,1-8.443,7.664,7.211,7.211,0,0,1-7.414-7.664,8.388,8.388,0,0,1,8.379-7.658,7.259,7.259,0,0,1,7.478,7.658" fill="#407bff"/>
        <path id="Trazado_198651" data-name="Trazado 198651" d="M201.362,32.242c.005,0-4.035,5.427-2.706,7.085,1.346,1.656,12.818-7.65,15.49-10.832s-.585-1.91-.584-1.911,1.255.068.633,1.051c-1.256,2-12.2,9.173-13.365,8.791s.535-4.184.532-4.184" fill="#263238"/>
        <path id="Trazado_198652" data-name="Trazado 198652" d="M340.626,30.822H325.593a1.039,1.039,0,0,1-1.043-.966.932.932,0,0,1,.956-.966h15.033a1.039,1.039,0,0,1,1.044.966.932.932,0,0,1-.957.966" fill="#263238"/>
        <path id="Trazado_198653" data-name="Trazado 198653" d="M340.344,35.324h-9.692a1.033,1.033,0,0,1-1.039-.967.939.939,0,0,1,.961-.966h9.692a1.034,1.034,0,0,1,1.04.966.938.938,0,0,1-.962.967" fill="#263238"/>
        <path id="Trazado_198654" data-name="Trazado 198654" d="M340.04,39.828H314.721a1.027,1.027,0,0,1-1.034-.967.943.943,0,0,1,.966-.967h25.319a1.027,1.027,0,0,1,1.034.967.942.942,0,0,1-.966.967" fill="#263238"/>
        <path id="Trazado_198655" data-name="Trazado 198655" d="M233.3,57.839a4.685,4.685,0,0,1,4.862-4.181,3.955,3.955,0,0,1,3.205,1.359l-1.087.918a2.736,2.736,0,0,0-2.159-.953,3.139,3.139,0,0,0-3.25,2.857,2.545,2.545,0,0,0,2.739,2.859,3.25,3.25,0,0,0,2.331-.965l.921.929a4.732,4.732,0,0,1-3.46,1.36c-2.569,0-4.318-1.755-4.1-4.183"/>
        <path id="Trazado_198656" data-name="Trazado 198656" d="M241.847,57.839a4.71,4.71,0,0,1,4.886-4.181c2.6,0,4.374,1.765,4.157,4.181a4.723,4.723,0,0,1-4.9,4.183c-2.6,0-4.351-1.777-4.138-4.183m7.472,0a2.543,2.543,0,0,0-2.7-2.857,3.134,3.134,0,0,0-3.2,2.857,2.537,2.537,0,0,0,2.691,2.859,3.144,3.144,0,0,0,3.21-2.859"/>
        <path id="Trazado_198657" data-name="Trazado 198657" d="M260.365,53.775q-.346,4.065-.727,8.132h-1.283q-2.057-2.754-4.13-5.507-.242,2.752-.5,5.507h-1.547q.381-4.067.727-8.132h1.283q2.082,2.752,4.146,5.506.249-2.754.484-5.506Z"/>
        <path id="Trazado_198658" data-name="Trazado 198658" d="M264.218,55.052h-2.783q.055-.639.11-1.277h7.124q-.054.639-.11,1.277h-2.782q-.3,3.426-.617,6.855H263.6q.321-3.429.617-6.855"/>
        <path id="Trazado_198659" data-name="Trazado 198659" d="M274.615,61.907q-.747-1.191-1.5-2.382a2.948,2.948,0,0,1-.324.011h-1.9q-.108,1.185-.219,2.371h-1.559q.381-4.068.726-8.132H273.3c2.206,0,3.483,1.091,3.325,2.892a2.91,2.91,0,0,1-2.018,2.567q.844,1.336,1.684,2.673Zm-1.494-6.855H271.3q-.14,1.62-.286,3.241h1.823c1.368,0,2.131-.6,2.22-1.626s-.566-1.615-1.934-1.615"/>
        <path id="Trazado_198660" data-name="Trazado 198660" d="M283.514,60.024h-4.2l-1,1.882h-1.607q2.27-4.066,4.5-8.132h1.535q1.549,4.065,3.064,8.132h-1.631q-.331-.94-.665-1.882m-.408-1.185q-.631-1.778-1.268-3.555-.941,1.778-1.886,3.555Z"/>
        <path id="Trazado_198661" data-name="Trazado 198661" d="M286.534,57.839a4.687,4.687,0,0,1,4.862-4.181,3.956,3.956,0,0,1,3.205,1.359l-1.087.918a2.734,2.734,0,0,0-2.159-.953,3.138,3.138,0,0,0-3.25,2.857,2.545,2.545,0,0,0,2.739,2.859,3.25,3.25,0,0,0,2.331-.965l.921.929a4.74,4.74,0,0,1-3.46,1.36c-2.569,0-4.318-1.755-4.1-4.183"/>
        <path id="Trazado_198662" data-name="Trazado 198662" d="M297.71,55.052h-2.783q.055-.639.11-1.277h7.124q-.056.639-.11,1.277h-2.782q-.3,3.426-.617,6.855h-1.559q.321-3.429.617-6.855"/>
        <path id="Trazado_198663" data-name="Trazado 198663" d="M228.543,73.348H194.579a.97.97,0,1,1,0-1.939h33.964a.97.97,0,1,1,0,1.939" fill="#263238"/>
        <path id="Trazado_198664" data-name="Trazado 198664" d="M210.991,78.588H194.009a.975.975,0,0,1-.993-.97.994.994,0,0,1,1.006-.97H211a.979.979,0,0,1,.994.97.994.994,0,0,1-1.007.97" fill="#263238"/>
        <path id="Trazado_198665" data-name="Trazado 198665" d="M332.139,105.991H190.546a.943.943,0,0,1-.965-.971,1.031,1.031,0,0,1,1.036-.972H332.21a.947.947,0,0,1,.966.972,1.034,1.034,0,0,1-1.037.971" fill="#263238"/>
        <path id="Trazado_198666" data-name="Trazado 198666" d="M331.276,111.978H189.682a.936.936,0,0,1-.957-.972,1.037,1.037,0,0,1,1.041-.971H331.359a.938.938,0,0,1,.959.971,1.041,1.041,0,0,1-1.042.972" fill="#263238"/>
        <path id="Trazado_198667" data-name="Trazado 198667" d="M330.374,117.966H188.781a.929.929,0,0,1-.952-.972,1.043,1.043,0,0,1,1.047-.971H330.469a.931.931,0,0,1,.953.971,1.049,1.049,0,0,1-1.048.972" fill="#263238"/>
        <path id="Trazado_198668" data-name="Trazado 198668" d="M329.434,123.955H187.84a.922.922,0,0,1-.945-.972,1.055,1.055,0,0,1,1.053-.972H329.542a.924.924,0,0,1,.947.972,1.058,1.058,0,0,1-1.055.972" fill="#263238"/>
        <path id="Trazado_198669" data-name="Trazado 198669" d="M328.455,129.945H186.861a.917.917,0,0,1-.939-.972,1.063,1.063,0,0,1,1.06-.972H328.575a.917.917,0,0,1,.941.972,1.067,1.067,0,0,1-1.061.972" fill="#263238"/>
        <path id="Trazado_198670" data-name="Trazado 198670" d="M327.438,135.936H185.845a.909.909,0,0,1-.933-.972,1.07,1.07,0,0,1,1.065-.972H327.571a.91.91,0,0,1,.934.972,1.072,1.072,0,0,1-1.067.972" fill="#263238"/>
        <path id="Trazado_198671" data-name="Trazado 198671" d="M326.383,141.927H184.789a.9.9,0,0,1-.927-.972,1.081,1.081,0,0,1,1.073-.972H326.528a.9.9,0,0,1,.928.972,1.082,1.082,0,0,1-1.073.972" fill="#263238"/>
        <path id="Trazado_198672" data-name="Trazado 198672" d="M325.289,147.919H183.7a.894.894,0,0,1-.92-.972,1.088,1.088,0,0,1,1.078-.972H325.447a.9.9,0,0,1,.921.972,1.09,1.09,0,0,1-1.079.972" fill="#263238"/>
        <path id="Trazado_198673" data-name="Trazado 198673" d="M254.157,153.91H182.563a.89.89,0,0,1-.915-.972,1.1,1.1,0,0,1,1.085-.972h71.594a.887.887,0,0,1,.915.972,1.1,1.1,0,0,1-1.085.972" fill="#263238"/>
        <path id="Trazado_198674" data-name="Trazado 198674" d="M337.224,73.348H312.807a.97.97,0,1,1,0-1.939h24.417a.97.97,0,1,1,0,1.939" fill="#263238"/>
        <path id="Trazado_198675" data-name="Trazado 198675" d="M322.623,162.034H196.106a.879.879,0,0,1-.906-.972,1.106,1.106,0,0,1,1.093-.972H322.81a.88.88,0,0,1,.907.972,1.11,1.11,0,0,1-1.094.972" fill="#263238"/>
        <path id="Trazado_198676" data-name="Trazado 198676" d="M321.338,168.025H179.744a.874.874,0,0,1-.9-.972,1.12,1.12,0,0,1,1.1-.972H321.537a.873.873,0,0,1,.9.972,1.118,1.118,0,0,1-1.1.972" fill="#263238"/>
        <path id="Trazado_198677" data-name="Trazado 198677" d="M320.077,174.017H178.484a.866.866,0,0,1-.894-.972,1.126,1.126,0,0,1,1.105-.972H320.289a.866.866,0,0,1,.894.972,1.127,1.127,0,0,1-1.106.972" fill="#263238"/>
        <path id="Trazado_198678" data-name="Trazado 198678" d="M318.778,180.007H177.185a.86.86,0,0,1-.888-.972,1.137,1.137,0,0,1,1.112-.972H319a.862.862,0,0,1,.889.972,1.141,1.141,0,0,1-1.113.972" fill="#263238"/>
        <path id="Trazado_198679" data-name="Trazado 198679" d="M317.441,186H175.848a.855.855,0,0,1-.882-.972,1.145,1.145,0,0,1,1.118-.972H317.678a.856.856,0,0,1,.882.972,1.147,1.147,0,0,1-1.119.972" fill="#263238"/>
        <path id="Trazado_198680" data-name="Trazado 198680" d="M226.065,191.985H174.471a.849.849,0,0,1-.875-.972,1.154,1.154,0,0,1,1.125-.971h51.593a.849.849,0,0,1,.876.971,1.156,1.156,0,0,1-1.125.972" fill="#263238"/>
        <g id="Grupo_146958" data-name="Grupo 146958" opacity="0.1">
          <g id="Grupo_146957" data-name="Grupo 146957">
            <g id="Grupo_146956" data-name="Grupo 146956" clip-path="url(#clip-path-4)">
              <path id="Trazado_198681" data-name="Trazado 198681" d="M301.164,289.637H134.4c30.62-90.217,49.12-181.8,53.26-272.014H354.424c-4.14,90.217-22.64,181.8-53.26,272.014"/>
            </g>
          </g>
        </g>
        <path id="Trazado_198682" data-name="Trazado 198682" d="M278.522,271.975H111.754c38.461-84.359,63.92-169.993,75.9-254.352H354.424c-11.982,84.359-37.441,169.993-75.9,254.352" fill="#fff"/>
        <path id="Trazado_198683" data-name="Trazado 198683" d="M339.93,44.367H193.764a.444.444,0,0,1-.471-.452.515.515,0,0,1,.528-.453H339.987a.443.443,0,0,1,.472.453.516.516,0,0,1-.529.452" fill="#263238"/>
        <path id="Trazado_198684" data-name="Trazado 198684" d="M213.48,32.367c-.634,3.957-4.732,7.167-9.109,7.167s-7.382-3.211-6.748-7.167,4.666-7.161,9.045-7.161,7.445,3.2,6.812,7.161" fill="#ffa400"/>
        <path id="Trazado_198685" data-name="Trazado 198685" d="M201.091,31.293c.006,0-4.506,5.074-3.322,6.625,1.2,1.549,13.483-7.153,16.432-10.129S213.781,26,213.783,26s1.249.062.542.982c-1.431,1.875-12.994,8.578-14.129,8.221s.9-3.913.9-3.913" fill="#263238"/>
        <path id="Trazado_198686" data-name="Trazado 198686" d="M340.479,29.965H325.446a.906.906,0,0,1-.959-.9,1.009,1.009,0,0,1,1.04-.9H340.56a.906.906,0,0,1,.96.9,1.01,1.01,0,0,1-1.041.9" fill="#263238"/>
        <path id="Trazado_198687" data-name="Trazado 198687" d="M339.806,34.174h-9.692a.9.9,0,0,1-.955-.9,1.017,1.017,0,0,1,1.045-.9H339.9a.9.9,0,0,1,.956.9,1.014,1.014,0,0,1-1.046.9" fill="#263238"/>
        <path id="Trazado_198688" data-name="Trazado 198688" d="M339.11,38.386H313.791a.9.9,0,0,1-.95-.9,1.022,1.022,0,0,1,1.05-.9H339.21a.9.9,0,0,1,.95.9,1.021,1.021,0,0,1-1.05.9" fill="#263238"/>
        <path id="Trazado_198689" data-name="Trazado 198689" d="M181.185,257.857H130.009a.667.667,0,0,1-.705-.9,1.43,1.43,0,0,1,1.293-.9h51.176a.666.666,0,0,1,.706.9,1.431,1.431,0,0,1-1.294.9" fill="#263238"/>
        <path id="Trazado_198690" data-name="Trazado 198690" d="M273.087,257.857H214.04a.667.667,0,0,1-.706-.9,1.433,1.433,0,0,1,1.294-.9h59.047a.666.666,0,0,1,.706.9,1.429,1.429,0,0,1-1.294.9" fill="#263238"/>
        <path id="Trazado_198691" data-name="Trazado 198691" d="M190.382,205.493H163.251a.714.714,0,0,1-.764-.908,1.323,1.323,0,0,1,1.236-.907h27.132a.713.713,0,0,1,.764.907,1.322,1.322,0,0,1-1.237.908" fill="#263238"/>
        <path id="Trazado_198692" data-name="Trazado 198692" d="M284.545,205.493H245.021a.713.713,0,0,1-.763-.908,1.319,1.319,0,0,1,1.236-.907h39.524a.713.713,0,0,1,.764.907,1.321,1.321,0,0,1-1.237.908" fill="#263238"/>
        <path id="Trazado_198693" data-name="Trazado 198693" d="M241.414,247.261a4.822,4.822,0,0,1-2.412-.517c-1.279-.738-1.585-1.987-.9-3.612a6.948,6.948,0,0,1,.345-.7,45.02,45.02,0,0,1-12.034,2.934c-2.46.157-3.055-.8-3.122-1.645-.118-1.489,1.346-3.867,3.678-6.613-5.4,2.416-9.368,3.892-9.447,3.922-.284.106-.551.006-.6-.221a.591.591,0,0,1,.427-.6c.09-.033,4.8-1.789,10.946-4.6,6.239-6.8,16.615-15.154,22.009-18.023,3.87-2.054,6.115-2.611,6.694-1.661.9,1.495-3.515,5.97-10.807,10.882a127.613,127.613,0,0,1-17.317,9.441c-2.818,3.085-4.665,5.738-4.551,7.18.024.293.1,1.184,2.293,1.041a45.633,45.633,0,0,0,12.6-3.219c3.121-4.213,10.37-9.2,13.691-10.029,1.28-.32,1.788.01,1.99.343.189.315.271.879-.424,1.778-1.771,2.3-7.915,5.9-14.671,8.574a7.532,7.532,0,0,0-.74,1.315c-.534,1.267-.322,2.158.656,2.723,2.245,1.295,8.04-.545,13.726-3.188a3.521,3.521,0,0,1,.271-.9c1.6-3.643,9.423-9.279,13.587-9.032.826.048,1.021.417,1.041.718.086,1.315-3.433,3.77-6.407,5.6a82.287,82.287,0,0,1-7.444,4.026c.136.494.623.807,1.47.947,6.186,1.021,20.655-8.049,20.785-8.141a.5.5,0,0,1,.691.046.487.487,0,0,1-.243.638c-.6.388-15.059,9.449-21.681,8.348-1.115-.185-1.8-.663-2.019-1.372-4.419,2.031-9.011,3.63-12.089,3.631m25.348-13.539c-3.658,0-10.713,5.141-12.079,8.242-.038.09-.075.177-.1.26,2.482-1.2,4.9-2.529,6.933-3.781,4.279-2.63,5.829-4.23,5.8-4.619,0-.024-.086-.08-.339-.1-.07-.005-.142-.006-.216-.007m-13.191-1.732a2.874,2.874,0,0,0-.626.093c-2.86.716-8.917,4.834-12.111,8.514,6.007-2.5,11.3-5.631,12.835-7.619.3-.388.4-.673.291-.849a.437.437,0,0,0-.389-.139m2.129-15.611c-.612,0-2.057.372-5.031,1.948-5.163,2.743-14.2,10.075-20.255,16.291a120.233,120.233,0,0,0,15.3-8.483c7.673-5.174,10.762-8.976,10.356-9.65-.033-.057-.144-.106-.366-.106" fill="#263238"/>
        <path id="Trazado_198694" data-name="Trazado 198694" d="M230.808,55.228a5.145,5.145,0,0,1,5.225-3.91,3.73,3.73,0,0,1,3.088,1.271l-1.167.858a2.574,2.574,0,0,0-2.077-.891,3.442,3.442,0,0,0-3.5,2.672c-.3,1.564.751,2.674,2.49,2.673a3.677,3.677,0,0,0,2.415-.9l.841.869a5.349,5.349,0,0,1-3.579,1.271c-2.568,0-4.165-1.64-3.738-3.911"/>
        <path id="Trazado_198695" data-name="Trazado 198695" d="M239.352,55.228a5.175,5.175,0,0,1,5.25-3.91c2.6,0,4.22,1.651,3.793,3.91a5.188,5.188,0,0,1-5.269,3.911c-2.6,0-4.2-1.662-3.774-3.911m7.472,0a2.215,2.215,0,0,0-2.452-2.672,3.434,3.434,0,0,0-3.449,2.672,2.208,2.208,0,0,0,2.443,2.673,3.444,3.444,0,0,0,3.458-2.673"/>
        <path id="Trazado_198696" data-name="Trazado 198696" d="M258.223,51.427q-.7,3.8-1.434,7.6h-1.283q-1.818-2.575-3.651-5.15-.48,2.575-.979,5.15h-1.547q.735-3.8,1.434-7.6h1.283q1.842,2.574,3.667,5.149.489-2.575.963-5.149Z"/>
        <path id="Trazado_198697" data-name="Trazado 198697" d="M261.965,52.621h-2.782l.219-1.194h7.125q-.109.6-.221,1.194h-2.782q-.594,3.2-1.213,6.41h-1.559q.619-3.205,1.213-6.41"/>
        <path id="Trazado_198698" data-name="Trazado 198698" d="M271.766,59.031,270.478,56.8c-.111.011-.219.011-.326.011h-1.9q-.211,1.109-.425,2.217h-1.559q.735-3.8,1.433-7.6h3.454c2.206,0,3.388,1.02,3.073,2.7a3.124,3.124,0,0,1-2.24,2.4q.727,1.25,1.452,2.5Zm-.9-6.41h-1.823q-.281,1.515-.567,3.031H270.3c1.368,0,2.184-.565,2.362-1.521s-.426-1.51-1.794-1.51"/>
        <path id="Trazado_198699" data-name="Trazado 198699" d="M280.828,57.271h-4.2q-.582.881-1.166,1.76h-1.607q2.623-3.8,5.211-7.6H280.6q1.2,3.8,2.356,7.6h-1.631l-.5-1.76m-.3-1.108q-.477-1.662-.959-3.324-1.095,1.662-2.2,3.324Z"/>
        <path id="Trazado_198700" data-name="Trazado 198700" d="M284.039,55.228a5.148,5.148,0,0,1,5.225-3.91,3.73,3.73,0,0,1,3.088,1.271l-1.167.858a2.571,2.571,0,0,0-2.077-.891,3.442,3.442,0,0,0-3.5,2.672c-.294,1.564.751,2.674,2.49,2.673a3.675,3.675,0,0,0,2.415-.9l.841.869a5.356,5.356,0,0,1-3.579,1.271c-2.568,0-4.165-1.64-3.738-3.911"/>
        <path id="Trazado_198701" data-name="Trazado 198701" d="M295.457,52.621h-2.783q.111-.6.22-1.194h7.124q-.109.6-.22,1.194h-2.782q-.594,3.2-1.213,6.41h-1.559q.62-3.205,1.213-6.41"/>
        <path id="Trazado_198702" data-name="Trazado 198702" d="M224.7,69.73H190.735a.855.855,0,0,1-.914-.907,1.073,1.073,0,0,1,1.085-.906H224.87a.855.855,0,0,1,.915.906,1.073,1.073,0,0,1-1.086.907" fill="#263238"/>
        <path id="Trazado_198703" data-name="Trazado 198703" d="M206.692,74.629H189.71a.849.849,0,0,1-.909-.907,1.083,1.083,0,0,1,1.091-.907h16.982a.851.851,0,0,1,.909.907,1.082,1.082,0,0,1-1.091.907" fill="#263238"/>
        <path id="Trazado_198704" data-name="Trazado 198704" d="M325.459,100.254H183.865a.82.82,0,0,1-.88-.908,1.125,1.125,0,0,1,1.12-.909H325.7a.822.822,0,0,1,.881.909,1.127,1.127,0,0,1-1.12.908" fill="#263238"/>
        <path id="Trazado_198705" data-name="Trazado 198705" d="M324.076,105.851H182.482a.813.813,0,0,1-.873-.908,1.132,1.132,0,0,1,1.125-.909H324.328a.815.815,0,0,1,.874.909,1.138,1.138,0,0,1-1.126.908" fill="#263238"/>
        <path id="Trazado_198706" data-name="Trazado 198706" d="M322.653,111.451H181.06a.807.807,0,0,1-.868-.909,1.142,1.142,0,0,1,1.132-.908H322.917a.809.809,0,0,1,.869.908,1.148,1.148,0,0,1-1.133.909" fill="#263238"/>
        <path id="Trazado_198707" data-name="Trazado 198707" d="M321.192,117.051H179.6a.8.8,0,0,1-.861-.909,1.156,1.156,0,0,1,1.138-.909H321.469a.8.8,0,0,1,.862.909,1.157,1.157,0,0,1-1.139.909" fill="#263238"/>
        <path id="Trazado_198708" data-name="Trazado 198708" d="M319.693,122.652H178.1a.8.8,0,0,1-.855-.909,1.165,1.165,0,0,1,1.145-.909H319.982a.8.8,0,0,1,.856.909,1.167,1.167,0,0,1-1.145.909" fill="#263238"/>
        <path id="Trazado_198709" data-name="Trazado 198709" d="M318.155,128.254H176.561a.79.79,0,0,1-.848-.909,1.174,1.174,0,0,1,1.15-.909H318.457a.789.789,0,0,1,.849.909,1.173,1.173,0,0,1-1.151.909" fill="#263238"/>
        <path id="Trazado_198710" data-name="Trazado 198710" d="M316.579,133.856H174.985a.784.784,0,0,1-.842-.909,1.184,1.184,0,0,1,1.157-.909H316.893a.785.785,0,0,1,.844.909,1.189,1.189,0,0,1-1.158.909" fill="#263238"/>
        <path id="Trazado_198711" data-name="Trazado 198711" d="M314.965,139.459H173.372a.777.777,0,0,1-.837-.909,1.2,1.2,0,0,1,1.163-.909H315.292a.778.778,0,0,1,.837.909,1.2,1.2,0,0,1-1.164.909" fill="#263238"/>
        <path id="Trazado_198712" data-name="Trazado 198712" d="M243.312,145.061H171.718a.772.772,0,0,1-.83-.909,1.2,1.2,0,0,1,1.169-.909h71.594a.772.772,0,0,1,.831.909,1.2,1.2,0,0,1-1.17.909" fill="#263238"/>
        <path id="Trazado_198713" data-name="Trazado 198713" d="M333.381,69.73H308.964a.855.855,0,0,1-.914-.907,1.071,1.071,0,0,1,1.084-.906h24.418a.855.855,0,0,1,.915.906,1.072,1.072,0,0,1-1.086.907" fill="#263238"/>
        <path id="Trazado_198714" data-name="Trazado 198714" d="M311.072,152.658H184.555a.764.764,0,0,1-.822-.909,1.215,1.215,0,0,1,1.178-.909H311.428a.763.763,0,0,1,.822.909,1.219,1.219,0,0,1-1.178.909" fill="#263238"/>
        <path id="Trazado_198715" data-name="Trazado 198715" d="M309.266,158.26H167.672a.758.758,0,0,1-.815-.909,1.23,1.23,0,0,1,1.183-.909H309.634a.758.758,0,0,1,.817.909,1.231,1.231,0,0,1-1.185.909" fill="#263238"/>
        <path id="Trazado_198716" data-name="Trazado 198716" d="M307.484,163.862H165.891a.751.751,0,0,1-.809-.909,1.238,1.238,0,0,1,1.189-.909H307.865a.753.753,0,0,1,.81.909,1.241,1.241,0,0,1-1.191.909" fill="#263238"/>
        <path id="Trazado_198717" data-name="Trazado 198717" d="M305.664,169.464H164.071a.746.746,0,0,1-.8-.909,1.25,1.25,0,0,1,1.2-.909H306.057a.747.747,0,0,1,.8.909,1.254,1.254,0,0,1-1.2.909" fill="#263238"/>
        <path id="Trazado_198718" data-name="Trazado 198718" d="M303.807,175.064H162.213a.741.741,0,0,1-.8-.909,1.258,1.258,0,0,1,1.2-.908H304.212a.742.742,0,0,1,.8.908,1.261,1.261,0,0,1-1.2.909" fill="#263238"/>
        <path id="Trazado_198719" data-name="Trazado 198719" d="M211.911,180.664h-51.6a.736.736,0,0,1-.789-.909,1.271,1.271,0,0,1,1.208-.908h51.594a.737.737,0,0,1,.792.908,1.275,1.275,0,0,1-1.21.909" fill="#263238"/>
        <g id="Grupo_146961" data-name="Grupo 146961" opacity="0.2">
          <g id="Grupo_146960" data-name="Grupo 146960">
            <g id="Grupo_146959" data-name="Grupo 146959" clip-path="url(#clip-path-5)">
              <path id="Trazado_198720" data-name="Trazado 198720" d="M206.539,225.556c.51-.446,1.786-1.433,2.552-2.021.332-.255.762-.283.945-.06l1.285,1.571s-1.425,1.592-1.881,2.132c-4.6,5.454-7.352,10.692-6.984,11.694,4.7-.482,35.406-15.51,49.162-24.344-3.054-6.376-10.314-10.359-20.205-9.908-14.077.641-29.2,10.472-35.683,22.948a25.653,25.653,0,0,0-3.2,12.468,122.556,122.556,0,0,1,14.013-14.48"/>
              <path id="Trazado_198721" data-name="Trazado 198721" d="M197.4,251.225c3.374,3.13,8.382,4.981,14.682,4.981,15.73,0,33.57-11.527,39.319-25.783a21.906,21.906,0,0,0,1.662-10.9c-14.091,10.053-41.453,26.507-55.663,31.7"/>
              <path id="Trazado_198722" data-name="Trazado 198722" d="M207.814,226.552c.054,0-20.675,18.281-17.922,23.847,2.936,5.58,55.1-25.725,68.006-36.486,13.088-10.748-.055-6.449-.042-6.449,0,0,4.439.227,1.148,3.548-6.587,6.779-54.063,30.925-57.881,29.632-3.7-1.284,6.719-14.09,6.691-14.092"/>
            </g>
          </g>
        </g>
        <path id="Trazado_198723" data-name="Trazado 198723" d="M144.378,249.128c-7.352,0-8.825-2.854-8.75-5.307.254-7.28,14.447-19.736,29.249-25.626,8.128-3.229,14.612-3.432,16.519-.512,1.565,2.4-.358,6.384-5.315,10.925-9.8,8.961-17.9,11-21.482,9.056a3.237,3.237,0,0,1-1.238-1.116q-1.362.639-2.95,1.308c-.282.118-.558.033-.62-.188a.569.569,0,0,1,.391-.611c1.058-.445,2.006-.867,2.858-1.268a3.673,3.673,0,0,1,.681-2.894,6.962,6.962,0,0,1,5.582-3.064c.946.045,1.493.467,1.462,1.129-.062,1.3-2.3,3.074-6.391,5.1a2.63,2.63,0,0,0,.924.8c2.427,1.321,9.473.959,20.129-8.784,4.558-4.176,6.383-7.751,5.042-9.808-1.662-2.548-7.839-2.249-15.376.741C150.7,224.731,136.9,236.685,136.666,243.6c-.1,3.2,2.967,4.8,8.939,4.607,7.617-.242,15.676-3.344,22.445-7,2.136-4.094,8.371-9.412,14.964-12.606,1.322-.64,2.079-.782,2.434-.462.275.245.22.668-.164,1.257-1.375,2.121-7.931,7.6-16.434,12.24a6.926,6.926,0,0,0-.291.7,2.42,2.42,0,0,0,.5,2.894c2.819,2.34,13.066-4.634,16.741-7.521a.56.56,0,0,1,.718-.04c.159.165.091.452-.149.639-.552.45-14.152,10.96-18.127,7.652-.984-.819-1.216-2.076-.679-3.635-6.869,3.6-14.839,6.554-22.207,6.789-.335.01-.662.016-.977.016m40.165-20.236a5.422,5.422,0,0,0-1.224.476c-5.708,2.763-11.285,7.311-13.73,10.983a76.929,76.929,0,0,0,12.01-8.344,13.373,13.373,0,0,0,2.944-3.115m-25.673,1.841a5.635,5.635,0,0,0-4.284,2.449,2.838,2.838,0,0,0-.536,2.12c4.341-2.151,5.656-3.574,5.681-4.145.016-.348-.513-.411-.743-.421-.039,0-.078,0-.118,0" fill="#ffa400"/>
      </g>
    </g>
    <g id="Grupo_147001" data-name="Grupo 147001">
      <g id="Grupo_147000" data-name="Grupo 147000" clip-path="url(#clip-path)">
        <path id="Trazado_198724" data-name="Trazado 198724" d="M108.888,65.538S90.459,47.306,68.346,46.174c0,0-13.183,31.924-19.573,63.584l43.891,7.824s6.03-32.852,16.224-52.044" fill="#92bfb1"/>
        <g id="Grupo_146966" data-name="Grupo 146966" transform="translate(-25.256 56.613)" opacity="0.6" style="isolation: isolate">
          <g id="Grupo_146965" data-name="Grupo 146965">
            <g id="Grupo_146964" data-name="Grupo 146964" clip-path="url(#clip-path-7)">
              <path id="Trazado_198725" data-name="Trazado 198725" d="M108.887,65.539c-10.19,19.19-16.22,52.04-16.22,52.04l-43.89-7.82a328.507,328.507,0,0,1,8.83-33.49c2.4-7.61,4.76-14.32,6.65-19.47,2.43-6.6,4.09-10.62,4.09-10.62,22.11,1.13,40.54,19.36,40.54,19.36" fill="#fff"/>
            </g>
          </g>
        </g>
        <path id="Trazado_198726" data-name="Trazado 198726" d="M99.387,47.319c-.45.43-.9.88-1.31,1.35-.07.09-.15.17-.22.26a10.1,10.1,0,0,0-2.02,3.39,5.9,5.9,0,0,0-.28,1.67,7.228,7.228,0,0,0,2.49,5.18c-.08,2.2-5.76.06-5.76.06s-8.35-4.46-9.41-9.53c3.21-.66,6.12-4.23,8.41-8.18.58-1,1.12-2.04,1.62-3.05.86-1.76,1.58-3.48,2.13-4.91Z" fill="#e4897b"/>
        <g id="Grupo_146969" data-name="Grupo 146969" opacity="0.2" style="isolation: isolate">
          <g id="Grupo_146968" data-name="Grupo 146968">
            <g id="Grupo_146967" data-name="Grupo 146967" clip-path="url(#clip-path-8)">
              <path id="Trazado_198727" data-name="Trazado 198727" d="M98.077,48.669c-.07.09-.15.17-.22.26a10.1,10.1,0,0,0-2.02,3.39,5.9,5.9,0,0,0-.28,1.67c-2.45-2.33-5.57-6.73-4.27-12.47a14.5,14.5,0,0,1,1.34-3.6l.28.55Z"/>
            </g>
          </g>
        </g>
        <path id="Trazado_198728" data-name="Trazado 198728" d="M120.406,28.542s-2.39,11.047-9.462,12.951.332-17.532.332-17.532Z" fill="#263238"/>
        <path id="Trazado_198729" data-name="Trazado 198729" d="M91.693,43.664a10.141,10.141,0,0,0,9.483,7.817,11.292,11.292,0,0,0,7.893-2.611,11.547,11.547,0,0,0,.883-.812c5.158-5.342,10.277-16.173,5.124-22.926A11,11,0,0,0,96.436,26.9c-3.671,7.145-6.165,11.172-4.743,16.769" fill="#e4897b"/>
        <path id="Trazado_198730" data-name="Trazado 198730" d="M105.793,35.023a1.007,1.007,0,0,0,.068,1.411c.374.22.936-.069,1.271-.627s.3-1.2-.068-1.412-.931.061-1.271.628" fill="#263238"/>
        <path id="Trazado_198731" data-name="Trazado 198731" d="M112.16,38.78a1.014,1.014,0,0,0,.068,1.411c.366.215.936-.069,1.271-.627s.3-1.2-.068-1.412-.954.1-1.271.628" fill="#263238"/>
        <path id="Trazado_198732" data-name="Trazado 198732" d="M109.973,37.863a23.263,23.263,0,0,0-.152,6.406,3.783,3.783,0,0,1-3-1.092Z" fill="#de5753"/>
        <path id="Trazado_198733" data-name="Trazado 198733" d="M116.126,37.453a.4.4,0,0,1-.342-.21,3.1,3.1,0,0,0-2.209-1.678.382.382,0,0,1,.073-.76h0a3.805,3.805,0,0,1,2.811,2.08.381.381,0,0,1-.147.519l-.008.005a.586.586,0,0,1-.18.044" fill="#263238"/>
        <path id="Trazado_198734" data-name="Trazado 198734" d="M106.036,31.734a.363.363,0,0,1-.145-.174.382.382,0,0,1,.3-.447h.008a3.8,3.8,0,0,1,3.368.978.38.38,0,0,1-.019.539h0a.393.393,0,0,1-.541-.02,3.094,3.094,0,0,0-2.68-.732.391.391,0,0,1-.294-.144" fill="#263238"/>
        <path id="Trazado_198735" data-name="Trazado 198735" d="M106.6,21.26l-1.27,3.333a2.64,2.64,0,0,0-2.723,2.321c-.378,3.166-4.027,6.463-6.907,7.026,0,0,.539-1.174-.566-1.411s-3.974,5.844-3.591,9.669c0,0-1.488-4.062.2-11.146C93.3,24.5,95.654,19.6,98.017,17.99Z" fill="#0c0a3e"/>
        <path id="Trazado_198736" data-name="Trazado 198736" d="M90.068,30.783a7.642,7.642,0,0,0,1.809,5.554c1.754,2.025,4.106.809,4.859-1.617.648-2.163.565-5.88-1.808-7s-4.637.584-4.86,3.058" fill="#e4897b"/>
        <path id="Trazado_198737" data-name="Trazado 198737" d="M105.331,44.706a21.1,21.1,0,0,0-2.343,1.954c-.145-.1-.291-.211-.43-.324-1.936-1.478-2.346-2.8-2.213-3.825a3.139,3.139,0,0,1,.566-1.376,3.032,3.032,0,0,1,.57-.631,11.5,11.5,0,0,0,3.2,3.688c.391.327.652.514.652.514" fill="#263238"/>
        <path id="Trazado_198738" data-name="Trazado 198738" d="M104.679,44.192l-.706.558c-1.82-1.4-2.914-2.625-3.062-3.614a3.043,3.043,0,0,1,.571-.632,11.47,11.47,0,0,0,3.2,3.688" fill="#fff"/>
        <path id="Trazado_198739" data-name="Trazado 198739" d="M102.558,46.337c-1.936-1.479-2.346-2.805-2.212-3.826a7.853,7.853,0,0,1,1.824,2.069,2.94,2.94,0,0,1,.388,1.757" fill="#de5753"/>
        <path id="Trazado_198740" data-name="Trazado 198740" d="M105.332,24.593s14.413,12.038,16.8.119c0,0-6.922-8.715-15.3-10.239s-10.867,6.8-10.867,6.8Z" fill="#0c0a3e"/>
        <path id="Trazado_198741" data-name="Trazado 198741" d="M53.377,298.623H43.242a.733.733,0,0,0-.711.573l-1.645,7.429a1.232,1.232,0,0,0,1.22,1.486c3.279-.053,5.667-.255,9.785-.255,2.537,0,10.188.266,13.691.266s3.958-3.46,2.526-3.779c-6.432-1.4-11.271-3.343-13.33-5.189a2.012,2.012,0,0,0-1.4-.531"/>
        <path id="Trazado_198742" data-name="Trazado 198742" d="M96.359,298.357H86.224a.731.731,0,0,0-.711.573l-1.645,7.429a1.232,1.232,0,0,0,1.221,1.486c3.279-.053,5.666-.255,9.784-.255,2.537,0,10.19.265,13.691.265s3.958-3.459,2.526-3.778c-6.432-1.4-11.271-3.343-13.33-5.189a2.012,2.012,0,0,0-1.4-.531"/>
        <path id="Trazado_198743" data-name="Trazado 198743" d="M48.773,106.154l44.934,6.725c.515,2.81-.719,8.605-.719,8.605,5.206,34.082,15.529,114.47,7.23,178.1H85.227s1.387-110.094-11.848-145.671c-1.523,19.04-17,145.6-17,145.6H41.119s2.28-47.608,4.564-92.578c1.206-23.744-1.256-72.593,1.019-89.966Z" fill="#0c0a3e"/>
        <g id="Grupo_146972" data-name="Grupo 146972" opacity="0.2" style="isolation: isolate">
          <g id="Grupo_146971" data-name="Grupo 146971">
            <g id="Grupo_146970" data-name="Grupo 146970" clip-path="url(#clip-path-9)">
              <path id="Trazado_198744" data-name="Trazado 198744" d="M73.383,153.919a118.634,118.634,0,0,1,4.946,19.156c1.238-16.943-3.715-34.913-3.715-34.913Z"/>
            </g>
          </g>
        </g>
        <path id="Trazado_198745" data-name="Trazado 198745" d="M61.07,114.538l25.382,3.816.647-5.032L61.8,109.544Z"/>
        <path id="Trazado_198746" data-name="Trazado 198746" d="M59.661,109.224,48.108,107.5l-.954,4.947,11.824,1.778Z"/>
        <path id="Trazado_198747" data-name="Trazado 198747" d="M89.084,113.619l-.926,4.993,4.929.741.62-5.044Z"/>
        <path id="Trazado_198748" data-name="Trazado 198748" d="M79.649,112.225A2.325,2.325,0,0,0,78.2,111.3l-4.02-.7a1.689,1.689,0,0,0-2.031,1.538l-.288,2.6a2.442,2.442,0,0,0,1.756,2.547c.058.015.115.027.174.037l4.021.693a1.689,1.689,0,0,0,2.026-1.539l.287-2.592a2.383,2.383,0,0,0-.476-1.661m-1.812,4.729-4.021-.693a1.1,1.1,0,0,1-.7-.447,1.133,1.133,0,0,1-.231-.8l.288-2.6a.819.819,0,0,1,.984-.745l4.02.7c.029.006.057.011.085.019a1.183,1.183,0,0,1,.847,1.233l-.043.4a.73.73,0,0,0-.154-.062l-1.125-.206a.586.586,0,0,0-.7.578.838.838,0,0,0,.656.829l1.125.207c.019,0,.035,0,.054,0l-.1.854a.817.817,0,0,1-.981.745" fill="#fff"/>
        <path id="Trazado_198749" data-name="Trazado 198749" d="M85.57,56.8,87.1,64.22s-3.446,18.705,1.059,36.034l4.335,2.538,2.374-3.446s-6.724-16.91-5.15-33.73l3.99-5.453Z" fill="#263238"/>
        <path id="Trazado_198750" data-name="Trazado 198750" d="M86.271,47.92l4.258,10,5.3-5.6,3.73,5.847a10.539,10.539,0,0,1-3.7,7.5l-5.505-5.535-8.382.97s-2.6-8.661-2.014-10.889,6.313-2.3,6.313-2.3" fill="#16697a"/>
        <g id="Grupo_146975" data-name="Grupo 146975" opacity="0.2" style="isolation: isolate">
          <g id="Grupo_146974" data-name="Grupo 146974">
            <g id="Grupo_146973" data-name="Grupo 146973" clip-path="url(#clip-path-10)">
              <path id="Trazado_198751" data-name="Trazado 198751" d="M57.607,76.269c2.4-7.61,4.76-14.32,6.65-19.47l2.78-1.24s3.38,10.8-9.43,20.71"/>
            </g>
          </g>
        </g>
        <path id="Trazado_198753" data-name="Trazado 198753" d="M68.346,46.175C62.428,45.89,50.462,60,47.429,62.506s-11.35,2.13-16.254-2.343c0,0-3.754-.757-5.374,1.815,0,0,7.977,11.4,19.233,10.159s18.58-11.974,18.58-11.974a24.666,24.666,0,0,0,4.732-7.284c1.6-4.088,0-6.7,0-6.7" fill="#92bfb1"/>
        <path id="Trazado_198755" data-name="Trazado 198755" d="M171.176,186.93l.835,1.975-1.946-.9-7.262-7.511,1.111-1.074Z" fill="#263238"/>
        <path id="Trazado_198756" data-name="Trazado 198756" d="M20.562,26.773l-5.486,5.3L.388,16.885a1.379,1.379,0,0,1,.033-1.95l3.5-3.387a1.381,1.381,0,0,1,1.951.034Z" fill="#263238"/>
        <g id="Grupo_146984" data-name="Grupo 146984" opacity="0.1" style="isolation: isolate">
          <g id="Grupo_146983" data-name="Grupo 146983">
            <g id="Grupo_146982" data-name="Grupo 146982" clip-path="url(#clip-path-11)">
              <path id="Trazado_198757" data-name="Trazado 198757" d="M20.562,26.773l-5.486,5.3L.388,16.885a1.379,1.379,0,0,1,.033-1.95l3.5-3.387a1.381,1.381,0,0,1,1.951.034Z" fill="#fff"/>
            </g>
          </g>
        </g>
        <path id="Trazado_198758" data-name="Trazado 198758" d="M17.991,22.125l-7.475,7.227a3.586,3.586,0,0,0-.174,4.974Q76.5,107.8,147.861,176.38s10.39,8.418,20.476,10.574l1.848-1.787c-1.815-10.153-9.878-20.821-9.878-20.821Q94.245,90.788,22.968,22.119a3.585,3.585,0,0,0-4.977.006" fill="#ffa400"/>
        <path id="Trazado_198759" data-name="Trazado 198759" d="M21.353,15.126,8.753,27.308a1.068,1.068,0,0,0-.025,1.51l1.223,1.266L22.761,17.7c19.349,18.213,33.93,34.873,33.93,34.873l-.5,1.355L60.748,56.7C56.94,48.114,28.339,20.247,23.039,15.125a1.212,1.212,0,0,0-1.686,0" fill="#263238"/>
        <rect id="Rectángulo_45162" data-name="Rectángulo 45162" width="21.204" height="4.073" transform="translate(72.886 101.634) rotate(-44.035)" fill="#16697a"/>
        <path id="Trazado_198760" data-name="Trazado 198760" d="M98.711,129.295q20.7,20.9,41.753,41.305a1.65,1.65,0,0,0,2.293,0l11.946-11.55a1.649,1.649,0,0,0,.077-2.291q-19.644-21.722-39.875-43.121a1.649,1.649,0,0,0-2.344-.053L98.737,126.95a1.649,1.649,0,0,0-.026,2.345" fill="#0c0a3e"/>
        <g id="Grupo_146990" data-name="Grupo 146990" opacity="0.6" style="isolation: isolate">
          <g id="Grupo_146989" data-name="Grupo 146989">
            <g id="Grupo_146988" data-name="Grupo 146988" clip-path="url(#clip-path-12)">
              <path id="Trazado_198761" data-name="Trazado 198761" d="M21.353,15.126,8.753,27.308a1.068,1.068,0,0,0-.025,1.51l1.223,1.266L22.761,17.7c19.349,18.213,33.93,34.873,33.93,34.873l-.5,1.355L60.748,56.7C56.94,48.114,28.339,20.247,23.039,15.125a1.212,1.212,0,0,0-1.686,0" fill="#fff"/>
            </g>
          </g>
        </g>
        <path id="Trazado_198763" data-name="Trazado 198763" d="M119.74,111.011l-1.172,1.563a4.584,4.584,0,0,0-3.613.642s.1,3.973.267,4.5c.36,1.163,5.577,4.618,6.92,4.8.423.058,1.229-2.721,1.1-3.669a16.656,16.656,0,0,0-1.784-3.615l.98-1.394Z" fill="#e4897b"/>
        <path id="Trazado_198764" data-name="Trazado 198764" d="M31.241,62.176l.159-1.253s.844.208,1.206-1.25,1.093-5.06.58-5.94a45.62,45.62,0,0,0-4.475-5.012c-.746-.646-2.473,2.4-2.859,3.813s1.569,6.872,1.569,6.872l-.08,2.372a4.422,4.422,0,0,0,3.9.4" fill="#e4897b"/>
        <path id="Trazado_198765" data-name="Trazado 198765" d="M108.888,65.538c2.865,3.286,11.891,16.586,14.364,23.077,3.468,9.1,0,27.407,0,27.407l-6.035-4.045s1.133-13.933-.422-18.877-13.706-14.242-13.706-14.242a23.751,23.751,0,0,1,1.821-6.48,27.468,27.468,0,0,1,3.978-6.84" fill="#92bfb1"/>
        <g id="Grupo_146999" data-name="Grupo 146999" opacity="0.2" style="isolation: isolate">
          <g id="Grupo_146998" data-name="Grupo 146998">
            <g id="Grupo_146997" data-name="Grupo 146997" clip-path="url(#clip-path-13)">
              <path id="Trazado_198767" data-name="Trazado 198767" d="M108.077,82.989c-2.71-2.38-4.99-4.13-4.99-4.13a23.591,23.591,0,0,1,1.63-6.03,19.731,19.731,0,0,1,3.36,10.16"/>
            </g>
          </g>
        </g>
      </g>
    </g>
  </g>
</svg>
