<svg xmlns="http://www.w3.org/2000/svg" width="113" height="113" viewBox="0 0 113 113">
  <g id="Grupo_147350" data-name="Grupo 147350" transform="translate(-810 -6526)">
    <circle id="Elipse_1397" data-name="Elipse 1397" cx="56.5" cy="56.5" r="56.5" transform="translate(810 6526)" fill="#d0eae2"/>
    <g id="jefe" transform="translate(817.74 6543.897)">
      <path id="Trazado_199420" data-name="Trazado 199420" d="M204.976,311.872v-8.193H183.909v8.193l10.534,9.363Z" transform="translate(-143.226 -259.306)" fill="#e6af78"/>
      <path id="Trazado_199421" data-name="Trazado 199421" d="M183.909,303.677v8.644c13.27,4.781,21.067-7.185,21.067-7.185v-1.46Z" transform="translate(-143.226 -259.304)" fill="#d29b6e"/>
      <path id="Trazado_199422" data-name="Trazado 199422" d="M91.567,361.122c-.008-4.51-2.86-9.318-7.768-10.683l-9.813-2.033L71.2,344.2a1.17,1.17,0,0,0-1.678-.2L57.611,354.288h0L45.662,344.041a1.17,1.17,0,0,0-1.677.207l-2.771,4.219-9.805,2.07c-4.9,1.383-7.736,6.2-7.728,10.712l.005,2.9A3.315,3.315,0,0,0,27.2,367.22l26.92-.051,7.023-.013,26.92-.051a3.315,3.315,0,0,0,3.506-3.081Z" transform="translate(-6.41 -293.505)" fill="#eff2fa"/>
      <g id="Grupo_147348" data-name="Grupo 147348" transform="translate(17.271 59.586)">
        <path id="Trazado_199423" data-name="Trazado 199423" d="M32.223,421.013l-6.251-4.658a11.719,11.719,0,0,0-2.292,6.907l.005,2.9a3.315,3.315,0,0,0,3.517,3.068l7.251-.014v-3.291A6.558,6.558,0,0,0,32.223,421.013Z" transform="translate(-23.68 -415.105)" fill="#e4eaf6"/>
        <path id="Trazado_199424" data-name="Trazado 199424" d="M421.74,418.73l-.005-2.9a11.657,11.657,0,0,0-3.292-8.03l-5.865,5.908a6.559,6.559,0,0,0-2.231,4.916v3.205l7.887-.015A3.315,3.315,0,0,0,421.74,418.73Z" transform="translate(-353.848 -407.797)" fill="#e4eaf6"/>
      </g>
      <path id="Trazado_199425" data-name="Trazado 199425" d="M129.686,34.839C129.87,30.16,132.26,24.278,132.85,23c.075-.164.118-.251.118-.251,1.824-.238,3.571-.383,5.236-.452q.714-.029,1.407-.041c12.713-.211,20.284,3.953,20.284,3.953l2.379,5.631c3.366-10.616,2.179-19.588,1.1-22.024-8.191,1.186-20.3-5.765-27.928.052H134.8c-4.848.009-7.7,4.225-7.69,9.378.009,4.975,2.332,14.849,2.332,14.849l.245,1.625c0-.167-.006-.415,0-.585C129.686,35.124,129.685,34.848,129.686,34.839Z" transform="translate(-94.725 -6.413)" fill="#0c0a3e"/>
      <path id="Trazado_199426" data-name="Trazado 199426" d="M176.891,124.606q.018-.139.034-.277c.283-2.43.557-5.506-.483-7.758-.647-1.4-1.2-2.852-1.806-4.275,0,0-7.571-4.164-20.284-3.953q-.693.011-1.407.041c-1.665.069-3.412.213-5.236.452,0,0-.042.088-.118.252-4.385,9.526-5.081,21.364,2.959,29.229a15.643,15.643,0,0,0,6.575,3.942q.464.132.937.23l.184.037a12.687,12.687,0,0,0,2.412.229C170.146,142.738,175.813,133.008,176.891,124.606Z" transform="translate(-109.466 -92.506)" fill="#f0c087"/>
      <path id="Trazado_199427" data-name="Trazado 199427" d="M149.986,124.46c-.275-13.094,1.9-12.436,1.9-12.436,5.37-1.239,14.26-.364,23.251,1.486q-.249-.608-.5-1.212s-7.571-4.164-20.284-3.953q-.693.011-1.407.041c-1.665.069-3.412.213-5.236.452,0,0-.042.088-.118.252-4.385,9.526-5.081,21.364,2.959,29.229a15.643,15.643,0,0,0,6.575,3.942q.464.132.937.23l.184.037a12.67,12.67,0,0,0,2.406.228C157.7,141.721,150.189,134.17,149.986,124.46Z" transform="translate(-109.466 -92.507)" fill="#e6af78"/>
      <path id="Trazado_199428" data-name="Trazado 199428" d="M190.967,9.809c-8.191,1.186-20.3-5.765-27.928.052,0,0-6.073,7.075-2.479,12.88,1.824-.238,3.571-.383,5.236-.452h.03q.7-.028,1.377-.04c12.713-.211,20.284,3.953,20.284,3.953l2.379,5.631C193.232,21.217,192.045,12.246,190.967,9.809Z" transform="translate(-122.317 -6.412)" fill="#0c0a3e"/>
      <path id="Trazado_199429" data-name="Trazado 199429" d="M156.565,358.085l3.5-3.518L148.12,344.32a1.17,1.17,0,0,0-1.677.207l-2.771,4.219L153.06,361.6Z" transform="translate(-108.868 -293.784)" fill="#e4eaf6"/>
      <path id="SVGCleanerId_0" d="M262.928,361.3l9.339-12.893-2.787-4.208a1.17,1.17,0,0,0-1.678-.2l-11.911,10.292,3.518,3.5Z" transform="translate(-204.691 -293.504)" fill="#e4eaf6"/>
      <g id="Grupo_147349" data-name="Grupo 147349" transform="translate(51.201 50.225)">
        <path id="SVGCleanerId_0_1_" d="M262.928,361.3l9.339-12.893-2.787-4.208a1.17,1.17,0,0,0-1.678-.2l-11.911,10.292,3.518,3.5Z" transform="translate(-255.892 -343.729)" fill="#e4eaf6"/>
      </g>
      <path id="Trazado_199430" data-name="Trazado 199430" d="M237.706,461.022l-4.389-.146-1.291,6.322,7.023-.013-1.342-6.163" transform="translate(-184.312 -393.534)" fill="#ffa400"/>
      <path id="Trazado_199431" data-name="Trazado 199431" d="M231.908,420.675a2.348,2.348,0,0,0,2.345,2.337l2.341,0a2.348,2.348,0,0,0,2.336-2.345l0-1.17-3.518-3.5-3.5,3.518Z" transform="translate(-184.21 -355.204)" fill="#ffa400"/>
      <path id="Trazado_199432" data-name="Trazado 199432" d="M86.254,354.707a12.8,12.8,0,0,0-2.239-7.139,11.3,11.3,0,0,0-6.332-4.6l-.071-.017-9.37-1.942L67.1,339.282l-1.393-2.1c-.012-.018-.025-.036-.038-.054a2.268,2.268,0,0,0-3.251-.389l-.021.018-3.97,3.431L51.2,346.427l-6.25-5.36-4.982-4.272-.021-.018a2.275,2.275,0,0,0-1.238-.5q-.1-.008-.194-.008a2.11,2.11,0,0,0-.583.08,2.286,2.286,0,0,0-.871.448c-.024.02-.046.044-.069.065-.045.04-.09.081-.132.125a2.215,2.215,0,0,0-.163.193l-.018.025-.021.029-2.523,3.841-9.363,1.977-.071.018a11.3,11.3,0,0,0-6.315,4.623,12.8,12.8,0,0,0-2.212,7.147l.005,2.9a4.41,4.41,0,0,0,4.607,4.163h.01l26.916-.051h.009l7.011-.013h.009l26.919-.051a4.85,4.85,0,0,0,3.2-1.178,3.958,3.958,0,0,0,1.4-3ZM50.039,356h.007l2.341,0c.09,0,.18,0,.268-.012l.741,3.668-4.346.008.727-3.671C49.864,355.993,49.951,356,50.039,356Zm3.585-3.445a1.245,1.245,0,0,1-1.241,1.246l-2.341,0a1.259,1.259,0,0,1-.878-.365,1.234,1.234,0,0,1-.368-.877v-.716l2.41-2.419,2.419,2.41Zm4.478.648-2.607-2.6h0l-.036-.036-2.644-2.634,7.553-6.526,3.447-2.978a.083.083,0,0,1,.087,0l0,0,1.169,1.765,1.169,1.765-4.07,5.618ZM38.534,338.467a.059.059,0,0,1,.019.008l11.036,9.463-5.269,5.288-8.182-11.206,2.325-3.539A.079.079,0,0,1,38.534,338.467ZM20.791,359.71h-.006a2.23,2.23,0,0,1-2.412-1.973l-.005-2.9c-.007-3.814,2.358-8.345,6.894-9.645l9.074-1.916,8.969,12.284a1.1,1.1,0,0,0,.8.447c.028,0,.056,0,.084,0a1.1,1.1,0,0,0,.7-.249,1.064,1.064,0,0,0,.081-.074l1.868-1.875a3.437,3.437,0,0,0,.777,1.183c.033.033.068.066.1.1l-.905,4.571Zm62.622-.746a2.658,2.658,0,0,1-1.759.632l-26.021.049-.922-4.566a3.452,3.452,0,0,0,.875-1.285l1.876,1.869a1.1,1.1,0,0,0,.774.32q.044,0,.088,0a1.1,1.1,0,0,0,.8-.45l8.923-12.318,9.081,1.882c4.541,1.282,6.923,5.8,6.93,9.619l.005,2.9A1.8,1.8,0,0,1,83.414,358.964Z" transform="translate(0 -287.092)"/>
      <path id="Trazado_199433" data-name="Trazado 199433" d="M121.935,29.014h0v.122q-.012.617,0,1.227v.022c0,.521.023,1.06.063,1.6h0c.018.24.04.485.066.729h0c.047.446.109.9.183,1.345h0q.042.253.089.5h0v.008l0,.015V34.6l.005.027,0,.009v.006h0a23.64,23.64,0,0,0,2.274,6.515l.082.155c.052.1.1.2.158.292q.139.253.285.5l.011.018c.11.188.224.374.339.558l.039.063c.128.2.259.406.394.606a19.194,19.194,0,0,0,6.789,6.263l.019.01q.552.292,1.117.537l.036.016c.176.075.352.147.53.215l.091.035q.26.1.522.186l.085.028c.182.06.365.117.549.169h0c.168.048.338.093.507.135l.03.007c.159.039.319.075.476.108h0l.129.026.07.014h0l.014,0h0l.038.007c.115.022.231.038.347.057.088.014.176.031.264.043.135.019.27.033.406.049.079.009.158.02.237.028.156.015.312.024.467.033.059,0,.117.009.176.012q.322.015.642.015h.026l.241,0h.012l.087,0,.134,0q.153-.006.306-.015l.031,0a15.843,15.843,0,0,0,10.321-5.049l.039-.04q.122-.126.243-.255l.122-.132.108-.117.063-.071.055-.061.076-.088c.055-.063.109-.125.163-.189l.1-.113q.116-.137.229-.275l.009-.011A23.267,23.267,0,0,0,156.8,33.129c.028-.226.052-.453.073-.672h0q.012-.13.023-.261h0q.021-.258.036-.517.023-.3.041-.589c.057-1,.052-1.973.041-2.713,0-.113,0-.362.01-.626a18.063,18.063,0,0,0-.028-2.265c3.376-10.861,2.092-20.006.975-22.531a1.1,1.1,0,0,0-1.161-.642,13.471,13.471,0,0,1-1.916.128,45.108,45.108,0,0,1-8.362-1.159A50.341,50.341,0,0,0,136.969,0a13.819,13.819,0,0,0-8.295,2.354h-.289c-5.184.01-8.8,4.318-8.785,10.478.009,4.8,2.051,13.761,2.332,14.975Zm11.283-12.079q.49-.008.969-.007l.317,0c.228,0,.457,0,.682.007l.127,0a51.577,51.577,0,0,1,6.088.492,42.26,42.26,0,0,1,9.952,2.592c.579.237,1.01.435,1.276.563l.114.269,2.023,4.787,0,2.212,0,2.478c0,.425-.018.861-.046,1.3-.01.121-.02.242-.032.362a21.588,21.588,0,0,1-5.068,12.141,14.117,14.117,0,0,1-9.43,4.99l-.029,0c-.087.006-.173.009-.26.013l-.119,0c-.1,0-.19,0-.285,0h-.021q-.269,0-.54-.013c-.055,0-.11-.008-.164-.012-.126-.008-.251-.015-.377-.027-.067-.006-.133-.016-.2-.023-.114-.013-.227-.025-.341-.041-.073-.01-.146-.024-.219-.036-.114-.018-.229-.036-.342-.057l-.167-.034c-.285-.059-.574-.13-.859-.211q-.3-.085-.6-.187l-.084-.03c-.165-.058-.33-.118-.493-.183l-.13-.054c-.151-.062-.3-.126-.452-.193L134.4,48q-.24-.112-.479-.233l-.072-.037a16.945,16.945,0,0,1-6.1-5.608,21.806,21.806,0,0,1-3.62-11.784l0-1.185q.012-.546.045-1.1c.013-.216.033-.432.054-.649.008-.067.015-.134.024-.2s.015-.117.023-.175q.018-.128.037-.257.013-.085.026-.169.021-.134.045-.268c.009-.053.018-.107.028-.161q.025-.141.053-.282c.009-.049.019-.1.029-.148q.03-.151.063-.3l.027-.129q.036-.166.075-.332l.023-.1c.03-.13.062-.259.094-.388l.01-.042c.184-.734.4-1.46.616-2.153l.012-.037q.06-.187.12-.371l.019-.056q.057-.174.116-.344l.022-.065q.056-.164.113-.325l.025-.072c.037-.1.074-.208.111-.31l.025-.07q.055-.153.11-.3l.024-.066q.055-.149.11-.293l.023-.061.11-.288.02-.051q.057-.146.112-.286l.015-.038q.058-.146.114-.285l.01-.024c.04-.1.08-.2.119-.291h0c.158-.384.3-.718.421-.992v0l.082-.186.014-.03.049-.109c.2-.025.41-.046.615-.069.165-.018.331-.038.5-.055.226-.023.452-.042.677-.062.157-.014.315-.03.471-.043.246-.02.491-.036.736-.053.136-.009.273-.021.409-.029q.57-.035,1.136-.059C132.3,16.956,132.761,16.942,133.218,16.935ZM128.39,4.549h.648a1.1,1.1,0,0,0,.663-.225,11.559,11.559,0,0,1,7.268-2.128A48.719,48.719,0,0,1,146.1,3.433a46.585,46.585,0,0,0,8.79,1.2c.457,0,.9-.017,1.327-.05.739,2.594,1.466,9.287-.563,17.527l-1.161-2.747s-.005-.009-.007-.014a1.071,1.071,0,0,0-.069-.131c0-.006-.006-.012-.009-.017s-.011-.014-.016-.021-.02-.033-.032-.049h0c-.016-.022-.035-.042-.052-.062l-.009-.012,0,0a1.1,1.1,0,0,0-.12-.112l-.024-.018a1.112,1.112,0,0,0-.126-.084l-.011-.007c-.026-.014-.1-.055-.225-.118-1.3-.662-7.961-3.773-18.6-3.968h-.055q-.464-.008-.937-.008h-.162q-.372,0-.75.006h-.1c-.475.008-.958.022-1.434.041-1.758.073-3.552.227-5.333.46a1.1,1.1,0,0,0-.847.613l-.008.017c-.017.034-.057.12-.117.251l-.055.12a46.555,46.555,0,0,0-2.357,6.114,59.994,59.994,0,0,1-1.235-9.529C121.787,8.713,123.823,4.557,128.39,4.549Z" transform="translate(-88.314)"/>
    </g>
    <path id="Trazado_199434" data-name="Trazado 199434" d="M226.39,281.181a5.322,5.322,0,0,0,5.135-3.936,1.131,1.131,0,0,0-2.185-.585,3.055,3.055,0,0,1-5.9,0,1.131,1.131,0,1,0-2.185.585A5.321,5.321,0,0,0,226.39,281.181Z" transform="translate(642.567 6305.668)"/>
  </g>
</svg>
