<svg xmlns="http://www.w3.org/2000/svg" width="222" height="201" viewBox="0 0 222 201">
  <g id="Grupo_147323" data-name="Grupo 147323" transform="translate(2494 5296)">
    <rect id="Rectángulo_45240" data-name="Rectángulo 45240" width="222" height="201" rx="12" transform="translate(-2494 -5296)" fill="#fff"/>
    <g id="agente" transform="translate(-2475.632 -5278.142)">
      <path id="Trazado_198996" data-name="Trazado 198996" d="M77.239,141l-3.486,1.743a35.91,35.91,0,0,1-7.619,2.776l-17.368,4.39a10.877,10.877,0,0,0-8.2,9.943L36.5,209.631a3.9,3.9,0,0,0,3.809,4H88.15Z" transform="translate(-4.429 -49.965)" fill="#92bfb1"/>
      <path id="Trazado_198997" data-name="Trazado 198997" d="M174.716,174.121a18.808,18.808,0,0,1-15.624-29.247,41.221,41.221,0,0,1-5.294-2.131L150.311,141,139.4,213.634h47.777a3.885,3.885,0,0,0,3.874-3.874V209.7l-3.357-40.8A18.472,18.472,0,0,1,174.716,174.121Z" transform="translate(-40.893 -49.965)" fill="#92bfb1"/>
      <path id="Trazado_198998" data-name="Trazado 198998" d="M110.511,212.11h14.85l10.911-72.634-5.682-2.776-5.875,12.138a2.656,2.656,0,0,1-2.389,1.485h-9.233a2.606,2.606,0,0,1-2.389-1.55L105.282,136.7,99.6,139.476Z" transform="translate(-26.79 -48.441)" fill="#dae6f1"/>
      <path id="Trazado_198999" data-name="Trazado 198999" d="M146.987,159.491l2.97-20.015-5.682-2.776L138.4,148.838l8.329,10.395Z" transform="translate(-40.539 -48.441)" fill="#edf4fc"/>
      <path id="Trazado_199000" data-name="Trazado 199000" d="M102.67,159.491a.891.891,0,0,0,.194-.258L111,149.161l-.194-.387L105.382,136.7,99.7,139.476Z" transform="translate(-26.825 -48.441)" fill="#edf4fc"/>
      <path id="Trazado_199001" data-name="Trazado 199001" d="M130.031,155.5a2.656,2.656,0,0,1-2.389,1.485h-9.233a2.694,2.694,0,0,1-2.2-1.162l-1.614,2,3.874,10.072H127.9l3.874-10.072Z" transform="translate(-32.105 -55.103)" fill="#d0eae2"/>
      <path id="Trazado_199002" data-name="Trazado 199002" d="M127.327,174.7H117.9l-5.1,35.123,2.389,15.754h14.85l2.389-15.754Z" transform="translate(-31.467 -61.907)" fill="#d0eae2"/>
      <circle id="Elipse_1360" data-name="Elipse 1360" cx="18.788" cy="18.788" r="18.788" transform="translate(115.035 86.58)" fill="#ffa400"/>
      <g id="Grupo_147185" data-name="Grupo 147185" transform="translate(53.036 25.503)">
        <path id="Trazado_199003" data-name="Trazado 199003" d="M121.054,126.457A25.587,25.587,0,0,1,108.4,123.1v8.781l5.423,12.073a2.606,2.606,0,0,0,2.389,1.55h9.233a2.656,2.656,0,0,0,2.389-1.485l5.875-12.138V123.1A25.587,25.587,0,0,1,121.054,126.457Z" transform="translate(-82.945 -69.125)" fill="#f9d0b4"/>
        <path id="Trazado_199004" data-name="Trazado 199004" d="M169.343,58.3a14.69,14.69,0,0,0-1.679.129V77.863a15.731,15.731,0,0,1-.065,1.743,10.694,10.694,0,0,0,3.422-21.112,4.8,4.8,0,0,0-1.679-.194Z" transform="translate(-103.923 -46.162)" fill="#f9d0b4"/>
        <path id="Trazado_199005" data-name="Trazado 199005" d="M81.451,77.789V58.42A10.731,10.731,0,0,0,77.965,79.6a10.923,10.923,0,0,0,3.551,0,17.53,17.53,0,0,1-.065-1.808Z" transform="translate(-68.973 -46.153)" fill="#f9d0b4"/>
        <path id="Trazado_199006" data-name="Trazado 199006" d="M117.806,40.017c-9.426,11.815-23.243,10.137-27.892,9.168A1.391,1.391,0,0,0,88.3,50.218V71.136a25.632,25.632,0,0,0,51.264,0V47.893a1.407,1.407,0,0,0-1.356-1.356c-10.653-.323-16.27-4.519-18.4-6.65a1.4,1.4,0,0,0-1.937,0,.225.225,0,0,1-.065.129Z" transform="translate(-75.822 -39.5)" fill="#f9d0b4"/>
      </g>
      <path id="Trazado_199007" data-name="Trazado 199007" d="M82.015,38.527a14.689,14.689,0,0,1,1.679.129V37.429a1.364,1.364,0,0,1,1.356-1.356h.258c4.649.968,18.465,2.647,27.892-9.168a1.418,1.418,0,0,1,1.937-.258c.065,0,.065.065.129.129,2.131,2.131,7.748,6.327,18.4,6.65a1.458,1.458,0,0,1,1.356,1.356v3.809a10.635,10.635,0,0,1,9.1,2.905V22.257A14.687,14.687,0,0,0,129.469,7.6a14.533,14.533,0,0,0-7.489,2.066A14.816,14.816,0,0,0,109.325,2.5h-7.554A26.549,26.549,0,0,0,75.3,28.971v11.88a10.611,10.611,0,0,1,6.715-2.324Z" transform="translate(-18.179 -0.886)" fill="#16697a"/>
      <path id="Trazado_199008" data-name="Trazado 199008" d="M184.01,166.939l-5.746-5.746a3.242,3.242,0,1,1,4.519-4.649l.065.065,3.486,3.486,7.3-7.3a3.242,3.242,0,0,1,4.584,4.584l-9.555,9.555a3.4,3.4,0,0,1-4.649,0Z" transform="translate(-54.319 -53.823)" fill="#edf4fc"/>
      <path id="Trazado_199009" data-name="Trazado 199009" d="M121.631,104.291a13.438,13.438,0,0,1-11.363-6.263,1.639,1.639,0,0,1,2.776-1.743,10.229,10.229,0,0,0,14.075,3.228,10.99,10.99,0,0,0,3.228-3.228,1.639,1.639,0,0,1,2.776,1.743A13.829,13.829,0,0,1,121.631,104.291Z" transform="translate(-30.485 -33.852)"/>
      <circle id="Elipse_1361" data-name="Elipse 1361" cx="3.034" cy="3.034" r="3.034" transform="translate(77.071 46.357)"/>
      <circle id="Elipse_1362" data-name="Elipse 1362" cx="3.034" cy="3.034" r="3.034" transform="translate(99.669 46.357)"/>
      <path id="Trazado_199010" data-name="Trazado 199010" d="M87.265,214.414H39.488A5.483,5.483,0,0,1,34,208.926v-.194l4.068-49.779a12.516,12.516,0,0,1,9.426-11.363l17.368-4.39a40.992,40.992,0,0,0,7.3-2.647l3.486-1.743a1.6,1.6,0,0,1,2.131.71,1.2,1.2,0,0,1,.129.452l10.976,72.57a1.56,1.56,0,0,1-1.356,1.808A.488.488,0,0,1,87.265,214.414Zm-50.037-5.553a2.345,2.345,0,0,0,2.26,2.324h45.9l-10.33-68.567-1.55.775a41.646,41.646,0,0,1-7.941,2.905L48.2,150.69a9.151,9.151,0,0,0-6.973,8.458Z" transform="translate(-3.544 -49.131)"/>
      <path id="Trazado_199011" data-name="Trazado 199011" d="M186.391,214.353H138.614A1.6,1.6,0,0,1,137,212.738v-.258l10.911-72.634a1.594,1.594,0,0,1,1.808-1.356.933.933,0,0,1,.452.129l3.486,1.743a34.08,34.08,0,0,0,5.036,2,1.6,1.6,0,0,1,1.033,2l-.194.387a17.14,17.14,0,0,0,26.148,21.887,1.56,1.56,0,0,1,2.26.065,1.915,1.915,0,0,1,.452.968l3.357,40.8v.065a5.485,5.485,0,0,1-5.359,5.617C186.456,214.353,186.456,214.353,186.391,214.353Zm-45.9-3.228h45.9a2.246,2.246,0,0,0,2.26-2.26l-3.1-37.641a20.415,20.415,0,0,1-29.7-26.342,29.463,29.463,0,0,1-3.551-1.55l-1.55-.775Z" transform="translate(-40.043 -49.069)"/>
      <path id="Trazado_199012" data-name="Trazado 199012" d="M124.461,212.826h-14.85A1.658,1.658,0,0,1,108,211.47L97.086,138.836a1.562,1.562,0,0,1,.9-1.679l5.682-2.776a1.6,1.6,0,0,1,2.131.71v.065l5.423,12.073a.974.974,0,0,0,.9.581h9.233a.974.974,0,0,0,.9-.581l5.875-12.138a1.629,1.629,0,0,1,2.131-.775l5.682,2.776a1.649,1.649,0,0,1,.9,1.679l-10.782,72.7A1.658,1.658,0,0,1,124.461,212.826ZM110.968,209.6h12.073l10.524-70.052L130.4,138l-5.165,10.718a4.2,4.2,0,0,1-3.809,2.389h-9.233a4.237,4.237,0,0,1-3.874-2.518L103.543,138l-3.1,1.55Z" transform="translate(-25.89 -47.543)"/>
      <path id="Trazado_199013" data-name="Trazado 199013" d="M69.814,229.211A1.6,1.6,0,0,1,68.2,227.6V185.114a1.614,1.614,0,0,1,3.228,0v42.418A1.654,1.654,0,0,1,69.814,229.211Z" transform="translate(-15.663 -65.026)"/>
      <path id="Trazado_199014" data-name="Trazado 199014" d="M186.414,231.337a1.6,1.6,0,0,1-1.614-1.614V191.114a1.614,1.614,0,1,1,3.228,0v38.545A1.654,1.654,0,0,1,186.414,231.337Z" transform="translate(-56.981 -67.152)"/>
      <path id="Trazado_199015" data-name="Trazado 199015" d="M146.122,160.207a1.416,1.416,0,0,1-1.1-.452l-.387-.387-8.329-10.395a1.7,1.7,0,0,1-.194-1.743l5.875-12.138a1.629,1.629,0,0,1,2.131-.775l5.682,2.776a1.649,1.649,0,0,1,.9,1.679l-2.97,20.015A1.608,1.608,0,0,1,146.122,160.207Zm-6.65-12.461,5.617,6.973,2.26-15.237-3.164-1.55Z" transform="translate(-39.674 -47.543)"/>
      <path id="Trazado_199016" data-name="Trazado 199016" d="M101.77,160.235a1.658,1.658,0,0,1-1.614-1.356l-2.97-20.015a1.562,1.562,0,0,1,.9-1.679l5.682-2.776a1.6,1.6,0,0,1,2.131.71v.065l5.423,12.073c0,.065.065.065.065.129a1.652,1.652,0,0,1-.065,1.872l-8.135,10.072-.387.387a1.174,1.174,0,0,1-1.033.517Zm-1.227-20.66,2.26,15.237,5.359-6.65-4.519-10.072Z" transform="translate(-25.926 -47.572)"/>
      <path id="Trazado_199017" data-name="Trazado 199017" d="M127.127,168.612H117.7a1.532,1.532,0,0,1-1.485-1.033l-3.874-10.072a1.634,1.634,0,0,1,.258-1.614l1.614-2a1.567,1.567,0,0,1,1.356-.581,1.754,1.754,0,0,1,1.291.71,1.1,1.1,0,0,0,.839.452h9.233a.974.974,0,0,0,.9-.581,1.629,1.629,0,0,1,2.131-.775,3.547,3.547,0,0,1,.581.452l1.872,2.26a1.61,1.61,0,0,1,.258,1.614l-3.874,10.072a2.034,2.034,0,0,1-1.679,1.1Zm-8.329-3.228h7.167l3.164-8.2-.129-.129a4.005,4.005,0,0,1-2.26.646h-9.233a4.069,4.069,0,0,1-1.937-.452Z" transform="translate(-31.268 -54.205)"/>
      <path id="Trazado_199018" data-name="Trazado 199018" d="M129.153,226.34H114.3a1.658,1.658,0,0,1-1.614-1.356L110.3,209.23v-.452l5.1-35.123a1.607,1.607,0,0,1,1.614-1.356h9.426a1.658,1.658,0,0,1,1.614,1.356l5.1,35.123v.452l-2.389,15.754a1.658,1.658,0,0,1-1.614,1.356Zm-13.494-3.228h12.073l2.131-14.139-4.842-33.509h-6.585l-4.842,33.509Z" transform="translate(-30.581 -61.057)"/>
      <path id="Trazado_199019" data-name="Trazado 199019" d="M182.9,172.4A20.4,20.4,0,1,1,203.3,152,20.4,20.4,0,0,1,182.9,172.4Zm0-37.576A17.174,17.174,0,1,0,200.076,152,17.166,17.166,0,0,0,182.9,134.828Z" transform="translate(-49.079 -46.634)"/>
      <path id="Trazado_199020" data-name="Trazado 199020" d="M59.235,28.164H57.879V26.808A1.848,1.848,0,0,0,56.071,25a1.8,1.8,0,0,0-1.808,1.808v1.356H52.908a1.808,1.808,0,1,0,0,3.616h1.356v1.356a1.808,1.808,0,0,0,3.616,0V31.779h1.356a1.848,1.848,0,0,0,1.808-1.808A1.8,1.8,0,0,0,59.235,28.164Z" transform="translate(-9.603 -8.859)" fill="#ffa400"/>
      <path id="Trazado_199021" data-name="Trazado 199021" d="M197.024,102.121a6.336,6.336,0,0,1-5.1-4.971c0-.065-.065-.129-.129-.065a.063.063,0,0,0-.065.065,6.254,6.254,0,0,1-5.1,4.971.139.139,0,0,0-.129.129c0,.065.065.065.129.129a6.336,6.336,0,0,1,5.1,4.971c0,.065.065.129.129.065a.063.063,0,0,0,.065-.065,6.254,6.254,0,0,1,5.1-4.971.139.139,0,0,0,.129-.129C197.153,102.121,197.088,102.121,197.024,102.121Z" transform="translate(-57.584 -34.394)" fill="#16697a"/>
      <ellipse id="Elipse_1363" data-name="Elipse 1363" cx="2.104" cy="1.683" rx="2.104" ry="1.683" transform="translate(40.832 35.679)" fill="#92bfb1"/>
      <ellipse id="Elipse_1364" data-name="Elipse 1364" cx="1.683" cy="2.104" rx="1.683" ry="2.104" transform="translate(140.981 76.917)" fill="#ffa400"/>
      <circle id="Elipse_1365" data-name="Elipse 1365" cx="2.104" cy="2.104" r="2.104" transform="translate(24 124.887)" fill="#f5c84c"/>
      <path id="Trazado_199022" data-name="Trazado 199022" d="M124.559,146.216h-9.233a4.237,4.237,0,0,1-3.874-2.518l-5.423-12.073a2.294,2.294,0,0,1-.129-.646V122.2a1.6,1.6,0,0,1,1.614-1.614,1.534,1.534,0,0,1,.775.194,23.871,23.871,0,0,0,23.695,0,1.593,1.593,0,0,1,2.2.581,1.719,1.719,0,0,1,.194.775v8.781a2.322,2.322,0,0,1-.129.71l-5.875,12.138a4.154,4.154,0,0,1-3.809,2.453Zm-15.431-15.56,5.294,11.751a.974.974,0,0,0,.9.581h9.233a.974.974,0,0,0,.9-.581l5.746-11.815v-5.811a26.872,26.872,0,0,1-22.081,0Z" transform="translate(-29.022 -42.72)"/>
      <path id="Trazado_199023" data-name="Trazado 199023" d="M168.49,80.39a9.854,9.854,0,0,1-1.937-.194,1.566,1.566,0,0,1-1.356-1.679,15.2,15.2,0,0,0,.065-1.614V57.534a1.658,1.658,0,0,1,1.356-1.614,12.318,12.318,0,1,1,3.809,24.341,9.773,9.773,0,0,1-1.937.129Zm-.065-3.228a9.1,9.1,0,1,0,.194-18.207h-.194V77.162Z" transform="translate(-50.033 -19.765)"/>
      <path id="Trazado_199024" data-name="Trazado 199024" d="M78.932,80.4a12.3,12.3,0,1,1-.065-24.6c.646,0,1.291.065,2,.129a1.607,1.607,0,0,1,1.356,1.614V76.977a15.2,15.2,0,0,0,.065,1.614,1.566,1.566,0,0,1-1.356,1.679C80.288,80.334,79.577,80.4,78.932,80.4Zm0-21.371a9.1,9.1,0,0,0,0,18.207H79v-.258Z" transform="translate(-15.096 -19.773)"/>
      <path id="Trazado_199025" data-name="Trazado 199025" d="M113.046,97.58A27.251,27.251,0,0,1,85.8,70.334V49.674a2.97,2.97,0,0,1,1.1-2.324,2.937,2.937,0,0,1,2.518-.581c5.036,1.033,17.561,2.324,26.277-8.587a3.047,3.047,0,0,1,4.2-.517c.065.065.194.129.258.194,1.808,1.743,7.1,5.875,17.368,6.2a3.025,3.025,0,0,1,2.905,2.905V70.27a27.459,27.459,0,0,1-27.375,27.31ZM89.028,49.932V70.27a24.018,24.018,0,0,0,48.035,0V47.285c-10.588-.387-16.464-4.39-19.111-6.908C108.139,52.515,93.677,50.9,89.028,49.932Z" transform="translate(-21.9 -13.131)"/>
      <path id="Trazado_199026" data-name="Trazado 199026" d="M143.21,42.225a1.685,1.685,0,0,1-1.1-.452,9.162,9.162,0,0,0-6.327-2.583,10.558,10.558,0,0,0-1.42.129,1.656,1.656,0,0,1-1.872-1.356V34.154c-10.588-.387-16.464-4.39-19.111-6.908C103.568,39.384,89.106,37.77,84.457,36.8v.9a1.6,1.6,0,0,1-1.614,1.614h-.258a9.672,9.672,0,0,0-1.42-.129,9.1,9.1,0,0,0-5.682,2,1.566,1.566,0,0,1-2.26-.258A1.422,1.422,0,0,1,72.9,39.9V28.085A28.105,28.105,0,0,1,100.985,0h7.489a16.452,16.452,0,0,1,13.106,6.65,16.195,16.195,0,0,1,23.243,14.656v19.24A1.614,1.614,0,0,1,143.21,42.225Zm-7.425-6.2a12.341,12.341,0,0,1,5.811,1.485V21.371A12.992,12.992,0,0,0,128.619,8.329,12.839,12.839,0,0,0,121.9,10.2a1.593,1.593,0,0,1-2.2-.581,13.2,13.2,0,0,0-11.234-6.392h-7.554A24.854,24.854,0,0,0,76.128,28.085V37.06a12.784,12.784,0,0,1,5.165-1.1,2.994,2.994,0,0,1,3.486-2.389h.065c5.036,1.033,17.561,2.324,26.277-8.587a3.047,3.047,0,0,1,4.2-.517c.065.065.194.129.258.194,1.808,1.743,7.1,5.875,17.368,6.2a3.025,3.025,0,0,1,2.905,2.905v.452Z" transform="translate(-17.328 0)"/>
      <path id="Trazado_199027" data-name="Trazado 199027" d="M185.466,168.518a4.837,4.837,0,0,1-3.422-1.42l-5.746-5.746a4.839,4.839,0,0,1,6.779-6.908l.065.065,2.324,2.324L191.6,150.7a4.839,4.839,0,1,1,6.908,6.779l-.065.065-9.555,9.62a4.778,4.778,0,0,1-3.422,1.356Zm-1.162-3.68a1.56,1.56,0,0,0,2.26,0l9.555-9.555a1.56,1.56,0,0,0,0-2.26,1.683,1.683,0,0,0-2.26,0l-7.3,7.231a1.56,1.56,0,0,1-2.26,0l-3.486-3.486a1.683,1.683,0,0,0-2.26,0,1.56,1.56,0,0,0,0,2.26Z" transform="translate(-53.451 -52.884)"/>
    </g>
  </g>
</svg>
