<svg xmlns="http://www.w3.org/2000/svg" width="222" height="201" viewBox="0 0 222 201">
  <g id="Grupo_147195" data-name="Grupo 147195" transform="translate(2494 4153)">
    <rect id="Rectángulo_45242" data-name="Rectángulo 45242" width="222" height="201" rx="12" transform="translate(-2494 -4153)" fill="#fff"/>
    <g id="Layer_48" transform="translate(-2465.376 -4135)">
      <g id="Grupo_147145" data-name="Grupo 147145" transform="translate(9.376)">
        <g id="Grupo_147071" data-name="Grupo 147071" transform="translate(20.079 16.755)">
          <g id="Grupo_147070" data-name="Grupo 147070">
            <path id="Trazado_198943" data-name="Trazado 198943" d="M142.552,47.261,121.879,26.588H46.122a4.884,4.884,0,0,0-4.884,4.884V164.7a4.884,4.884,0,0,0,4.884,4.884h91.547a4.884,4.884,0,0,0,4.884-4.884v-52.65l-8.291,20.591-11.94-4.807,20.23-50.246Z" transform="translate(-41.238 -26.588)" fill="#fdfffe"/>
          </g>
        </g>
        <g id="Grupo_147073" data-name="Grupo 147073" transform="translate(126.602 43.072)">
          <g id="Grupo_147072" data-name="Grupo 147072">
            <path id="Trazado_198944" data-name="Trazado 198944" d="M224.072,70.618l-5.238-2.109a2.2,2.2,0,0,0-2.777,1.032l-5.782,10.554,11.94,4.808,3.144-11.615A2.2,2.2,0,0,0,224.072,70.618Z" transform="translate(-210.276 -68.349)" fill="#16697a"/>
          </g>
        </g>
        <g id="Grupo_147075" data-name="Grupo 147075" transform="translate(112.262 54.798)">
          <g id="Grupo_147074" data-name="Grupo 147074" transform="translate(0 0)">
            <path id="Trazado_198945" data-name="Trazado 198945" d="M0,0H38.614V12.871H0Z" transform="translate(0 35.834) rotate(-68.05)" fill="#92bfb1"/>
          </g>
        </g>
        <g id="Grupo_147077" data-name="Grupo 147077" transform="translate(100.193 117.999)">
          <g id="Grupo_147076" data-name="Grupo 147076" transform="translate(0)">
            <path id="Trazado_198946" data-name="Trazado 198946" d="M169.339,187.248l-.967,15.836A1.5,1.5,0,0,0,171,204.144l10.276-12.089Z" transform="translate(-168.368 -187.248)" fill="#dae6f1"/>
          </g>
        </g>
        <g id="Grupo_147079" data-name="Grupo 147079" transform="translate(100.193 125.899)">
          <g id="Grupo_147078" data-name="Grupo 147078" transform="translate(0)">
            <path id="Trazado_198947" data-name="Trazado 198947" d="M168.856,199.784l-.485,7.936A1.5,1.5,0,0,0,171,208.78l5.15-6.059Z" transform="translate(-168.368 -199.784)" fill="#6cadef"/>
          </g>
        </g>
        <g id="Grupo_147081" data-name="Grupo 147081" transform="translate(101.253 90.64)">
          <g id="Grupo_147080" data-name="Grupo 147080" transform="translate(0 0)">
            <path id="Trazado_198948" data-name="Trazado 198948" d="M0,0H29.5V12.871H0Z" transform="translate(0 27.373) rotate(-68.05)" fill="#92bfb1"/>
          </g>
        </g>
        <g id="Grupo_147083" data-name="Grupo 147083" transform="translate(29.697 27.015)">
          <g id="Grupo_147082" data-name="Grupo 147082">
            <path id="Trazado_198949" data-name="Trazado 198949" d="M132.407,53.283a4.884,4.884,0,0,1-4.884-4.884v-5.53H58.055A1.554,1.554,0,0,0,56.5,44.423V57.988a1.554,1.554,0,0,0,1.554,1.554h78.97a1.554,1.554,0,0,0,1.554-1.554v-4.7h-6.171Z" transform="translate(-56.501 -42.869)" fill="#ffa400"/>
          </g>
        </g>
        <g id="Grupo_147085" data-name="Grupo 147085" transform="translate(100.72 16.755)">
          <g id="Grupo_147084" data-name="Grupo 147084" transform="translate(0)">
            <path id="Trazado_198950" data-name="Trazado 198950" d="M169.205,26.588v15.79a4.884,4.884,0,0,0,4.884,4.884h15.79Z" transform="translate(-169.205 -26.588)" fill="#edf4fc"/>
          </g>
        </g>
        <g id="Grupo_147087" data-name="Grupo 147087" transform="translate(18.503 15.18)">
          <g id="Grupo_147086" data-name="Grupo 147086">
            <path id="Trazado_198951" data-name="Trazado 198951" d="M141.628,78.1a1.575,1.575,0,0,0,1.575-1.575V46.337a1.578,1.578,0,0,0-.461-1.114L122.068,24.549a1.574,1.574,0,0,0-1.114-.461H45.2a6.466,6.466,0,0,0-6.459,6.459V163.774a6.467,6.467,0,0,0,6.459,6.459h91.547a6.467,6.467,0,0,0,6.459-6.459V111.285a1.575,1.575,0,0,0-3.151,0v52.488a3.312,3.312,0,0,1-3.308,3.308H45.2a3.312,3.312,0,0,1-3.308-3.308V30.547A3.312,3.312,0,0,1,45.2,27.238h75.1l19.751,19.75V76.524a1.575,1.575,0,0,0,1.575,1.576Z" transform="translate(-38.738 -24.088)"/>
          </g>
        </g>
        <g id="Grupo_147089" data-name="Grupo 147089" transform="translate(54.838 51.168)">
          <g id="Grupo_147088" data-name="Grupo 147088">
            <path id="Trazado_198952" data-name="Trazado 198952" d="M126.618,81.2H97.971a1.575,1.575,0,0,0,0,3.151h28.646a1.575,1.575,0,0,0,0-3.151Z" transform="translate(-96.396 -81.197)"/>
          </g>
        </g>
        <g id="Grupo_147091" data-name="Grupo 147091" transform="translate(32.051 59.202)">
          <g id="Grupo_147090" data-name="Grupo 147090">
            <path id="Trazado_198953" data-name="Trazado 198953" d="M136.031,93.946H61.812a1.575,1.575,0,1,0,0,3.151h74.219a1.575,1.575,0,1,0,0-3.151Z" transform="translate(-60.237 -93.946)"/>
          </g>
        </g>
        <g id="Grupo_147093" data-name="Grupo 147093" transform="translate(32.051 67.236)">
          <g id="Grupo_147092" data-name="Grupo 147092">
            <path id="Trazado_198954" data-name="Trazado 198954" d="M136.031,106.694H61.812a1.575,1.575,0,1,0,0,3.151h74.219a1.575,1.575,0,1,0,0-3.151Z" transform="translate(-60.237 -106.694)"/>
          </g>
        </g>
        <g id="Grupo_147095" data-name="Grupo 147095" transform="translate(63.138 75.27)">
          <g id="Grupo_147094" data-name="Grupo 147094" transform="translate(0)">
            <path id="Trazado_198955" data-name="Trazado 198955" d="M140.131,119.443H111.143a1.575,1.575,0,0,0,0,3.151h28.988a1.575,1.575,0,0,0,0-3.151Z" transform="translate(-109.568 -119.443)"/>
          </g>
        </g>
        <g id="Grupo_147097" data-name="Grupo 147097" transform="translate(63.138 83.304)">
          <g id="Grupo_147096" data-name="Grupo 147096" transform="translate(0)">
            <path id="Trazado_198956" data-name="Trazado 198956" d="M140.131,132.192H111.143a1.575,1.575,0,0,0,0,3.151h28.988a1.575,1.575,0,1,0,0-3.151Z" transform="translate(-109.568 -132.192)"/>
          </g>
        </g>
        <g id="Grupo_147099" data-name="Grupo 147099" transform="translate(63.138 91.337)">
          <g id="Grupo_147098" data-name="Grupo 147098" transform="translate(0)">
            <path id="Trazado_198957" data-name="Trazado 198957" d="M140.131,144.94H111.143a1.575,1.575,0,0,0,0,3.151h28.988a1.575,1.575,0,1,0,0-3.151Z" transform="translate(-109.568 -144.94)"/>
          </g>
        </g>
        <g id="Grupo_147101" data-name="Grupo 147101" transform="translate(46.195 75.27)">
          <g id="Grupo_147100" data-name="Grupo 147100">
            <path id="Trazado_198958" data-name="Trazado 198958" d="M93.638,119.443H84.256a1.575,1.575,0,0,0,0,3.151h9.381a1.575,1.575,0,1,0,0-3.151Z" transform="translate(-82.681 -119.443)"/>
          </g>
        </g>
        <g id="Grupo_147103" data-name="Grupo 147103" transform="translate(46.195 83.304)">
          <g id="Grupo_147102" data-name="Grupo 147102">
            <path id="Trazado_198959" data-name="Trazado 198959" d="M93.638,132.192H84.256a1.575,1.575,0,0,0,0,3.151h9.381a1.575,1.575,0,1,0,0-3.151Z" transform="translate(-82.681 -132.192)"/>
          </g>
        </g>
        <g id="Grupo_147105" data-name="Grupo 147105" transform="translate(46.195 91.337)">
          <g id="Grupo_147104" data-name="Grupo 147104">
            <path id="Trazado_198960" data-name="Trazado 198960" d="M93.638,144.94H84.256a1.575,1.575,0,0,0,0,3.151h9.381a1.575,1.575,0,1,0,0-3.151Z" transform="translate(-82.681 -144.94)"/>
          </g>
        </g>
        <g id="Grupo_147107" data-name="Grupo 147107" transform="translate(32.051 99.372)">
          <g id="Grupo_147106" data-name="Grupo 147106">
            <path id="Trazado_198961" data-name="Trazado 198961" d="M136.031,157.689H61.812a1.575,1.575,0,0,0,0,3.151h74.219a1.575,1.575,0,1,0,0-3.151Z" transform="translate(-60.237 -157.689)"/>
          </g>
        </g>
        <g id="Grupo_147109" data-name="Grupo 147109" transform="translate(32.051 107.406)">
          <g id="Grupo_147108" data-name="Grupo 147108">
            <path id="Trazado_198962" data-name="Trazado 198962" d="M132.88,170.438H61.812a1.575,1.575,0,0,0,0,3.151H132.88a1.575,1.575,0,0,0,0-3.151Z" transform="translate(-60.237 -170.438)"/>
          </g>
        </g>
        <g id="Grupo_147111" data-name="Grupo 147111" transform="translate(79.558 143.05)">
          <g id="Grupo_147110" data-name="Grupo 147110">
            <path id="Trazado_198963" data-name="Trazado 198963" d="M162.406,227H137.2a1.575,1.575,0,0,0,0,3.151h25.207a1.575,1.575,0,0,0,0-3.151Z" transform="translate(-135.624 -227)"/>
          </g>
        </g>
        <g id="Grupo_147113" data-name="Grupo 147113" transform="translate(33.556 143.05)">
          <g id="Grupo_147112" data-name="Grupo 147112">
            <path id="Trazado_198964" data-name="Trazado 198964" d="M89.407,227H64.2a1.575,1.575,0,1,0,0,3.151H89.407a1.575,1.575,0,0,0,0-3.151Z" transform="translate(-62.625 -227)"/>
          </g>
        </g>
        <g id="Grupo_147115" data-name="Grupo 147115" transform="translate(33.556 123.283)">
          <g id="Grupo_147114" data-name="Grupo 147114">
            <path id="Trazado_198965" data-name="Trazado 198965" d="M90.816,203.667a1.576,1.576,0,0,0-2.114-.7l-4.14,2.07a.164.164,0,0,1-.161-.01l-4.943-3.3a3.312,3.312,0,0,0-4.912,1.526.161.161,0,0,1-.3-.007l-1.875-5.389a3.312,3.312,0,0,0-6.256,0l-3.4,9.778a1.575,1.575,0,1,0,2.976,1.035l3.4-9.778a.161.161,0,0,1,.3,0l1.875,5.389a3.312,3.312,0,0,0,6.2.142.151.151,0,0,1,.1-.095.154.154,0,0,1,.137.02l4.942,3.3a3.321,3.321,0,0,0,3.318.207l4.14-2.07a1.577,1.577,0,0,0,.7-2.114Z" transform="translate(-62.624 -195.633)"/>
          </g>
        </g>
        <g id="Grupo_147117" data-name="Grupo 147117" transform="translate(79.558 123.283)">
          <g id="Grupo_147116" data-name="Grupo 147116" transform="translate(0)">
            <path id="Trazado_198966" data-name="Trazado 198966" d="M156.975,204.739l-4.517-3.012a3.312,3.312,0,0,0-4.912,1.526.161.161,0,0,1-.3-.006l-1.875-5.389a3.272,3.272,0,0,0-3.128-2.225h0a3.273,3.273,0,0,0-3.128,2.224l-3.4,9.778a1.575,1.575,0,1,0,2.976,1.035l3.4-9.778a.161.161,0,0,1,.3,0l1.875,5.389a3.312,3.312,0,0,0,6.2.142.162.162,0,0,1,.239-.074l4.517,3.012a1.576,1.576,0,0,0,1.748-2.622Z" transform="translate(-135.624 -195.633)"/>
          </g>
        </g>
        <g id="Grupo_147119" data-name="Grupo 147119" transform="translate(125.026 41.492)">
          <g id="Grupo_147118" data-name="Grupo 147118">
            <path id="Trazado_198967" data-name="Trazado 198967" d="M223.736,68.229,218.5,66.121a3.746,3.746,0,0,0-4.746,1.737l-5.782,10.554a1.576,1.576,0,1,0,2.763,1.514l5.8-10.588a.622.622,0,0,1,.788-.293l5.239,2.109a.634.634,0,0,1,.355.8L219.77,83.563a1.575,1.575,0,1,0,3.041.823l3.134-11.578A3.762,3.762,0,0,0,223.736,68.229Z" transform="translate(-207.775 -65.842)"/>
          </g>
        </g>
        <g id="Grupo_147121" data-name="Grupo 147121" transform="translate(125.696 47.151)">
          <g id="Grupo_147120" data-name="Grupo 147120">
            <path id="Trazado_198968" data-name="Trazado 198968" d="M225.981,80.968,211,74.938a1.575,1.575,0,1,0-1.177,2.922L224.8,83.89a3.472,3.472,0,0,1,1.921,4.511l-9.563,23.75a1.575,1.575,0,0,0-1.642,2.261l.722,1.447a1.575,1.575,0,0,0,1.41.873h.063a1.576,1.576,0,0,0,1.4-.986L229.65,89.579A6.628,6.628,0,0,0,225.981,80.968Z" transform="translate(-208.838 -74.823)"/>
          </g>
        </g>
        <g id="Grupo_147124" data-name="Grupo 147124" transform="translate(110.604 53.242)">
          <g id="Grupo_147123" data-name="Grupo 147123">
            <g id="Grupo_147122" data-name="Grupo 147122">
              <path id="Trazado_198969" data-name="Trazado 198969" d="M213.415,89.409,201.475,84.6a1.576,1.576,0,0,0-2.05.873L185,121.3a1.577,1.577,0,0,0,.873,2.05l11.94,4.807a1.576,1.576,0,0,0,2.05-.873l14.422-35.82a1.575,1.575,0,0,0-.873-2.05ZM197.532,124.64l-9.017-3.63,13.246-32.9,9.017,3.63Z" transform="translate(-184.89 -84.488)"/>
            </g>
          </g>
        </g>
        <g id="Grupo_147126" data-name="Grupo 147126" transform="translate(127.566 122.9)">
          <g id="Grupo_147125" data-name="Grupo 147125">
            <path id="Trazado_198970" data-name="Trazado 198970" d="M219.856,198.916a4.912,4.912,0,0,1-3.907-3.844c0-.063-.189-.063-.189,0a4.913,4.913,0,0,1-3.907,3.844c-.063,0-.063.126,0,.189a4.913,4.913,0,0,1,3.907,3.844c0,.063.189.063.189,0a4.913,4.913,0,0,1,3.907-3.844C219.92,199.042,219.92,198.916,219.856,198.916Z" transform="translate(-211.806 -195.025)" fill="#16697a"/>
          </g>
        </g>
        <g id="Grupo_147128" data-name="Grupo 147128" transform="translate(0 59.236)">
          <g id="Grupo_147127" data-name="Grupo 147127">
            <path id="Trazado_198971" data-name="Trazado 198971" d="M18.391,97.466H16.878V96.017A1.991,1.991,0,0,0,14.862,94a2.019,2.019,0,0,0-2.017,1.954v1.512H11.4a1.991,1.991,0,0,0-2.017,2.017A1.952,1.952,0,0,0,11.4,101.5h1.449v1.449a1.991,1.991,0,0,0,2.017,2.017,2.019,2.019,0,0,0,2.017-1.954V101.5h1.449a1.991,1.991,0,0,0,2.017-2.017A2.019,2.019,0,0,0,18.391,97.466Z" transform="translate(-9.376 -94)" fill="#ffa400"/>
          </g>
        </g>
        <g id="Grupo_147130" data-name="Grupo 147130" transform="translate(97.806)">
          <g id="Grupo_147129" data-name="Grupo 147129">
            <path id="Trazado_198972" data-name="Trazado 198972" d="M166.724,0a2.143,2.143,0,1,0,2.143,2.143A2.142,2.142,0,0,0,166.724,0Z" transform="translate(-164.581)" fill="#ffa400"/>
          </g>
        </g>
        <g id="Grupo_147132" data-name="Grupo 147132" transform="translate(7.691 82.553)">
          <g id="Grupo_147131" data-name="Grupo 147131">
            <path id="Trazado_198973" data-name="Trazado 198973" d="M23.724,131a2.143,2.143,0,1,0,2.143,2.143A2.142,2.142,0,0,0,23.724,131Z" transform="translate(-21.581 -131)" fill="#f5c84c"/>
          </g>
        </g>
        <g id="Grupo_147134" data-name="Grupo 147134" transform="translate(113.34 9.043)">
          <g id="Grupo_147133" data-name="Grupo 147133">
            <path id="Trazado_198974" data-name="Trazado 198974" d="M200.795,19.927a6.993,6.993,0,0,1-5.609-5.483c0-.126-.252-.126-.252,0a6.993,6.993,0,0,1-5.609,5.483c-.126,0-.126.189,0,.252a6.993,6.993,0,0,1,5.609,5.483c0,.126.252.126.252,0a6.993,6.993,0,0,1,5.609-5.483C200.921,20.116,200.921,19.927,200.795,19.927Z" transform="translate(-189.231 -14.35)" fill="#16697a"/>
          </g>
        </g>
        <g id="Grupo_147136" data-name="Grupo 147136" transform="translate(98.617 116.423)">
          <g id="Grupo_147135" data-name="Grupo 147135" transform="translate(0)">
            <path id="Trazado_198975" data-name="Trazado 198975" d="M181.374,189.93a1.575,1.575,0,0,0-2.221.18l-10.12,11.905.953-15.6a1.575,1.575,0,0,0-3.145-.192l-.967,15.836a3.028,3.028,0,0,0,1.918,3.036,3.119,3.119,0,0,0,1.168.229,3.032,3.032,0,0,0,2.32-1.09l10.276-12.089a1.578,1.578,0,0,0-.181-2.221Z" transform="translate(-165.868 -184.748)"/>
          </g>
        </g>
        <g id="Grupo_147138" data-name="Grupo 147138" transform="translate(99.584 124.517)">
          <g id="Grupo_147137" data-name="Grupo 147137">
            <path id="Trazado_198976" data-name="Trazado 198976" d="M175.916,200.261l-6.349-2.556a1.576,1.576,0,1,0-1.177,2.923l6.349,2.556a1.576,1.576,0,1,0,1.177-2.923Z" transform="translate(-167.402 -197.591)"/>
          </g>
        </g>
        <g id="Grupo_147140" data-name="Grupo 147140" transform="translate(99.588 89.06)">
          <g id="Grupo_147139" data-name="Grupo 147139">
            <path id="Trazado_198977" data-name="Trazado 198977" d="M192.529,146.249a1.575,1.575,0,0,0-2.05.873l-10.429,25.9-9.017-3.63,10.429-25.9a1.576,1.576,0,0,0-2.923-1.177l-11.017,27.362a1.576,1.576,0,0,0,.873,2.049l11.94,4.808a1.575,1.575,0,0,0,2.05-.873L193.4,148.3a1.574,1.574,0,0,0-.873-2.049Z" transform="translate(-167.408 -141.327)"/>
          </g>
        </g>
        <g id="Grupo_147142" data-name="Grupo 147142" transform="translate(28.122 25.439)">
          <g id="Grupo_147141" data-name="Grupo 147141">
            <path id="Trazado_198978" data-name="Trazado 198978" d="M137.654,51.263a1.575,1.575,0,0,0-1.575,1.575l.021,4.2-78.948.021L57.13,43.52h69a1.575,1.575,0,1,0,0-3.151h-69A3.133,3.133,0,0,0,54,43.5V57.062a3.133,3.133,0,0,0,3.129,3.129H136.1a3.133,3.133,0,0,0,3.129-3.129V52.838a1.575,1.575,0,0,0-1.575-1.575Z" transform="translate(-54.001 -40.369)"/>
          </g>
        </g>
        <g id="Grupo_147144" data-name="Grupo 147144" transform="translate(99.144 15.676)">
          <g id="Grupo_147143" data-name="Grupo 147143">
            <path id="Trazado_198979" data-name="Trazado 198979" d="M188.159,45.053h-15a3.312,3.312,0,0,1-3.308-3.308V26.45a1.575,1.575,0,0,0-3.151,0V41.744a6.466,6.466,0,0,0,6.459,6.459h15a1.575,1.575,0,1,0,0-3.15Z" transform="translate(-166.704 -24.875)"/>
          </g>
        </g>
      </g>
    </g>
  </g>
</svg>
