<svg xmlns="http://www.w3.org/2000/svg" width="222" height="201" viewBox="0 0 222 201">
  <g id="Grupo_147325" data-name="Grupo 147325" transform="translate(2494 4014)">
    <rect id="Rectángulo_45243" data-name="Rectángulo 45243" width="222" height="201" rx="12" transform="translate(-2494 -4014)" fill="#fff"/>
    <g id="Grupo_147188" data-name="Grupo 147188" transform="translate(-2309.014 -3867.028)">
      <g id="Grupo_147125" data-name="Grupo 147125">
        <path id="Trazado_198970" data-name="Trazado 198970" d="M220.568,199.26a5.347,5.347,0,0,1-4.252-4.184c0-.069-.206-.069-.206,0a5.347,5.347,0,0,1-4.252,4.184c-.069,0-.069.137,0,.206a5.347,5.347,0,0,1,4.252,4.184c0,.069.206.069.206,0a5.347,5.347,0,0,1,4.252-4.184C220.637,199.4,220.637,199.26,220.568,199.26Z" transform="translate(-211.806 -195.025)" fill="#16697a"/>
      </g>
    </g>
    <g id="Grupo_147189" data-name="Grupo 147189" transform="translate(-2464.657 -3936.32)">
      <g id="Grupo_147127" data-name="Grupo 147127" transform="translate(-10)">
        <path id="Trazado_198971" data-name="Trazado 198971" d="M19.188,97.772H17.541V96.195A2.167,2.167,0,0,0,15.347,94a2.2,2.2,0,0,0-2.195,2.126v1.646H11.574a2.167,2.167,0,0,0-2.195,2.195,2.125,2.125,0,0,0,2.195,2.195h1.578v1.578a2.167,2.167,0,0,0,2.195,2.195,2.2,2.2,0,0,0,2.195-2.126v-1.646h1.578a2.167,2.167,0,0,0,2.195-2.195A2.2,2.2,0,0,0,19.188,97.772Z" transform="translate(-9.376 -94)" fill="#ffa400"/>
      </g>
    </g>
    <g id="Grupo_147190" data-name="Grupo 147190" transform="translate(-2358.205 -4000.793)">
      <g id="Grupo_147129" data-name="Grupo 147129">
        <path id="Trazado_198972" data-name="Trazado 198972" d="M166.913,0a2.332,2.332,0,1,0,2.332,2.332A2.332,2.332,0,0,0,166.913,0Z" transform="translate(-164.581)" fill="#ffa400"/>
      </g>
    </g>
    <g id="Grupo_147191" data-name="Grupo 147191" transform="translate(-2462.72 -3913.5)">
      <g id="Grupo_147131" data-name="Grupo 147131">
        <path id="Trazado_198973" data-name="Trazado 198973" d="M23.913,131a2.332,2.332,0,1,0,2.332,2.332A2.332,2.332,0,0,0,23.913,131Z" transform="translate(-21.581 -131)" fill="#f5c84c"/>
      </g>
    </g>
    <g id="Grupo_147192" data-name="Grupo 147192" transform="translate(-2341.298 -3990.951)">
      <g id="Grupo_147133" data-name="Grupo 147133">
        <path id="Trazado_198974" data-name="Trazado 198974" d="M201.817,20.42a7.611,7.611,0,0,1-6.1-5.967c0-.137-.274-.137-.274,0a7.611,7.611,0,0,1-6.1,5.967c-.137,0-.137.206,0,.274a7.611,7.611,0,0,1,6.1,5.967c0,.137.274.137.274,0a7.611,7.611,0,0,1,6.1-5.967C201.954,20.626,201.954,20.42,201.817,20.42Z" transform="translate(-189.231 -14.35)" fill="#16697a"/>
      </g>
    </g>
    <g id="_011---Completed-Task-List" data-name="011---Completed-Task-List" transform="translate(-2443.336 -3968)">
      <path id="Path" d="M87.262,62.03V17.886a4.326,4.326,0,0,0-1.272-3.062L73.438,2.272A4.326,4.326,0,0,0,70.376,1H7.47A6.47,6.47,0,0,0,1,7.47V100.2a6.47,6.47,0,0,0,6.47,6.47H64.079Z" transform="translate(1.157 1.157)" fill="#fff"/>
      <rect id="Rectangle" width="21" height="22" rx="2" transform="translate(13 15)" fill="#92bfb1"/>
      <rect id="Rectangle-2" data-name="Rectangle" width="21" height="22" rx="2" transform="translate(13 45)" fill="#92bfb1"/>
      <rect id="Rectangle-3" data-name="Rectangle" width="21" height="22" rx="2" transform="translate(13 74.999)" fill="#92bfb1"/>
      <circle id="Oval" cx="32" cy="32" r="32" transform="translate(65.393 63)" fill="#ffa400"/>
      <path id="Path-2" data-name="Path" d="M48.708,15.888H40.47A6.47,6.47,0,0,1,34,9.418V1.18a4.35,4.35,0,0,1,1.272.884L47.823,14.615A4.35,4.35,0,0,1,48.708,15.888Z" transform="translate(39.323 1.365)" fill="#8e95a0"/>
      <g id="Grupo_147193" data-name="Grupo 147193" transform="translate(0 0)">
        <path id="Shape" d="M94.888,60.383a34.29,34.29,0,0,0-4.313.3V19.042a6.47,6.47,0,0,0-.548-2.588c-.022-.052-.054-.095-.078-.142a6.493,6.493,0,0,0-1.279-1.857L76.126,1.9A6.494,6.494,0,0,0,74.263.625C74.215.6,74.172.569,74.12.548A6.47,6.47,0,0,0,71.533,0H8.626A8.626,8.626,0,0,0,0,8.626v92.731a8.626,8.626,0,0,0,8.626,8.626H56.07a2.157,2.157,0,0,0,0-4.313H8.626a4.313,4.313,0,0,1-4.313-4.313V8.626A4.313,4.313,0,0,1,8.626,4.313h62.54v6.47a8.626,8.626,0,0,0,8.626,8.626h6.47V61.52a34.485,34.485,0,1,0,29.329,60.972,2.157,2.157,0,0,0-2.588-3.45A30.192,30.192,0,1,1,119.041,113a2.157,2.157,0,1,0,3.45,2.588,34.5,34.5,0,0,0-27.6-55.208ZM79.792,15.1a4.313,4.313,0,0,1-4.313-4.313V7.362L83.212,15.1Z" transform="translate(0 0)" fill="#373737"/>
        <path id="Shape-2" data-name="Shape" d="M36.716,5.632a2.157,2.157,0,0,0-3.049,0L29.552,9.744a6.437,6.437,0,0,0-5.143-2.588H11.47A6.47,6.47,0,0,0,5,13.626V26.565a6.47,6.47,0,0,0,6.47,6.47H24.409a6.47,6.47,0,0,0,6.47-6.47V14.519l5.838-5.838a2.157,2.157,0,0,0,0-3.049ZM26.565,26.565a2.157,2.157,0,0,1-2.157,2.157H11.47a2.157,2.157,0,0,1-2.157-2.157V13.626a2.157,2.157,0,0,1,2.157-2.157H24.409a2.144,2.144,0,0,1,2.006,1.415L20.1,19.2l-2.788-2.788a2.157,2.157,0,0,0-3.049,3.049l4.313,4.313a2.157,2.157,0,0,0,3.049,0l4.945-4.945Z" transform="translate(5.783 5.783)" fill="#373737"/>
        <path id="Shape-3" data-name="Shape" d="M36.716,19.632a2.157,2.157,0,0,0-3.049,0l-4.115,4.113a6.437,6.437,0,0,0-5.143-2.588H11.47A6.47,6.47,0,0,0,5,27.626V40.565a6.47,6.47,0,0,0,6.47,6.47H24.409a6.47,6.47,0,0,0,6.47-6.47V28.519l5.838-5.838a2.157,2.157,0,0,0,0-3.049ZM26.565,40.565a2.157,2.157,0,0,1-2.157,2.157H11.47a2.157,2.157,0,0,1-2.157-2.157V27.626a2.157,2.157,0,0,1,2.157-2.157H24.409a2.144,2.144,0,0,1,2.006,1.415L20.1,33.2l-2.788-2.788a2.157,2.157,0,0,0-3.049,3.049l4.313,4.313a2.157,2.157,0,0,0,3.049,0l4.945-4.945Z" transform="translate(5.783 21.975)" fill="#373737"/>
        <path id="Shape-4" data-name="Shape" d="M33.667,33.618,29.552,37.73a6.437,6.437,0,0,0-5.143-2.588H11.47A6.47,6.47,0,0,0,5,41.612V54.551a6.47,6.47,0,0,0,6.47,6.47H24.409a6.47,6.47,0,0,0,6.47-6.47V42.5l5.838-5.838a2.157,2.157,0,0,0-3.049-3.049Zm-7.1,20.934a2.157,2.157,0,0,1-2.157,2.157H11.47a2.157,2.157,0,0,1-2.157-2.157V41.612a2.157,2.157,0,0,1,2.157-2.157H24.409a2.144,2.144,0,0,1,2.006,1.415L20.1,47.189,17.307,44.4a2.157,2.157,0,0,0-3.049,3.049l4.313,4.313a2.157,2.157,0,0,0,3.049,0l4.945-4.945Z" transform="translate(5.783 38.18)" fill="#373737"/>
        <path id="Path-3" data-name="Path" d="M63.207,36.984,45.245,64.926l-4.578-4.578A2.157,2.157,0,0,0,37.618,63.4l6.47,6.47a2.157,2.157,0,0,0,1.525.632,2.03,2.03,0,0,0,.229-.013,2.157,2.157,0,0,0,1.585-.977L66.835,39.317a2.157,2.157,0,0,0-3.627-2.333Z" transform="translate(42.806 41.642)" fill="#373737"/>
        <path id="Path-4" data-name="Path" d="M24.157,12.313h15.1a2.157,2.157,0,0,0,0-4.313h-15.1a2.157,2.157,0,1,0,0,4.313Z" transform="translate(25.444 9.252)" fill="#373737"/>
        <path id="Path-5" data-name="Path" d="M24.157,17.313H37.1A2.157,2.157,0,1,0,37.1,13H24.157a2.157,2.157,0,1,0,0,4.313Z" transform="translate(25.444 15.035)" fill="#373737"/>
        <path id="Path-6" data-name="Path" d="M24.157,26.313H52.192a2.157,2.157,0,0,0,0-4.313H24.157a2.157,2.157,0,1,0,0,4.313Z" transform="translate(25.444 25.444)" fill="#373737"/>
        <path id="Path-7" data-name="Path" d="M24.157,31.313H37.1A2.157,2.157,0,1,0,37.1,27H24.157a2.157,2.157,0,1,0,0,4.313Z" transform="translate(25.444 31.227)" fill="#373737"/>
        <path id="Path-8" data-name="Path" d="M32.783,38.157A2.157,2.157,0,0,0,30.626,36h-6.47a2.157,2.157,0,1,0,0,4.313h6.47A2.157,2.157,0,0,0,32.783,38.157Z" transform="translate(25.444 41.636)" fill="#373737"/>
        <path id="Path-9" data-name="Path" d="M24.157,41a2.157,2.157,0,1,0,0,4.313H28.47a2.157,2.157,0,1,0,0-4.313Z" transform="translate(25.444 47.418)" fill="#373737"/>
      </g>
    </g>
  </g>
</svg>
