<svg xmlns="http://www.w3.org/2000/svg" xmlns:xlink="http://www.w3.org/1999/xlink" width="399.21" height="398.995" viewBox="0 0 399.21 398.995">
  <defs>
    <clipPath id="clip-path">
      <rect id="Rectángulo_45197" data-name="Rectángulo 45197" width="204.21" height="307.596" fill="none"/>
    </clipPath>
    <clipPath id="clip-path-3">
      <rect id="Rectángulo_45191" data-name="Rectángulo 45191" width="204.21" height="282.752" transform="translate(0 24.844)" fill="none"/>
    </clipPath>
    <clipPath id="clip-path-4">
      <rect id="Rectángulo_45190" data-name="Rectángulo 45190" width="139.525" height="371.995" fill="none"/>
    </clipPath>
    <clipPath id="clip-path-6">
      <rect id="Rectángulo_45182" data-name="Rectángulo 45182" width="39.339" height="8.337" transform="translate(44.593 19.994)" fill="none"/>
    </clipPath>
    <clipPath id="clip-path-7">
      <rect id="Rectángulo_45183" data-name="Rectángulo 45183" width="24.678" height="15.471" transform="translate(1.416 356.524)" fill="none"/>
    </clipPath>
    <clipPath id="clip-path-8">
      <rect id="Rectángulo_45184" data-name="Rectángulo 45184" width="2.924" height="2.924" transform="translate(22.321 347.363)" fill="none"/>
    </clipPath>
    <clipPath id="clip-path-9">
      <rect id="Rectángulo_45185" data-name="Rectángulo 45185" width="37.336" height="4.262" transform="translate(61.892 359.643)" fill="none"/>
    </clipPath>
    <clipPath id="clip-path-10">
      <rect id="Rectángulo_45186" data-name="Rectángulo 45186" width="4.573" height="5.781" transform="translate(57.736 65.334)" fill="#16697a"/>
    </clipPath>
    <clipPath id="clip-path-11">
      <rect id="Rectángulo_45187" data-name="Rectángulo 45187" width="43.406" height="25.031" transform="translate(37.007 117.724)" fill="none"/>
    </clipPath>
    <clipPath id="clip-path-12">
      <rect id="Rectángulo_45205" data-name="Rectángulo 45205" width="98.343" height="194.195" fill="none"/>
    </clipPath>
  </defs>
  <g id="Grupo_147057" data-name="Grupo 147057" transform="translate(-878.5 -2863)">
    <g id="Grupo_147034" data-name="Grupo 147034" transform="translate(1073.5 2863)" clip-path="url(#clip-path)">
      <g id="Grupo_147033" data-name="Grupo 147033">
        <g id="Grupo_147032" data-name="Grupo 147032" clip-path="url(#clip-path)">
          <path id="Trazado_198849" data-name="Trazado 198849" d="M197.847,307.6H6.363A6.363,6.363,0,0,1,0,301.233V31.207a6.363,6.363,0,0,1,6.363-6.363H197.847a6.363,6.363,0,0,1,6.363,6.363V301.233a6.363,6.363,0,0,1-6.363,6.363" fill="#16697a"/>
          <rect id="Rectángulo_45192" data-name="Rectángulo 45192" width="175.553" height="257.727" transform="translate(14.328 39.97)" fill="#e0e0e0"/>
          <rect id="Rectángulo_45193" data-name="Rectángulo 45193" width="175.553" height="252.805" transform="translate(11.911 37.905)" fill="#ebebeb"/>
          <path id="Trazado_198851" data-name="Trazado 198851" d="M187.464,290.71c0-2.113-.1-103.637-.237-252.8l.237.237-175.532.023h-.021l.261-.26c-.019,94.93-.037,182.636-.051,252.8l-.21-.21,175.553.21-175.553.21H11.7v-.21c-.014-70.169-.032-157.875-.051-252.8v-.261h.281l175.532.023h.238V37.9c-.14,149.168-.235,250.693-.237,252.8" fill="#263238"/>
          <path id="Trazado_198852" data-name="Trazado 198852" d="M125.191,290.71s45.109-17.175,61.855-45.651a46.865,46.865,0,0,1-36.047,7.5s-11.943,31.871-25.808,38.151" fill="#e0e0e0"/>
          <path id="Trazado_198853" data-name="Trazado 198853" d="M125.191,290.71l.747-.418a19.456,19.456,0,0,0,2.154-1.378,35.577,35.577,0,0,0,6.751-6.758c5.1-6.464,10.878-16.784,15.935-29.68l.074-.188.194.04a46.123,46.123,0,0,0,16.326.326c1.43-.171,2.837-.552,4.272-.852,1.411-.4,2.845-.782,4.246-1.306a47.977,47.977,0,0,0,8.248-3.828,31.969,31.969,0,0,0,2.747-1.814l1.079-.823-.694,1.16a70.882,70.882,0,0,1-9.7,12.55,106.063,106.063,0,0,1-10.989,9.8,156.539,156.539,0,0,1-20.8,13.532c-6.184,3.389-11.349,5.79-14.946,7.364-1.8.785-3.211,1.358-4.172,1.734l-1.1.416a2.913,2.913,0,0,1-.381.121c.017,0,.113-.068.362-.169l1.079-.462c.947-.407,2.344-1.009,4.13-1.821,3.567-1.628,8.7-4.075,14.851-7.5a159.718,159.718,0,0,0,20.679-13.589,106.551,106.551,0,0,0,10.916-9.78,70.817,70.817,0,0,0,9.614-12.463l.385.336a32.476,32.476,0,0,1-2.8,1.853,48.277,48.277,0,0,1-8.341,3.867c-1.417.529-2.866.911-4.293,1.317-1.451.3-2.874.684-4.319.856a46.405,46.405,0,0,1-16.5-.366l.267-.148c-5.115,12.93-10.962,23.239-16.155,29.69a34.447,34.447,0,0,1-6.886,6.7,16.891,16.891,0,0,1-2.987,1.674" fill="#263238"/>
          <path id="Trazado_198854" data-name="Trazado 198854" d="M50.483,128.26H35.861a3.419,3.419,0,0,1-3.419-3.419V110.219a3.419,3.419,0,0,1,3.419-3.419H50.483a3.419,3.419,0,0,1,3.419,3.419v14.622a3.419,3.419,0,0,1-3.419,3.419" fill="#ffa400"/>
          <path id="Trazado_198855" data-name="Trazado 198855" d="M41.826,120.625h-.017a.5.5,0,0,1-.363-.174l-3-3.507a.5.5,0,1,1,.759-.65l2.65,3.092,6.966-7.124a.5.5,0,1,1,.715.7l-7.348,7.515a.5.5,0,0,1-.357.15" fill="#fff"/>
          <path id="Trazado_198856" data-name="Trazado 198856" d="M166.982,109.412c0,.144-22.84.26-51.007.26s-51.012-.116-51.012-.26,22.835-.26,51.012-.26,51.007.116,51.007.26" fill="#263238"/>
          <path id="Trazado_198857" data-name="Trazado 198857" d="M107.946,125.107a10.506,10.506,0,0,1-1.689.1l-4.606.083c-3.889.047-9.262.076-15.2.076s-11.309-.029-15.2-.076l-4.606-.083a10.521,10.521,0,0,1-1.689-.1,10.521,10.521,0,0,1,1.689-.1l4.606-.083c3.889-.047,9.262-.076,15.2-.076s11.307.029,15.2.076l4.606.083a10.506,10.506,0,0,1,1.689.1" fill="#263238"/>
          <path id="Trazado_198858" data-name="Trazado 198858" d="M166.982,116.368c0,.144-22.84.26-51.007.26s-51.012-.116-51.012-.26,22.835-.26,51.012-.26,51.007.116,51.007.26" fill="#263238"/>
          <path id="Trazado_198859" data-name="Trazado 198859" d="M50.483,165.928H35.861a3.42,3.42,0,0,1-3.419-3.42V147.887a3.42,3.42,0,0,1,3.419-3.42H50.483a3.42,3.42,0,0,1,3.419,3.42v14.621a3.42,3.42,0,0,1-3.419,3.42" fill="#ffa400"/>
          <path id="Trazado_198860" data-name="Trazado 198860" d="M41.826,158.292h-.017a.5.5,0,0,1-.363-.174l-3-3.507a.5.5,0,1,1,.759-.65l2.65,3.092,6.966-7.124a.5.5,0,0,1,.715.7l-7.348,7.515a.5.5,0,0,1-.357.15" fill="#fff"/>
          <path id="Trazado_198861" data-name="Trazado 198861" d="M166.982,147.079c0,.144-22.84.26-51.007.26s-51.012-.116-51.012-.26,22.835-.26,51.012-.26,51.007.116,51.007.26" fill="#263238"/>
          <path id="Trazado_198862" data-name="Trazado 198862" d="M107.946,162.775a10.5,10.5,0,0,1-1.689.1c-1.176.02-2.729.048-4.606.083-3.889.047-9.262.076-15.2.076s-11.309-.029-15.2-.076c-1.877-.035-3.43-.063-4.606-.083a10.519,10.519,0,0,1-1.689-.1,10.374,10.374,0,0,1,1.689-.1l4.606-.084c3.889-.046,9.262-.075,15.2-.075s11.307.029,15.2.075l4.606.084a10.36,10.36,0,0,1,1.689.1" fill="#263238"/>
          <path id="Trazado_198863" data-name="Trazado 198863" d="M166.982,154.035c0,.144-22.84.26-51.007.26s-51.012-.116-51.012-.26,22.835-.26,51.012-.26,51.007.116,51.007.26" fill="#263238"/>
          <path id="Trazado_198864" data-name="Trazado 198864" d="M50.483,203.6H35.861a3.419,3.419,0,0,1-3.419-3.419V185.554a3.418,3.418,0,0,1,3.419-3.418H50.483a3.418,3.418,0,0,1,3.419,3.418v14.622a3.419,3.419,0,0,1-3.419,3.419" fill="#ffa400"/>
          <path id="Trazado_198865" data-name="Trazado 198865" d="M41.826,195.96h-.017a.5.5,0,0,1-.363-.174l-3-3.507a.5.5,0,1,1,.759-.65l2.65,3.092,6.966-7.124a.5.5,0,0,1,.715.7l-7.348,7.515a.5.5,0,0,1-.357.15" fill="#fff"/>
          <path id="Trazado_198866" data-name="Trazado 198866" d="M166.982,184.747c0,.144-22.84.26-51.007.26s-51.012-.116-51.012-.26,22.835-.26,51.012-.26,51.007.116,51.007.26" fill="#263238"/>
          <path id="Trazado_198867" data-name="Trazado 198867" d="M107.946,200.442a10.508,10.508,0,0,1-1.689.1l-4.606.083c-3.889.047-9.262.076-15.2.076s-11.309-.029-15.2-.076l-4.606-.083a10.522,10.522,0,0,1-1.689-.1,10.52,10.52,0,0,1,1.689-.1l4.606-.083c3.889-.047,9.262-.076,15.2-.076s11.307.029,15.2.076l4.606.083a10.505,10.505,0,0,1,1.689.1" fill="#263238"/>
          <path id="Trazado_198868" data-name="Trazado 198868" d="M166.982,191.7c0,.144-22.84.26-51.007.26s-51.012-.116-51.012-.26,22.835-.26,51.012-.26,51.007.116,51.007.26" fill="#263238"/>
          <path id="Trazado_198869" data-name="Trazado 198869" d="M50.483,241.262H35.861a3.419,3.419,0,0,1-3.419-3.419V223.221a3.418,3.418,0,0,1,3.419-3.418H50.483a3.418,3.418,0,0,1,3.419,3.418v14.622a3.419,3.419,0,0,1-3.419,3.419" fill="#ffa400"/>
          <path id="Trazado_198870" data-name="Trazado 198870" d="M41.826,233.627h-.017a.5.5,0,0,1-.363-.175l-3-3.507a.5.5,0,1,1,.759-.65l2.65,3.092,6.966-7.124a.5.5,0,0,1,.715.7l-7.348,7.515a.5.5,0,0,1-.357.15" fill="#fff"/>
          <path id="Trazado_198871" data-name="Trazado 198871" d="M166.982,222.414c0,.144-22.84.26-51.007.26s-51.012-.116-51.012-.26,22.835-.26,51.012-.26,51.007.116,51.007.26" fill="#263238"/>
          <path id="Trazado_198872" data-name="Trazado 198872" d="M107.946,238.109a10.5,10.5,0,0,1-1.689.1l-4.606.083c-3.889.047-9.262.076-15.2.076s-11.309-.029-15.2-.076l-4.606-.083a10.519,10.519,0,0,1-1.689-.1,10.522,10.522,0,0,1,1.689-.1l4.606-.083c3.889-.047,9.262-.076,15.2-.076s11.307.029,15.2.076l4.606.083a10.508,10.508,0,0,1,1.689.1" fill="#263238"/>
          <path id="Trazado_198873" data-name="Trazado 198873" d="M166.982,229.37c0,.144-22.84.26-51.007.26s-51.012-.116-51.012-.26,22.835-.26,51.012-.26,51.007.116,51.007.26" fill="#263238"/>
          <path id="Trazado_198874" data-name="Trazado 198874" d="M67.194,86.7a2.863,2.863,0,0,1-2.248,1.02c-1.167,0-2.039-.455-3.3-1.782a4.356,4.356,0,0,1-4.14-4.4,4.636,4.636,0,0,1,9.262,0,4.306,4.306,0,0,1-3.218,4.238,1.879,1.879,0,0,0,1.437.724,1.949,1.949,0,0,0,1.474-.687Zm-5.061-2.137a3.021,3.021,0,1,0-3.022-3.022,2.93,2.93,0,0,0,3.022,3.022" fill="#263238"/>
          <path id="Trazado_198875" data-name="Trazado 198875" d="M74.661,79.283v6.559H73.2v-.835a2.678,2.678,0,0,1-2.113.921,2.6,2.6,0,0,1-2.825-2.9V79.283H69.8v3.538c0,1.191.565,1.756,1.535,1.756A1.728,1.728,0,0,0,73.125,82.6V79.283Z" fill="#263238"/>
          <path id="Trazado_198876" data-name="Trazado 198876" d="M82.165,82v3.844h-1.45v-.8a2.324,2.324,0,0,1-2.064.884c-1.5,0-2.444-.823-2.444-1.965,0-1.093.737-1.953,2.727-1.953h1.695v-.1c0-.9-.541-1.425-1.634-1.425a3.245,3.245,0,0,0-1.99.651l-.6-1.118a4.618,4.618,0,0,1,2.777-.81c1.891,0,2.985.9,2.985,2.788m-1.536,1.793v-.762H79.044c-1.043,0-1.326.393-1.326.872,0,.553.467.91,1.253.91a1.673,1.673,0,0,0,1.658-1.02" fill="#263238"/>
          <rect id="Rectángulo_45194" data-name="Rectángulo 45194" width="1.535" height="9.114" transform="translate(84.128 76.728)" fill="#263238"/>
          <path id="Trazado_198877" data-name="Trazado 198877" d="M87.469,77.281a.935.935,0,0,1,.983-.922.914.914,0,0,1,.982.885.984.984,0,0,1-1.965.037m.209,2h1.535v6.559H87.678Z" fill="#263238"/>
          <path id="Trazado_198878" data-name="Trazado 198878" d="M95.17,85.486a2.412,2.412,0,0,1-1.474.442,2.015,2.015,0,0,1-2.26-2.211V80.561H90.355V79.332h1.081v-1.5h1.535v1.5h1.757v1.229H92.971V83.68c0,.639.32.983.909.983a1.38,1.38,0,0,0,.86-.27Z" fill="#263238"/>
          <path id="Trazado_198879" data-name="Trazado 198879" d="M102.453,79.283,99.382,86.37a2.543,2.543,0,0,1-2.53,1.941,2.715,2.715,0,0,1-1.757-.6l.614-1.13a1.664,1.664,0,0,0,1.131.455c.54,0,.859-.258,1.154-.909l.111-.259-2.862-6.583h1.6L98.9,84.135l2.076-4.852Z" fill="#263238"/>
          <path id="Trazado_198880" data-name="Trazado 198880" d="M106.259,81.543a4.318,4.318,0,0,1,4.508-4.373,4.162,4.162,0,0,1,3.144,1.253l-.577.578a3.405,3.405,0,0,0-2.542-1.02,3.563,3.563,0,1,0,0,7.125,3.375,3.375,0,0,0,2.542-1.032l.577.577a4.179,4.179,0,0,1-3.156,1.265,4.314,4.314,0,0,1-4.5-4.373" fill="#263238"/>
          <path id="Trazado_198881" data-name="Trazado 198881" d="M114.734,82.612a3.286,3.286,0,1,1,3.292,3.292,3.178,3.178,0,0,1-3.292-3.292m5.687,0a2.4,2.4,0,1,0-2.395,2.518,2.356,2.356,0,0,0,2.395-2.518" fill="#263238"/>
          <path id="Trazado_198882" data-name="Trazado 198882" d="M129.03,82.1v3.746h-.872v-3.66a1.8,1.8,0,0,0-1.941-2.064,2.118,2.118,0,0,0-2.26,2.334v3.39h-.872v-6.46h.835v1.191a2.714,2.714,0,0,1,2.457-1.241A2.474,2.474,0,0,1,129.03,82.1" fill="#263238"/>
          <path id="Trazado_198883" data-name="Trazado 198883" d="M134.8,85.449a2.079,2.079,0,0,1-1.364.455,1.711,1.711,0,0,1-1.891-1.88V80.118h-1.155v-.737h1.155V77.969h.872v1.412h1.965v.737h-1.965v3.857a1.034,1.034,0,0,0,1.118,1.179,1.444,1.444,0,0,0,.958-.331Z" fill="#263238"/>
          <path id="Trazado_198884" data-name="Trazado 198884" d="M139.641,79.332v.848c-.074,0-.148-.012-.209-.012a2.089,2.089,0,0,0-2.174,2.382v3.292h-.872V79.381h.835v1.265a2.438,2.438,0,0,1,2.42-1.314" fill="#263238"/>
          <path id="Trazado_198885" data-name="Trazado 198885" d="M140.5,82.612a3.286,3.286,0,1,1,3.291,3.292,3.177,3.177,0,0,1-3.291-3.292m5.687,0a2.4,2.4,0,1,0-2.4,2.518,2.357,2.357,0,0,0,2.4-2.518" fill="#263238"/>
          <rect id="Rectángulo_45195" data-name="Rectángulo 45195" width="0.873" height="9.114" transform="translate(148.852 76.728)" fill="#263238"/>
          <path id="Trazado_198886" data-name="Trazado 198886" d="M37.3,22.169V35.4a13.9,13.9,0,0,0,13.9,13.9h97.1a13.9,13.9,0,0,0,13.9-13.9V22.194Z" fill="#ffa400"/>
          <path id="Trazado_198887" data-name="Trazado 198887" d="M99.688,26.074a13.037,13.037,0,1,1,13.037-13.037A13.051,13.051,0,0,1,99.688,26.074M99.688,5a8.037,8.037,0,1,0,8.037,8.037A8.046,8.046,0,0,0,99.688,5" fill="#ffa400"/>
        </g>
      </g>
    </g>
    <g id="Grupo_147027" data-name="Grupo 147027" transform="translate(975.975 2890)" clip-path="url(#clip-path-4)">
      <g id="Grupo_147026" data-name="Grupo 147026">
        <g id="Grupo_147025" data-name="Grupo 147025" clip-path="url(#clip-path-4)">
          <path id="Trazado_198771" data-name="Trazado 198771" d="M134.618,68.564l3.331-11.6s1.206-4.713,1.494-5.814c.379-1.457-.64-1.927-1.254-.938-.232.375-2.828,5.162-2.828,5.162s2.106-7.856,2.182-8.142c.682-2.565-.912-2.313-1.387-1.4-.491.945-3.442,8.668-3.442,8.668,2.8-10.1,1.96-11,1.2-11.168s-3.229,9.07-3.229,9.07a8.645,8.645,0,0,0-2.42-2.695c-2.431-1.7-6.521-.063-6.729,1.088s1.246,1.485,1.246,1.485a3.682,3.682,0,0,1,5.854,3.394,2.291,2.291,0,0,1-4.49.4c-.97-4.575-2.555-3.1-2.555-3.1l1.482,10.086L121.36,68.1" fill="#b78876"/>
          <path id="Trazado_198772" data-name="Trazado 198772" d="M80.613,28.439c3.8-1,6.131-2.351,6.131-3.841,0-3.073-9.935-5.565-22.19-5.565S42.363,21.525,42.363,24.6c0,1.482,2.309,2.828,6.073,3.826" fill="#ffa400"/>
          <g id="Grupo_147009" data-name="Grupo 147009" opacity="0.4">
            <g id="Grupo_147008" data-name="Grupo 147008">
              <g id="Grupo_147007" data-name="Grupo 147007" clip-path="url(#clip-path-6)">
                <path id="Trazado_198773" data-name="Trazado 198773" d="M78.5,28.331c3.367-.885,5.519-2.087,5.434-3.4-.237-3.666-8.806-4.933-19.668-4.933S44.593,22.2,44.593,24.927c0,1.313,2.046,2.506,5.382,3.39"/>
              </g>
            </g>
          </g>
          <path id="Trazado_198774" data-name="Trazado 198774" d="M83.692,23.153s-3.174-13.045-3.445-13.68-3.99-6.347-12.876-7.979H60.027S49.6,4.849,47.695,7.388s-2.72,14.87-2.72,14.87l20.6-4.477L79.579,21.2Z" fill="#ffa400"/>
          <path id="Trazado_198775" data-name="Trazado 198775" d="M64.968,0h3.153a5.1,5.1,0,0,1,1.252,3.314c.148,2.283.663,17.947.663,17.947l-9.206-.418L61.124,1.5,58,2.189l.1-1.1.829-.978Z" fill="#ffa400"/>
          <path id="Trazado_198776" data-name="Trazado 198776" d="M16.694,326.43,10.63,350.493.346,368.143a2.542,2.542,0,0,0,3.4,3.521c4.618-2.491,21.559-11.741,21.9-13.527.4-2.068,8.082-24.957,8.082-24.957Z" fill="#92bfb1"/>
          <g id="Grupo_147012" data-name="Grupo 147012" opacity="0.6">
            <g id="Grupo_147011" data-name="Grupo 147011">
              <g id="Grupo_147010" data-name="Grupo 147010" clip-path="url(#clip-path-7)">
                <path id="Trazado_198777" data-name="Trazado 198777" d="M1.416,371.7l24.678-15.178-.28,1.013a3.817,3.817,0,0,1-1.536,2.15c-2.012,1.365-7.651,5.012-20.464,12a2.538,2.538,0,0,1-2.4.016" fill="#fff"/>
              </g>
            </g>
          </g>
          <g id="Grupo_147015" data-name="Grupo 147015" opacity="0.6">
            <g id="Grupo_147014" data-name="Grupo 147014">
              <g id="Grupo_147013" data-name="Grupo 147013" clip-path="url(#clip-path-8)">
                <path id="Trazado_198778" data-name="Trazado 198778" d="M23.319,347.451a1.537,1.537,0,0,0-.941,1.824,1.478,1.478,0,0,0,1.8.949,1.62,1.62,0,0,0,.986-1.937,1.531,1.531,0,0,0-1.98-.779" fill="#fff"/>
              </g>
            </g>
          </g>
          <path id="Trazado_198779" data-name="Trazado 198779" d="M9.771,362.763a7.77,7.77,0,0,0-1.583-2.44,7.75,7.75,0,0,0-2.608-1.288c0-.065.35-.167.931-.091a4.057,4.057,0,0,1,3.242,2.883c.143.569.083.933.018.936" fill="#263238"/>
          <path id="Trazado_198780" data-name="Trazado 198780" d="M7.182,365.495c-.143.072-.7-.918-1.834-1.614a20.75,20.75,0,0,0-2.253-.947,2.822,2.822,0,0,1,2.542.485c1.294.8,1.687,2.046,1.545,2.076" fill="#263238"/>
          <path id="Trazado_198781" data-name="Trazado 198781" d="M14.078,359.534a25.424,25.424,0,0,0-2.662-2.682,25.363,25.363,0,0,0-3.32-1.808,5.638,5.638,0,0,1,3.647,1.372,5.634,5.634,0,0,1,2.335,3.118" fill="#263238"/>
          <path id="Trazado_198782" data-name="Trazado 198782" d="M16.532,352.374c-.1.126-1.272-.792-2.974-1.329-1.695-.561-3.18-.5-3.19-.664a4.92,4.92,0,0,1,3.357.145,4.921,4.921,0,0,1,2.807,1.848" fill="#263238"/>
          <path id="Trazado_198783" data-name="Trazado 198783" d="M18.491,345.355a12.432,12.432,0,0,0-3.059-1.466,12.427,12.427,0,0,0-3.392-.08c-.026-.061.319-.289.958-.455a5.538,5.538,0,0,1,4.845,1.161c.495.438.7.8.648.84" fill="#263238"/>
          <path id="Trazado_198784" data-name="Trazado 198784" d="M15.843,342.565a2.126,2.126,0,0,1,.218-.914,6.526,6.526,0,0,1,1.374-2.17,2.893,2.893,0,0,1,1.563-1,1.021,1.021,0,0,1,1.049.527,1.662,1.662,0,0,1,.08,1.184,3.6,3.6,0,0,1-3.922,2.366,4.168,4.168,0,0,1-3.365-3.193,1.444,1.444,0,0,1,.254-1.178,1,1,0,0,1,1.153-.232,3.557,3.557,0,0,1,1.349,1.255,7.292,7.292,0,0,1,1.119,2.309,2.221,2.221,0,0,1,.139.928,11.625,11.625,0,0,0-1.565-3.005,3.313,3.313,0,0,0-1.2-1.064.535.535,0,0,0-.629.122.994.994,0,0,0-.122.784,3.72,3.72,0,0,0,2.95,2.734,3.119,3.119,0,0,0,3.358-1.96,1.2,1.2,0,0,0-.021-.829.553.553,0,0,0-.575-.3,2.619,2.619,0,0,0-1.339.823,9.652,9.652,0,0,0-1.865,2.813" fill="#263238"/>
          <path id="Trazado_198785" data-name="Trazado 198785" d="M81.371,333.338l-1.33,19.2s19.066,7.8,19.166,11.371l-37.315-1.242.845-30Z" fill="#92bfb1"/>
          <path id="Trazado_198786" data-name="Trazado 198786" d="M68.556,350.534a1.525,1.525,0,0,0-1.112,1.7,1.468,1.468,0,0,0,1.68,1.117,1.608,1.608,0,0,0,1.167-1.811,1.52,1.52,0,0,0-1.875-.968" fill="#e0e0e0"/>
          <g id="Grupo_147018" data-name="Grupo 147018" opacity="0.6">
            <g id="Grupo_147017" data-name="Grupo 147017">
              <g id="Grupo_147016" data-name="Grupo 147016" clip-path="url(#clip-path-9)">
                <path id="Trazado_198787" data-name="Trazado 198787" d="M61.892,362.663l.2-3.02,35.7,2.32s1.637.778,1.41,1.942Z" fill="#fff"/>
              </g>
            </g>
          </g>
          <path id="Trazado_198788" data-name="Trazado 198788" d="M80.652,352.365c-.012.182-.926.234-1.842.79-.93.533-1.419,1.306-1.584,1.229-.167-.041.141-1.122,1.262-1.775s2.209-.41,2.164-.244" fill="#263238"/>
          <path id="Trazado_198789" data-name="Trazado 198789" d="M84.512,354.114c.036.178-.764.462-1.408,1.212-.667.731-.85,1.559-1.032,1.545-.172.023-.262-1.049.557-1.966s1.885-.965,1.883-.791" fill="#263238"/>
          <path id="Trazado_198790" data-name="Trazado 198790" d="M86.579,358.872c-.167.033-.39-.886.111-1.868s1.366-1.351,1.439-1.2c.1.153-.474.67-.873,1.483-.418.8-.495,1.569-.677,1.581" fill="#263238"/>
          <path id="Trazado_198791" data-name="Trazado 198791" d="M80.469,347.956c-.082.163-.908-.116-1.942-.08-1.033.015-1.845.334-1.935.174-.1-.135.7-.783,1.92-.808s2.051.574,1.957.714" fill="#263238"/>
          <path id="Trazado_198792" data-name="Trazado 198792" d="M80.666,344.078a3.5,3.5,0,0,1-1.869-.072,8.437,8.437,0,0,1-1.935-.665,8.847,8.847,0,0,1-1.054-.606,2.3,2.3,0,0,1-.55-.458.8.8,0,0,1-.051-.972,1,1,0,0,1,.813-.39,2.428,2.428,0,0,1,.7.12,6.848,6.848,0,0,1,1.149.437,6.6,6.6,0,0,1,1.685,1.189c.839.83,1.112,1.521,1.049,1.554-.085.057-.487-.527-1.346-1.218A7.453,7.453,0,0,0,77.618,342a6.925,6.925,0,0,0-1.061-.366c-.392-.117-.728-.131-.836.041-.039.066-.045.092.034.211a1.92,1.92,0,0,0,.4.335,9.918,9.918,0,0,0,.969.6,10.416,10.416,0,0,0,1.783.752,12.761,12.761,0,0,1,1.755.506" fill="#263238"/>
          <path id="Trazado_198793" data-name="Trazado 198793" d="M80.42,344.332a2.985,2.985,0,0,1-.433-1.821,6.048,6.048,0,0,1,.837-3.157,1.544,1.544,0,0,1,1.223-.9.873.873,0,0,1,.764.547,2.54,2.54,0,0,1,.169.691,4.175,4.175,0,0,1-.041,1.259,4.309,4.309,0,0,1-.862,1.9c-.762.942-1.529,1.135-1.543,1.073-.057-.094.59-.424,1.178-1.335a4.3,4.3,0,0,0,.65-1.737,3.828,3.828,0,0,0,0-1.08c-.045-.4-.183-.724-.333-.688-.185-.009-.51.279-.674.59a6.258,6.258,0,0,0-.5,1,6.711,6.711,0,0,0-.424,1.852c-.088,1.094.084,1.782-.016,1.807" fill="#263238"/>
          <path id="Trazado_198794" data-name="Trazado 198794" d="M50.735,73.236l22.434-1.029C73.3,69.827,72.081,55.1,72.081,55.1s8.48-1.319,8.584-9.8S79.484,19.9,79.484,19.9l-.144-.741c-9.814-4.217-21.182-4.594-29.647,1.921l-1.257.968Z" fill="#b78876"/>
          <path id="Trazado_198795" data-name="Trazado 198795" d="M72.1,54.977a19.715,19.715,0,0,1-11.053-3.141s2.613,6.1,11.073,5.338Z" fill="#aa6550"/>
          <path id="Trazado_198796" data-name="Trazado 198796" d="M49.481,30.827c-.145-.063-5.825-1.723-5.64,4.073s5.966,4.415,5.971,4.248-.331-8.321-.331-8.321" fill="#b78876"/>
          <path id="Trazado_198797" data-name="Trazado 198797" d="M47.971,37.009c-.026-.018-.1.074-.267.158a1.009,1.009,0,0,1-.754.039A2.5,2.5,0,0,1,45.722,35a3.337,3.337,0,0,1,.237-1.454,1.168,1.168,0,0,1,.734-.8.515.515,0,0,1,.6.258c.083.16.05.277.081.285s.121-.1.067-.338a.644.644,0,0,0-.24-.356.762.762,0,0,0-.563-.13,1.419,1.419,0,0,0-1.026.932,3.429,3.429,0,0,0-.3,1.627,2.621,2.621,0,0,0,1.553,2.456,1.08,1.08,0,0,0,.918-.183c.175-.148.2-.279.181-.289" fill="#aa6550"/>
          <path id="Trazado_198798" data-name="Trazado 198798" d="M76.52,30.5a1.211,1.211,0,0,1-1.168,1.222,1.158,1.158,0,0,1-1.247-1.092A1.211,1.211,0,0,1,75.271,29.4,1.159,1.159,0,0,1,76.52,30.5" fill="#263238"/>
          <path id="Trazado_198799" data-name="Trazado 198799" d="M77.7,29.283c-.15.158-1.067-.521-2.37-.518-1.3-.015-2.258.655-2.4.5-.07-.071.083-.356.5-.659a3.328,3.328,0,0,1,1.921-.592,3.194,3.194,0,0,1,1.887.609c.4.308.536.593.462.664" fill="#263238"/>
          <path id="Trazado_198800" data-name="Trazado 198800" d="M63.713,30.95a1.209,1.209,0,0,1-1.167,1.221A1.157,1.157,0,0,1,61.3,31.08a1.211,1.211,0,0,1,1.166-1.222,1.159,1.159,0,0,1,1.249,1.092" fill="#263238"/>
          <path id="Trazado_198801" data-name="Trazado 198801" d="M64.889,29.526c-.15.158-1.069-.521-2.371-.517-1.3-.016-2.257.655-2.4.495-.069-.07.082-.355.5-.658a3.318,3.318,0,0,1,1.921-.592,3.191,3.191,0,0,1,1.886.608c.4.308.537.594.463.664" fill="#263238"/>
          <path id="Trazado_198802" data-name="Trazado 198802" d="M69.617,39.188a8.636,8.636,0,0,1,2.116-.382c.333-.034.648-.1.7-.327a1.7,1.7,0,0,0-.222-.986q-.469-1.208-.984-2.534a43.559,43.559,0,0,1-2.21-6.626,43.53,43.53,0,0,1,2.738,6.433q.493,1.333.942,2.549a1.922,1.922,0,0,1,.173,1.305.836.836,0,0,1-.547.487,2.26,2.26,0,0,1-.565.078,8.485,8.485,0,0,1-2.145,0" fill="#263238"/>
          <path id="Trazado_198803" data-name="Trazado 198803" d="M65.783,40.09c.212-.012.215,1.4,1.425,2.406s2.716.848,2.727,1.046c.02.088-.336.274-.972.291a3.511,3.511,0,0,1-2.276-.793,3.066,3.066,0,0,1-1.1-2.017c-.054-.591.1-.941.2-.933" fill="#263238"/>
          <path id="Trazado_198804" data-name="Trazado 198804" d="M65.225,24.42c-.129.354-1.43.186-2.958.371-1.532.153-2.765.6-2.968.283-.09-.152.125-.485.623-.828a5.178,5.178,0,0,1,4.515-.5c.561.226.843.505.788.673" fill="#263238"/>
          <path id="Trazado_198805" data-name="Trazado 198805" d="M77.217,25.512c-.229.3-1.127-.011-2.206-.025-1.079-.053-1.993.2-2.2-.111-.093-.151.051-.447.451-.727a3.194,3.194,0,0,1,3.553.11c.381.3.506.609.405.753" fill="#263238"/>
          <path id="Trazado_198806" data-name="Trazado 198806" d="M89.412,153.652l-3.7,191.556a2.349,2.349,0,0,1-2.37,2.3l-22.315-.2a2.348,2.348,0,0,1-2.328-2.4l3.457-164.873L33.133,343.7a4.214,4.214,0,0,1-4.293,3.474l-18.714-.646a4.212,4.212,0,0,1-4.017-4.858l29.39-188.8Z" fill="#0c0a3e"/>
          <path id="Trazado_198807" data-name="Trazado 198807" d="M135.053,68.318l-13.867-3.344L112.035,89.8,86.744,67.173c-2.691-1.97-7.33-2.215-10.859-2.652l-.267-.032c-1.369-.162-2.04-.36-2.863-.459-6.1,4.585-16.529,4.877-22.515.149,0,0-4.54,1.026-7.252,1.545-8.539,1.637-14.686,7.857-16.393,13.6l10.689,24.653,2.049,23.42-5.918,20.966a3.639,3.639,0,0,0,3.042,4.6l52.956.807.865-.429c1.116-2.053,1.944-4.43,1.424-6.709-2.289-10.033-.693-39.957-1.174-49.142,10.386,10.092,21.847,18.465,30.222,13.28,6.961-4.31,14.3-42.451,14.3-42.451" fill="#e0e0e0"/>
          <path id="Trazado_198808" data-name="Trazado 198808" d="M50.636,63.592h0" fill="#e8505b"/>
          <path id="Trazado_198809" data-name="Trazado 198809" d="M48.527,25.373c.225,2.351.152,4.734.377,7.085a8.038,8.038,0,0,0,.844,2.537,2.333,2.333,0,0,0,4.423.02,6.939,6.939,0,0,0,.516-3.037A9.726,9.726,0,0,1,55,28.9a16.491,16.491,0,0,1,1.755-3A3.751,3.751,0,0,0,57.3,22.6c-3.147-.051-6.044,1.21-8.776,2.775" fill="#0c0a3e"/>
          <path id="Trazado_198810" data-name="Trazado 198810" d="M79.777,24.315,79.6,19.572,65.74,15.444l-17.3,5.1v5.1a42.551,42.551,0,0,1,31.341-1.326" fill="#455a64"/>
          <path id="Trazado_198811" data-name="Trazado 198811" d="M78.731,18.566l.609.591,4.987,3.132a78.969,78.969,0,0,0-19.5-2.588c-9.915.106-21.256,3.452-21.256,3.452L50.143,19.2a11.314,11.314,0,0,1,8.043-3.584l12.446-.243a11.315,11.315,0,0,1,8.1,3.191" fill="#ffa400"/>
          <path id="Trazado_198812" data-name="Trazado 198812" d="M69.826,15.041a42.242,42.242,0,0,1-.628-6.6,42.325,42.325,0,0,1-.108-6.628,42.244,42.244,0,0,1,.628,6.6,42.312,42.312,0,0,1,.108,6.627" fill="#263238"/>
          <path id="Trazado_198813" data-name="Trazado 198813" d="M58,2.189a9.056,9.056,0,0,1,2.335-.675,1.021,1.021,0,0,1,1,.931q0,.675.006,1.4c-.011,1-.022,2.055-.033,3.165-.038,2.245-.1,4.278-.174,5.749a11.036,11.036,0,0,1-.224,2.381,10.811,10.811,0,0,1-.144-2.381c-.022-1.472-.017-3.5.021-5.751.026-1.11.051-2.168.074-3.165q.022-.705.044-1.365a.631.631,0,0,0-.582-.593A12.721,12.721,0,0,1,58,2.189" fill="#263238"/>
          <path id="Trazado_198814" data-name="Trazado 198814" d="M84.636,22.229c-.02.036-.581-.238-1.649-.616-.531-.2-1.19-.422-1.931-.768a5.541,5.541,0,0,1-2.2-1.715c-.67-.856-.791-2.054-1.53-2.906-.691-.911-2.052-.905-3.368-.955-2.674-.109-5.617-.134-8.705-.051s-6.031.257-8.7.463a5.3,5.3,0,0,0-3.394,1.133,9.493,9.493,0,0,0-1.042,1.322l-.481.665-.247.314a1.243,1.243,0,0,1-.364.27c-1.854.9-3.375,1.47-4.411,1.941a16.86,16.86,0,0,1-1.624.685,1.522,1.522,0,0,1,.382-.256c.259-.149.648-.359,1.157-.613,1-.523,2.539-1.165,4.315-2.078a.894.894,0,0,0,.25-.184l.233-.31.46-.662a9.474,9.474,0,0,1,1.07-1.4,5.676,5.676,0,0,1,3.654-1.3c2.678-.233,5.625-.424,8.727-.505s6.056-.045,8.741.091a13.872,13.872,0,0,1,1.985.183,2.766,2.766,0,0,1,1.694.978c.818,1.008.9,2.2,1.5,2.966a5.314,5.314,0,0,0,2.028,1.668c.708.361,1.355.614,1.876.84s.923.415,1.187.557a1.505,1.505,0,0,1,.387.248" fill="#263238"/>
          <path id="Trazado_198815" data-name="Trazado 198815" d="M82.782,22.965a1.268,1.268,0,0,1-.37-.182,8,8,0,0,0-1.03-.53,20.192,20.192,0,0,0-4.077-1.239,49.846,49.846,0,0,0-14.063-.679c-2.771.2-5.4.319-7.774.63-2.354.336-4.488.781-6.239,1.2-.877.218-1.661.449-2.339.68a4.034,4.034,0,0,0-1.585.816,1.651,1.651,0,0,0-.517,1.37c-.011.006-.091-.125-.1-.406a1.683,1.683,0,0,1,.467-1.1,4.079,4.079,0,0,1,1.632-.949c.678-.26,1.464-.519,2.344-.763A60.006,60.006,0,0,1,55.4,20.489c2.394-.34,5.041-.476,7.8-.674a46.4,46.4,0,0,1,14.181.839,17.758,17.758,0,0,1,4.086,1.417,5.753,5.753,0,0,1,1,.625c.215.163.322.255.311.269" fill="#263238"/>
          <path id="Trazado_198816" data-name="Trazado 198816" d="M66.8.4A7.911,7.911,0,0,1,65.5.5L62.378.588c-1.216.048-2.339-.032-3.1.1a1.522,1.522,0,0,0-1.049.626c-.009,0,.017-.133.168-.312a1.571,1.571,0,0,1,.849-.458A22.429,22.429,0,0,1,62.375.379L65.5.353A7.93,7.93,0,0,1,66.8.4" fill="#fafafa"/>
          <path id="Trazado_198817" data-name="Trazado 198817" d="M68.363,15.656a4.045,4.045,0,0,1-.653.058l-1.782.094c-1.5.081-3.581.205-5.87.4-1.133.1-2.212.2-3.226.3a14.78,14.78,0,0,0-2.6.382,2.566,2.566,0,0,0-1.4.98,2.893,2.893,0,0,0-.274.583,1.253,1.253,0,0,1,.205-.626,2.571,2.571,0,0,1,1.427-1.077,13.769,13.769,0,0,1,2.623-.433c.991-.112,2.082-.22,3.229-.316,2.293-.192,4.375-.293,5.882-.336l1.786-.028a3.972,3.972,0,0,1,.655.023" fill="#fafafa"/>
          <path id="Trazado_198818" data-name="Trazado 198818" d="M61.43,13.823a2.079,2.079,0,0,1,.007-.471c.028-.419.057-.841.085-1.275.074-1.076.161-2.564.21-4.208s.049-3.135.04-4.214c0-.435-.007-.857-.01-1.278a2.131,2.131,0,0,1,.02-.47,1.96,1.96,0,0,1,.061.467c.026.3.053.738.076,1.278.047,1.079.07,2.574.022,4.223s-.161,3.139-.272,4.215c-.055.537-.107.971-.151,1.271a2.064,2.064,0,0,1-.088.462" fill="#fafafa"/>
          <path id="Trazado_198819" data-name="Trazado 198819" d="M51.06,19.667a1.869,1.869,0,0,1-.393.21l-1.1.5L45.9,21.965a15.7,15.7,0,0,0-1.98.917,2.51,2.51,0,0,0-1.123,1.281,1.76,1.76,0,0,0-.031,1.149c.1.261.211.378.195.391a.922.922,0,0,1-.27-.361,1.761,1.761,0,0,1-.034-1.225,2.6,2.6,0,0,1,1.161-1.4,14.127,14.127,0,0,1,2-.946l3.693-1.53,1.128-.441a1.854,1.854,0,0,1,.425-.136" fill="#fafafa"/>
          <path id="Trazado_198820" data-name="Trazado 198820" d="M48.527,65.714l1.228-8.474L61.3,61.477l3.257,5.741,2.024-6.3,6.332-2.18,2.707,5.633-4.645,6.575-8.716,1.762Z" fill="#e0e0e0"/>
          <path id="Trazado_198821" data-name="Trazado 198821" d="M64.756,68.531c-.017.017-.168-.1-.431-.348a13.354,13.354,0,0,1-1.058-1.144,17.086,17.086,0,0,1-2.785-4.8l.423.006c-.789,1.99-1.7,4.28-2.666,6.72-.464,1.149-.916,2.264-1.342,3.317l-.14.348-.269-.26c-2.33-2.251-4.341-4.223-5.76-5.643L49.08,65.044a3.186,3.186,0,0,1-.553-.65,3.163,3.163,0,0,1,.673.524l1.752,1.575c1.48,1.356,3.536,3.28,5.886,5.511l-.41.089c.422-1.055.868-2.173,1.328-3.324l2.728-6.695.224-.549.2.555a18.843,18.843,0,0,0,2.569,4.795c.788,1.065,1.321,1.616,1.279,1.656" fill="#263238"/>
          <path id="Trazado_198822" data-name="Trazado 198822" d="M75.617,64.371a8.983,8.983,0,0,1-1.354,1.866,18.621,18.621,0,0,1-4.42,3.885l-.254.156-.1-.286c-.38-1.028-.814-2.14-1.276-3.292-.695-1.726-1.346-3.37-1.849-4.829l.448-.036c-.381,1.912-.85,3.476-1.135,4.581a10.646,10.646,0,0,1-.5,1.736,7.225,7.225,0,0,1,.234-1.8c.209-1.131.614-2.71.948-4.6L66.5,60.9l.3.809c.533,1.438,1.2,3.063,1.893,4.794.464,1.154.893,2.276,1.259,3.317l-.359-.129a21.1,21.1,0,0,0,4.441-3.665,19.831,19.831,0,0,1,1.585-1.659" fill="#263238"/>
          <path id="Trazado_198823" data-name="Trazado 198823" d="M68.942,154.815A5.616,5.616,0,0,1,69,153.93q.1-.931.269-2.52c.144-1.091.225-2.435.339-3.994q.084-1.172.178-2.5.052-1.33.111-2.8c.179-3.929.173-8.616.075-13.817-.132-5.2-.418-10.914-.827-16.9-.867-11.983-2.046-22.8-2.937-30.623-.443-3.876-.8-7.029-1.059-9.266q-.172-1.588-.272-2.521a5.61,5.61,0,0,1-.059-.884,5.823,5.823,0,0,1,.163.87l.369,2.51c.305,2.181.736,5.339,1.223,9.247.985,7.815,2.224,18.633,3.092,30.631.41,6,.681,11.721.787,16.931.071,5.211.04,9.907-.187,13.844-.051.982-.1,1.919-.148,2.808q-.117,1.323-.219,2.5c-.142,1.559-.252,2.9-.429,3.993q-.231,1.583-.366,2.512a5.57,5.57,0,0,1-.162.87" fill="#263238"/>
          <path id="Trazado_198824" data-name="Trazado 198824" d="M59.69,65.333,62.308,66.7l-.486,4.414-4.086-.857Z" fill="#e8505b"/>
          <g id="Grupo_147021" data-name="Grupo 147021">
            <g id="Grupo_147020" data-name="Grupo 147020">
              <g id="Grupo_147019" data-name="Grupo 147019" clip-path="url(#clip-path-10)">
                <path id="Trazado_198825" data-name="Trazado 198825" d="M59.69,65.333,62.308,66.7l-.486,4.414-4.086-.857Z" fill="#16697a"/>
              </g>
            </g>
          </g>
          <path id="Trazado_198826" data-name="Trazado 198826" d="M65.7,66.427l1.982-1.745L69.493,69.3l-2.6,1.248Z" fill="#16697a"/>
          <path id="Trazado_198827" data-name="Trazado 198827" d="M62.8,72.187l-1.223,52.177,8.819,8.719L74.661,121.5l-8.468-49.59Z" fill="#16697a"/>
          <path id="Trazado_198828" data-name="Trazado 198828" d="M62.855,65.087c.6-.069,1.43-.233,2.086-.373a1.446,1.446,0,0,1,1.574.728L67.628,67.5a1.45,1.45,0,0,1,.149.967l-.447,2.3a1.452,1.452,0,0,1-1.137,1.146l-2.517.508a1.45,1.45,0,0,1-1.581-.765l-1.259-2.484A1.45,1.45,0,0,1,60.8,67.93l.876-1.986a1.459,1.459,0,0,1,1.176-.857" fill="#16697a"/>
          <path id="Trazado_198829" data-name="Trazado 198829" d="M66.518,65.641a5.519,5.519,0,0,1-.672.836c-.433.5-1.042,1.173-1.724,1.911s-1.308,1.4-1.769,1.87a5.577,5.577,0,0,1-.78.736,5.388,5.388,0,0,1,.668-.832c.434-.5,1.044-1.175,1.728-1.915s1.311-1.4,1.772-1.874a5.44,5.44,0,0,1,.777-.732" fill="#263238"/>
          <path id="Trazado_198830" data-name="Trazado 198830" d="M63.939,68.046a12.077,12.077,0,0,1-2.285-2.194,6.112,6.112,0,0,1,1.215,1.022,6.085,6.085,0,0,1,1.07,1.172" fill="#263238"/>
          <path id="Trazado_198831" data-name="Trazado 198831" d="M66.886,71.383a27.627,27.627,0,0,1,.625-3.009,2.987,2.987,0,0,0-.631-1.962,1.757,1.757,0,0,1-.305-.858c.031-.007.125.322.432.783a9.18,9.18,0,0,1,.512.845,1.972,1.972,0,0,1,.2,1.222c-.171.855-.4,1.578-.541,2.121a3.91,3.91,0,0,1-.291.858" fill="#263238"/>
          <g id="Grupo_147024" data-name="Grupo 147024" opacity="0.3">
            <g id="Grupo_147023" data-name="Grupo 147023">
              <g id="Grupo_147022" data-name="Grupo 147022" clip-path="url(#clip-path-11)">
                <path id="Trazado_198832" data-name="Trazado 198832" d="M37.251,137.655a9.994,9.994,0,0,0,8.7,2.5c2.193-.442,4.275-1.635,6.507-1.49,2.444.159,4.464,1.871,6.694,2.882,4.164,1.886,9.023,1.283,13.44.1,2.031-.541,4.154-1.276,5.464-2.919a9.775,9.775,0,0,0,1.681-4.539A46.731,46.731,0,0,0,80.4,125.2c-.044-1.887-.253-3.9-1.451-5.362a6.2,6.2,0,0,0-4.03-2.033,15.837,15.837,0,0,0-4.6.257,76,76,0,0,0-33.314,14.287"/>
              </g>
            </g>
          </g>
          <path id="Trazado_198833" data-name="Trazado 198833" d="M58.725,127.712S30.7,140.244,27.854,140.87c-9.458,2.076-20.274-6.86-17.269-17.046,1.117-3.788,16.193-45.691,16.193-45.691L41.126,97.961l-6.071,20.291,15.9-1.055Z" fill="#e0e0e0"/>
          <path id="Trazado_198834" data-name="Trazado 198834" d="M49.655,117.363a5.47,5.47,0,0,1-1.107.154l-3.066.26c-2.608.2-6.257.456-10.412.72l-.349.022.1-.336c.3-1.013.615-2.065.935-3.14,1.418-4.738,2.727-9.018,3.7-12.109.474-1.475.869-2.7,1.175-3.653a7.59,7.59,0,0,1,.5-1.32,7.615,7.615,0,0,1-.31,1.375c-.267.963-.611,2.206-1.024,3.7-.886,3.117-2.142,7.413-3.559,12.15l-.943,3.138-.249-.314c4.156-.243,7.808-.435,10.421-.551l3.075-.114a5.516,5.516,0,0,1,1.118.019" fill="#263238"/>
          <path id="Trazado_198835" data-name="Trazado 198835" d="M55.6,129.347c.052.127-6.1,2.783-13.737,5.931s-13.876,5.6-13.928,5.471,6.1-2.782,13.739-5.931,13.874-5.6,13.926-5.471" fill="#263238"/>
          <path id="Trazado_198836" data-name="Trazado 198836" d="M52.21,116.434,50,105.675a1.383,1.383,0,0,1,1.361-1.662l27.848.13a1.383,1.383,0,0,1,1.367,1.544L77.7,130.336a1.921,1.921,0,0,1-1.923,1.7l-18.161-.141a1.922,1.922,0,0,1-1.847-1.448Z" fill="#0c0a3e"/>
          <path id="Trazado_198837" data-name="Trazado 198837" d="M49.755,110.768h0a2.926,2.926,0,0,1,2.735,1.868c.456,1.188,1.124,2.576,1.865,2.98,1.367.746,3.729,1.341,4.972.733s6.216-5.084,7.086-4.587,1.616,1.616.746,2.611-5.47,3.978-4.6,4.973,10.567-3.383,12.059-3,2.362,1.3,1.492,1.9-7.459,3.085-7.832,3.955c0,0,9.945-2.611,10.318-1.989s.994,1.616,0,1.989-9.573,2.61-10.318,2.983a18.081,18.081,0,0,1-3.834,1.119,40.9,40.9,0,0,0-4.006,1.271,8.78,8.78,0,0,1-6.185-.166L53.246,127a3.946,3.946,0,0,1-2.451-3.893l.2-3.39-1.085-2.8Z" fill="#b78876"/>
          <path id="Trazado_198838" data-name="Trazado 198838" d="M66.468,108.159a1.012,1.012,0,1,1-1.012-1.012,1.012,1.012,0,0,1,1.012,1.012" fill="#fafafa"/>
          <rect id="Rectángulo_45188" data-name="Rectángulo 45188" width="11.397" height="3.686" transform="translate(73.866 90.99)" fill="#0c0a3e"/>
          <path id="Trazado_198839" data-name="Trazado 198839" d="M46.669,159.818l-12.108-.3.571-3.666,11.958.463Z" fill="#455a64"/>
          <path id="Trazado_198840" data-name="Trazado 198840" d="M80.285,159.745l-30.419-.223.4-3.362,29.985.08Z" fill="#455a64"/>
          <path id="Trazado_198841" data-name="Trazado 198841" d="M61.955,155.965v4.049a1.106,1.106,0,0,0,1,1.187h8.375a1.106,1.106,0,0,0,1-1.187v-4.049a1.106,1.106,0,0,0-1-1.187H62.958a1.106,1.106,0,0,0-1,1.187m9.069,3.741H63.266v-3.433h7.758Z" fill="#fafafa"/>
          <path id="Trazado_198842" data-name="Trazado 198842" d="M82.894,156.273v3.433l6.428.112.09-3.658Z" fill="#455a64"/>
          <path id="Trazado_198843" data-name="Trazado 198843" d="M19.2,337.028s.009-.154.051-.452l.2-1.317c.192-1.182.468-2.881.822-5.058.736-4.414,1.794-10.758,3.1-18.587C25.988,295.9,29.6,274.226,33.586,250.29c3.96-23.96,7.464-45.662,9.941-61.379,1.223-7.842,2.214-14.2,2.9-18.617.344-2.178.612-3.879.8-5.061.094-.559.167-.995.221-1.314.053-.3.093-.445.093-.445s-.005.155-.04.453c-.041.32-.1.759-.17,1.321-.164,1.186-.4,2.891-.7,5.076-.609,4.407-1.561,10.775-2.74,18.643C41.507,204.7,38.06,226.413,34.1,250.375S26.455,296,23.733,311.676c-1.374,7.817-2.487,14.152-3.262,18.56-.4,2.169-.7,3.863-.919,5.041-.107.557-.191.991-.252,1.308-.06.3-.1.443-.1.443" fill="#455a64"/>
          <path id="Trazado_198844" data-name="Trazado 198844" d="M76.384,337.73c-.144,0,.108-38.982.562-87.055.455-48.089.94-87.06,1.084-87.058s-.108,38.974-.563,87.063c-.454,48.073-.939,87.051-1.083,87.05" fill="#455a64"/>
          <path id="Trazado_198845" data-name="Trazado 198845" d="M86.388,338.4c0,.144-6.083.26-13.586.26s-13.588-.116-13.588-.26,6.083-.26,13.588-.26,13.586.116,13.586.26" fill="#455a64"/>
          <path id="Trazado_198846" data-name="Trazado 198846" d="M34.464,337.361a4.443,4.443,0,0,1-1.09.1l-2.971.1-9.8.239c-3.831.078-7.3.111-9.813.086-1.256-.011-2.272-.033-2.974-.063a4.466,4.466,0,0,1-1.091-.1,4.452,4.452,0,0,1,1.09-.1l2.972-.1,9.8-.239c3.83-.079,7.3-.111,9.811-.086,1.256.011,2.272.033,2.974.063a4.457,4.457,0,0,1,1.091.1" fill="#455a64"/>
          <path id="Trazado_198847" data-name="Trazado 198847" d="M111.741,99.381a24.535,24.535,0,0,1-.26-5.031,24.533,24.533,0,0,1,.26-5.032A24.532,24.532,0,0,1,112,94.35a24.534,24.534,0,0,1-.26,5.031" fill="#263238"/>
          <path id="Trazado_198848" data-name="Trazado 198848" d="M115.272,100.024a22.61,22.61,0,0,1-2.257-5.189,22.643,22.643,0,0,1-1.4-5.484,48.349,48.349,0,0,1,1.89,5.315,48.5,48.5,0,0,1,1.764,5.358" fill="#263238"/>
        </g>
      </g>
    </g>
    <g id="Grupo_147056" data-name="Grupo 147056" transform="translate(878.5 3067.8)" clip-path="url(#clip-path-12)">
      <g id="Grupo_147055" data-name="Grupo 147055">
        <g id="Grupo_147054" data-name="Grupo 147054" clip-path="url(#clip-path-12)">
          <path id="Trazado_198888" data-name="Trazado 198888" d="M25.842,80.614c-.958-1.5-2.248-2.061-3.694-3.1a7.714,7.714,0,0,1-3.323-4.037c-.437-1.726.647-3.911,2.426-3.977s2.932,1.776,3.706,3.371c1.365,2.812,3.352,6.139,4.717,8.952" fill="#92bfb1"/>
          <path id="Trazado_198890" data-name="Trazado 198890" d="M20.424,79.314c-4.862-1.184-10.4-1.906-15.283-.816C2.77,79.028.2,80.527.01,82.949a4.821,4.821,0,0,0,2.271,4.1c3.327,2.319,7.931,1.533,11.609-.173s7.774-4.717,11.059-6.507" fill="#92bfb1"/>
          <path id="Trazado_198892" data-name="Trazado 198892" d="M39.71,86.267a34.432,34.432,0,0,0-13.961,2.157,10.235,10.235,0,0,0-5.2,3.57c-1.772,2.719-.906,6.659,1.542,8.791a9.71,9.71,0,0,0,9.181,1.58,15.989,15.989,0,0,0,7.644-5.78,43.848,43.848,0,0,0,5.2-7.73" fill="#92bfb1"/>
          <path id="Trazado_198894" data-name="Trazado 198894" d="M52.638,94.894a21.031,21.031,0,0,1-3.76-8.3,6.632,6.632,0,0,1-.128-2.691,2.835,2.835,0,0,1,1.566-2.084,2.9,2.9,0,0,1,2.96.709,7.6,7.6,0,0,1,1.689,2.705c2.324,5.416,3.259,11.5,4.505,17.264" fill="#92bfb1"/>
          <path id="Trazado_198896" data-name="Trazado 198896" d="M56.029,99.339A21.766,21.766,0,0,0,38.41,104.3a10.485,10.485,0,0,0-3.176,4.245,5.238,5.238,0,0,0,.7,5.071c1.476,1.739,4.159,1.941,6.327,1.234,2.583-.842,4.691-2.7,6.719-4.506l9.643-8.6" fill="#92bfb1"/>
          <path id="Trazado_198898" data-name="Trazado 198898" d="M56.314,74.34A28.055,28.055,0,0,1,67.761,54.934,13.925,13.925,0,0,1,74.3,52.152a7.065,7.065,0,0,1,6.389,2.518c1.736,2.368,1.317,5.735.04,8.379-2.079,4.3-6.106,7.428-10.52,9.249a45.127,45.127,0,0,1-13.983,2.8" fill="#92bfb1"/>
          <path id="Trazado_198899" data-name="Trazado 198899" d="M51.708,57.324c.8-4.885,3.368-9.31,6.365-13.248A14.781,14.781,0,0,1,61.342,40.7a5.91,5.91,0,0,1,4.463-1.077A5.39,5.39,0,0,1,69.759,44.3,8.09,8.09,0,0,1,67.7,50.314a16.781,16.781,0,0,1-5.221,3.864,37.055,37.055,0,0,1-10.564,3.578" fill="#92bfb1"/>
          <path id="Trazado_198900" data-name="Trazado 198900" d="M49.368,42.23c.063-6.31,2.618-13.466,7.413-17.568.846-.724,2.038-1.412,3.006-.859a2.631,2.631,0,0,1,1.019,1.468A12.637,12.637,0,0,1,49.368,42.23" fill="#92bfb1"/>
          <path id="Trazado_198901" data-name="Trazado 198901" d="M48.987,36.05C48.81,30.593,46,25.965,42.6,21.692c-.783-.985-1.817-1.992-3.074-1.932-1.73.081-2.68,2.081-2.853,3.8a11.74,11.74,0,0,0,3.011,9.005c2.212,2.4,6.043,3.544,9.3,3.481" fill="#d0eae2"/>
          <path id="Trazado_198902" data-name="Trazado 198902" d="M50.216,21.183c-2.822-4.512-3.267-12.017-.6-16.62A9.845,9.845,0,0,1,53.17.843a5.94,5.94,0,0,1,5.009-.5C60.93,1.435,62.126,4.912,61.474,7.8s-2.708,5.239-4.9,7.229-4.6,3.779-6.362,6.157" fill="#92bfb1"/>
          <path id="Trazado_198903" data-name="Trazado 198903" d="M50.694,52.221a38.164,38.164,0,0,0-5.63-6.78A15.172,15.172,0,0,0,37.3,41.506a9.548,9.548,0,0,0-8.144,2.47,7.018,7.018,0,0,0-1.3,8.125c1.136,1.984,3.3,3.152,5.449,3.923a25.694,25.694,0,0,0,17.7-.2" fill="#d0eae2"/>
          <path id="Trazado_198904" data-name="Trazado 198904" d="M55.544,71.7a18.965,18.965,0,0,0-8.612-6.689,13.938,13.938,0,0,0-10.761.378c-1.609.787-3.172,2.2-3.161,3.987.012,1.85,1.672,3.24,3.289,4.138a22.243,22.243,0,0,0,19.477.887" fill="#d0eae2"/>
          <path id="Trazado_198905" data-name="Trazado 198905" d="M64.042,99.436a17.824,17.824,0,0,1,2.174-13.054,20.6,20.6,0,0,1,10.727-8.675,11.048,11.048,0,0,1,5.283-.714,5.7,5.7,0,0,1,4.3,2.888c1.353,2.745-.467,6.149-3.027,7.826a36.439,36.439,0,0,1-8.278,4.229c-4.5,1.491-8.593,6.649-10.347,10.279" fill="#92bfb1"/>
          <path id="Trazado_198906" data-name="Trazado 198906" d="M69.172,119.977a28.452,28.452,0,0,1,4.59-16.351,15.494,15.494,0,0,1,6.633-6.382c2.858-1.244,6.534-.968,8.683,1.29,2.752,2.891,1.972,7.853-.575,10.927s-6.358,4.746-9.983,6.416-6.469,3.592-8.657,6.931" fill="#92bfb1"/>
          <path id="Trazado_198907" data-name="Trazado 198907" d="M72.312,136.875c1.4-5.061,2.98-10.208,6.127-14.413s8.2-7.352,13.426-6.85c2.48.239,5.056,1.476,6.048,3.762,1.229,2.834-.369,6.112-2.4,8.436a22.769,22.769,0,0,1-10.813,6.841c-2.33.663-4.767.952-7.035,1.8s-4.442,2.418-5.21,4.716" fill="#92bfb1"/>
          <path id="Trazado_198908" data-name="Trazado 198908" d="M72.736,143.886c-1.625-5.349-6.5-9.024-11.4-11.705-3.671-2.006-7.768-3.716-11.919-3.2s-8.175,4.014-7.911,8.188c.269,4.249,4.665,7.154,8.879,7.76s8.491-.366,12.747-.276,8.286,1.3,10.054,5.172" fill="#d0eae2"/>
          <path id="Trazado_198909" data-name="Trazado 198909" d="M70.112,125.534A17.056,17.056,0,0,0,58.083,114.5a6.649,6.649,0,0,0-4.814.322,5.069,5.069,0,0,0-1.817,6.157,8.268,8.268,0,0,0,5.128,4.445,24.151,24.151,0,0,0,6.907.969,25.172,25.172,0,0,1,6.916.927" fill="#d0eae2"/>
          <path id="Trazado_198910" data-name="Trazado 198910" d="M34.39,83.4a9.527,9.527,0,0,1-2.612-4.261,2.146,2.146,0,0,1,.065-1.585,1.605,1.605,0,0,1,1.882-.547,4.356,4.356,0,0,1,1.679,1.26,50.624,50.624,0,0,1,5.665,8.3" fill="#92bfb1"/>
          <path id="Trazado_198911" data-name="Trazado 198911" d="M56.027,3.882a2.324,2.324,0,0,1-.151.366c-.121.26-.284.607-.49,1.05L54.58,7l-.974,2.375a65.927,65.927,0,0,0-2.182,6.684A69.594,69.594,0,0,0,49.707,25.2,89.512,89.512,0,0,0,50.3,49.366a203.511,203.511,0,0,0,7.224,28.8C60.685,88.234,64,97.744,66.363,106.6a213.447,213.447,0,0,1,4.958,23.8c1.022,6.85,1.5,12.437,1.758,16.3.118,1.932.2,3.433.225,4.451.014.489.025.873.033,1.159a2.235,2.235,0,0,1-.007.4,2.381,2.381,0,0,1-.046-.393c-.021-.285-.049-.668-.085-1.155-.076-1.045-.184-2.536-.322-4.442-.321-3.853-.853-9.427-1.92-16.257A220.773,220.773,0,0,0,65.9,106.722c-2.385-8.823-5.708-18.321-8.873-28.4s-5.823-19.812-7.2-28.885a88.663,88.663,0,0,1-.483-24.279,68.113,68.113,0,0,1,1.8-9.177A63.033,63.033,0,0,1,53.417,9.3l1.022-2.363.853-1.684c.226-.433.4-.773.536-1.027a2.27,2.27,0,0,1,.2-.342" fill="#263238"/>
          <path id="Trazado_198912" data-name="Trazado 198912" d="M14.73,78.447a3.806,3.806,0,0,1,.729.039c.476.051,1.182.1,2.081.231a62.406,62.406,0,0,1,7.552,1.508A67.283,67.283,0,0,1,47.908,91.164a64.187,64.187,0,0,1,10.305,9.467,58.868,58.868,0,0,1,6.6,9.332,62.676,62.676,0,0,1,3.4,6.908c.362.834.6,1.5.768,1.947a3.753,3.753,0,0,1,.229.693,3.912,3.912,0,0,1-.326-.653c-.205-.433-.467-1.087-.857-1.9a73.536,73.536,0,0,0-3.535-6.805,61.114,61.114,0,0,0-6.641-9.2A65.437,65.437,0,0,0,47.6,91.583a69.316,69.316,0,0,0-22.6-11,73.011,73.011,0,0,0-7.486-1.663c-.892-.164-1.592-.242-2.063-.327a3.8,3.8,0,0,1-.717-.143" fill="#263238"/>
          <path id="Trazado_198913" data-name="Trazado 198913" d="M71.942,60.613a31.574,31.574,0,0,1-2.617,1.807A49.489,49.489,0,0,0,58.237,72.853a31.233,31.233,0,0,1-1.964,2.5,2.781,2.781,0,0,1,.387-.768c.275-.479.711-1.149,1.282-1.954A39.805,39.805,0,0,1,69.123,62.113c.838-.521,1.534-.916,2.029-1.16a2.716,2.716,0,0,1,.79-.34" fill="#263238"/>
          <path id="Trazado_198914" data-name="Trazado 198914" d="M78.523,82.727c.034.088-1.31.539-3.25,1.695a20.986,20.986,0,0,0-9.9,13.907c-.457,2.212-.442,3.63-.537,3.626a3.351,3.351,0,0,1-.069-.993,16.975,16.975,0,0,1,.244-2.7A19.87,19.87,0,0,1,75.09,84.1a16.952,16.952,0,0,1,2.472-1.115,3.306,3.306,0,0,1,.961-.26" fill="#263238"/>
          <path id="Trazado_198915" data-name="Trazado 198915" d="M81.11,103.537c.05.081-1.043.745-2.6,2.073A25.326,25.326,0,0,0,70.353,119c-.469,1.99-.558,3.265-.653,3.258a3,3,0,0,1-.014-.9,16.486,16.486,0,0,1,.307-2.435,23.066,23.066,0,0,1,8.287-13.592,16.328,16.328,0,0,1,2.023-1.388,3,3,0,0,1,.807-.4" fill="#263238"/>
          <path id="Trazado_198916" data-name="Trazado 198916" d="M87.7,123.632c.035.085-1.149.573-2.922,1.6a29.217,29.217,0,0,0-11,11.336c-.978,1.8-1.43,3-1.516,2.969a3.017,3.017,0,0,1,.237-.872,18.4,18.4,0,0,1,.952-2.266A26.127,26.127,0,0,1,84.6,124.913a18.518,18.518,0,0,1,2.237-1.018,3.017,3.017,0,0,1,.864-.263" fill="#263238"/>
          <path id="Trazado_198917" data-name="Trazado 198917" d="M56.381,118.516a7.1,7.1,0,0,1,2.511.025A15.463,15.463,0,0,1,69.134,124.6a7.126,7.126,0,0,1,1.231,2.188c-.079.045-.551-.787-1.521-1.961a17.22,17.22,0,0,0-10.011-5.92c-1.5-.285-2.453-.3-2.452-.388" fill="#263238"/>
          <path id="Trazado_198918" data-name="Trazado 198918" d="M53.977,136.981c-.018-.021.209-.267.748-.519a4.8,4.8,0,0,1,2.461-.345,10.83,10.83,0,0,1,3.488,1.14c1.232.588,2.581,1.248,3.959,2.022a27.035,27.035,0,0,1,6.495,4.816,15.122,15.122,0,0,1,1.558,1.9,2.973,2.973,0,0,1,.443.786c-.08.058-.778-1.02-2.262-2.428a31.132,31.132,0,0,0-6.488-4.621c-1.363-.765-2.7-1.435-3.914-2.044a11.285,11.285,0,0,0-3.324-1.206,5.267,5.267,0,0,0-3.164.5" fill="#263238"/>
          <path id="Trazado_198919" data-name="Trazado 198919" d="M57.24,100.946a34.21,34.21,0,0,0-8.117,2.643,34.177,34.177,0,0,0-6.907,5.019,8.322,8.322,0,0,1,1.654-1.932,21.339,21.339,0,0,1,10.835-5.525,8.318,8.318,0,0,1,2.535-.205" fill="#263238"/>
          <path id="Trazado_198920" data-name="Trazado 198920" d="M57.07,100.5a6.689,6.689,0,0,1-1.1-1.713A30.245,30.245,0,0,1,52.863,89.5a6.682,6.682,0,0,1-.154-2.029c.158-.023.609,3.038,1.824,6.63,1.193,3.6,2.677,6.313,2.537,6.39" fill="#263238"/>
          <path id="Trazado_198921" data-name="Trazado 198921" d="M55.544,73.513a52.358,52.358,0,0,0-7.08-2.725,52.362,52.362,0,0,0-7.5-1.141,7.337,7.337,0,0,1,2.249-.145,23.74,23.74,0,0,1,10.449,2.771,7.361,7.361,0,0,1,1.882,1.24" fill="#263238"/>
          <path id="Trazado_198922" data-name="Trazado 198922" d="M65.521,44.521a18.993,18.993,0,0,1-2.189,1.68c-1.365,1.012-3.211,2.46-5.129,4.2s-3.537,3.438-4.677,4.7a19.133,19.133,0,0,1-1.884,2.016,11.762,11.762,0,0,1,1.605-2.256A45.324,45.324,0,0,1,63.12,45.9a11.793,11.793,0,0,1,2.4-1.379" fill="#263238"/>
          <path id="Trazado_198923" data-name="Trazado 198923" d="M51.492,55.327a21.35,21.35,0,0,1-2.366-1.286A39.664,39.664,0,0,0,37.01,49.71a21.517,21.517,0,0,1-2.645-.5,10.3,10.3,0,0,1,2.7.141,31.268,31.268,0,0,1,12.244,4.377,10.345,10.345,0,0,1,2.18,1.6" fill="#263238"/>
          <path id="Trazado_198924" data-name="Trazado 198924" d="M57.464,30.4c.111.112-2.091,2.35-4.37,5.457-2.3,3.1-3.781,5.862-3.92,5.789a7.042,7.042,0,0,1,.833-1.891,35.591,35.591,0,0,1,5.9-8,7.084,7.084,0,0,1,1.56-1.355" fill="#263238"/>
          <path id="Trazado_198925" data-name="Trazado 198925" d="M48.813,35.472a17.858,17.858,0,0,1-1.219-1.8,25.8,25.8,0,0,0-3.41-3.932c-1.478-1.408-2.922-2.576-3.959-3.435A9.621,9.621,0,0,1,38.6,24.839,8.8,8.8,0,0,1,40.45,26.01a38.3,38.3,0,0,1,4.095,3.351A19.911,19.911,0,0,1,47.9,33.469a6.209,6.209,0,0,1,.909,2" fill="#263238"/>
          <path id="Trazado_198926" data-name="Trazado 198926" d="M42.155,87.53a45.287,45.287,0,0,0-6.625,2.549,45.284,45.284,0,0,0-5.858,4.013A6.454,6.454,0,0,1,31.1,92.531a20.718,20.718,0,0,1,8.967-4.713,6.432,6.432,0,0,1,2.092-.288" fill="#263238"/>
          <path id="Trazado_198927" data-name="Trazado 198927" d="M20.66,79.751c.011.161-3.158.345-6.906,1.36C10,82.1,7.16,83.524,7.089,83.378a6.882,6.882,0,0,1,1.8-1.046,28.4,28.4,0,0,1,9.682-2.587,6.854,6.854,0,0,1,2.085.006" fill="#263238"/>
          <path id="Trazado_198928" data-name="Trazado 198928" d="M27.1,81.214a16.706,16.706,0,0,1-2.225-3.5,16.643,16.643,0,0,1-1.769-3.751,16.687,16.687,0,0,1,2.225,3.5A16.674,16.674,0,0,1,27.1,81.214" fill="#263238"/>
          <path id="Trazado_198930" data-name="Trazado 198930" d="M73.314,194.2h0a22.308,22.308,0,0,1-22.308-22.308V152.705H95.622v19.182A22.308,22.308,0,0,1,73.314,194.2" fill="#d0eae2"/>
          <path id="Trazado_198931" data-name="Trazado 198931" d="M95.581,166.194a12.762,12.762,0,0,1-1.733-.522c-1.108-.354-2.7-.9-4.714-1.4a22.159,22.159,0,0,0-7.17-.719,15.479,15.479,0,0,0-4.131.947c-1.393.51-2.794,1.168-4.274,1.77a16.967,16.967,0,0,1-4.518,1.266,13.786,13.786,0,0,1-4.369-.294c-2.722-.607-5.018-1.573-7-2.189a21.065,21.065,0,0,0-4.773-1.033,11.135,11.135,0,0,0-1.33-.045,1.63,1.63,0,0,1-.47-.028,1.557,1.557,0,0,1,.463-.076,7.793,7.793,0,0,1,1.348-.054,19.068,19.068,0,0,1,4.871.885c2.007.576,4.322,1.505,6.986,2.07a13.493,13.493,0,0,0,4.214.257,16.787,16.787,0,0,0,4.379-1.242c1.462-.594,2.872-1.253,4.3-1.767a15.7,15.7,0,0,1,4.266-.945,21.743,21.743,0,0,1,7.3.84,47.2,47.2,0,0,1,4.69,1.562c.543.211.962.381,1.244.5a1.6,1.6,0,0,1,.421.21" fill="#263238"/>
          <path id="Trazado_198932" data-name="Trazado 198932" d="M95.581,163.509a12.762,12.762,0,0,1-1.733-.522c-1.108-.354-2.7-.9-4.714-1.4a22.159,22.159,0,0,0-7.17-.719,15.479,15.479,0,0,0-4.131.947c-1.393.51-2.794,1.168-4.274,1.77a17,17,0,0,1-4.518,1.266,13.786,13.786,0,0,1-4.369-.294c-2.722-.607-5.018-1.573-7-2.189a21.064,21.064,0,0,0-4.773-1.033,11.135,11.135,0,0,0-1.33-.045,1.63,1.63,0,0,1-.47-.028,1.557,1.557,0,0,1,.463-.076,7.79,7.79,0,0,1,1.348-.054,19.1,19.1,0,0,1,4.871.884c2.007.577,4.322,1.506,6.986,2.071a13.493,13.493,0,0,0,4.214.257,16.788,16.788,0,0,0,4.379-1.242c1.462-.594,2.872-1.253,4.3-1.767a15.7,15.7,0,0,1,4.266-.945,21.744,21.744,0,0,1,7.3.84,47.206,47.206,0,0,1,4.69,1.562c.543.211.962.381,1.244.5a1.6,1.6,0,0,1,.421.21" fill="#263238"/>
        </g>
      </g>
    </g>
  </g>
</svg>
