<svg xmlns="http://www.w3.org/2000/svg" width="105" height="105" viewBox="0 0 105 105">
  <g id="Grupo_147352" data-name="Grupo 147352" transform="translate(-849 -11992)">
    <rect id="Rectángulo_45374" data-name="Rectángulo 45374" width="105" height="105" transform="translate(849 11992)" fill="none"/>
    <g id="Layer_48" transform="translate(852.057 11997.524)">
      <g id="Grupo_147145" data-name="Grupo 147145" transform="translate(9.376)">
        <g id="Grupo_147071" data-name="Grupo 147071" transform="translate(10.946 9.134)">
          <g id="Grupo_147070" data-name="Grupo 147070">
            <path id="Trazado_198943" data-name="Trazado 198943" d="M96.472,37.859,85.2,26.588H43.9a2.663,2.663,0,0,0-2.663,2.663v72.632a2.663,2.663,0,0,0,2.663,2.663H93.81a2.663,2.663,0,0,0,2.663-2.663v-28.7L91.953,84.4l-6.509-2.621L96.472,54.391Z" transform="translate(-41.238 -26.588)" fill="#fdfffe"/>
          </g>
        </g>
        <g id="Grupo_147073" data-name="Grupo 147073" transform="translate(69.021 23.482)">
          <g id="Grupo_147072" data-name="Grupo 147072">
            <path id="Trazado_198944" data-name="Trazado 198944" d="M217.8,69.586l-2.856-1.15a1.2,1.2,0,0,0-1.514.563l-3.152,5.754,6.509,2.621,1.714-6.332A1.2,1.2,0,0,0,217.8,69.586Z" transform="translate(-210.276 -68.349)" fill="#16697a"/>
          </g>
        </g>
        <g id="Grupo_147075" data-name="Grupo 147075" transform="translate(61.203 29.875)">
          <g id="Grupo_147074" data-name="Grupo 147074" transform="translate(0 0)">
            <path id="Trazado_198945" data-name="Trazado 198945" d="M0,0H21.051V7.017H0Z" transform="translate(0 19.536) rotate(-68.05)" fill="#92bfb1"/>
          </g>
        </g>
        <g id="Grupo_147077" data-name="Grupo 147077" transform="translate(54.623 64.33)">
          <g id="Grupo_147076" data-name="Grupo 147076" transform="translate(0)">
            <path id="Trazado_198946" data-name="Trazado 198946" d="M168.9,187.248l-.527,8.634a.815.815,0,0,0,1.435.578l5.6-6.59Z" transform="translate(-168.368 -187.248)" fill="#dae6f1"/>
          </g>
        </g>
        <g id="Grupo_147079" data-name="Grupo 147079" transform="translate(54.623 68.637)">
          <g id="Grupo_147078" data-name="Grupo 147078" transform="translate(0)">
            <path id="Trazado_198947" data-name="Trazado 198947" d="M168.634,199.784l-.264,4.327a.815.815,0,0,0,1.435.578l2.808-3.3Z" transform="translate(-168.368 -199.784)" fill="#6cadef"/>
          </g>
        </g>
        <g id="Grupo_147081" data-name="Grupo 147081" transform="translate(55.201 49.415)">
          <g id="Grupo_147080" data-name="Grupo 147080" transform="translate(0 0)">
            <path id="Trazado_198948" data-name="Trazado 198948" d="M0,0H16.081V7.017H0Z" transform="translate(0 14.923) rotate(-68.05)" fill="#92bfb1"/>
          </g>
        </g>
        <g id="Grupo_147083" data-name="Grupo 147083" transform="translate(16.19 14.728)">
          <g id="Grupo_147082" data-name="Grupo 147082">
            <path id="Trazado_198949" data-name="Trazado 198949" d="M97.883,48.546a2.663,2.663,0,0,1-2.663-2.663V42.869H57.348a.847.847,0,0,0-.847.847v7.4a.847.847,0,0,0,.847.847H100.4a.847.847,0,0,0,.847-.847V48.547H97.883Z" transform="translate(-56.501 -42.869)" fill="#ffa400"/>
          </g>
        </g>
        <g id="Grupo_147085" data-name="Grupo 147085" transform="translate(54.91 9.134)">
          <g id="Grupo_147084" data-name="Grupo 147084" transform="translate(0)">
            <path id="Trazado_198950" data-name="Trazado 198950" d="M169.205,26.588V35.2a2.663,2.663,0,0,0,2.663,2.663h8.608Z" transform="translate(-169.205 -26.588)" fill="#edf4fc"/>
          </g>
        </g>
        <g id="Grupo_147087" data-name="Grupo 147087" transform="translate(10.088 8.276)">
          <g id="Grupo_147086" data-name="Grupo 147086">
            <path id="Trazado_198951" data-name="Trazado 198951" d="M94.832,53.534a.859.859,0,0,0,.859-.859V36.218a.86.86,0,0,0-.251-.607L84.168,24.339a.858.858,0,0,0-.607-.251h-41.3a3.525,3.525,0,0,0-3.521,3.521v72.632a3.526,3.526,0,0,0,3.521,3.521H92.169a3.525,3.525,0,0,0,3.521-3.521V71.626a.859.859,0,0,0-1.718,0v28.616a1.806,1.806,0,0,1-1.8,1.8H42.259a1.806,1.806,0,0,1-1.8-1.8V27.609a1.806,1.806,0,0,1,1.8-1.8H83.2L93.973,36.573v16.1a.859.859,0,0,0,.859.859Z" transform="translate(-38.738 -24.088)"/>
          </g>
        </g>
        <g id="Grupo_147089" data-name="Grupo 147089" transform="translate(29.896 27.896)">
          <g id="Grupo_147088" data-name="Grupo 147088">
            <path id="Trazado_198952" data-name="Trazado 198952" d="M112.872,81.2H97.255a.859.859,0,0,0,0,1.718h15.617a.859.859,0,1,0,0-1.718Z" transform="translate(-96.396 -81.197)"/>
          </g>
        </g>
        <g id="Grupo_147091" data-name="Grupo 147091" transform="translate(17.474 32.276)">
          <g id="Grupo_147090" data-name="Grupo 147090">
            <path id="Trazado_198953" data-name="Trazado 198953" d="M101.558,93.946H61.1a.859.859,0,0,0,0,1.718h40.462a.859.859,0,0,0,0-1.718Z" transform="translate(-60.237 -93.946)"/>
          </g>
        </g>
        <g id="Grupo_147093" data-name="Grupo 147093" transform="translate(17.474 36.655)">
          <g id="Grupo_147092" data-name="Grupo 147092">
            <path id="Trazado_198954" data-name="Trazado 198954" d="M101.558,106.694H61.1a.859.859,0,0,0,0,1.718h40.462a.859.859,0,1,0,0-1.718Z" transform="translate(-60.237 -106.694)"/>
          </g>
        </g>
        <g id="Grupo_147095" data-name="Grupo 147095" transform="translate(34.422 41.035)">
          <g id="Grupo_147094" data-name="Grupo 147094" transform="translate(0)">
            <path id="Trazado_198955" data-name="Trazado 198955" d="M126.231,119.443h-15.8a.859.859,0,1,0,0,1.718h15.8a.859.859,0,1,0,0-1.718Z" transform="translate(-109.568 -119.443)"/>
          </g>
        </g>
        <g id="Grupo_147097" data-name="Grupo 147097" transform="translate(34.422 45.415)">
          <g id="Grupo_147096" data-name="Grupo 147096" transform="translate(0)">
            <path id="Trazado_198956" data-name="Trazado 198956" d="M126.231,132.192h-15.8a.859.859,0,1,0,0,1.718h15.8a.859.859,0,1,0,0-1.718Z" transform="translate(-109.568 -132.192)"/>
          </g>
        </g>
        <g id="Grupo_147099" data-name="Grupo 147099" transform="translate(34.422 49.795)">
          <g id="Grupo_147098" data-name="Grupo 147098" transform="translate(0)">
            <path id="Trazado_198957" data-name="Trazado 198957" d="M126.231,144.94h-15.8a.859.859,0,1,0,0,1.718h15.8a.859.859,0,1,0,0-1.718Z" transform="translate(-109.568 -144.94)"/>
          </g>
        </g>
        <g id="Grupo_147101" data-name="Grupo 147101" transform="translate(25.184 41.035)">
          <g id="Grupo_147100" data-name="Grupo 147100">
            <path id="Trazado_198958" data-name="Trazado 198958" d="M88.654,119.443H83.54a.859.859,0,0,0,0,1.718h5.115a.859.859,0,0,0,0-1.718Z" transform="translate(-82.681 -119.443)"/>
          </g>
        </g>
        <g id="Grupo_147103" data-name="Grupo 147103" transform="translate(25.184 45.415)">
          <g id="Grupo_147102" data-name="Grupo 147102">
            <path id="Trazado_198959" data-name="Trazado 198959" d="M88.654,132.192H83.54a.859.859,0,0,0,0,1.718h5.115a.859.859,0,0,0,0-1.718Z" transform="translate(-82.681 -132.192)"/>
          </g>
        </g>
        <g id="Grupo_147105" data-name="Grupo 147105" transform="translate(25.184 49.795)">
          <g id="Grupo_147104" data-name="Grupo 147104">
            <path id="Trazado_198960" data-name="Trazado 198960" d="M88.654,144.94H83.54a.859.859,0,0,0,0,1.718h5.115a.859.859,0,0,0,0-1.718Z" transform="translate(-82.681 -144.94)"/>
          </g>
        </g>
        <g id="Grupo_147107" data-name="Grupo 147107" transform="translate(17.474 54.175)">
          <g id="Grupo_147106" data-name="Grupo 147106">
            <path id="Trazado_198961" data-name="Trazado 198961" d="M101.558,157.689H61.1a.859.859,0,0,0,0,1.718h40.462a.859.859,0,1,0,0-1.718Z" transform="translate(-60.237 -157.689)"/>
          </g>
        </g>
        <g id="Grupo_147109" data-name="Grupo 147109" transform="translate(17.474 58.555)">
          <g id="Grupo_147108" data-name="Grupo 147108">
            <path id="Trazado_198962" data-name="Trazado 198962" d="M99.841,170.438H61.1a.859.859,0,0,0,0,1.718H99.841a.859.859,0,0,0,0-1.718Z" transform="translate(-60.237 -170.438)"/>
          </g>
        </g>
        <g id="Grupo_147111" data-name="Grupo 147111" transform="translate(43.373 77.987)">
          <g id="Grupo_147110" data-name="Grupo 147110">
            <path id="Trazado_198963" data-name="Trazado 198963" d="M150.225,227H136.483a.859.859,0,0,0,0,1.718h13.742a.859.859,0,1,0,0-1.718Z" transform="translate(-135.624 -227)"/>
          </g>
        </g>
        <g id="Grupo_147113" data-name="Grupo 147113" transform="translate(18.294 77.987)">
          <g id="Grupo_147112" data-name="Grupo 147112">
            <path id="Trazado_198964" data-name="Trazado 198964" d="M77.226,227H63.484a.859.859,0,1,0,0,1.718H77.226a.859.859,0,1,0,0-1.718Z" transform="translate(-62.625 -227)"/>
          </g>
        </g>
        <g id="Grupo_147115" data-name="Grupo 147115" transform="translate(18.294 67.211)">
          <g id="Grupo_147114" data-name="Grupo 147114">
            <path id="Trazado_198965" data-name="Trazado 198965" d="M77.994,200.013a.859.859,0,0,0-1.152-.384l-2.257,1.129a.089.089,0,0,1-.088-.006l-2.695-1.8a1.806,1.806,0,0,0-2.678.832.088.088,0,0,1-.164,0l-1.022-2.938a1.806,1.806,0,0,0-3.411,0l-1.854,5.331a.859.859,0,1,0,1.622.564l1.854-5.331a.088.088,0,0,1,.166,0l1.022,2.938a1.806,1.806,0,0,0,3.382.078.083.083,0,0,1,.056-.051.084.084,0,0,1,.075.011l2.695,1.8a1.81,1.81,0,0,0,1.809.113l2.257-1.129a.86.86,0,0,0,.384-1.153Z" transform="translate(-62.624 -195.633)"/>
          </g>
        </g>
        <g id="Grupo_147117" data-name="Grupo 147117" transform="translate(43.373 67.211)">
          <g id="Grupo_147116" data-name="Grupo 147116" transform="translate(0)">
            <path id="Trazado_198966" data-name="Trazado 198966" d="M147.264,200.6l-2.463-1.642a1.806,1.806,0,0,0-2.678.832.088.088,0,0,1-.164,0l-1.022-2.938a1.784,1.784,0,0,0-1.705-1.213h0a1.784,1.784,0,0,0-1.705,1.212l-1.854,5.331a.859.859,0,1,0,1.622.564l1.854-5.331a.088.088,0,0,1,.166,0l1.022,2.938a1.806,1.806,0,0,0,3.382.077.088.088,0,0,1,.13-.04l2.463,1.642a.859.859,0,0,0,.953-1.43Z" transform="translate(-135.624 -195.633)"/>
          </g>
        </g>
        <g id="Grupo_147119" data-name="Grupo 147119" transform="translate(68.161 22.621)">
          <g id="Grupo_147118" data-name="Grupo 147118">
            <path id="Trazado_198967" data-name="Trazado 198967" d="M216.477,67.144l-2.856-1.15a2.042,2.042,0,0,0-2.588.947l-3.152,5.754a.859.859,0,1,0,1.506.826l3.162-5.772a.339.339,0,0,1,.43-.16l2.856,1.15a.345.345,0,0,1,.193.434L214.315,75.5a.859.859,0,1,0,1.658.449l1.709-6.312A2.051,2.051,0,0,0,216.477,67.144Z" transform="translate(-207.775 -65.842)"/>
          </g>
        </g>
        <g id="Grupo_147121" data-name="Grupo 147121" transform="translate(68.527 25.706)">
          <g id="Grupo_147120" data-name="Grupo 147120">
            <path id="Trazado_198968" data-name="Trazado 198968" d="M218.184,78.173l-8.166-3.288a.859.859,0,1,0-.641,1.593l8.166,3.288a1.893,1.893,0,0,1,1.048,2.46l-5.213,12.948a.859.859,0,0,0-.9,1.233l.393.789a.859.859,0,0,0,.769.476h.034a.859.859,0,0,0,.763-.537l5.744-14.265A3.613,3.613,0,0,0,218.184,78.173Z" transform="translate(-208.838 -74.823)"/>
          </g>
        </g>
        <g id="Grupo_147124" data-name="Grupo 147124" transform="translate(60.299 29.026)">
          <g id="Grupo_147123" data-name="Grupo 147123">
            <g id="Grupo_147122" data-name="Grupo 147122">
              <path id="Trazado_198969" data-name="Trazado 198969" d="M200.441,87.171l-6.509-2.621a.859.859,0,0,0-1.118.476l-7.863,19.528a.86.86,0,0,0,.476,1.118l6.509,2.621a.859.859,0,0,0,1.118-.476l7.862-19.528a.859.859,0,0,0-.476-1.118Zm-8.659,19.207-4.916-1.979,7.221-17.935L199,88.443Z" transform="translate(-184.89 -84.488)"/>
            </g>
          </g>
        </g>
        <g id="Grupo_147126" data-name="Grupo 147126" transform="translate(69.546 67.002)">
          <g id="Grupo_147125" data-name="Grupo 147125">
            <path id="Trazado_198970" data-name="Trazado 198970" d="M216.195,197.146a2.678,2.678,0,0,1-2.13-2.1c0-.034-.1-.034-.1,0a2.678,2.678,0,0,1-2.13,2.1c-.034,0-.034.069,0,.1a2.678,2.678,0,0,1,2.13,2.1c0,.034.1.034.1,0a2.678,2.678,0,0,1,2.13-2.1C216.229,197.215,216.229,197.146,216.195,197.146Z" transform="translate(-211.806 -195.025)" fill="#16697a"/>
          </g>
        </g>
        <g id="Grupo_147128" data-name="Grupo 147128" transform="translate(0 32.294)">
          <g id="Grupo_147127" data-name="Grupo 147127">
            <path id="Trazado_198971" data-name="Trazado 198971" d="M14.291,95.89h-.825V95.1a1.085,1.085,0,0,0-1.1-1.1,1.1,1.1,0,0,0-1.1,1.065v.825h-.79a1.085,1.085,0,0,0-1.1,1.1,1.064,1.064,0,0,0,1.1,1.1h.79v.79a1.085,1.085,0,0,0,1.1,1.1,1.1,1.1,0,0,0,1.1-1.065v-.825h.79a1.085,1.085,0,0,0,1.1-1.1A1.1,1.1,0,0,0,14.291,95.89Z" transform="translate(-9.376 -94)" fill="#ffa400"/>
          </g>
        </g>
        <g id="Grupo_147130" data-name="Grupo 147130" transform="translate(53.322)">
          <g id="Grupo_147129" data-name="Grupo 147129">
            <path id="Trazado_198972" data-name="Trazado 198972" d="M165.749,0a1.168,1.168,0,1,0,1.168,1.168A1.168,1.168,0,0,0,165.749,0Z" transform="translate(-164.581)" fill="#ffa400"/>
          </g>
        </g>
        <g id="Grupo_147132" data-name="Grupo 147132" transform="translate(4.193 45.006)">
          <g id="Grupo_147131" data-name="Grupo 147131">
            <path id="Trazado_198973" data-name="Trazado 198973" d="M22.749,131a1.168,1.168,0,1,0,1.168,1.168A1.168,1.168,0,0,0,22.749,131Z" transform="translate(-21.581 -131)" fill="#f5c84c"/>
          </g>
        </g>
        <g id="Grupo_147134" data-name="Grupo 147134" transform="translate(61.79 4.93)">
          <g id="Grupo_147133" data-name="Grupo 147133">
            <path id="Trazado_198974" data-name="Trazado 198974" d="M195.535,17.39a3.812,3.812,0,0,1-3.058-2.989c0-.069-.137-.069-.137,0a3.812,3.812,0,0,1-3.058,2.989c-.069,0-.069.1,0,.137a3.812,3.812,0,0,1,3.058,2.989c0,.069.137.069.137,0a3.812,3.812,0,0,1,3.058-2.989C195.6,17.494,195.6,17.39,195.535,17.39Z" transform="translate(-189.231 -14.35)" fill="#16697a"/>
          </g>
        </g>
        <g id="Grupo_147136" data-name="Grupo 147136" transform="translate(53.764 63.471)">
          <g id="Grupo_147135" data-name="Grupo 147135" transform="translate(0)">
            <path id="Trazado_198975" data-name="Trazado 198975" d="M174.322,187.573a.859.859,0,0,0-1.211.1l-5.517,6.49.519-8.5a.859.859,0,0,0-1.714-.1l-.527,8.634a1.651,1.651,0,0,0,1.046,1.655,1.7,1.7,0,0,0,.637.125,1.653,1.653,0,0,0,1.265-.594l5.6-6.59A.86.86,0,0,0,174.322,187.573Z" transform="translate(-165.868 -184.748)"/>
          </g>
        </g>
        <g id="Grupo_147138" data-name="Grupo 147138" transform="translate(54.291 67.884)">
          <g id="Grupo_147137" data-name="Grupo 147137">
            <path id="Trazado_198976" data-name="Trazado 198976" d="M172.044,199.047l-3.461-1.393a.859.859,0,0,0-.641,1.594l3.461,1.393a.859.859,0,0,0,.641-1.594Z" transform="translate(-167.402 -197.591)"/>
          </g>
        </g>
        <g id="Grupo_147140" data-name="Grupo 147140" transform="translate(54.293 48.554)">
          <g id="Grupo_147139" data-name="Grupo 147139">
            <path id="Trazado_198977" data-name="Trazado 198977" d="M181.1,144.01a.858.858,0,0,0-1.118.476L174.3,158.607l-4.916-1.979,5.686-14.121a.859.859,0,0,0-1.594-.641l-6.006,14.917a.859.859,0,0,0,.476,1.117l6.509,2.621a.859.859,0,0,0,1.118-.476l6.006-14.917a.858.858,0,0,0-.476-1.117Z" transform="translate(-167.408 -141.327)"/>
          </g>
        </g>
        <g id="Grupo_147142" data-name="Grupo 147142" transform="translate(15.331 13.869)">
          <g id="Grupo_147141" data-name="Grupo 147141">
            <path id="Trazado_198978" data-name="Trazado 198978" d="M99.607,46.308a.859.859,0,0,0-.859.859l.012,2.291-43.041.012-.012-7.383H93.324a.859.859,0,1,0,0-1.718H55.707A1.708,1.708,0,0,0,54,42.075v7.4a1.708,1.708,0,0,0,1.706,1.706H98.76a1.708,1.708,0,0,0,1.706-1.706v-2.3a.859.859,0,0,0-.859-.859Z" transform="translate(-54.001 -40.369)"/>
          </g>
        </g>
        <g id="Grupo_147144" data-name="Grupo 147144" transform="translate(54.051 8.546)">
          <g id="Grupo_147143" data-name="Grupo 147143">
            <path id="Trazado_198979" data-name="Trazado 198979" d="M178.4,35.875h-8.175a1.806,1.806,0,0,1-1.8-1.8V25.734a.859.859,0,1,0-1.718,0v8.337a3.525,3.525,0,0,0,3.521,3.521H178.4a.859.859,0,1,0,0-1.717Z" transform="translate(-166.704 -24.875)"/>
          </g>
        </g>
      </g>
    </g>
  </g>
</svg>
