<svg xmlns="http://www.w3.org/2000/svg" width="85" height="85" viewBox="0 0 85 85">
  <g id="Grupo_147321" data-name="Grupo 147321" transform="translate(-495 -12564)">
    <rect id="Rectángulo_45375" data-name="Rectángulo 45375" width="85" height="85" transform="translate(495 12564)" fill="none"/>
    <g id="documentos" transform="translate(505.189 12573.508)">
      <g id="Grupo_147247" data-name="Grupo 147247" transform="translate(1.007 0.989)">
        <path id="Trazado_199193" data-name="Trazado 199193" d="M38.976,137.392H8.813a1.318,1.318,0,0,1-1.318-1.318v-48a1.318,1.318,0,0,1,1.318-1.318H38.976a1.318,1.318,0,0,1,1.318,1.318v48A1.318,1.318,0,0,1,38.976,137.392Z" transform="translate(-7.495 -76.306)" fill="#e1ebf0"/>
        <path id="Trazado_199194" data-name="Trazado 199194" d="M61.547,88.068v44.757a1.318,1.318,0,0,1-1.318,1.318H33.293a1.318,1.318,0,0,1-1.318-1.318V88.068a1.318,1.318,0,0,1,1.318-1.318H60.229A1.318,1.318,0,0,1,61.547,88.068Z" transform="translate(-28.748 -76.303)" fill="#d2e4e7"/>
        <path id="Trazado_199195" data-name="Trazado 199195" d="M83.732,97.766H48.289a1.318,1.318,0,0,1-1.318-1.318v-48a1.318,1.318,0,0,1,1.318-1.318H83.732a1.318,1.318,0,0,1,1.318,1.318v48A1.318,1.318,0,0,1,83.732,97.766Z" transform="translate(-41.767 -41.903)" fill="#e1ebf0"/>
        <path id="Trazado_199196" data-name="Trazado 199196" d="M106.3,48.448V93.2a1.318,1.318,0,0,1-1.318,1.318H72.763A1.318,1.318,0,0,1,71.445,93.2V48.448a1.318,1.318,0,0,1,1.318-1.318h32.218A1.318,1.318,0,0,1,106.3,48.448Z" transform="translate(-63.015 -41.906)" fill="#d2e4e7"/>
        <path id="Trazado_199197" data-name="Trazado 199197" d="M86.445,56.822v-48A1.318,1.318,0,0,1,87.763,7.5h35.443a1.318,1.318,0,0,1,1.318,1.318v48a1.318,1.318,0,0,1-1.318,1.318H87.763A1.318,1.318,0,0,1,86.445,56.822Z" transform="translate(-76.038 -7.5)" fill="#d0eae2"/>
        <path id="Trazado_199198" data-name="Trazado 199198" d="M254.3,64.986h10.436a.659.659,0,0,0,.659-.659V53.846a.659.659,0,0,0-.659-.659H254.3a.659.659,0,0,0-.659.659V64.327A.659.659,0,0,0,254.3,64.986Z" transform="translate(-221.191 -47.164)" fill="#ffa400"/>
        <path id="Trazado_199199" data-name="Trazado 199199" d="M256.931,64.989h-2.636a.659.659,0,0,1-.659-.659V53.849a.659.659,0,0,1,.659-.659h2.636a.659.659,0,0,0-.659.659V64.33A.659.659,0,0,0,256.931,64.989Z" transform="translate(-221.188 -47.167)" fill="#ecc52e"/>
        <g id="Grupo_147240" data-name="Grupo 147240" transform="translate(13.704 15.235)">
          <path id="Trazado_199200" data-name="Trazado 199200" d="M125.913,125.052H112.445a.989.989,0,0,1,0-1.977h13.469a.989.989,0,0,1,0,1.977Z" transform="translate(-111.456 -123.075)" fill="#b4d2d7"/>
        </g>
        <g id="Grupo_147241" data-name="Grupo 147241" transform="translate(21.663 23.594)">
          <path id="Trazado_199201" data-name="Trazado 199201" d="M186.411,188.456H172.82a.989.989,0,0,1,0-1.977h13.591a.989.989,0,1,1,0,1.977Z" transform="translate(-171.831 -186.479)" fill="#b4d2d7"/>
        </g>
        <g id="Grupo_147242" data-name="Grupo 147242" transform="translate(13.704 10.934)">
          <path id="Trazado_199202" data-name="Trazado 199202" d="M125.913,92.419H112.445a.989.989,0,0,1,0-1.977h13.469a.989.989,0,1,1,0,1.977Z" transform="translate(-111.456 -90.442)" fill="#b4d2d7"/>
        </g>
        <g id="Grupo_147243" data-name="Grupo 147243" transform="translate(13.704 6.632)">
          <path id="Trazado_199203" data-name="Trazado 199203" d="M125.913,59.786H112.445a.989.989,0,0,1,0-1.977h13.469a.989.989,0,1,1,0,1.977Z" transform="translate(-111.456 -57.809)" fill="#b4d2d7"/>
        </g>
        <g id="Grupo_147244" data-name="Grupo 147244" transform="translate(13.704 34.532)">
          <path id="Trazado_199204" data-name="Trazado 199204" d="M132.726,271.438H112.445a.989.989,0,0,1,0-1.977h20.282a.989.989,0,0,1,0,1.977Z" transform="translate(-111.456 -269.461)" fill="#b4d2d7"/>
        </g>
        <g id="Grupo_147245" data-name="Grupo 147245" transform="translate(13.704 29.002)">
          <path id="Trazado_199205" data-name="Trazado 199205" d="M128.485,229.481h-16.04a.989.989,0,0,1,0-1.977h16.04a.989.989,0,0,1,0,1.977Z" transform="translate(-111.456 -227.504)" fill="#b4d2d7"/>
        </g>
        <g id="Grupo_147246" data-name="Grupo 147246" transform="translate(34.03 29.002)">
          <path id="Trazado_199206" data-name="Trazado 199206" d="M275.877,229.481h-9.244a.989.989,0,1,1,0-1.977h9.244a.989.989,0,0,1,0,1.977Z" transform="translate(-265.644 -227.504)" fill="#b4d2d7"/>
        </g>
        <path id="Trazado_199207" data-name="Trazado 199207" d="M167.614,328.24a1.318,1.318,0,0,1,1.318,1.318v.9a6.134,6.134,0,0,1-6.122,6.146l-19.988.659-10.868-.659a6.135,6.135,0,0,0,6.123-6.146v-.9a1.318,1.318,0,0,1,1.318-1.318Z" transform="translate(-115.548 -285.959)" fill="#d2e4e7"/>
        <path id="Trazado_199208" data-name="Trazado 199208" d="M284.834,264.692v8.367H271.1a14.574,14.574,0,0,1,13.17-8.379C284.455,264.68,284.645,264.684,284.834,264.692Z" transform="translate(-236.346 -230.778)" fill="#d2e4e7"/>
        <path id="Trazado_199209" data-name="Trazado 199209" d="M270.541,328.24v9.018a1.319,1.319,0,0,1-1.318,1.318h-8a14.287,14.287,0,0,1-.361-1.527,14.584,14.584,0,0,1,1.148-8.81Z" transform="translate(-227.257 -285.959)" fill="#b4d2d7"/>
        <path id="Trazado_199210" data-name="Trazado 199210" d="M422.13,424.094l6.692,5.955a2.731,2.731,0,0,1,.091,3.887,2.773,2.773,0,0,1-3.907-.1l-6.684-5.987Z" transform="translate(-364.166 -369.177)" fill="#ffa400"/>
        <path id="Trazado_199211" data-name="Trazado 199211" d="M424.119,425.858a14.665,14.665,0,0,1-3.767,3.8l-2.026-1.814,3.808-3.758Z" transform="translate(-364.168 -369.174)" fill="#ecc52e"/>
        <path id="Trazado_199212" data-name="Trazado 199212" d="M274.448,396.65V399.9a1.319,1.319,0,0,1-1.318,1.318h-6.6a14.416,14.416,0,0,1-1.407-3.246h8A1.319,1.319,0,0,0,274.448,396.65Z" transform="translate(-231.163 -345.351)" fill="#d2e4e7"/>
        <path id="Trazado_199213" data-name="Trazado 199213" d="M280.622,296.634a11.914,11.914,0,1,1,11.914,11.951A11.966,11.966,0,0,1,280.622,296.634Z" transform="translate(-244.618 -248.144)" fill="#92bfb1"/>
        <path id="Trazado_199215" data-name="Trazado 199215" d="M314.572,326.2a7.439,7.439,0,1,1,7.439,7.462A7.468,7.468,0,0,1,314.572,326.2Z" transform="translate(-274.092 -277.711)" fill="#e1ebf0"/>
        <path id="Trazado_199216" data-name="Trazado 199216" d="M328.416,336.762a7.446,7.446,0,1,1-10.17-10.232,7.335,7.335,0,0,0-.614,1.32,7.443,7.443,0,0,0,10.784,8.913Z" transform="translate(-274.095 -284.475)" fill="#d2e4e7"/>
      </g>
      <g id="Grupo_147248" data-name="Grupo 147248" transform="translate(0.022)">
        <path id="Trazado_199217" data-name="Trazado 199217" d="M247.813,59.465h10.436a1.65,1.65,0,0,0,1.648-1.648V47.336a1.65,1.65,0,0,0-1.648-1.648H247.813a1.65,1.65,0,0,0-1.648,1.648v2.48a.989.989,0,1,0,1.977,0v-2.15h9.777v9.822h-9.777V54.573a.989.989,0,1,0-1.977,0v3.244A1.65,1.65,0,0,0,247.813,59.465Z" transform="translate(-213.718 -39.665)"/>
        <path id="Trazado_199218" data-name="Trazado 199218" d="M112.472,125.052H125.94a.989.989,0,0,0,0-1.977H112.472a.989.989,0,0,0,0,1.977Z" transform="translate(-96.79 -106.851)"/>
        <path id="Trazado_199219" data-name="Trazado 199219" d="M187.426,187.468a.989.989,0,0,0-.989-.989H172.847a.989.989,0,1,0,0,1.977h13.591A.989.989,0,0,0,187.426,187.468Z" transform="translate(-149.206 -161.897)"/>
        <path id="Trazado_199220" data-name="Trazado 199220" d="M112.472,92.419H125.94a.989.989,0,1,0,0-1.977H112.472a.989.989,0,0,0,0,1.977Z" transform="translate(-96.79 -78.52)"/>
        <path id="Trazado_199221" data-name="Trazado 199221" d="M112.472,59.786H125.94a.989.989,0,1,0,0-1.977H112.472a.989.989,0,0,0,0,1.977Z" transform="translate(-96.79 -50.188)"/>
        <path id="Trazado_199222" data-name="Trazado 199222" d="M112.472,271.438h20.282a.989.989,0,1,0,0-1.977H112.472a.989.989,0,0,0,0,1.977Z" transform="translate(-96.79 -233.94)"/>
        <path id="Trazado_199223" data-name="Trazado 199223" d="M112.472,229.481h16.04a.989.989,0,0,0,0-1.977h-16.04a.989.989,0,0,0,0,1.977Z" transform="translate(-96.79 -197.514)"/>
        <path id="Trazado_199224" data-name="Trazado 199224" d="M275.9,227.5H266.66a.989.989,0,1,0,0,1.977H275.9a.989.989,0,0,0,0-1.977Z" transform="translate(-230.652 -197.514)"/>
        <path id="Trazado_199225" data-name="Trazado 199225" d="M66.361,61.156l-.037-.035-6.084-5.414a12.9,12.9,0,0,0,1.583-5.759.989.989,0,1,0-1.976-.071,10.946,10.946,0,1,1-.625-4.085.989.989,0,1,0,1.863-.662,12.942,12.942,0,0,0-10.6-8.5V1.648A1.65,1.65,0,0,0,48.839,0H12.077A1.65,1.65,0,0,0,10.43,1.648V5.224H6.874A1.65,1.65,0,0,0,5.226,6.872v3.576H1.67A1.65,1.65,0,0,0,.022,12.1V61.416A1.65,1.65,0,0,0,1.67,63.064H33.151A1.65,1.65,0,0,0,34.8,61.416V57.84h4.292a12.874,12.874,0,0,0,15.951,3.038l6.13,5.49a3.68,3.68,0,1,0,5.189-5.212ZM12.407,1.977h36.1v34.57a12.921,12.921,0,0,0-10.3,5.734H34.192a.989.989,0,0,0,0,1.977H37.12q-.2.452-.364.922a12.943,12.943,0,0,0-.729,4.3c0,.391.018.778.052,1.161H22.324a7.124,7.124,0,0,0,2.2-5.157V44.259h5.378a.989.989,0,0,0,0-1.977H23.54a.989.989,0,0,0-.989.989v2.212a5.151,5.151,0,0,1-5.133,5.157H12.407ZM7.2,55.863V42.348a.989.989,0,1,0-1.977,0V56.192A1.65,1.65,0,0,0,6.874,57.84H32.821v3.246H2V12.425H5.226V38.169a.989.989,0,0,0,1.977,0V7.2H10.43V51.628a.989.989,0,0,0,.989.989H36.411a12.877,12.877,0,0,0,1.3,3.246H7.2Zm57.859,9.181a1.8,1.8,0,0,1-2.552-.132l-5.75-5.15a13.1,13.1,0,0,0,2.387-2.381l5.842,5.2a1.751,1.751,0,0,1,.073,2.464Z" transform="translate(-0.022)"/>
        <path id="Trazado_199226" data-name="Trazado 199226" d="M315.52,311.233a8.45,8.45,0,1,0,8.427,8.45A8.477,8.477,0,0,0,315.52,311.233Zm0,14.923a6.473,6.473,0,1,1,6.45-6.473A6.469,6.469,0,0,1,315.52,326.156Z" transform="translate(-266.612 -270.204)"/>
      </g>
    </g>
  </g>
</svg>
