<svg xmlns="http://www.w3.org/2000/svg" width="1030" height="263.337" viewBox="0 0 1030 263.337">
  <g id="Grupo_147330" data-name="Grupo 147330" transform="translate(-285 -3346.809)">
    <path id="Trazado_198061" data-name="Trazado 198061" d="M-106.266,190.477V316.021H210.4l60.733-62.772L210.4,190.477Z" transform="translate(391.266 3293.843)" fill="#ffa400"/>
    <path id="Trazado_198062" data-name="Trazado 198062" d="M321.787,55.969a14.047,14.047,0,1,1-5.854,0V27.818H303.558L318.86,0l15.3,27.818H321.787Z" transform="translate(131.723 3418.419)" fill="#ffa400" fill-rule="evenodd"/>
    <path id="Trazado_198064" data-name="Trazado 198064" d="M970.768,55.969a14.047,14.047,0,1,1-5.854,0V27.818H952.539L967.841,0l15.3,27.818H970.768Z" transform="translate(-173.539 3418.419)" fill="#16697a" fill-rule="evenodd"/>
    <path id="Trazado_198065" data-name="Trazado 198065" d="M1292.138,316.021h362.138l61.229-63.057-61.229-62.487H1292.138l61.6,62.487Z" transform="translate(-400.505 3293.841)" fill="#0c0a3e" fill-rule="evenodd"/>
    <path id="Trazado_198066" data-name="Trazado 198066" d="M1635.351,27.818h-12.377V55.969a14.048,14.048,0,1,1-5.855,0V27.818h-12.373L1620.049,0Z" transform="translate(-492.938 3418.419)" fill="#0c0a3e"/>
    <path id="Trazado_199390" data-name="Trazado 199390" d="M4.52-7.56v-4.28H6.96A6.576,6.576,0,0,1,8-11.76a2.42,2.42,0,0,1,.88.31,1.689,1.689,0,0,1,.61.65,2.285,2.285,0,0,1,.23,1.1,2.285,2.285,0,0,1-.23,1.1,1.689,1.689,0,0,1-.61.65A2.42,2.42,0,0,1,8-7.64a6.576,6.576,0,0,1-1.04.08ZM1.38-14.28V0H4.52V-5.12h3.3a5.948,5.948,0,0,0,2.28-.39,4.266,4.266,0,0,0,1.53-1.03,3.943,3.943,0,0,0,.86-1.47,5.431,5.431,0,0,0,.27-1.69,5.4,5.4,0,0,0-.27-1.7,3.957,3.957,0,0,0-.86-1.46,4.266,4.266,0,0,0-1.53-1.03,5.948,5.948,0,0,0-2.28-.39Zm13.04,3.94V0h2.84V-4.66a5.715,5.715,0,0,1,.14-1.3,2.847,2.847,0,0,1,.47-1.05,2.286,2.286,0,0,1,.87-.71,3.026,3.026,0,0,1,1.32-.26,5.072,5.072,0,0,1,.54.03q.28.03.48.07v-2.64a2.215,2.215,0,0,0-.62-.1,3.391,3.391,0,0,0-1.04.16,3.811,3.811,0,0,0-.94.45,3.538,3.538,0,0,0-.78.7,3.493,3.493,0,0,0-.54.89h-.04v-1.92ZM28.8-6.28H24.18a3.26,3.26,0,0,1,.13-.68,2.088,2.088,0,0,1,.38-.72,2.151,2.151,0,0,1,.72-.57,2.471,2.471,0,0,1,1.13-.23,2,2,0,0,1,1.55.56A3.282,3.282,0,0,1,28.8-6.28Zm-4.62,1.8h7.46a7.3,7.3,0,0,0-.2-2.3,5.63,5.63,0,0,0-.91-1.96,4.59,4.59,0,0,0-1.61-1.37,4.917,4.917,0,0,0-2.3-.51,5.355,5.355,0,0,0-2.15.42A5.083,5.083,0,0,0,22.8-9.05a5.069,5.069,0,0,0-1.08,1.73,6.031,6.031,0,0,0-.38,2.16,6.3,6.3,0,0,0,.37,2.2,5,5,0,0,0,1.05,1.72A4.574,4.574,0,0,0,24.42-.13a5.906,5.906,0,0,0,2.2.39,5.416,5.416,0,0,0,3-.8A4.746,4.746,0,0,0,31.46-3.2h-2.5a1.784,1.784,0,0,1-.76.91,2.532,2.532,0,0,1-1.48.43,2.539,2.539,0,0,1-1.84-.62A2.871,2.871,0,0,1,24.18-4.48ZM35.52-3.36h-2.7a3.477,3.477,0,0,0,.47,1.73,3.432,3.432,0,0,0,1.1,1.11,4.645,4.645,0,0,0,1.53.6,8.568,8.568,0,0,0,1.76.18A8.8,8.8,0,0,0,39.41.09,4.386,4.386,0,0,0,40.92-.5a3.281,3.281,0,0,0,1.07-1.11,3.3,3.3,0,0,0,.41-1.71,2.407,2.407,0,0,0-.28-1.21,2.563,2.563,0,0,0-.74-.82,3.98,3.98,0,0,0-1.05-.53,12,12,0,0,0-1.21-.34q-.6-.14-1.18-.26a9.126,9.126,0,0,1-1.03-.27,2.159,2.159,0,0,1-.73-.39.779.779,0,0,1-.28-.62.766.766,0,0,1,.16-.51,1.05,1.05,0,0,1,.39-.29,1.736,1.736,0,0,1,.51-.13,4.9,4.9,0,0,1,.52-.03,2.834,2.834,0,0,1,1.32.29,1.242,1.242,0,0,1,.62,1.11h2.7a3.393,3.393,0,0,0-.49-1.59A3.237,3.237,0,0,0,40.6-9.92a4.311,4.311,0,0,0-1.41-.54,8.192,8.192,0,0,0-1.63-.16,8.88,8.88,0,0,0-1.64.15,4.516,4.516,0,0,0-1.44.52,2.875,2.875,0,0,0-1.03,1.01,3.111,3.111,0,0,0-.39,1.64,2.21,2.21,0,0,0,.28,1.15,2.431,2.431,0,0,0,.74.78,4.135,4.135,0,0,0,1.05.5q.59.19,1.21.33a16.974,16.974,0,0,1,2.37.64q.85.32.85.96a1.051,1.051,0,0,1-.18.63,1.364,1.364,0,0,1-.45.4,2.143,2.143,0,0,1-.6.22,3.038,3.038,0,0,1-.63.07,3.248,3.248,0,0,1-.81-.1,2.1,2.1,0,0,1-.69-.31,1.66,1.66,0,0,1-.49-.54A1.558,1.558,0,0,1,35.52-3.36Zm15.5-2.92H46.4a3.26,3.26,0,0,1,.13-.68,2.088,2.088,0,0,1,.38-.72,2.151,2.151,0,0,1,.72-.57,2.471,2.471,0,0,1,1.13-.23,2,2,0,0,1,1.55.56A3.282,3.282,0,0,1,51.02-6.28ZM46.4-4.48h7.46a7.3,7.3,0,0,0-.2-2.3,5.63,5.63,0,0,0-.91-1.96,4.59,4.59,0,0,0-1.61-1.37,4.917,4.917,0,0,0-2.3-.51,5.355,5.355,0,0,0-2.15.42,5.083,5.083,0,0,0-1.67,1.15,5.069,5.069,0,0,0-1.08,1.73,6.031,6.031,0,0,0-.38,2.16,6.3,6.3,0,0,0,.37,2.2,5,5,0,0,0,1.05,1.72A4.574,4.574,0,0,0,46.64-.13a5.906,5.906,0,0,0,2.2.39,5.416,5.416,0,0,0,3-.8A4.746,4.746,0,0,0,53.68-3.2h-2.5a1.784,1.784,0,0,1-.76.91,2.532,2.532,0,0,1-1.48.43,2.539,2.539,0,0,1-1.84-.62A2.871,2.871,0,0,1,46.4-4.48Zm9.14-5.86V0h2.84V-5.42a3.836,3.836,0,0,1,.52-2.27,1.968,1.968,0,0,1,1.68-.69A1.549,1.549,0,0,1,62-7.75a3.624,3.624,0,0,1,.4,1.91V0h2.84V-6.36a8.334,8.334,0,0,0-.17-1.75,3.328,3.328,0,0,0-.59-1.34,2.772,2.772,0,0,0-1.15-.86,4.823,4.823,0,0,0-1.87-.31,4.049,4.049,0,0,0-1.76.41A3.259,3.259,0,0,0,58.3-8.9h-.06v-1.44Zm15.46,0v-3.1H68.16v3.1H66.44v1.9h1.72v6.1a2.642,2.642,0,0,0,.26,1.26,1.853,1.853,0,0,0,.71.74,2.948,2.948,0,0,0,1.04.35A8.291,8.291,0,0,0,71.42.1q.42,0,.86-.02a6.758,6.758,0,0,0,.8-.08V-2.2a3.979,3.979,0,0,1-.42.06q-.22.02-.46.02a1.39,1.39,0,0,1-.96-.24A1.39,1.39,0,0,1,71-3.32V-8.44h2.08v-1.9Zm3.32,3.18a3.3,3.3,0,0,1,.5-1.66,3.4,3.4,0,0,1,1.12-1.06,4.881,4.881,0,0,1,1.53-.57,8.7,8.7,0,0,1,1.71-.17,11.589,11.589,0,0,1,1.58.11,4.833,4.833,0,0,1,1.46.43,2.877,2.877,0,0,1,1.08.89,2.487,2.487,0,0,1,.42,1.51V-2.3A10.8,10.8,0,0,0,83.8-.96a2.422,2.422,0,0,0,.28.96H81.2a4.076,4.076,0,0,1-.13-.49A4.267,4.267,0,0,1,81-1a3.7,3.7,0,0,1-1.6.98,6.422,6.422,0,0,1-1.88.28A5.079,5.079,0,0,1,76.14.08a3.16,3.16,0,0,1-1.12-.56,2.607,2.607,0,0,1-.75-.96A3.246,3.246,0,0,1,74-2.82a3.015,3.015,0,0,1,.31-1.45,2.592,2.592,0,0,1,.8-.91,3.584,3.584,0,0,1,1.12-.51,11.956,11.956,0,0,1,1.27-.27q.64-.1,1.26-.16a7.577,7.577,0,0,0,1.1-.18,1.918,1.918,0,0,0,.76-.35.768.768,0,0,0,.26-.67,1.507,1.507,0,0,0-.15-.73,1.1,1.1,0,0,0-.4-.42,1.574,1.574,0,0,0-.58-.2,4.746,4.746,0,0,0-.71-.05,2.156,2.156,0,0,0-1.32.36,1.607,1.607,0,0,0-.56,1.2Zm6.56,2.1a1.274,1.274,0,0,1-.45.25,4.6,4.6,0,0,1-.58.15q-.31.06-.65.1t-.68.1a5.128,5.128,0,0,0-.63.16,1.863,1.863,0,0,0-.54.27,1.283,1.283,0,0,0-.37.43,1.383,1.383,0,0,0-.14.66,1.336,1.336,0,0,0,.14.64,1.073,1.073,0,0,0,.38.41,1.6,1.6,0,0,0,.56.21,3.574,3.574,0,0,0,.66.06,2.511,2.511,0,0,0,1.3-.28,1.873,1.873,0,0,0,.68-.67,2.143,2.143,0,0,0,.27-.79A5.427,5.427,0,0,0,80.88-4ZM92.96-6.7h2.78a3.89,3.89,0,0,0-.48-1.73,3.907,3.907,0,0,0-1.09-1.22,4.724,4.724,0,0,0-1.52-.73,6.483,6.483,0,0,0-1.77-.24,5.64,5.64,0,0,0-2.24.42,4.714,4.714,0,0,0-1.66,1.17,5.017,5.017,0,0,0-1.03,1.78,6.889,6.889,0,0,0-.35,2.23,5.791,5.791,0,0,0,.38,2.13,4.964,4.964,0,0,0,1.06,1.67A4.723,4.723,0,0,0,88.69-.13a5.659,5.659,0,0,0,2.13.39A5.164,5.164,0,0,0,94.2-.82a4.685,4.685,0,0,0,1.6-3.14H93.06a2.7,2.7,0,0,1-.69,1.53,2.081,2.081,0,0,1-1.57.57,2.006,2.006,0,0,1-1.12-.3,2.241,2.241,0,0,1-.73-.77,3.527,3.527,0,0,1-.39-1.05,5.617,5.617,0,0,1-.12-1.14,5.858,5.858,0,0,1,.12-1.17,3.455,3.455,0,0,1,.41-1.08,2.464,2.464,0,0,1,.75-.8,1.994,1.994,0,0,1,1.14-.31A1.9,1.9,0,0,1,92.96-6.7Zm7.36-5.24v-2.34H97.48v2.34Zm-2.84,1.6V0h2.84V-10.34Zm7.6,5.18a6.056,6.056,0,0,0,.12,1.21,3.224,3.224,0,0,0,.41,1.06,2.184,2.184,0,0,0,.77.75,2.35,2.35,0,0,0,1.2.28,2.407,2.407,0,0,0,1.21-.28,2.159,2.159,0,0,0,.78-.75,3.224,3.224,0,0,0,.41-1.06,6.056,6.056,0,0,0,.12-1.21,6.205,6.205,0,0,0-.12-1.22,3.113,3.113,0,0,0-.41-1.06,2.274,2.274,0,0,0-.78-.75,2.34,2.34,0,0,0-1.21-.29,2.285,2.285,0,0,0-1.2.29,2.3,2.3,0,0,0-.77.75,3.113,3.113,0,0,0-.41,1.06A6.205,6.205,0,0,0,105.08-5.16Zm-2.84,0a6.347,6.347,0,0,1,.38-2.25,4.842,4.842,0,0,1,1.08-1.72,4.84,4.84,0,0,1,1.68-1.1,5.906,5.906,0,0,1,2.2-.39,5.984,5.984,0,0,1,2.21.39,4.82,4.82,0,0,1,1.69,1.1,4.842,4.842,0,0,1,1.08,1.72,6.347,6.347,0,0,1,.38,2.25,6.265,6.265,0,0,1-.38,2.24,4.859,4.859,0,0,1-1.08,1.71,4.707,4.707,0,0,1-1.69,1.09,6.125,6.125,0,0,1-2.21.38,6.044,6.044,0,0,1-2.2-.38,4.724,4.724,0,0,1-1.68-1.09,4.859,4.859,0,0,1-1.08-1.71A6.265,6.265,0,0,1,102.24-5.16Zm9.08-10.54-3.26,3.54h-1.98l2.12-3.54Zm3.46,5.36V0h2.84V-5.42a3.836,3.836,0,0,1,.52-2.27,1.968,1.968,0,0,1,1.68-.69,1.549,1.549,0,0,1,1.42.63,3.624,3.624,0,0,1,.4,1.91V0h2.84V-6.36a8.334,8.334,0,0,0-.17-1.75,3.328,3.328,0,0,0-.59-1.34,2.772,2.772,0,0,0-1.15-.86,4.823,4.823,0,0,0-1.87-.31,4.049,4.049,0,0,0-1.76.41,3.259,3.259,0,0,0-1.4,1.31h-.06v-1.44ZM139.54-5.2a6.308,6.308,0,0,1-.12,1.24,3.361,3.361,0,0,1-.4,1.07,2.127,2.127,0,0,1-.75.75,2.252,2.252,0,0,1-1.17.28,2.11,2.11,0,0,1-1.13-.29,2.5,2.5,0,0,1-.78-.76,3.277,3.277,0,0,1-.45-1.07,5.265,5.265,0,0,1-.14-1.2,5.7,5.7,0,0,1,.13-1.23,3.271,3.271,0,0,1,.42-1.05,2.214,2.214,0,0,1,.77-.74,2.307,2.307,0,0,1,1.18-.28,2.2,2.2,0,0,1,1.16.28,2.308,2.308,0,0,1,.75.73,3.006,3.006,0,0,1,.41,1.04A6.158,6.158,0,0,1,139.54-5.2Zm.04,3.88V0h2.7V-14.28h-2.84v5.2h-.04a3.049,3.049,0,0,0-1.31-1.15,4.066,4.066,0,0,0-1.75-.39,4.254,4.254,0,0,0-2,.45,4.288,4.288,0,0,0-1.43,1.19,5.225,5.225,0,0,0-.86,1.71,6.979,6.979,0,0,0-.29,2.01,7.43,7.43,0,0,0,.29,2.08,5.537,5.537,0,0,0,.86,1.77,4.1,4.1,0,0,0,1.45,1.22,4.421,4.421,0,0,0,2.04.45,4.356,4.356,0,0,0,1.83-.37,2.93,2.93,0,0,0,1.31-1.21Zm11.8-4.96h-4.62a3.26,3.26,0,0,1,.13-.68,2.088,2.088,0,0,1,.38-.72,2.151,2.151,0,0,1,.72-.57,2.471,2.471,0,0,1,1.13-.23,2,2,0,0,1,1.55.56A3.282,3.282,0,0,1,151.38-6.28Zm-4.62,1.8h7.46a7.3,7.3,0,0,0-.2-2.3,5.63,5.63,0,0,0-.91-1.96,4.59,4.59,0,0,0-1.61-1.37,4.917,4.917,0,0,0-2.3-.51,5.355,5.355,0,0,0-2.15.42,5.083,5.083,0,0,0-1.67,1.15,5.069,5.069,0,0,0-1.08,1.73,6.03,6.03,0,0,0-.38,2.16,6.3,6.3,0,0,0,.37,2.2,5,5,0,0,0,1.05,1.72A4.574,4.574,0,0,0,147-.13a5.906,5.906,0,0,0,2.2.39,5.416,5.416,0,0,0,3-.8,4.746,4.746,0,0,0,1.84-2.66h-2.5a1.784,1.784,0,0,1-.76.91,2.532,2.532,0,0,1-1.48.43,2.539,2.539,0,0,1-1.84-.62A2.871,2.871,0,0,1,146.76-4.48Zm17.62-7.46v-2.34h-2.84v2.34Zm-2.84,1.6V0h2.84V-10.34Zm5.08,0V0h2.84V-5.42a3.836,3.836,0,0,1,.52-2.27,1.968,1.968,0,0,1,1.68-.69,1.549,1.549,0,0,1,1.42.63,3.624,3.624,0,0,1,.4,1.91V0h2.84V-6.36a8.334,8.334,0,0,0-.17-1.75,3.328,3.328,0,0,0-.59-1.34,2.772,2.772,0,0,0-1.15-.86,4.823,4.823,0,0,0-1.87-.31,4.049,4.049,0,0,0-1.76.41,3.259,3.259,0,0,0-1.4,1.31h-.06v-1.44Zm12.48,1.9V0h2.84V-8.44h1.96v-1.9h-1.96v-.62a1.326,1.326,0,0,1,.25-.91,1.089,1.089,0,0,1,.83-.27,8.728,8.728,0,0,1,1.04.06V-14.2q-.36-.02-.74-.05t-.76-.03a3.485,3.485,0,0,0-2.6.88,3.1,3.1,0,0,0-.86,2.26v.8h-1.7v1.9Zm8.56,3.28a6.205,6.205,0,0,1,.12-1.22,3.112,3.112,0,0,1,.41-1.06,2.3,2.3,0,0,1,.77-.75,2.285,2.285,0,0,1,1.2-.29,2.34,2.34,0,0,1,1.21.29,2.274,2.274,0,0,1,.78.75,3.112,3.112,0,0,1,.41,1.06,6.205,6.205,0,0,1,.12,1.22,6.056,6.056,0,0,1-.12,1.21,3.223,3.223,0,0,1-.41,1.06,2.159,2.159,0,0,1-.78.75,2.407,2.407,0,0,1-1.21.28,2.351,2.351,0,0,1-1.2-.28,2.184,2.184,0,0,1-.77-.75,3.223,3.223,0,0,1-.41-1.06A6.056,6.056,0,0,1,187.66-5.16Zm-2.84,0a6.265,6.265,0,0,0,.38,2.24,4.859,4.859,0,0,0,1.08,1.71,4.724,4.724,0,0,0,1.68,1.09,6.044,6.044,0,0,0,2.2.38,6.124,6.124,0,0,0,2.21-.38,4.707,4.707,0,0,0,1.69-1.09,4.859,4.859,0,0,0,1.08-1.71,6.265,6.265,0,0,0,.38-2.24,6.347,6.347,0,0,0-.38-2.25,4.842,4.842,0,0,0-1.08-1.72,4.82,4.82,0,0,0-1.69-1.1,5.984,5.984,0,0,0-2.21-.39,5.906,5.906,0,0,0-2.2.39,4.839,4.839,0,0,0-1.68,1.1,4.842,4.842,0,0,0-1.08,1.72A6.347,6.347,0,0,0,184.82-5.16Zm12.54-5.18V0h2.84V-4.66a5.715,5.715,0,0,1,.14-1.3,2.847,2.847,0,0,1,.47-1.05,2.286,2.286,0,0,1,.87-.71A3.026,3.026,0,0,1,203-7.98a5.072,5.072,0,0,1,.54.03q.28.03.48.07v-2.64a2.215,2.215,0,0,0-.62-.1,3.391,3.391,0,0,0-1.04.16,3.811,3.811,0,0,0-.94.45,3.538,3.538,0,0,0-.78.7,3.493,3.493,0,0,0-.54.89h-.04v-1.92Zm7.86,0V0h2.84V-6a2.923,2.923,0,0,1,.22-1.23,1.986,1.986,0,0,1,.53-.72,1.759,1.759,0,0,1,.64-.34,2.128,2.128,0,0,1,.53-.09,1.886,1.886,0,0,1,1.03.23,1.276,1.276,0,0,1,.5.61,2.554,2.554,0,0,1,.17.83q.02.45.02.91V0h2.84V-5.76a6.439,6.439,0,0,1,.07-.95,2.4,2.4,0,0,1,.28-.84,1.666,1.666,0,0,1,.58-.6,1.817,1.817,0,0,1,.97-.23,1.917,1.917,0,0,1,.95.2,1.332,1.332,0,0,1,.53.54,2.079,2.079,0,0,1,.22.8q.04.46.04.98V0h2.84V-6.92a4.664,4.664,0,0,0-.28-1.71,2.932,2.932,0,0,0-.78-1.15,3.06,3.06,0,0,0-1.2-.64,5.515,5.515,0,0,0-1.52-.2,3.323,3.323,0,0,0-1.87.52,4.4,4.4,0,0,0-1.25,1.2,2.515,2.515,0,0,0-1.23-1.34,4.162,4.162,0,0,0-1.79-.38,3.657,3.657,0,0,0-1.81.44,4.044,4.044,0,0,0-1.35,1.24h-.04v-1.4Zm25,4.06H225.6a3.26,3.26,0,0,1,.13-.68,2.088,2.088,0,0,1,.38-.72,2.151,2.151,0,0,1,.72-.57,2.471,2.471,0,0,1,1.13-.23,2,2,0,0,1,1.55.56A3.282,3.282,0,0,1,230.22-6.28Zm-4.62,1.8h7.46a7.3,7.3,0,0,0-.2-2.3,5.63,5.63,0,0,0-.91-1.96,4.59,4.59,0,0,0-1.61-1.37,4.917,4.917,0,0,0-2.3-.51,5.355,5.355,0,0,0-2.15.42,5.083,5.083,0,0,0-1.67,1.15,5.069,5.069,0,0,0-1.08,1.73,6.03,6.03,0,0,0-.38,2.16,6.3,6.3,0,0,0,.37,2.2,5,5,0,0,0,1.05,1.72,4.574,4.574,0,0,0,1.66,1.11,5.906,5.906,0,0,0,2.2.39,5.416,5.416,0,0,0,3-.8,4.746,4.746,0,0,0,1.84-2.66h-2.5a1.784,1.784,0,0,1-.76.91,2.532,2.532,0,0,1-1.48.43,2.539,2.539,0,0,1-1.84-.62A2.871,2.871,0,0,1,225.6-4.48ZM8.42,19.8a6.308,6.308,0,0,1-.12,1.24,3.361,3.361,0,0,1-.4,1.07,2.127,2.127,0,0,1-.75.75,2.252,2.252,0,0,1-1.17.28,2.11,2.11,0,0,1-1.13-.29,2.5,2.5,0,0,1-.78-.76,3.277,3.277,0,0,1-.45-1.07,5.265,5.265,0,0,1-.14-1.2,5.7,5.7,0,0,1,.13-1.23,3.271,3.271,0,0,1,.42-1.05,2.214,2.214,0,0,1,.77-.74,2.307,2.307,0,0,1,1.18-.28,2.2,2.2,0,0,1,1.16.28,2.308,2.308,0,0,1,.75.73,3.006,3.006,0,0,1,.41,1.04A6.158,6.158,0,0,1,8.42,19.8Zm.04,3.88V25h2.7V10.72H8.32v5.2H8.28a3.049,3.049,0,0,0-1.31-1.15,4.066,4.066,0,0,0-1.75-.39,4.254,4.254,0,0,0-2,.45,4.288,4.288,0,0,0-1.43,1.19,5.224,5.224,0,0,0-.86,1.71,6.979,6.979,0,0,0-.29,2.01,7.43,7.43,0,0,0,.29,2.08,5.537,5.537,0,0,0,.86,1.77,4.1,4.1,0,0,0,1.45,1.22,4.421,4.421,0,0,0,2.04.45,4.356,4.356,0,0,0,1.83-.37,2.93,2.93,0,0,0,1.31-1.21Zm11.8-4.96H15.64a3.26,3.26,0,0,1,.13-.68,2.088,2.088,0,0,1,.38-.72,2.151,2.151,0,0,1,.72-.57A2.471,2.471,0,0,1,18,16.52a2,2,0,0,1,1.55.56A3.282,3.282,0,0,1,20.26,18.72Zm-4.62,1.8H23.1a7.3,7.3,0,0,0-.2-2.3,5.63,5.63,0,0,0-.91-1.96,4.59,4.59,0,0,0-1.61-1.37,4.917,4.917,0,0,0-2.3-.51,5.355,5.355,0,0,0-2.15.42,5,5,0,0,0-2.75,2.88,6.031,6.031,0,0,0-.38,2.16,6.3,6.3,0,0,0,.37,2.2,5,5,0,0,0,1.05,1.72,4.574,4.574,0,0,0,1.66,1.11,5.906,5.906,0,0,0,2.2.39,5.416,5.416,0,0,0,3-.8,4.746,4.746,0,0,0,1.84-2.66h-2.5a1.784,1.784,0,0,1-.76.91,2.532,2.532,0,0,1-1.48.43,2.539,2.539,0,0,1-1.84-.62A2.871,2.871,0,0,1,15.64,20.52ZM37.38,18.3h2.78a3.775,3.775,0,0,0-1.57-2.95,4.724,4.724,0,0,0-1.52-.73,6.483,6.483,0,0,0-1.77-.24,5.64,5.64,0,0,0-2.24.42,4.714,4.714,0,0,0-1.66,1.17,5.017,5.017,0,0,0-1.03,1.78,6.889,6.889,0,0,0-.35,2.23,5.791,5.791,0,0,0,.38,2.13,4.964,4.964,0,0,0,1.06,1.67,4.723,4.723,0,0,0,1.65,1.09,5.659,5.659,0,0,0,2.13.39,5.164,5.164,0,0,0,3.38-1.08,4.685,4.685,0,0,0,1.6-3.14H37.48a2.7,2.7,0,0,1-.69,1.53,2.081,2.081,0,0,1-1.57.57,2.006,2.006,0,0,1-1.12-.3,2.241,2.241,0,0,1-.73-.77,3.527,3.527,0,0,1-.39-1.05,5.617,5.617,0,0,1-.12-1.14,5.858,5.858,0,0,1,.12-1.17,3.455,3.455,0,0,1,.41-1.08,2.464,2.464,0,0,1,.75-.8,1.994,1.994,0,0,1,1.14-.31A1.9,1.9,0,0,1,37.38,18.3Zm4.32-.46a3.3,3.3,0,0,1,.5-1.66,3.4,3.4,0,0,1,1.12-1.06,4.881,4.881,0,0,1,1.53-.57,8.7,8.7,0,0,1,1.71-.17,11.589,11.589,0,0,1,1.58.11,4.833,4.833,0,0,1,1.46.43,2.877,2.877,0,0,1,1.08.89,2.487,2.487,0,0,1,.42,1.51V22.7a10.8,10.8,0,0,0,.08,1.34,2.422,2.422,0,0,0,.28.96H48.58a4.075,4.075,0,0,1-.13-.49,4.267,4.267,0,0,1-.07-.51,3.7,3.7,0,0,1-1.6.98,6.422,6.422,0,0,1-1.88.28,5.079,5.079,0,0,1-1.38-.18,3.16,3.16,0,0,1-1.12-.56,2.607,2.607,0,0,1-.75-.96,3.246,3.246,0,0,1-.27-1.38,3.015,3.015,0,0,1,.31-1.45,2.592,2.592,0,0,1,.8-.91,3.584,3.584,0,0,1,1.12-.51,11.956,11.956,0,0,1,1.27-.27q.64-.1,1.26-.16a7.577,7.577,0,0,0,1.1-.18,1.918,1.918,0,0,0,.76-.35.768.768,0,0,0,.26-.67,1.507,1.507,0,0,0-.15-.73,1.1,1.1,0,0,0-.4-.42,1.574,1.574,0,0,0-.58-.2,4.746,4.746,0,0,0-.71-.05,2.156,2.156,0,0,0-1.32.36,1.607,1.607,0,0,0-.56,1.2Zm6.56,2.1a1.274,1.274,0,0,1-.45.25,4.6,4.6,0,0,1-.58.15q-.31.06-.65.1t-.68.1a5.129,5.129,0,0,0-.63.16,1.863,1.863,0,0,0-.54.27,1.283,1.283,0,0,0-.37.43,1.383,1.383,0,0,0-.14.66,1.336,1.336,0,0,0,.14.64,1.073,1.073,0,0,0,.38.41,1.6,1.6,0,0,0,.56.21,3.574,3.574,0,0,0,.66.06,2.511,2.511,0,0,0,1.3-.28,1.873,1.873,0,0,0,.68-.67,2.143,2.143,0,0,0,.27-.79,5.427,5.427,0,0,0,.05-.64Zm5.04-5.28V25h2.84V19.58a3.836,3.836,0,0,1,.52-2.27,1.968,1.968,0,0,1,1.68-.69,1.549,1.549,0,0,1,1.42.63,3.624,3.624,0,0,1,.4,1.91V25H63V18.64a8.334,8.334,0,0,0-.17-1.75,3.328,3.328,0,0,0-.59-1.34,2.772,2.772,0,0,0-1.15-.86,4.823,4.823,0,0,0-1.87-.31,4.049,4.049,0,0,0-1.76.41,3.259,3.259,0,0,0-1.4,1.31H56V14.66ZM72.5,19.8a6.309,6.309,0,0,1-.12,1.24,3.361,3.361,0,0,1-.4,1.07,2.127,2.127,0,0,1-.75.75,2.252,2.252,0,0,1-1.17.28,2.11,2.11,0,0,1-1.13-.29,2.5,2.5,0,0,1-.78-.76,3.277,3.277,0,0,1-.45-1.07,5.266,5.266,0,0,1-.14-1.2,5.7,5.7,0,0,1,.13-1.23,3.271,3.271,0,0,1,.42-1.05,2.214,2.214,0,0,1,.77-.74,2.307,2.307,0,0,1,1.18-.28,2.2,2.2,0,0,1,1.16.28,2.308,2.308,0,0,1,.75.73,3.006,3.006,0,0,1,.41,1.04A6.159,6.159,0,0,1,72.5,19.8Zm.04,3.88V25h2.7V10.72H72.4v5.2h-.04a3.049,3.049,0,0,0-1.31-1.15,4.066,4.066,0,0,0-1.75-.39,4.175,4.175,0,0,0-3.43,1.64,5.224,5.224,0,0,0-.86,1.71,6.979,6.979,0,0,0-.29,2.01,7.43,7.43,0,0,0,.29,2.08,5.537,5.537,0,0,0,.86,1.77,4.1,4.1,0,0,0,1.45,1.22,4.421,4.421,0,0,0,2.04.45,4.356,4.356,0,0,0,1.83-.37,2.93,2.93,0,0,0,1.31-1.21ZM80.3,13.06V10.72H77.46v2.34Zm-2.84,1.6V25H80.3V14.66ZM89.88,19.8a6.309,6.309,0,0,1-.12,1.24,3.361,3.361,0,0,1-.4,1.07,2.127,2.127,0,0,1-.75.75,2.252,2.252,0,0,1-1.17.28,2.11,2.11,0,0,1-1.13-.29,2.5,2.5,0,0,1-.78-.76,3.277,3.277,0,0,1-.45-1.07,5.266,5.266,0,0,1-.14-1.2,5.7,5.7,0,0,1,.13-1.23,3.271,3.271,0,0,1,.42-1.05,2.214,2.214,0,0,1,.77-.74,2.307,2.307,0,0,1,1.18-.28,2.2,2.2,0,0,1,1.16.28,2.308,2.308,0,0,1,.75.73,3.006,3.006,0,0,1,.41,1.04A6.159,6.159,0,0,1,89.88,19.8Zm.04,3.88V25h2.7V10.72H89.78v5.2h-.04a3.049,3.049,0,0,0-1.31-1.15,4.066,4.066,0,0,0-1.75-.39,4.175,4.175,0,0,0-3.43,1.64,5.224,5.224,0,0,0-.86,1.71,6.979,6.979,0,0,0-.29,2.01,7.43,7.43,0,0,0,.29,2.08,5.537,5.537,0,0,0,.86,1.77,4.1,4.1,0,0,0,1.45,1.22,4.421,4.421,0,0,0,2.04.45,4.356,4.356,0,0,0,1.83-.37,2.93,2.93,0,0,0,1.31-1.21Zm4.72-5.84a3.3,3.3,0,0,1,.5-1.66,3.4,3.4,0,0,1,1.12-1.06,4.881,4.881,0,0,1,1.53-.57,8.7,8.7,0,0,1,1.71-.17,11.589,11.589,0,0,1,1.58.11,4.833,4.833,0,0,1,1.46.43,2.877,2.877,0,0,1,1.08.89,2.487,2.487,0,0,1,.42,1.51V22.7a10.8,10.8,0,0,0,.08,1.34,2.422,2.422,0,0,0,.28.96h-2.88a4.076,4.076,0,0,1-.13-.49,4.266,4.266,0,0,1-.07-.51,3.7,3.7,0,0,1-1.6.98,6.422,6.422,0,0,1-1.88.28,5.079,5.079,0,0,1-1.38-.18,3.16,3.16,0,0,1-1.12-.56,2.607,2.607,0,0,1-.75-.96,3.246,3.246,0,0,1-.27-1.38,3.015,3.015,0,0,1,.31-1.45,2.592,2.592,0,0,1,.8-.91,3.584,3.584,0,0,1,1.12-.51,11.956,11.956,0,0,1,1.27-.27q.64-.1,1.26-.16a7.577,7.577,0,0,0,1.1-.18,1.918,1.918,0,0,0,.76-.35.768.768,0,0,0,.26-.67,1.507,1.507,0,0,0-.15-.73,1.1,1.1,0,0,0-.4-.42,1.574,1.574,0,0,0-.58-.2,4.746,4.746,0,0,0-.71-.05,2.156,2.156,0,0,0-1.32.36,1.607,1.607,0,0,0-.56,1.2Zm6.56,2.1a1.274,1.274,0,0,1-.45.25,4.6,4.6,0,0,1-.58.15q-.31.06-.65.1t-.68.1a5.129,5.129,0,0,0-.63.16,1.863,1.863,0,0,0-.54.27,1.283,1.283,0,0,0-.37.43,1.383,1.383,0,0,0-.14.66,1.336,1.336,0,0,0,.14.64,1.073,1.073,0,0,0,.38.41,1.6,1.6,0,0,0,.56.21,3.574,3.574,0,0,0,.66.06,2.511,2.511,0,0,0,1.3-.28,1.873,1.873,0,0,0,.68-.67,2.143,2.143,0,0,0,.27-.79,5.427,5.427,0,0,0,.05-.64Zm8.64-5.28v-3.1H107v3.1h-1.72v1.9H107v6.1a2.642,2.642,0,0,0,.26,1.26,1.853,1.853,0,0,0,.71.74,2.948,2.948,0,0,0,1.04.35,8.291,8.291,0,0,0,1.25.09q.42,0,.86-.02a6.758,6.758,0,0,0,.8-.08V22.8a3.979,3.979,0,0,1-.42.06q-.22.02-.46.02a1.39,1.39,0,0,1-.96-.24,1.39,1.39,0,0,1-.24-.96V16.56h2.08v-1.9Zm5.96,5.18a6.205,6.205,0,0,1,.12-1.22,3.112,3.112,0,0,1,.41-1.06,2.184,2.184,0,0,1,1.97-1.04,2.34,2.34,0,0,1,1.21.29,2.274,2.274,0,0,1,.78.75,3.113,3.113,0,0,1,.41,1.06,6.205,6.205,0,0,1,.12,1.22,6.056,6.056,0,0,1-.12,1.21,3.223,3.223,0,0,1-.41,1.06,2.159,2.159,0,0,1-.78.75,2.407,2.407,0,0,1-1.21.28,2.35,2.35,0,0,1-1.2-.28,2.184,2.184,0,0,1-.77-.75,3.223,3.223,0,0,1-.41-1.06A6.056,6.056,0,0,1,115.8,19.84Zm-2.84,0a6.265,6.265,0,0,0,.38,2.24,4.859,4.859,0,0,0,1.08,1.71,4.724,4.724,0,0,0,1.68,1.09,6.044,6.044,0,0,0,2.2.38,6.125,6.125,0,0,0,2.21-.38,4.707,4.707,0,0,0,1.69-1.09,4.859,4.859,0,0,0,1.08-1.71,6.265,6.265,0,0,0,.38-2.24,6.347,6.347,0,0,0-.38-2.25,4.709,4.709,0,0,0-2.77-2.82,5.984,5.984,0,0,0-2.21-.39,5.906,5.906,0,0,0-2.2.39,4.729,4.729,0,0,0-2.76,2.82A6.347,6.347,0,0,0,112.96,19.84Zm14.74,1.8H125a3.477,3.477,0,0,0,.47,1.73,3.432,3.432,0,0,0,1.1,1.11,4.645,4.645,0,0,0,1.53.6,8.568,8.568,0,0,0,1.76.18,8.8,8.8,0,0,0,1.73-.17,4.386,4.386,0,0,0,1.51-.59,3.141,3.141,0,0,0,1.48-2.82,2.407,2.407,0,0,0-.28-1.21,2.563,2.563,0,0,0-.74-.82,3.981,3.981,0,0,0-1.05-.53,12,12,0,0,0-1.21-.34q-.6-.14-1.18-.26a9.125,9.125,0,0,1-1.03-.27,2.158,2.158,0,0,1-.73-.39.779.779,0,0,1-.28-.62.766.766,0,0,1,.16-.51,1.05,1.05,0,0,1,.39-.29,1.736,1.736,0,0,1,.51-.13,4.9,4.9,0,0,1,.52-.03,2.834,2.834,0,0,1,1.32.29,1.242,1.242,0,0,1,.62,1.11h2.7a3.393,3.393,0,0,0-.49-1.59,3.237,3.237,0,0,0-1.03-1.01,4.311,4.311,0,0,0-1.41-.54,8.192,8.192,0,0,0-1.63-.16,8.881,8.881,0,0,0-1.64.15,4.516,4.516,0,0,0-1.44.52,2.875,2.875,0,0,0-1.03,1.01,3.111,3.111,0,0,0-.39,1.64,2.21,2.21,0,0,0,.28,1.15,2.431,2.431,0,0,0,.74.78,4.135,4.135,0,0,0,1.05.5q.59.19,1.21.33a16.975,16.975,0,0,1,2.37.64q.85.32.85.96a1.051,1.051,0,0,1-.18.63,1.364,1.364,0,0,1-.45.4,2.143,2.143,0,0,1-.6.22,3.038,3.038,0,0,1-.63.07,3.248,3.248,0,0,1-.81-.1,2.1,2.1,0,0,1-.69-.31,1.66,1.66,0,0,1-.49-.54A1.557,1.557,0,0,1,127.7,21.64Zm8.66.28V25h3.14V21.92Z" transform="translate(365.633 3362.509)" fill="#ffa400"/>
    <path id="Trazado_199391" data-name="Trazado 199391" d="M1.38-14.28V0H12.22V-2.64H4.52v-3.5h6.92V-8.58H4.52v-3.06h7.54v-2.64ZM19.76,0l3.5-10.34H20.44L18.26-3.28h-.04l-2.18-7.06H13.06L16.6,0Zm4.56-7.16a3.3,3.3,0,0,1,.5-1.66,3.4,3.4,0,0,1,1.12-1.06,4.881,4.881,0,0,1,1.53-.57,8.7,8.7,0,0,1,1.71-.17,11.589,11.589,0,0,1,1.58.11,4.833,4.833,0,0,1,1.46.43,2.877,2.877,0,0,1,1.08.89,2.487,2.487,0,0,1,.42,1.51V-2.3A10.8,10.8,0,0,0,33.8-.96a2.422,2.422,0,0,0,.28.96H31.2a4.076,4.076,0,0,1-.13-.49A4.267,4.267,0,0,1,31-1a3.7,3.7,0,0,1-1.6.98,6.422,6.422,0,0,1-1.88.28A5.079,5.079,0,0,1,26.14.08a3.16,3.16,0,0,1-1.12-.56,2.607,2.607,0,0,1-.75-.96A3.246,3.246,0,0,1,24-2.82a3.015,3.015,0,0,1,.31-1.45,2.592,2.592,0,0,1,.8-.91,3.584,3.584,0,0,1,1.12-.51,11.957,11.957,0,0,1,1.27-.27q.64-.1,1.26-.16a7.577,7.577,0,0,0,1.1-.18,1.918,1.918,0,0,0,.76-.35.768.768,0,0,0,.26-.67,1.507,1.507,0,0,0-.15-.73,1.1,1.1,0,0,0-.4-.42,1.574,1.574,0,0,0-.58-.2,4.746,4.746,0,0,0-.71-.05,2.156,2.156,0,0,0-1.32.36,1.607,1.607,0,0,0-.56,1.2Zm6.56,2.1a1.274,1.274,0,0,1-.45.25,4.6,4.6,0,0,1-.58.15q-.31.06-.65.1t-.68.1a5.129,5.129,0,0,0-.63.16,1.863,1.863,0,0,0-.54.27,1.283,1.283,0,0,0-.37.43,1.383,1.383,0,0,0-.14.66,1.336,1.336,0,0,0,.14.64,1.073,1.073,0,0,0,.38.41,1.6,1.6,0,0,0,.56.21,3.574,3.574,0,0,0,.66.06,2.511,2.511,0,0,0,1.3-.28,1.873,1.873,0,0,0,.68-.67,2.143,2.143,0,0,0,.27-.79A5.427,5.427,0,0,0,30.88-4ZM36-14.28V0h2.84V-14.28ZM50.78,0V-10.34H47.94v5.42a3.836,3.836,0,0,1-.52,2.27,1.968,1.968,0,0,1-1.68.69,1.549,1.549,0,0,1-1.42-.63,3.624,3.624,0,0,1-.4-1.91v-5.84H41.08v6.36a8.334,8.334,0,0,0,.17,1.75,3.328,3.328,0,0,0,.59,1.34,2.7,2.7,0,0,0,1.15.85,4.968,4.968,0,0,0,1.87.3,4.132,4.132,0,0,0,1.76-.4,3.2,3.2,0,0,0,1.4-1.3h.06V0Zm2.04-7.16a3.3,3.3,0,0,1,.5-1.66,3.4,3.4,0,0,1,1.12-1.06,4.881,4.881,0,0,1,1.53-.57,8.7,8.7,0,0,1,1.71-.17,11.589,11.589,0,0,1,1.58.11,4.833,4.833,0,0,1,1.46.43,2.877,2.877,0,0,1,1.08.89,2.487,2.487,0,0,1,.42,1.51V-2.3A10.8,10.8,0,0,0,62.3-.96a2.422,2.422,0,0,0,.28.96H59.7a4.076,4.076,0,0,1-.13-.49A4.267,4.267,0,0,1,59.5-1a3.7,3.7,0,0,1-1.6.98,6.422,6.422,0,0,1-1.88.28A5.079,5.079,0,0,1,54.64.08a3.16,3.16,0,0,1-1.12-.56,2.607,2.607,0,0,1-.75-.96,3.246,3.246,0,0,1-.27-1.38,3.015,3.015,0,0,1,.31-1.45,2.592,2.592,0,0,1,.8-.91,3.584,3.584,0,0,1,1.12-.51A11.957,11.957,0,0,1,56-5.96q.64-.1,1.26-.16a7.577,7.577,0,0,0,1.1-.18,1.918,1.918,0,0,0,.76-.35.768.768,0,0,0,.26-.67,1.507,1.507,0,0,0-.15-.73,1.1,1.1,0,0,0-.4-.42,1.574,1.574,0,0,0-.58-.2,4.746,4.746,0,0,0-.71-.05,2.156,2.156,0,0,0-1.32.36,1.607,1.607,0,0,0-.56,1.2Zm6.56,2.1a1.274,1.274,0,0,1-.45.25,4.6,4.6,0,0,1-.58.15q-.31.06-.65.1t-.68.1a5.129,5.129,0,0,0-.63.16,1.863,1.863,0,0,0-.54.27,1.283,1.283,0,0,0-.37.43,1.383,1.383,0,0,0-.14.66,1.336,1.336,0,0,0,.14.64,1.073,1.073,0,0,0,.38.41,1.6,1.6,0,0,0,.56.21,3.574,3.574,0,0,0,.66.06,2.511,2.511,0,0,0,1.3-.28,1.873,1.873,0,0,0,.68-.67,2.143,2.143,0,0,0,.27-.79A5.427,5.427,0,0,0,59.38-4ZM71.46-6.7h2.78a3.89,3.89,0,0,0-.48-1.73,3.907,3.907,0,0,0-1.09-1.22,4.724,4.724,0,0,0-1.52-.73,6.483,6.483,0,0,0-1.77-.24,5.64,5.64,0,0,0-2.24.42,4.714,4.714,0,0,0-1.66,1.17,5.017,5.017,0,0,0-1.03,1.78,6.889,6.889,0,0,0-.35,2.23,5.791,5.791,0,0,0,.38,2.13,4.964,4.964,0,0,0,1.06,1.67A4.723,4.723,0,0,0,67.19-.13a5.659,5.659,0,0,0,2.13.39A5.164,5.164,0,0,0,72.7-.82a4.685,4.685,0,0,0,1.6-3.14H71.56a2.7,2.7,0,0,1-.69,1.53,2.081,2.081,0,0,1-1.57.57,2.006,2.006,0,0,1-1.12-.3,2.241,2.241,0,0,1-.73-.77,3.527,3.527,0,0,1-.39-1.05,5.617,5.617,0,0,1-.12-1.14,5.859,5.859,0,0,1,.12-1.17,3.456,3.456,0,0,1,.41-1.08,2.464,2.464,0,0,1,.75-.8,1.994,1.994,0,0,1,1.14-.31A1.9,1.9,0,0,1,71.46-6.7Zm7.36-5.24v-2.34H75.98v2.34Zm-2.84,1.6V0h2.84V-10.34Zm7.6,5.18a6.056,6.056,0,0,0,.12,1.21,3.224,3.224,0,0,0,.41,1.06,2.184,2.184,0,0,0,.77.75,2.35,2.35,0,0,0,1.2.28,2.407,2.407,0,0,0,1.21-.28,2.159,2.159,0,0,0,.78-.75,3.224,3.224,0,0,0,.41-1.06,6.056,6.056,0,0,0,.12-1.21,6.205,6.205,0,0,0-.12-1.22,3.113,3.113,0,0,0-.41-1.06,2.274,2.274,0,0,0-.78-.75,2.34,2.34,0,0,0-1.21-.29,2.285,2.285,0,0,0-1.2.29,2.3,2.3,0,0,0-.77.75,3.113,3.113,0,0,0-.41,1.06A6.205,6.205,0,0,0,83.58-5.16Zm-2.84,0a6.347,6.347,0,0,1,.38-2.25A4.842,4.842,0,0,1,82.2-9.13a4.84,4.84,0,0,1,1.68-1.1,5.906,5.906,0,0,1,2.2-.39,5.984,5.984,0,0,1,2.21.39,4.82,4.82,0,0,1,1.69,1.1,4.842,4.842,0,0,1,1.08,1.72,6.347,6.347,0,0,1,.38,2.25,6.265,6.265,0,0,1-.38,2.24,4.859,4.859,0,0,1-1.08,1.71A4.707,4.707,0,0,1,88.29-.12a6.125,6.125,0,0,1-2.21.38,6.044,6.044,0,0,1-2.2-.38A4.724,4.724,0,0,1,82.2-1.21a4.859,4.859,0,0,1-1.08-1.71A6.265,6.265,0,0,1,80.74-5.16ZM89.82-15.7l-3.26,3.54H84.58L86.7-15.7Zm3.46,5.36V0h2.84V-5.42a3.836,3.836,0,0,1,.52-2.27,1.968,1.968,0,0,1,1.68-.69,1.549,1.549,0,0,1,1.42.63,3.624,3.624,0,0,1,.4,1.91V0h2.84V-6.36a8.334,8.334,0,0,0-.17-1.75,3.328,3.328,0,0,0-.59-1.34,2.772,2.772,0,0,0-1.15-.86,4.823,4.823,0,0,0-1.87-.31,4.049,4.049,0,0,0-1.76.41,3.259,3.259,0,0,0-1.4,1.31h-.06v-1.44ZM118.04-5.2a6.309,6.309,0,0,1-.12,1.24,3.361,3.361,0,0,1-.4,1.07,2.127,2.127,0,0,1-.75.75,2.252,2.252,0,0,1-1.17.28,2.11,2.11,0,0,1-1.13-.29,2.5,2.5,0,0,1-.78-.76,3.277,3.277,0,0,1-.45-1.07,5.266,5.266,0,0,1-.14-1.2,5.7,5.7,0,0,1,.13-1.23,3.271,3.271,0,0,1,.42-1.05,2.214,2.214,0,0,1,.77-.74,2.307,2.307,0,0,1,1.18-.28,2.2,2.2,0,0,1,1.16.28,2.308,2.308,0,0,1,.75.73,3.006,3.006,0,0,1,.41,1.04A6.159,6.159,0,0,1,118.04-5.2Zm.04,3.88V0h2.7V-14.28h-2.84v5.2h-.04a3.049,3.049,0,0,0-1.31-1.15,4.066,4.066,0,0,0-1.75-.39,4.254,4.254,0,0,0-2,.45,4.288,4.288,0,0,0-1.43,1.19,5.224,5.224,0,0,0-.86,1.71,6.979,6.979,0,0,0-.29,2.01,7.43,7.43,0,0,0,.29,2.08,5.537,5.537,0,0,0,.86,1.77,4.1,4.1,0,0,0,1.45,1.22,4.421,4.421,0,0,0,2.04.45,4.356,4.356,0,0,0,1.83-.37,2.93,2.93,0,0,0,1.31-1.21Zm11.8-4.96h-4.62a3.26,3.26,0,0,1,.13-.68,2.088,2.088,0,0,1,.38-.72,2.151,2.151,0,0,1,.72-.57,2.471,2.471,0,0,1,1.13-.23,2,2,0,0,1,1.55.56A3.282,3.282,0,0,1,129.88-6.28Zm-4.62,1.8h7.46a7.3,7.3,0,0,0-.2-2.3,5.63,5.63,0,0,0-.91-1.96A4.59,4.59,0,0,0,130-10.11a4.917,4.917,0,0,0-2.3-.51,5.355,5.355,0,0,0-2.15.42,5.083,5.083,0,0,0-1.67,1.15,5.069,5.069,0,0,0-1.08,1.73,6.031,6.031,0,0,0-.38,2.16,6.3,6.3,0,0,0,.37,2.2,5,5,0,0,0,1.05,1.72A4.574,4.574,0,0,0,125.5-.13a5.906,5.906,0,0,0,2.2.39,5.416,5.416,0,0,0,3-.8,4.746,4.746,0,0,0,1.84-2.66h-2.5a1.784,1.784,0,0,1-.76.91,2.532,2.532,0,0,1-1.48.43,2.539,2.539,0,0,1-1.84-.62A2.871,2.871,0,0,1,125.26-4.48Zm14.78-9.8V0h2.84V-14.28Zm7.6,9.12a6.205,6.205,0,0,1,.12-1.22,3.112,3.112,0,0,1,.41-1.06,2.3,2.3,0,0,1,.77-.75,2.285,2.285,0,0,1,1.2-.29,2.34,2.34,0,0,1,1.21.29,2.274,2.274,0,0,1,.78.75,3.112,3.112,0,0,1,.41,1.06,6.205,6.205,0,0,1,.12,1.22,6.056,6.056,0,0,1-.12,1.21,3.223,3.223,0,0,1-.41,1.06,2.159,2.159,0,0,1-.78.75,2.407,2.407,0,0,1-1.21.28,2.351,2.351,0,0,1-1.2-.28,2.184,2.184,0,0,1-.77-.75,3.223,3.223,0,0,1-.41-1.06A6.056,6.056,0,0,1,147.64-5.16Zm-2.84,0a6.265,6.265,0,0,0,.38,2.24,4.859,4.859,0,0,0,1.08,1.71,4.724,4.724,0,0,0,1.68,1.09,6.044,6.044,0,0,0,2.2.38,6.125,6.125,0,0,0,2.21-.38,4.707,4.707,0,0,0,1.69-1.09,4.859,4.859,0,0,0,1.08-1.71,6.265,6.265,0,0,0,.38-2.24,6.347,6.347,0,0,0-.38-2.25,4.842,4.842,0,0,0-1.08-1.72,4.82,4.82,0,0,0-1.69-1.1,5.984,5.984,0,0,0-2.21-.39,5.906,5.906,0,0,0-2.2.39,4.839,4.839,0,0,0-1.68,1.1,4.842,4.842,0,0,0-1.08,1.72A6.347,6.347,0,0,0,144.8-5.16Zm14.74,1.8h-2.7a3.477,3.477,0,0,0,.47,1.73,3.432,3.432,0,0,0,1.1,1.11,4.646,4.646,0,0,0,1.53.6,8.568,8.568,0,0,0,1.76.18,8.8,8.8,0,0,0,1.73-.17,4.386,4.386,0,0,0,1.51-.59,3.281,3.281,0,0,0,1.07-1.11,3.3,3.3,0,0,0,.41-1.71,2.407,2.407,0,0,0-.28-1.21,2.563,2.563,0,0,0-.74-.82,3.981,3.981,0,0,0-1.05-.53,12,12,0,0,0-1.21-.34q-.6-.14-1.18-.26a9.126,9.126,0,0,1-1.03-.27,2.158,2.158,0,0,1-.73-.39.779.779,0,0,1-.28-.62.766.766,0,0,1,.16-.51,1.05,1.05,0,0,1,.39-.29,1.736,1.736,0,0,1,.51-.13,4.9,4.9,0,0,1,.52-.03,2.834,2.834,0,0,1,1.32.29,1.242,1.242,0,0,1,.62,1.11h2.7a3.393,3.393,0,0,0-.49-1.59,3.237,3.237,0,0,0-1.03-1.01,4.311,4.311,0,0,0-1.41-.54,8.192,8.192,0,0,0-1.63-.16,8.881,8.881,0,0,0-1.64.15,4.516,4.516,0,0,0-1.44.52,2.875,2.875,0,0,0-1.03,1.01,3.111,3.111,0,0,0-.39,1.64,2.21,2.21,0,0,0,.28,1.15,2.431,2.431,0,0,0,.74.78,4.135,4.135,0,0,0,1.05.5q.59.19,1.21.33a16.975,16.975,0,0,1,2.37.64q.85.32.85.96a1.051,1.051,0,0,1-.18.63,1.364,1.364,0,0,1-.45.4,2.143,2.143,0,0,1-.6.22,3.038,3.038,0,0,1-.63.07,3.248,3.248,0,0,1-.81-.1,2.1,2.1,0,0,1-.69-.31,1.66,1.66,0,0,1-.49-.54A1.558,1.558,0,0,1,159.54-3.36ZM1.08,14.66V25H3.92V20.34a5.715,5.715,0,0,1,.14-1.3,2.847,2.847,0,0,1,.47-1.05,2.286,2.286,0,0,1,.87-.71,3.026,3.026,0,0,1,1.32-.26,5.072,5.072,0,0,1,.54.03q.28.03.48.07V14.48a2.215,2.215,0,0,0-.62-.1,3.391,3.391,0,0,0-1.04.16,3.811,3.811,0,0,0-.94.45,3.538,3.538,0,0,0-.78.7,3.493,3.493,0,0,0-.54.89H3.78V14.66Zm14.38,4.06H10.84a3.26,3.26,0,0,1,.13-.68,2.088,2.088,0,0,1,.38-.72,2.151,2.151,0,0,1,.72-.57,2.471,2.471,0,0,1,1.13-.23,2,2,0,0,1,1.55.56A3.282,3.282,0,0,1,15.46,18.72Zm-4.62,1.8H18.3a7.3,7.3,0,0,0-.2-2.3,5.63,5.63,0,0,0-.91-1.96,4.59,4.59,0,0,0-1.61-1.37,4.917,4.917,0,0,0-2.3-.51,5.355,5.355,0,0,0-2.15.42,5,5,0,0,0-2.75,2.88A6.031,6.031,0,0,0,8,19.84a6.3,6.3,0,0,0,.37,2.2,5,5,0,0,0,1.05,1.72,4.574,4.574,0,0,0,1.66,1.11,5.906,5.906,0,0,0,2.2.39,5.416,5.416,0,0,0,3-.8,4.746,4.746,0,0,0,1.84-2.66h-2.5a1.784,1.784,0,0,1-.76.91,2.532,2.532,0,0,1-1.48.43,2.539,2.539,0,0,1-1.84-.62A2.871,2.871,0,0,1,10.84,20.52Zm11.34,1.12h-2.7a3.477,3.477,0,0,0,.47,1.73,3.432,3.432,0,0,0,1.1,1.11,4.645,4.645,0,0,0,1.53.6,8.568,8.568,0,0,0,1.76.18,8.8,8.8,0,0,0,1.73-.17,4.386,4.386,0,0,0,1.51-.59,3.141,3.141,0,0,0,1.48-2.82,2.407,2.407,0,0,0-.28-1.21,2.563,2.563,0,0,0-.74-.82,3.98,3.98,0,0,0-1.05-.53,12,12,0,0,0-1.21-.34q-.6-.14-1.18-.26a9.126,9.126,0,0,1-1.03-.27,2.159,2.159,0,0,1-.73-.39.779.779,0,0,1-.28-.62.766.766,0,0,1,.16-.51,1.05,1.05,0,0,1,.39-.29,1.736,1.736,0,0,1,.51-.13,4.9,4.9,0,0,1,.52-.03,2.834,2.834,0,0,1,1.32.29,1.242,1.242,0,0,1,.62,1.11h2.7a3.393,3.393,0,0,0-.49-1.59,3.237,3.237,0,0,0-1.03-1.01,4.312,4.312,0,0,0-1.41-.54,8.192,8.192,0,0,0-1.63-.16,8.88,8.88,0,0,0-1.64.15,4.516,4.516,0,0,0-1.44.52,2.875,2.875,0,0,0-1.03,1.01,3.111,3.111,0,0,0-.39,1.64A2.21,2.21,0,0,0,20,18.85a2.431,2.431,0,0,0,.74.78,4.135,4.135,0,0,0,1.05.5q.59.19,1.21.33a16.974,16.974,0,0,1,2.37.64q.85.32.85.96a1.051,1.051,0,0,1-.18.63,1.364,1.364,0,0,1-.45.4,2.143,2.143,0,0,1-.6.22,3.038,3.038,0,0,1-.63.07,3.248,3.248,0,0,1-.81-.1,2.1,2.1,0,0,1-.69-.31,1.66,1.66,0,0,1-.49-.54A1.558,1.558,0,0,1,22.18,21.64ZM40.42,25V14.66H37.58v5.42a3.836,3.836,0,0,1-.52,2.27,1.968,1.968,0,0,1-1.68.69,1.549,1.549,0,0,1-1.42-.63,3.624,3.624,0,0,1-.4-1.91V14.66H30.72v6.36a8.334,8.334,0,0,0,.17,1.75,3.328,3.328,0,0,0,.59,1.34,2.7,2.7,0,0,0,1.15.85,4.968,4.968,0,0,0,1.87.3,4.132,4.132,0,0,0,1.76-.4,3.2,3.2,0,0,0,1.4-1.3h.06V25Zm2.24-14.28V25H45.5V10.72Zm8.68,3.94v-3.1H48.5v3.1H46.78v1.9H48.5v6.1a2.642,2.642,0,0,0,.26,1.26,1.853,1.853,0,0,0,.71.74,2.948,2.948,0,0,0,1.04.35,8.291,8.291,0,0,0,1.25.09q.42,0,.86-.02a6.758,6.758,0,0,0,.8-.08V22.8a3.979,3.979,0,0,1-.42.06q-.22.02-.46.02a1.39,1.39,0,0,1-.96-.24,1.39,1.39,0,0,1-.24-.96V16.56h2.08v-1.9Zm3.32,3.18a3.3,3.3,0,0,1,.5-1.66,3.4,3.4,0,0,1,1.12-1.06,4.881,4.881,0,0,1,1.53-.57,8.7,8.7,0,0,1,1.71-.17,11.589,11.589,0,0,1,1.58.11,4.833,4.833,0,0,1,1.46.43,2.877,2.877,0,0,1,1.08.89,2.487,2.487,0,0,1,.42,1.51V22.7a10.8,10.8,0,0,0,.08,1.34,2.422,2.422,0,0,0,.28.96H61.54a4.075,4.075,0,0,1-.13-.49,4.267,4.267,0,0,1-.07-.51,3.7,3.7,0,0,1-1.6.98,6.422,6.422,0,0,1-1.88.28,5.079,5.079,0,0,1-1.38-.18,3.16,3.16,0,0,1-1.12-.56,2.607,2.607,0,0,1-.75-.96,3.246,3.246,0,0,1-.27-1.38,3.015,3.015,0,0,1,.31-1.45,2.592,2.592,0,0,1,.8-.91,3.584,3.584,0,0,1,1.12-.51,11.956,11.956,0,0,1,1.27-.27q.64-.1,1.26-.16a7.577,7.577,0,0,0,1.1-.18,1.918,1.918,0,0,0,.76-.35.768.768,0,0,0,.26-.67,1.507,1.507,0,0,0-.15-.73,1.1,1.1,0,0,0-.4-.42,1.574,1.574,0,0,0-.58-.2,4.746,4.746,0,0,0-.71-.05,2.156,2.156,0,0,0-1.32.36,1.607,1.607,0,0,0-.56,1.2Zm6.56,2.1a1.274,1.274,0,0,1-.45.25,4.6,4.6,0,0,1-.58.15q-.31.06-.65.1t-.68.1a5.129,5.129,0,0,0-.63.16,1.863,1.863,0,0,0-.54.27,1.283,1.283,0,0,0-.37.43,1.383,1.383,0,0,0-.14.66,1.336,1.336,0,0,0,.14.64,1.073,1.073,0,0,0,.38.41,1.6,1.6,0,0,0,.56.21,3.574,3.574,0,0,0,.66.06,2.511,2.511,0,0,0,1.3-.28,1.873,1.873,0,0,0,.68-.67,2.143,2.143,0,0,0,.27-.79,5.427,5.427,0,0,0,.05-.64ZM73.6,19.8a6.309,6.309,0,0,1-.12,1.24,3.361,3.361,0,0,1-.4,1.07,2.127,2.127,0,0,1-.75.75,2.252,2.252,0,0,1-1.17.28,2.11,2.11,0,0,1-1.13-.29,2.5,2.5,0,0,1-.78-.76,3.277,3.277,0,0,1-.45-1.07,5.266,5.266,0,0,1-.14-1.2,5.7,5.7,0,0,1,.13-1.23,3.271,3.271,0,0,1,.42-1.05,2.214,2.214,0,0,1,.77-.74,2.307,2.307,0,0,1,1.18-.28,2.2,2.2,0,0,1,1.16.28,2.308,2.308,0,0,1,.75.73,3.006,3.006,0,0,1,.41,1.04A6.159,6.159,0,0,1,73.6,19.8Zm.04,3.88V25h2.7V10.72H73.5v5.2h-.04a3.049,3.049,0,0,0-1.31-1.15,4.066,4.066,0,0,0-1.75-.39,4.175,4.175,0,0,0-3.43,1.64,5.224,5.224,0,0,0-.86,1.71,6.979,6.979,0,0,0-.29,2.01,7.43,7.43,0,0,0,.29,2.08,5.537,5.537,0,0,0,.86,1.77,4.1,4.1,0,0,0,1.45,1.22,4.421,4.421,0,0,0,2.04.45,4.356,4.356,0,0,0,1.83-.37,2.93,2.93,0,0,0,1.31-1.21ZM81,19.84a6.205,6.205,0,0,1,.12-1.22,3.113,3.113,0,0,1,.41-1.06,2.184,2.184,0,0,1,1.97-1.04,2.34,2.34,0,0,1,1.21.29,2.274,2.274,0,0,1,.78.75,3.113,3.113,0,0,1,.41,1.06,6.205,6.205,0,0,1,.12,1.22,6.056,6.056,0,0,1-.12,1.21,3.224,3.224,0,0,1-.41,1.06,2.159,2.159,0,0,1-.78.75,2.407,2.407,0,0,1-1.21.28,2.35,2.35,0,0,1-1.2-.28,2.184,2.184,0,0,1-.77-.75,3.224,3.224,0,0,1-.41-1.06A6.056,6.056,0,0,1,81,19.84Zm-2.84,0a6.265,6.265,0,0,0,.38,2.24,4.859,4.859,0,0,0,1.08,1.71,4.724,4.724,0,0,0,1.68,1.09,6.044,6.044,0,0,0,2.2.38,6.125,6.125,0,0,0,2.21-.38,4.707,4.707,0,0,0,1.69-1.09,4.859,4.859,0,0,0,1.08-1.71,6.265,6.265,0,0,0,.38-2.24,6.347,6.347,0,0,0-.38-2.25,4.709,4.709,0,0,0-2.77-2.82,5.984,5.984,0,0,0-2.21-.39,5.906,5.906,0,0,0-2.2.39,4.729,4.729,0,0,0-2.76,2.82A6.347,6.347,0,0,0,78.16,19.84Zm14.74,1.8H90.2a3.477,3.477,0,0,0,.47,1.73,3.432,3.432,0,0,0,1.1,1.11,4.645,4.645,0,0,0,1.53.6,8.568,8.568,0,0,0,1.76.18,8.8,8.8,0,0,0,1.73-.17,4.386,4.386,0,0,0,1.51-.59,3.141,3.141,0,0,0,1.48-2.82,2.407,2.407,0,0,0-.28-1.21,2.563,2.563,0,0,0-.74-.82,3.98,3.98,0,0,0-1.05-.53,12,12,0,0,0-1.21-.34q-.6-.14-1.18-.26a9.126,9.126,0,0,1-1.03-.27,2.159,2.159,0,0,1-.73-.39.779.779,0,0,1-.28-.62.766.766,0,0,1,.16-.51,1.05,1.05,0,0,1,.39-.29,1.736,1.736,0,0,1,.51-.13,4.9,4.9,0,0,1,.52-.03,2.834,2.834,0,0,1,1.32.29,1.242,1.242,0,0,1,.62,1.11h2.7a3.392,3.392,0,0,0-.49-1.59,3.237,3.237,0,0,0-1.03-1.01,4.312,4.312,0,0,0-1.41-.54,8.192,8.192,0,0,0-1.63-.16,8.88,8.88,0,0,0-1.64.15,4.516,4.516,0,0,0-1.44.52,2.875,2.875,0,0,0-1.03,1.01,3.111,3.111,0,0,0-.39,1.64,2.21,2.21,0,0,0,.28,1.15,2.431,2.431,0,0,0,.74.78,4.135,4.135,0,0,0,1.05.5q.59.19,1.21.33a16.974,16.974,0,0,1,2.37.64q.85.32.85.96a1.051,1.051,0,0,1-.18.63,1.364,1.364,0,0,1-.45.4,2.143,2.143,0,0,1-.6.22,3.038,3.038,0,0,1-.63.07,3.248,3.248,0,0,1-.81-.1,2.1,2.1,0,0,1-.69-.31,1.66,1.66,0,0,1-.49-.54A1.557,1.557,0,0,1,92.9,21.64Zm8.66.28V25h3.14V21.92Z" transform="translate(731 3362.509)" fill="#16697a"/>
    <path id="Trazado_198063" data-name="Trazado 198063" d="M646.069,316.021l327.975.284,62.985-63.057-62.985-62.487-327.975-.284,63.248,62.772Z" transform="translate(-46.916 3293.841)" fill="#16697a" fill-rule="evenodd"/>
    <path id="Trazado_199392" data-name="Trazado 199392" d="M1.38-14.28V0H12.22V-2.64H4.52v-3.5h6.92V-8.58H4.52v-3.06h7.54v-2.64Zm12.74,0V0h2.84V-14.28Zm12.04,8H21.54a3.26,3.26,0,0,1,.13-.68,2.088,2.088,0,0,1,.38-.72,2.151,2.151,0,0,1,.72-.57,2.471,2.471,0,0,1,1.13-.23,2,2,0,0,1,1.55.56A3.282,3.282,0,0,1,26.16-6.28Zm-4.62,1.8H29a7.3,7.3,0,0,0-.2-2.3,5.63,5.63,0,0,0-.91-1.96,4.59,4.59,0,0,0-1.61-1.37,4.917,4.917,0,0,0-2.3-.51,5.355,5.355,0,0,0-2.15.42,5.083,5.083,0,0,0-1.67,1.15,5.069,5.069,0,0,0-1.08,1.73,6.031,6.031,0,0,0-.38,2.16,6.3,6.3,0,0,0,.37,2.2,5,5,0,0,0,1.05,1.72A4.574,4.574,0,0,0,21.78-.13a5.906,5.906,0,0,0,2.2.39,5.416,5.416,0,0,0,3-.8A4.746,4.746,0,0,0,28.82-3.2h-2.5a1.784,1.784,0,0,1-.76.91,2.532,2.532,0,0,1-1.48.43,2.539,2.539,0,0,1-1.84-.62A2.871,2.871,0,0,1,21.54-4.48ZM37.72-6.7H40.5a3.89,3.89,0,0,0-.48-1.73,3.907,3.907,0,0,0-1.09-1.22,4.724,4.724,0,0,0-1.52-.73,6.483,6.483,0,0,0-1.77-.24,5.64,5.64,0,0,0-2.24.42,4.714,4.714,0,0,0-1.66,1.17,5.017,5.017,0,0,0-1.03,1.78,6.889,6.889,0,0,0-.35,2.23,5.791,5.791,0,0,0,.38,2.13A4.964,4.964,0,0,0,31.8-1.22,4.723,4.723,0,0,0,33.45-.13a5.659,5.659,0,0,0,2.13.39A5.164,5.164,0,0,0,38.96-.82a4.685,4.685,0,0,0,1.6-3.14H37.82a2.7,2.7,0,0,1-.69,1.53,2.081,2.081,0,0,1-1.57.57,2.006,2.006,0,0,1-1.12-.3,2.241,2.241,0,0,1-.73-.77,3.527,3.527,0,0,1-.39-1.05,5.617,5.617,0,0,1-.12-1.14,5.858,5.858,0,0,1,.12-1.17,3.456,3.456,0,0,1,.41-1.08,2.464,2.464,0,0,1,.75-.8,1.994,1.994,0,0,1,1.14-.31A1.9,1.9,0,0,1,37.72-6.7Zm11.48,0h2.78a3.89,3.89,0,0,0-.48-1.73,3.907,3.907,0,0,0-1.09-1.22,4.724,4.724,0,0,0-1.52-.73,6.483,6.483,0,0,0-1.77-.24,5.64,5.64,0,0,0-2.24.42,4.714,4.714,0,0,0-1.66,1.17,5.017,5.017,0,0,0-1.03,1.78,6.889,6.889,0,0,0-.35,2.23,5.791,5.791,0,0,0,.38,2.13,4.964,4.964,0,0,0,1.06,1.67A4.723,4.723,0,0,0,44.93-.13a5.659,5.659,0,0,0,2.13.39A5.164,5.164,0,0,0,50.44-.82a4.685,4.685,0,0,0,1.6-3.14H49.3a2.7,2.7,0,0,1-.69,1.53,2.081,2.081,0,0,1-1.57.57,2.006,2.006,0,0,1-1.12-.3,2.241,2.241,0,0,1-.73-.77,3.527,3.527,0,0,1-.39-1.05,5.617,5.617,0,0,1-.12-1.14,5.858,5.858,0,0,1,.12-1.17,3.455,3.455,0,0,1,.41-1.08,2.464,2.464,0,0,1,.75-.8,1.994,1.994,0,0,1,1.14-.31A1.9,1.9,0,0,1,49.2-6.7Zm7.36-5.24v-2.34H53.72v2.34Zm-2.84,1.6V0h2.84V-10.34Zm7.6,5.18a6.056,6.056,0,0,0,.12,1.21,3.223,3.223,0,0,0,.41,1.06,2.184,2.184,0,0,0,.77.75,2.35,2.35,0,0,0,1.2.28,2.407,2.407,0,0,0,1.21-.28,2.159,2.159,0,0,0,.78-.75,3.223,3.223,0,0,0,.41-1.06,6.056,6.056,0,0,0,.12-1.21,6.205,6.205,0,0,0-.12-1.22,3.113,3.113,0,0,0-.41-1.06,2.274,2.274,0,0,0-.78-.75,2.34,2.34,0,0,0-1.21-.29,2.285,2.285,0,0,0-1.2.29,2.3,2.3,0,0,0-.77.75,3.113,3.113,0,0,0-.41,1.06A6.205,6.205,0,0,0,61.32-5.16Zm-2.84,0a6.347,6.347,0,0,1,.38-2.25,4.842,4.842,0,0,1,1.08-1.72,4.84,4.84,0,0,1,1.68-1.1,5.906,5.906,0,0,1,2.2-.39,5.984,5.984,0,0,1,2.21.39,4.82,4.82,0,0,1,1.69,1.1A4.842,4.842,0,0,1,68.8-7.41a6.347,6.347,0,0,1,.38,2.25,6.265,6.265,0,0,1-.38,2.24,4.859,4.859,0,0,1-1.08,1.71A4.707,4.707,0,0,1,66.03-.12a6.125,6.125,0,0,1-2.21.38,6.044,6.044,0,0,1-2.2-.38,4.724,4.724,0,0,1-1.68-1.09,4.859,4.859,0,0,1-1.08-1.71A6.265,6.265,0,0,1,58.48-5.16ZM67.56-15.7,64.3-12.16H62.32l2.12-3.54Zm3.46,5.36V0h2.84V-5.42a3.836,3.836,0,0,1,.52-2.27,1.968,1.968,0,0,1,1.68-.69,1.549,1.549,0,0,1,1.42.63,3.624,3.624,0,0,1,.4,1.91V0h2.84V-6.36a8.334,8.334,0,0,0-.17-1.75,3.328,3.328,0,0,0-.59-1.34,2.772,2.772,0,0,0-1.15-.86,4.823,4.823,0,0,0-1.87-.31,4.049,4.049,0,0,0-1.76.41,3.259,3.259,0,0,0-1.4,1.31h-.06v-1.44ZM95.78-5.2a6.309,6.309,0,0,1-.12,1.24,3.361,3.361,0,0,1-.4,1.07,2.127,2.127,0,0,1-.75.75,2.252,2.252,0,0,1-1.17.28,2.11,2.11,0,0,1-1.13-.29,2.5,2.5,0,0,1-.78-.76,3.277,3.277,0,0,1-.45-1.07,5.266,5.266,0,0,1-.14-1.2,5.7,5.7,0,0,1,.13-1.23,3.271,3.271,0,0,1,.42-1.05,2.214,2.214,0,0,1,.77-.74,2.307,2.307,0,0,1,1.18-.28,2.2,2.2,0,0,1,1.16.28,2.308,2.308,0,0,1,.75.73,3.006,3.006,0,0,1,.41,1.04A6.159,6.159,0,0,1,95.78-5.2Zm.04,3.88V0h2.7V-14.28H95.68v5.2h-.04a3.049,3.049,0,0,0-1.31-1.15,4.066,4.066,0,0,0-1.75-.39,4.254,4.254,0,0,0-2,.45,4.288,4.288,0,0,0-1.43,1.19,5.224,5.224,0,0,0-.86,1.71A6.979,6.979,0,0,0,88-5.26a7.43,7.43,0,0,0,.29,2.08,5.537,5.537,0,0,0,.86,1.77A4.1,4.1,0,0,0,90.6-.19a4.421,4.421,0,0,0,2.04.45,4.356,4.356,0,0,0,1.83-.37,2.93,2.93,0,0,0,1.31-1.21Zm11.8-4.96H103a3.26,3.26,0,0,1,.13-.68,2.088,2.088,0,0,1,.38-.72,2.151,2.151,0,0,1,.72-.57,2.471,2.471,0,0,1,1.13-.23,2,2,0,0,1,1.55.56A3.282,3.282,0,0,1,107.62-6.28ZM103-4.48h7.46a7.3,7.3,0,0,0-.2-2.3,5.63,5.63,0,0,0-.91-1.96,4.59,4.59,0,0,0-1.61-1.37,4.917,4.917,0,0,0-2.3-.51,5.355,5.355,0,0,0-2.15.42,5.083,5.083,0,0,0-1.67,1.15,5.069,5.069,0,0,0-1.08,1.73,6.031,6.031,0,0,0-.38,2.16,6.3,6.3,0,0,0,.37,2.2,5,5,0,0,0,1.05,1.72,4.574,4.574,0,0,0,1.66,1.11,5.906,5.906,0,0,0,2.2.39,5.416,5.416,0,0,0,3-.8,4.746,4.746,0,0,0,1.84-2.66h-2.5a1.784,1.784,0,0,1-.76.91,2.532,2.532,0,0,1-1.48.43,2.539,2.539,0,0,1-1.84-.62A2.871,2.871,0,0,1,103-4.48ZM8.12,18.3H10.9a3.775,3.775,0,0,0-1.57-2.95,4.724,4.724,0,0,0-1.52-.73,6.483,6.483,0,0,0-1.77-.24,5.64,5.64,0,0,0-2.24.42,4.714,4.714,0,0,0-1.66,1.17,5.017,5.017,0,0,0-1.03,1.78,6.889,6.889,0,0,0-.35,2.23,5.791,5.791,0,0,0,.38,2.13A4.964,4.964,0,0,0,2.2,23.78a4.723,4.723,0,0,0,1.65,1.09,5.659,5.659,0,0,0,2.13.39,5.164,5.164,0,0,0,3.38-1.08,4.685,4.685,0,0,0,1.6-3.14H8.22a2.7,2.7,0,0,1-.69,1.53,2.081,2.081,0,0,1-1.57.57,2.006,2.006,0,0,1-1.12-.3,2.241,2.241,0,0,1-.73-.77,3.527,3.527,0,0,1-.39-1.05,5.617,5.617,0,0,1-.12-1.14,5.858,5.858,0,0,1,.12-1.17,3.456,3.456,0,0,1,.41-1.08,2.464,2.464,0,0,1,.75-.8,1.994,1.994,0,0,1,1.14-.31A1.9,1.9,0,0,1,8.12,18.3Zm4.32-.46a3.3,3.3,0,0,1,.5-1.66,3.4,3.4,0,0,1,1.12-1.06,4.881,4.881,0,0,1,1.53-.57,8.7,8.7,0,0,1,1.71-.17,11.589,11.589,0,0,1,1.58.11,4.833,4.833,0,0,1,1.46.43,2.877,2.877,0,0,1,1.08.89,2.487,2.487,0,0,1,.42,1.51V22.7a10.8,10.8,0,0,0,.08,1.34,2.422,2.422,0,0,0,.28.96H19.32a4.076,4.076,0,0,1-.13-.49,4.267,4.267,0,0,1-.07-.51,3.7,3.7,0,0,1-1.6.98,6.422,6.422,0,0,1-1.88.28,5.079,5.079,0,0,1-1.38-.18,3.16,3.16,0,0,1-1.12-.56,2.607,2.607,0,0,1-.75-.96,3.246,3.246,0,0,1-.27-1.38,3.015,3.015,0,0,1,.31-1.45,2.592,2.592,0,0,1,.8-.91,3.584,3.584,0,0,1,1.12-.51,11.956,11.956,0,0,1,1.27-.27q.64-.1,1.26-.16a7.577,7.577,0,0,0,1.1-.18,1.918,1.918,0,0,0,.76-.35.768.768,0,0,0,.26-.67,1.507,1.507,0,0,0-.15-.73,1.1,1.1,0,0,0-.4-.42,1.574,1.574,0,0,0-.58-.2,4.746,4.746,0,0,0-.71-.05,2.156,2.156,0,0,0-1.32.36,1.607,1.607,0,0,0-.56,1.2ZM19,19.94a1.274,1.274,0,0,1-.45.25,4.6,4.6,0,0,1-.58.15q-.31.06-.65.1t-.68.1a5.128,5.128,0,0,0-.63.16,1.863,1.863,0,0,0-.54.27,1.283,1.283,0,0,0-.37.43,1.383,1.383,0,0,0-.14.66,1.336,1.336,0,0,0,.14.64,1.073,1.073,0,0,0,.38.41,1.6,1.6,0,0,0,.56.21,3.574,3.574,0,0,0,.66.06A2.511,2.511,0,0,0,18,23.1a1.873,1.873,0,0,0,.68-.67,2.143,2.143,0,0,0,.27-.79A5.427,5.427,0,0,0,19,21Zm5.04-5.28V25h2.84V19.58a3.836,3.836,0,0,1,.52-2.27,1.968,1.968,0,0,1,1.68-.69,1.549,1.549,0,0,1,1.42.63,3.624,3.624,0,0,1,.4,1.91V25h2.84V18.64a8.334,8.334,0,0,0-.17-1.75,3.328,3.328,0,0,0-.59-1.34,2.772,2.772,0,0,0-1.15-.86,4.823,4.823,0,0,0-1.87-.31,4.048,4.048,0,0,0-1.76.41,3.259,3.259,0,0,0-1.4,1.31h-.06V14.66Zm19.2,5.14a6.309,6.309,0,0,1-.12,1.24,3.361,3.361,0,0,1-.4,1.07,2.127,2.127,0,0,1-.75.75,2.252,2.252,0,0,1-1.17.28,2.11,2.11,0,0,1-1.13-.29,2.5,2.5,0,0,1-.78-.76,3.277,3.277,0,0,1-.45-1.07,5.265,5.265,0,0,1-.14-1.2,5.7,5.7,0,0,1,.13-1.23,3.271,3.271,0,0,1,.42-1.05,2.214,2.214,0,0,1,.77-.74,2.307,2.307,0,0,1,1.18-.28,2.2,2.2,0,0,1,1.16.28,2.308,2.308,0,0,1,.75.73,3.006,3.006,0,0,1,.41,1.04A6.158,6.158,0,0,1,43.24,19.8Zm.04,3.88V25h2.7V10.72H43.14v5.2H43.1a3.049,3.049,0,0,0-1.31-1.15,4.066,4.066,0,0,0-1.75-.39,4.175,4.175,0,0,0-3.43,1.64,5.224,5.224,0,0,0-.86,1.71,6.979,6.979,0,0,0-.29,2.01,7.43,7.43,0,0,0,.29,2.08,5.537,5.537,0,0,0,.86,1.77,4.1,4.1,0,0,0,1.45,1.22,4.421,4.421,0,0,0,2.04.45,4.356,4.356,0,0,0,1.83-.37,2.93,2.93,0,0,0,1.31-1.21Zm7.76-10.62V10.72H48.2v2.34Zm-2.84,1.6V25h2.84V14.66ZM60.62,19.8a6.308,6.308,0,0,1-.12,1.24,3.361,3.361,0,0,1-.4,1.07,2.127,2.127,0,0,1-.75.75,2.252,2.252,0,0,1-1.17.28,2.11,2.11,0,0,1-1.13-.29,2.5,2.5,0,0,1-.78-.76,3.277,3.277,0,0,1-.45-1.07,5.265,5.265,0,0,1-.14-1.2,5.7,5.7,0,0,1,.13-1.23,3.271,3.271,0,0,1,.42-1.05A2.214,2.214,0,0,1,57,16.8a2.307,2.307,0,0,1,1.18-.28,2.2,2.2,0,0,1,1.16.28,2.308,2.308,0,0,1,.75.73,3.006,3.006,0,0,1,.41,1.04A6.158,6.158,0,0,1,60.62,19.8Zm.04,3.88V25h2.7V10.72H60.52v5.2h-.04a3.049,3.049,0,0,0-1.31-1.15,4.066,4.066,0,0,0-1.75-.39,4.175,4.175,0,0,0-3.43,1.64,5.224,5.224,0,0,0-.86,1.71,6.979,6.979,0,0,0-.29,2.01,7.43,7.43,0,0,0,.29,2.08,5.537,5.537,0,0,0,.86,1.77,4.1,4.1,0,0,0,1.45,1.22,4.421,4.421,0,0,0,2.04.45,4.356,4.356,0,0,0,1.83-.37,2.93,2.93,0,0,0,1.31-1.21Zm4.72-5.84a3.3,3.3,0,0,1,.5-1.66A3.4,3.4,0,0,1,67,15.12a4.881,4.881,0,0,1,1.53-.57,8.7,8.7,0,0,1,1.71-.17,11.589,11.589,0,0,1,1.58.11,4.833,4.833,0,0,1,1.46.43,2.877,2.877,0,0,1,1.08.89,2.487,2.487,0,0,1,.42,1.51V22.7a10.8,10.8,0,0,0,.08,1.34,2.422,2.422,0,0,0,.28.96H72.26a4.076,4.076,0,0,1-.13-.49,4.267,4.267,0,0,1-.07-.51,3.7,3.7,0,0,1-1.6.98,6.422,6.422,0,0,1-1.88.28,5.079,5.079,0,0,1-1.38-.18,3.16,3.16,0,0,1-1.12-.56,2.607,2.607,0,0,1-.75-.96,3.246,3.246,0,0,1-.27-1.38,3.015,3.015,0,0,1,.31-1.45,2.592,2.592,0,0,1,.8-.91,3.584,3.584,0,0,1,1.12-.51,11.956,11.956,0,0,1,1.27-.27q.64-.1,1.26-.16a7.577,7.577,0,0,0,1.1-.18,1.918,1.918,0,0,0,.76-.35.768.768,0,0,0,.26-.67,1.507,1.507,0,0,0-.15-.73,1.1,1.1,0,0,0-.4-.42,1.574,1.574,0,0,0-.58-.2,4.746,4.746,0,0,0-.71-.05,2.156,2.156,0,0,0-1.32.36,1.607,1.607,0,0,0-.56,1.2Zm6.56,2.1a1.274,1.274,0,0,1-.45.25,4.6,4.6,0,0,1-.58.15q-.31.06-.65.1t-.68.1a5.128,5.128,0,0,0-.63.16,1.863,1.863,0,0,0-.54.27,1.283,1.283,0,0,0-.37.43,1.383,1.383,0,0,0-.14.66,1.336,1.336,0,0,0,.14.64,1.073,1.073,0,0,0,.38.41,1.6,1.6,0,0,0,.56.21,3.574,3.574,0,0,0,.66.06,2.511,2.511,0,0,0,1.3-.28,1.873,1.873,0,0,0,.68-.67,2.143,2.143,0,0,0,.27-.79,5.427,5.427,0,0,0,.05-.64Zm8.64-5.28v-3.1H77.74v3.1H76.02v1.9h1.72v6.1A2.642,2.642,0,0,0,78,23.92a1.853,1.853,0,0,0,.71.74,2.948,2.948,0,0,0,1.04.35A8.291,8.291,0,0,0,81,25.1q.42,0,.86-.02a6.758,6.758,0,0,0,.8-.08V22.8a3.979,3.979,0,0,1-.42.06q-.22.02-.46.02a1.39,1.39,0,0,1-.96-.24,1.39,1.39,0,0,1-.24-.96V16.56h2.08v-1.9Zm5.96,5.18a6.205,6.205,0,0,1,.12-1.22,3.112,3.112,0,0,1,.41-1.06,2.184,2.184,0,0,1,1.97-1.04,2.34,2.34,0,0,1,1.21.29,2.274,2.274,0,0,1,.78.75,3.113,3.113,0,0,1,.41,1.06,6.205,6.205,0,0,1,.12,1.22,6.056,6.056,0,0,1-.12,1.21,3.223,3.223,0,0,1-.41,1.06,2.159,2.159,0,0,1-.78.75,2.407,2.407,0,0,1-1.21.28,2.35,2.35,0,0,1-1.2-.28,2.184,2.184,0,0,1-.77-.75,3.223,3.223,0,0,1-.41-1.06A6.056,6.056,0,0,1,86.54,19.84Zm-2.84,0a6.265,6.265,0,0,0,.38,2.24,4.859,4.859,0,0,0,1.08,1.71,4.724,4.724,0,0,0,1.68,1.09,6.044,6.044,0,0,0,2.2.38,6.125,6.125,0,0,0,2.21-.38,4.707,4.707,0,0,0,1.69-1.09,4.859,4.859,0,0,0,1.08-1.71,6.265,6.265,0,0,0,.38-2.24,6.347,6.347,0,0,0-.38-2.25,4.709,4.709,0,0,0-2.77-2.82,5.984,5.984,0,0,0-2.21-.39,5.906,5.906,0,0,0-2.2.39,4.729,4.729,0,0,0-2.76,2.82A6.347,6.347,0,0,0,83.7,19.84Zm12.66,2.08V25H99.5V21.92Z" transform="translate(1075.611 3362.509)" fill="#0c0a3e"/>
    <g id="documento" transform="translate(744 3494.035)">
      <path id="Trazado_198067" data-name="Trazado 198067" d="M361.882,109.433h-7.4l-2.48-2.48L352.037,40l2.443.44,18.6,3.279Z" transform="translate(-283.925 -20.28)" fill="#d0eae2"/>
      <path id="Trazado_198068" data-name="Trazado 198068" d="M395.683,190.659H392v-2.48h2.636l9.119-53.523,2.445.417L396.9,189.627A1.24,1.24,0,0,1,395.683,190.659Z" transform="translate(-317.726 -100.266)"/>
      <path id="Trazado_198069" data-name="Trazado 198069" d="M405.448,51.926,403,51.509l1.272-7.463-13.665-2.41.431-2.442,14.879,2.624a1.24,1.24,0,0,1,1.007,1.429Z" transform="translate(-316.552 -19.599)"/>
      <g id="Grupo_146639" data-name="Grupo 146639" transform="translate(16 16)">
        <path id="Trazado_198070" data-name="Trazado 198070" d="M24,24H77.315V95.913H24Z" transform="translate(-22.76 -22.76)" fill="#fff"/>
        <rect id="Rect치ngulo_45047" data-name="Rect치ngulo 45047" width="12.399" height="12.399" rx="6.199" transform="translate(7.439 37.196)" fill="#fcfeff"/>
        <rect id="Rect치ngulo_45048" data-name="Rect치ngulo 45048" width="12.399" height="12.399" rx="6.199" transform="translate(7.439 55.794)" fill="#fcfeff"/>
        <path id="Trazado_198071" data-name="Trazado 198071" d="M70.555,90.393H17.24A1.24,1.24,0,0,1,16,89.153v-18.6h2.48V87.913H69.315V18.48H18.48v49.6H16V17.24A1.24,1.24,0,0,1,17.24,16H70.555a1.24,1.24,0,0,1,1.24,1.24V89.153A1.24,1.24,0,0,1,70.555,90.393Z" transform="translate(-16 -16)"/>
        <g id="Grupo_146638" data-name="Grupo 146638" transform="translate(6.199 35.956)">
          <g id="Grupo_146636" data-name="Grupo 146636" transform="translate(0 0)">
            <path id="Trazado_198072" data-name="Trazado 198072" d="M86.939,261.519a1.24,1.24,0,0,1-.877-.363l-3.72-3.72,1.753-1.754,2.773,2.773,6.568-7.663,1.883,1.614-7.439,8.679a1.24,1.24,0,0,1-.894.432Z" transform="translate(-78.26 -250.36)"/>
            <path id="Trazado_198073" data-name="Trazado 198073" d="M66.539,262.879h-6.2a4.345,4.345,0,0,1-4.34-4.34v-6.2A4.345,4.345,0,0,1,60.34,248h5.579v2.48H60.34a1.862,1.862,0,0,0-1.86,1.86v6.2a1.862,1.862,0,0,0,1.86,1.86h6.2a1.862,1.862,0,0,0,1.86-1.86v-.62h2.48v.62A4.345,4.345,0,0,1,66.539,262.879Z" transform="translate(-56 -248)"/>
          </g>
          <g id="Grupo_146637" data-name="Grupo 146637" transform="translate(0 18.598)">
            <path id="Trazado_198074" data-name="Trazado 198074" d="M86.939,381.519a1.24,1.24,0,0,1-.877-.363l-3.72-3.72,1.753-1.754,2.773,2.773,6.568-7.663,1.883,1.614-7.439,8.679a1.24,1.24,0,0,1-.894.432Z" transform="translate(-78.26 -370.36)"/>
            <path id="Trazado_198075" data-name="Trazado 198075" d="M66.539,382.879h-6.2a4.345,4.345,0,0,1-4.34-4.34v-6.2A4.345,4.345,0,0,1,60.34,368h5.579v2.48H60.34a1.862,1.862,0,0,0-1.86,1.86v6.2a1.862,1.862,0,0,0,1.86,1.86h6.2a1.862,1.862,0,0,0,1.86-1.86v-.62h2.48v.62A4.345,4.345,0,0,1,66.539,382.879Z" transform="translate(-56 -368)"/>
          </g>
          <path id="Trazado_198076" data-name="Trazado 198076" d="M184,368h18.6v2.48H184Z" transform="translate(-164.162 -349.402)"/>
          <path id="Trazado_198077" data-name="Trazado 198077" d="M184,408h6.2v2.48H184Z" transform="translate(-164.162 -383.202)"/>
        </g>
        <path id="Trazado_198078" data-name="Trazado 198078" d="M240,408h9.919v2.48H240Z" transform="translate(-205.283 -347.246)"/>
        <path id="Trazado_198079" data-name="Trazado 198079" d="M184,248h18.6v2.48H184Z" transform="translate(-157.963 -212.044)"/>
        <path id="Trazado_198080" data-name="Trazado 198080" d="M184,288h6.2v2.48H184Z" transform="translate(-157.963 -245.844)"/>
        <path id="Trazado_198081" data-name="Trazado 198081" d="M240,288h9.919v2.48H240Z" transform="translate(-205.283 -245.844)"/>
        <path id="Trazado_198082" data-name="Trazado 198082" d="M136.45,78.817a19.059,19.059,0,0,1-7.522-11.95l-.929-5.9L139.143,56l11.143,4.969-.938,5.946a19.053,19.053,0,0,1-7.62,12.02l-2.575,1.872Z" transform="translate(-110.642 -49.801)" fill="#fcfeff"/>
        <path id="Trazado_198083" data-name="Trazado 198083" d="M132.4,75.287a1.237,1.237,0,0,1-.735-.241l-2.7-1.991a20.3,20.3,0,0,1-8.006-12.727c0-.01,0-.019,0-.029l-.929-5.9a1.24,1.24,0,0,1,.72-1.325l11.143-4.969a1.24,1.24,0,0,1,1.01,0l11.143,4.969a1.24,1.24,0,0,1,.72,1.326l-.939,5.946c0,.01,0,.019,0,.029a20.289,20.289,0,0,1-8.111,12.8l-2.575,1.872A1.238,1.238,0,0,1,132.4,75.287Zm-9-15.389a17.825,17.825,0,0,0,7.034,11.159L132.4,72.51l1.841-1.339a17.819,17.819,0,0,0,7.126-11.226l.788-4.993L132.385,50.6l-9.771,4.357Z" transform="translate(-103.883 -43.04)"/>
        <path id="Trazado_198084" data-name="Trazado 198084" d="M166.749,107.957a1.236,1.236,0,0,1-.877-.363l-3.72-3.72,1.753-1.754,2.843,2.843,6.563-6.563,1.753,1.753-7.439,7.439a1.236,1.236,0,0,1-.877.364Z" transform="translate(-139.502 -85.629)"/>
        <path id="Trazado_198085" data-name="Trazado 198085" d="M56,48h7.439v2.48H56Z" transform="translate(-49.801 -43.041)"/>
        <path id="Trazado_198086" data-name="Trazado 198086" d="M56,80h4.96v2.48H56Z" transform="translate(-49.801 -70.081)"/>
        <path id="Trazado_198087" data-name="Trazado 198087" d="M296,48h2.48v2.48H296Z" transform="translate(-252.604 -43.041)"/>
        <path id="Trazado_198088" data-name="Trazado 198088" d="M328,48h2.48v2.48H328Z" transform="translate(-279.645 -43.041)"/>
      </g>
    </g>
    <g id="candidato" transform="translate(413.387 3510.035)">
      <path id="Trazado_198089" data-name="Trazado 198089" d="M197.6,456v4.8H176V456Zm0,0" transform="translate(-149.603 -387.607)" fill="#ffa400"/>
      <path id="Trazado_198090" data-name="Trazado 198090" d="M186,244v-4.8l-2.856-2.856a2.544,2.544,0,0,1,1.8-4.344h.168a2.544,2.544,0,0,1,1.584.552l4.4,3.528a2.407,2.407,0,0,1,.9,1.872v16.043a2.362,2.362,0,0,1-.48,1.44l-2.64,3.528a2.362,2.362,0,0,0-.48,1.44v5.2H171.6v-5.2a2.362,2.362,0,0,0-.48-1.44l-2.64-3.528a2.362,2.362,0,0,1-.48-1.44V244Zm0,0" transform="translate(-142.803 -197.203)" fill="#fff"/>
      <g id="Grupo_146640" data-name="Grupo 146640" transform="translate(1.2 1.2)">
        <path id="Trazado_198091" data-name="Trazado 198091" d="M352,56v45.6H328V94.4h4.8V84.557a12.2,12.2,0,0,0,2.4.24,12,12,0,0,0,0-24,12.2,12.2,0,0,0-2.4.24V56Zm0,0" transform="translate(-280.005 -48.801)" fill="#e6e9ed"/>
        <path id="Trazado_198092" data-name="Trazado 198092" d="M27.2,84.557V94.4H32v7.2H8V56H27.2v5.04a12.2,12.2,0,0,0-2.4-.24,12,12,0,0,0,0,24A12.2,12.2,0,0,0,27.2,84.557Zm0,0" transform="translate(-8 -48.801)" fill="#e6e9ed"/>
        <path id="Trazado_198093" data-name="Trazado 198093" d="M136,53.6V8h33.6V53.6h-4.8V47.548a2.407,2.407,0,0,0-.9-1.872l-4.4-3.528a2.544,2.544,0,0,0-1.584-.552h-.168a2.545,2.545,0,0,0-1.8,4.344L158.8,48.8v4.8Zm0,0" transform="translate(-116.802 -8)" fill="#e6e9ed"/>
      </g>
      <path id="Trazado_198094" data-name="Trazado 198094" d="M362.4,88a12,12,0,0,1,8.483,20.482l-.084-.084a8.393,8.393,0,0,0-8.4-8.4,3.6,3.6,0,1,0-2.4-6.288V88.24A12.2,12.2,0,0,1,362.4,88Zm0,0" transform="translate(-306.005 -74.801)" fill="#d0eae2"/>
      <path id="Trazado_198095" data-name="Trazado 198095" d="M180,40a12,12,0,0,1,8.483,20.482L188.4,60.4A8.4,8.4,0,0,0,180,52a3.6,3.6,0,1,0-3.6-3.6A3.595,3.595,0,0,0,180,52a8.393,8.393,0,0,0-8.4,8.4l-.084.084A12,12,0,0,1,180,40Zm0,0" transform="translate(-142.803 -34.001)" fill="#ffa400"/>
      <path id="Trazado_198096" data-name="Trazado 198096" d="M54.4,88.24v5.471A3.6,3.6,0,1,0,52,100a8.393,8.393,0,0,0-8.4,8.4l-.084.084A12,12,0,0,1,52,88,12.2,12.2,0,0,1,54.4,88.24Zm0,0" transform="translate(-34.001 -74.801)" fill="#d0eae2"/>
      <path id="Trazado_198097" data-name="Trazado 198097" d="M370.8,176.4l.084.084A11.962,11.962,0,0,1,362.4,180a12.2,12.2,0,0,1-2.4-.24V168.348a8.289,8.289,0,0,1,2.4-.348A8.393,8.393,0,0,1,370.8,176.4Zm0,0" transform="translate(-306.005 -142.803)" fill="#ff826e"/>
      <path id="Trazado_198098" data-name="Trazado 198098" d="M74.324,168.348v11.411a12.2,12.2,0,0,1-2.4.24,11.961,11.961,0,0,1-8.483-3.516l.084-.084a8.393,8.393,0,0,1,8.4-8.4A8.289,8.289,0,0,1,74.324,168.348Zm0,0" transform="translate(-53.926 -142.803)" fill="#d0eae2"/>
      <path id="Trazado_198099" data-name="Trazado 198099" d="M362.4,120a3.6,3.6,0,1,1-2.4,6.288v-5.376A3.608,3.608,0,0,1,362.4,120Zm0,0" transform="translate(-306.005 -102.002)" fill="#f0d0b4"/>
      <path id="Trazado_198100" data-name="Trazado 198100" d="M102,120.912v5.376a3.6,3.6,0,1,1,0-5.376Zm0,0" transform="translate(-81.601 -102.002)" fill="#f0d0b4"/>
      <path id="Trazado_198101" data-name="Trazado 198101" d="M208.324,128.4l.084.084a11.992,11.992,0,0,1-16.966,0l.084-.084a8.4,8.4,0,1,1,16.8,0Zm0,0" transform="translate(-162.728 -102.002)" fill="#d0eae2"/>
      <path id="Trazado_198102" data-name="Trazado 198102" d="M231.2,75.6a3.6,3.6,0,1,1-3.6-3.6A3.6,3.6,0,0,1,231.2,75.6Zm0,0" transform="translate(-190.403 -61.201)" fill="#f0d0b4"/>
      <path id="Trazado_198103" data-name="Trazado 198103" d="M173.2,58.4A13.2,13.2,0,1,0,160,45.2,13.214,13.214,0,0,0,173.2,58.4Zm-7.181-5.156a7.189,7.189,0,0,1,14.362,0,10.734,10.734,0,0,1-14.362,0ZM170.8,41.6a2.4,2.4,0,1,1,2.4,2.4A2.4,2.4,0,0,1,170.8,41.6Zm2.4-7.2a10.778,10.778,0,0,1,9.191,16.441,9.642,9.642,0,0,0-5.569-6.127,4.8,4.8,0,1,0-7.244,0,9.636,9.636,0,0,0-5.569,6.127A10.776,10.776,0,0,1,173.2,34.4Zm0,0" transform="translate(-136.002 -27.2)"/>
      <path id="Trazado_198104" data-name="Trazado 198104" d="M48,448h2.4v2.4H48Zm0,0" transform="translate(-40.801 -380.807)"/>
      <path id="Trazado_198105" data-name="Trazado 198105" d="M48,480h2.4v2.4H48Zm0,0" transform="translate(-40.801 -408.007)"/>
      <path id="Trazado_198106" data-name="Trazado 198106" d="M80,352h2.4v21.6H80Zm0,0" transform="translate(-68.001 -299.205)"/>
      <path id="Trazado_198107" data-name="Trazado 198107" d="M112,416h2.4v2.4H112Zm0,0" transform="translate(-95.202 -353.606)"/>
      <path id="Trazado_198108" data-name="Trazado 198108" d="M112,448h2.4v7.2H112Zm0,0" transform="translate(-95.202 -380.807)"/>
      <path id="Trazado_198109" data-name="Trazado 198109" d="M160,240h2.4v2.4H160Zm0,0" transform="translate(-136.002 -204.004)"/>
      <path id="Trazado_198110" data-name="Trazado 198110" d="M192,240h7.2v2.4H192Zm0,0" transform="translate(-163.203 -204.004)"/>
      <path id="Trazado_198111" data-name="Trazado 198111" d="M160,272h12v2.4H160Zm0,0" transform="translate(-136.002 -231.204)"/>
      <path id="Trazado_198112" data-name="Trazado 198112" d="M32,288H44v2.4H32Zm0,0" transform="translate(-27.2 -244.804)"/>
      <path id="Trazado_198113" data-name="Trazado 198113" d="M32,320H44v2.4H32Zm0,0" transform="translate(-27.2 -272.005)"/>
      <path id="Trazado_198114" data-name="Trazado 198114" d="M55.194,7.2V0h-36V7.2H0v48H7.2v9.6H9.6v-12H2.4V9.6H19.2v2.46c-.4-.036-.8-.06-1.2-.06a13.2,13.2,0,0,0,0,26.4c.4,0,.8-.024,1.2-.06V48H24v4.8H16.8v7.2h2.4v-4.8H24v1.6a3.614,3.614,0,0,0,.721,2.16l2.638,3.522a1.206,1.206,0,0,1,.24.72v4H25.2v7.2h24v-7.2H46.8v-4a1.211,1.211,0,0,1,.24-.721l2.638-3.519a3.614,3.614,0,0,0,.721-2.16v-1.6h4.8v4.8h2.4v-7.2h-7.2V48h4.8V38.336c.4.036.8.06,1.2.06a13.2,13.2,0,0,0,0-26.4c-.4,0-.8.024-1.2.06V9.6h16.8v43.2h-7.2v12h2.4v-9.6h7.2V7.2Zm1.2,16.8a2.4,2.4,0,0,1-1.2-.325V19.524A2.4,2.4,0,1,1,56.394,24ZM15.6,21.6a2.395,2.395,0,0,1,3.6-2.075v4.148A2.393,2.393,0,0,1,15.6,21.6ZM18,14.4a10.811,10.811,0,0,1,1.2.072v2.5A4.74,4.74,0,0,0,18,16.8a4.8,4.8,0,0,0-4.8,4.8,4.756,4.756,0,0,0,1.178,3.115A9.636,9.636,0,0,0,8.808,30.84,10.776,10.776,0,0,1,18,14.4ZM18,36a10.744,10.744,0,0,1-7.181-2.756A7.137,7.137,0,0,1,19.2,26.508v9.418A11.1,11.1,0,0,1,18,36Zm28.8,36H27.6v-2.4H46.8Zm1.2-15.2a1.211,1.211,0,0,1-.24.721l-2.638,3.519a3.614,3.614,0,0,0-.721,2.16v4H30v-4a3.614,3.614,0,0,0-.721-2.16l-2.638-3.521a1.2,1.2,0,0,1-.24-.72V48h2.4v6h2.4V48h2.4v6H36V48h4.439a9.809,9.809,0,0,0-2.039,6h2.4a7.441,7.441,0,0,1,2.194-5.3L44.4,47.292V41.5L41.19,38.293a1.346,1.346,0,0,1,.951-2.3H42.3a1.344,1.344,0,0,1,.84.3l4.4,3.521a1.194,1.194,0,0,1,.451.937Zm4.8-11.2h-2.4V40.749a3.583,3.583,0,0,0-1.351-2.811l-4.4-3.522a3.769,3.769,0,0,0-2.34-.82h-.162a3.745,3.745,0,0,0-2.648,6.393l2.5,2.5v3.1H21.6V2.4h31.2Zm2.4-9.671V26.506a7.334,7.334,0,0,1,1.2-.109,7.2,7.2,0,0,1,7.181,6.843,10.638,10.638,0,0,1-8.381,2.684Zm1.2-21.526A10.778,10.778,0,0,1,65.586,30.84a9.642,9.642,0,0,0-5.569-6.127,4.756,4.756,0,0,0-4.822-7.743v-2.5A10.811,10.811,0,0,1,56.394,14.4Zm0,0"/>
      <path id="Trazado_198115" data-name="Trazado 198115" d="M432,448h2.4v2.4H432Zm0,0" transform="translate(-367.206 -380.807)"/>
      <path id="Trazado_198116" data-name="Trazado 198116" d="M432,480h2.4v2.4H432Zm0,0" transform="translate(-367.206 -408.007)"/>
      <path id="Trazado_198117" data-name="Trazado 198117" d="M400,352h2.4v21.6H400Zm0,0" transform="translate(-340.006 -299.205)"/>
      <path id="Trazado_198118" data-name="Trazado 198118" d="M368,416h2.4v2.4H368Zm0,0" transform="translate(-312.806 -353.606)"/>
      <path id="Trazado_198119" data-name="Trazado 198119" d="M368,448h2.4v7.2H368Zm0,0" transform="translate(-312.806 -380.807)"/>
      <path id="Trazado_198120" data-name="Trazado 198120" d="M384,288h12v2.4H384Zm0,0" transform="translate(-326.406 -244.804)"/>
      <path id="Trazado_198121" data-name="Trazado 198121" d="M384,320h12v2.4H384Zm0,0" transform="translate(-326.406 -272.005)"/>
    </g>
    <g id="eleccion_1_" data-name="eleccion (1)" transform="translate(1045.408 3510.035)">
      <g id="Grupo_146654" data-name="Grupo 146654" transform="translate(51.599 1.09)">
        <path id="Trazado_198144" data-name="Trazado 198144" d="M112.608,64.742H60.943a2.935,2.935,0,0,1-2.935-2.935V10.435A2.935,2.935,0,0,1,60.943,7.5h51.665a2.935,2.935,0,0,1,2.935,2.935V61.807A2.935,2.935,0,0,1,112.608,64.742Z" transform="translate(-58.008 -7.5)" fill="#fff"/>
      </g>
      <g id="Grupo_146655" data-name="Grupo 146655" transform="translate(101.503 1.09)">
        <path id="Trazado_198145" data-name="Trazado 198145" d="M406.161,7.5h-4.7a2.935,2.935,0,0,1,2.935,2.935V61.807a2.935,2.935,0,0,1-2.935,2.935h4.7a2.935,2.935,0,0,0,2.935-2.935V10.435A2.935,2.935,0,0,0,406.161,7.5Z" transform="translate(-401.464 -7.5)" fill="#ddeafb"/>
      </g>
      <g id="Grupo_146658" data-name="Grupo 146658" transform="translate(71.561 29.271)">
        <g id="Grupo_146656" data-name="Grupo 146656">
          <path id="Trazado_198146" data-name="Trazado 198146" d="M221.918,217.013a2.936,2.936,0,0,0-3.043,2.934v-3.012a2.981,2.981,0,0,0-2.828-3A2.936,2.936,0,0,0,213,216.864V214a2.981,2.981,0,0,0-2.828-3,2.936,2.936,0,0,0-3.043,2.934v-9.47a2.981,2.981,0,0,0-2.828-3,2.936,2.936,0,0,0-3.043,2.934v17.173a2.935,2.935,0,1,0-5.871,0v12.72a5.871,5.871,0,0,0,1.174,3.523l2.642,3.523a2.936,2.936,0,0,1,.587,1.761v2.4h23.484V242.47a2.94,2.94,0,0,1,.088-.712l1.2-4.819a5.873,5.873,0,0,0,.175-1.424v-15.5a2.982,2.982,0,0,0-2.829-3Z" transform="translate(-195.392 -201.453)" fill="#fff"/>
        </g>
        <g id="Grupo_146657" data-name="Grupo 146657" transform="translate(4.16 21.564)">
          <path id="Trazado_198147" data-name="Trazado 198147" d="M249.217,362.365v-12.5c-3.229,10.432-13.65,17.331-25.195,18.9a2.934,2.934,0,0,1,.243,1.168v2.4h23.484V369.32a2.939,2.939,0,0,1,.088-.712l1.2-4.819A5.872,5.872,0,0,0,249.217,362.365Z" transform="translate(-224.022 -349.867)" fill="#e3e3e3"/>
        </g>
      </g>
      <g id="Grupo_146661" data-name="Grupo 146661" transform="translate(56.296 5.786)">
        <g id="Grupo_146659" data-name="Grupo 146659" transform="translate(0)">
          <path id="Trazado_198148" data-name="Trazado 198148" d="M93.017,58.612a2.684,2.684,0,0,1-2.684-2.684V42.509a2.684,2.684,0,0,1,2.684-2.684h13.419a2.684,2.684,0,0,1,2.684,2.684V55.928a2.684,2.684,0,0,1-2.684,2.684H93.017Z" transform="translate(-90.333 -39.825)" fill="#ffa400"/>
        </g>
      </g>
      <g id="Grupo_146664" data-name="Grupo 146664" transform="translate(85.651 5.786)">
        <g id="Grupo_146662" data-name="Grupo 146662" transform="translate(0)">
          <path id="Trazado_198150" data-name="Trazado 198150" d="M295.049,58.612a2.684,2.684,0,0,1-2.684-2.684V42.509a2.684,2.684,0,0,1,2.684-2.684h13.419a2.684,2.684,0,0,1,2.684,2.684V55.928a2.684,2.684,0,0,1-2.684,2.684H295.049Z" transform="translate(-292.365 -39.825)" fill="#d0eae2"/>
        </g>
      </g>
      <g id="Grupo_146667" data-name="Grupo 146667" transform="translate(50.51)">
        <path id="Trazado_198152" data-name="Trazado 198152" d="M106.2,0H54.535A4.029,4.029,0,0,0,50.51,4.025v42.16a1.09,1.09,0,1,0,2.179,0V4.025a1.847,1.847,0,0,1,1.845-1.845H106.2a1.847,1.847,0,0,1,1.845,1.845v6.166a1.09,1.09,0,1,0,2.179,0V4.025A4.029,4.029,0,0,0,106.2,0Z" transform="translate(-50.51)"/>
        <path id="Trazado_198153" data-name="Trazado 198153" d="M390.6,97.64a1.09,1.09,0,0,0-1.09,1.09v40.12a1.847,1.847,0,0,1-1.845,1.845h-4.195v-1.21a1.09,1.09,0,1,0-2.179,0v7.3a4.807,4.807,0,0,1-.142,1.159l-1.207,4.82a4.045,4.045,0,0,0-.119.975v3.015a1.09,1.09,0,0,0,2.179,0v-3.015a1.862,1.862,0,0,1,.055-.447l1.206-4.819a6.985,6.985,0,0,0,.207-1.687v-3.913h4.195a4.029,4.029,0,0,0,4.025-4.025V98.73a1.09,1.09,0,0,0-1.09-1.09Z" transform="translate(-331.972 -83.453)"/>
        <path id="Trazado_198154" data-name="Trazado 198154" d="M99.826,213.6v3.111a1.09,1.09,0,1,0,2.179,0V213.6a4.1,4.1,0,0,0-3.878-4.094,4,4,0,0,0-2.029.462,4.09,4.09,0,0,0-3.843-3.544,4,4,0,0,0-2.047.472,4.021,4.021,0,0,0-5.816-2.965v-5.89a4.1,4.1,0,0,0-3.879-4.094,4.026,4.026,0,0,0-4.17,4.023v13.6a4.026,4.026,0,0,0-5.871,3.576v7.864H54.535a1.847,1.847,0,0,1-1.845-1.845v-4.126a1.09,1.09,0,0,0-2.179,0v4.126a4.029,4.029,0,0,0,4.025,4.025H70.471v2.678a7.006,7.006,0,0,0,1.392,4.176l2.642,3.524a1.854,1.854,0,0,1,.37,1.106v2.4a1.09,1.09,0,0,0,2.179,0v-2.4a4.046,4.046,0,0,0-.806-2.415l-2.642-3.523a4.812,4.812,0,0,1-.956-2.868V215.146a1.846,1.846,0,0,1,3.692,0s0,0,0,0v7.034l-1,1a1.09,1.09,0,1,0,1.541,1.541L78.2,223.4a1.089,1.089,0,0,0,.319-.771v-7.478s0-.006,0-.008V197.973a1.846,1.846,0,0,1,1.914-1.845,1.9,1.9,0,0,1,1.777,1.916v18.57a1.09,1.09,0,0,0,2.179,0v-9.1s0,0,0,0a1.847,1.847,0,0,1,1.914-1.841,1.9,1.9,0,0,1,1.778,1.916v9.03a1.09,1.09,0,1,0,2.179,0V210.45a1.846,1.846,0,0,1,1.914-1.845,1.9,1.9,0,0,1,1.778,1.914v6.095a1.09,1.09,0,0,0,2.179,0v-3.071s0-.007,0-.011a1.845,1.845,0,0,1,1.914-1.845A1.9,1.9,0,0,1,99.826,213.6Z" transform="translate(-50.51 -165.768)"/>
        <path id="Trazado_198155" data-name="Trazado 198155" d="M103.8,49.518V36.1a3.778,3.778,0,0,0-3.774-3.774H86.607A3.778,3.778,0,0,0,82.833,36.1V49.518a3.778,3.778,0,0,0,3.774,3.774h13.419A3.778,3.778,0,0,0,103.8,49.518Zm-2.179,0a1.6,1.6,0,0,1-1.594,1.594H86.607a1.6,1.6,0,0,1-1.594-1.594V36.1A1.6,1.6,0,0,1,86.607,34.5h13.419A1.6,1.6,0,0,1,101.62,36.1Z" transform="translate(-78.137 -27.628)"/>
        <path id="Trazado_198156" data-name="Trazado 198156" d="M305.833,49.518V36.1a3.778,3.778,0,0,0-3.774-3.774H288.64a3.778,3.778,0,0,0-3.774,3.774V49.518a3.778,3.778,0,0,0,3.774,3.774h13.419A3.778,3.778,0,0,0,305.833,49.518Zm-2.18,0a1.6,1.6,0,0,1-1.594,1.594H288.64a1.6,1.6,0,0,1-1.594-1.594V36.1A1.6,1.6,0,0,1,288.64,34.5h13.419a1.6,1.6,0,0,1,1.594,1.594Z" transform="translate(-250.815 -27.628)"/>
        <path id="Trazado_198157" data-name="Trazado 198157" d="M334.178,73.051a1.09,1.09,0,0,0-1.541,0L329.885,75.8l-2.752-2.752a1.09,1.09,0,0,0-1.541,1.541l2.752,2.752L325.591,80.1a1.09,1.09,0,1,0,1.541,1.541l2.752-2.752,2.752,2.752a1.09,1.09,0,1,0,1.541-1.541l-2.752-2.752,2.752-2.752A1.089,1.089,0,0,0,334.178,73.051Z" transform="translate(-285.35 -62.164)"/>
        <path id="Trazado_198158" data-name="Trazado 198158" d="M318.936,195.041a1.09,1.09,0,0,0-1.09-1.09H304.427a1.09,1.09,0,0,0,0,2.179h13.419A1.09,1.09,0,0,0,318.936,195.041Z" transform="translate(-266.602 -165.77)"/>
        <path id="Trazado_198159" data-name="Trazado 198159" d="M304.427,226.276a1.09,1.09,0,0,0,0,2.179h8.911a1.09,1.09,0,0,0,0-2.179Z" transform="translate(-266.602 -193.399)"/>
        <path id="Trazado_198160" data-name="Trazado 198160" d="M116.9,195.041a1.09,1.09,0,0,0-1.09-1.09H102.395a1.09,1.09,0,1,0,0,2.179h13.419A1.09,1.09,0,0,0,116.9,195.041Z" transform="translate(-93.925 -165.77)"/>
        <path id="Trazado_198161" data-name="Trazado 198161" d="M102.395,226.276a1.09,1.09,0,0,0,0,2.179h8.911a1.09,1.09,0,0,0,0-2.179Z" transform="translate(-93.925 -193.399)"/>
        <g id="Grupo_146666" data-name="Grupo 146666" transform="translate(9.226 10.894)">
          <g id="Grupo_146665" data-name="Grupo 146665">
            <path id="Trazado_198162" data-name="Trazado 198162" d="M118.431,83.548a1.086,1.086,0,0,1-.771-.319l-3.336-3.336a1.09,1.09,0,1,1,1.541-1.541l2.565,2.565,5.623-5.623a1.09,1.09,0,0,1,1.541,1.541L119.2,83.229A1.085,1.085,0,0,1,118.431,83.548Z" transform="translate(-114.005 -74.975)"/>
          </g>
        </g>
      </g>
    </g>
  </g>
</svg>
