<svg xmlns="http://www.w3.org/2000/svg" xmlns:xlink="http://www.w3.org/1999/xlink" width="1320.999" height="507.335" viewBox="0 0 1320.999 507.335">
  <defs>
    <linearGradient id="linear-gradient" x1="0.986" y1="0.447" x2="0.398" y2="0.458" gradientUnits="objectBoundingBox">
      <stop offset="0" stop-color="#0c0a3e"/>
      <stop offset="1" stop-color="#16697a" stop-opacity="0"/>
    </linearGradient>
    <linearGradient id="linear-gradient-2" x1="0.688" y1="0.289" x2="0" y2="1" gradientUnits="objectBoundingBox">
      <stop offset="0" stop-color="#16697a" stop-opacity="0"/>
      <stop offset="1" stop-color="#0c0a3e"/>
    </linearGradient>
  </defs>
  <g id="Grupo_146630" data-name="Grupo 146630" transform="translate(-143.5 -69.5)">
    <path id="Rectangle_652" data-name="Rectangle 652" d="M1299.213,0H20.787C9.307,0,0,8.4,0,18.772V488.063c0,10.367,9.307,18.772,20.787,18.772H1299.213c11.48,0,20.787-8.4,20.787-18.772V18.772C1320,8.4,1310.693,0,1299.213,0Z" transform="translate(144 70)" fill="#16697a"/>
    <path id="Intersección_11" data-name="Intersección 11" d="M1018.717,287.562c-127.9-137.349-269.249-274.7-460.363-120.551C252.826,413.439,63.784,372.525,13.521,354.473V40.968C13.521,30.6,22.828,22.2,34.308,22.2H1312.733c11.48,0,20.787,8.4,20.787,18.771V461.211c-19.9,10.282-39.426,14.909-58.671,14.912C1187.967,476.137,1106.52,381.849,1018.717,287.562Z" transform="translate(130.479 47.804)" stroke="rgba(0,0,0,0)" stroke-miterlimit="10" stroke-width="1" fill="url(#linear-gradient)"/>
    <path id="Rectangle_652-2" data-name="Rectangle 652" d="M1299.213,0H20.787C9.307,0,0,8.4,0,18.772V488.063c0,10.367,9.307,18.772,20.787,18.772H1299.213c11.48,0,20.787-8.4,20.787-18.772V18.772C1320,8.4,1310.693,0,1299.213,0Z" transform="translate(144 70)" fill="url(#linear-gradient-2)"/>
    <g id="Grupo_146614" data-name="Grupo 146614" transform="translate(-11787.922 -11745.508) rotate(180)">
      <path id="Trazado_197115" data-name="Trazado 197115" d="M757.717,293.79a.046.046,0,0,0,.046-.046.046.046,0,0,0-.093,0,.046.046,0,0,0,.046.046" transform="translate(-12727.415 -12431.576)" fill="#92bfb1"/>
      <path id="Trazado_197116" data-name="Trazado 197116" d="M764.174,293.846a.092.092,0,1,0,0-.184.092.092,0,0,0,0,.184" transform="translate(-12725.585 -12431.587)" fill="#92bfb1"/>
      <path id="Trazado_197117" data-name="Trazado 197117" d="M770.621,293.846a.092.092,0,1,0,0-.184.092.092,0,0,0,0,.184" transform="translate(-12723.742 -12431.587)" fill="#92bfb1"/>
      <path id="Trazado_197118" data-name="Trazado 197118" d="M777.068,293.846a.092.092,0,1,0,0-.184.092.092,0,0,0,0,.184" transform="translate(-12721.9 -12431.587)" fill="#92bfb1"/>
      <path id="Trazado_197119" data-name="Trazado 197119" d="M783.505,293.79a.046.046,0,0,0,.047-.046.047.047,0,1,0-.047.046" transform="translate(-12720.049 -12431.576)" fill="#92bfb1"/>
      <path id="Trazado_197120" data-name="Trazado 197120" d="M738.391,300.321a.115.115,0,1,0-.115-.114.115.115,0,0,0,.115.114" transform="translate(-12732.957 -12429.75)" fill="#92bfb1"/>
      <path id="Trazado_197121" data-name="Trazado 197121" d="M744.869,300.489a.253.253,0,1,0-.253-.253.253.253,0,0,0,.253.253" transform="translate(-12731.146 -12429.78)" fill="#92bfb1"/>
      <path id="Trazado_197122" data-name="Trazado 197122" d="M751.336,300.6a.345.345,0,1,0-.344-.345.345.345,0,0,0,.344.345" transform="translate(-12729.325 -12429.801)" fill="#92bfb1"/>
      <path id="Trazado_197123" data-name="Trazado 197123" d="M757.789,300.629a.368.368,0,1,0-.368-.368.368.368,0,0,0,.368.368" transform="translate(-12727.487 -12429.808)" fill="#92bfb1"/>
      <path id="Trazado_197124" data-name="Trazado 197124" d="M764.236,300.629a.368.368,0,1,0-.368-.368.368.368,0,0,0,.368.368" transform="translate(-12725.646 -12429.808)" fill="#92bfb1"/>
      <path id="Trazado_197125" data-name="Trazado 197125" d="M770.682,300.629a.368.368,0,1,0-.368-.368.368.368,0,0,0,.368.368" transform="translate(-12723.803 -12429.808)" fill="#92bfb1"/>
      <path id="Trazado_197126" data-name="Trazado 197126" d="M777.13,300.629a.368.368,0,1,0-.368-.368.368.368,0,0,0,.368.368" transform="translate(-12721.962 -12429.808)" fill="#92bfb1"/>
      <path id="Trazado_197127" data-name="Trazado 197127" d="M783.577,300.629a.368.368,0,1,0-.369-.368.368.368,0,0,0,.369.368" transform="translate(-12720.12 -12429.808)" fill="#92bfb1"/>
      <path id="Trazado_197128" data-name="Trazado 197128" d="M725.5,306.8a.138.138,0,1,0-.138-.138.138.138,0,0,0,.138.138" transform="translate(-12736.645 -12427.914)" fill="#92bfb1"/>
      <path id="Trazado_197129" data-name="Trazado 197129" d="M731.986,306.992a.3.3,0,1,0-.3-.3.3.3,0,0,0,.3.3" transform="translate(-12734.839 -12427.949)" fill="#92bfb1"/>
      <path id="Trazado_197130" data-name="Trazado 197130" d="M738.448,307.076a.368.368,0,1,0-.368-.368.368.368,0,0,0,.368.368" transform="translate(-12733.014 -12427.965)" fill="#92bfb1"/>
      <path id="Trazado_197131" data-name="Trazado 197131" d="M744.9,307.1a.391.391,0,1,0-.391-.391.391.391,0,0,0,.391.391" transform="translate(-12731.176 -12427.971)" fill="#92bfb1"/>
      <path id="Trazado_197132" data-name="Trazado 197132" d="M751.352,307.133a.414.414,0,1,0-.414-.414.414.414,0,0,0,.414.414" transform="translate(-12729.339 -12427.976)" fill="#92bfb1"/>
      <path id="Trazado_197133" data-name="Trazado 197133" d="M757.8,307.133a.414.414,0,1,0-.414-.414.414.414,0,0,0,.414.414" transform="translate(-12727.498 -12427.976)" fill="#92bfb1"/>
      <path id="Trazado_197134" data-name="Trazado 197134" d="M764.251,307.161a.437.437,0,1,0-.437-.437.437.437,0,0,0,.437.437" transform="translate(-12725.661 -12427.98)" fill="#92bfb1"/>
      <path id="Trazado_197135" data-name="Trazado 197135" d="M770.7,307.161a.437.437,0,1,0-.437-.437.437.437,0,0,0,.437.437" transform="translate(-12723.819 -12427.98)" fill="#92bfb1"/>
      <path id="Trazado_197136" data-name="Trazado 197136" d="M777.145,307.161a.437.437,0,1,0-.437-.437.437.437,0,0,0,.437.437" transform="translate(-12721.977 -12427.98)" fill="#92bfb1"/>
      <path id="Trazado_197137" data-name="Trazado 197137" d="M783.587,307.133a.414.414,0,1,0-.415-.414.415.415,0,0,0,.415.414" transform="translate(-12720.131 -12427.976)" fill="#92bfb1"/>
      <path id="Trazado_197138" data-name="Trazado 197138" d="M712.584,313.1a.023.023,0,1,0-.023-.023.023.023,0,0,0,.023.023" transform="translate(-12740.304 -12426.046)" fill="#92bfb1"/>
      <path id="Trazado_197139" data-name="Trazado 197139" d="M719.082,313.383a.253.253,0,1,0-.253-.253.253.253,0,0,0,.253.253" transform="translate(-12738.514 -12426.097)" fill="#92bfb1"/>
      <path id="Trazado_197140" data-name="Trazado 197140" d="M725.555,313.523a.368.368,0,1,0-.368-.368.368.368,0,0,0,.368.368" transform="translate(-12736.696 -12426.123)" fill="#92bfb1"/>
      <path id="Trazado_197141" data-name="Trazado 197141" d="M732.007,313.552a.391.391,0,1,0-.391-.391.391.391,0,0,0,.391.391" transform="translate(-12734.86 -12426.128)" fill="#92bfb1"/>
      <path id="Trazado_197142" data-name="Trazado 197142" d="M738.463,313.608a.436.436,0,1,0-.437-.437.437.437,0,0,0,.437.437" transform="translate(-12733.03 -12426.138)" fill="#92bfb1"/>
      <path id="Trazado_197143" data-name="Trazado 197143" d="M744.915,313.635a.46.46,0,1,0-.459-.459.46.46,0,0,0,.459.459" transform="translate(-12731.191 -12426.143)" fill="#92bfb1"/>
      <path id="Trazado_197144" data-name="Trazado 197144" d="M751.372,313.692a.506.506,0,1,0-.505-.505.505.505,0,0,0,.505.505" transform="translate(-12729.359 -12426.153)" fill="#92bfb1"/>
      <path id="Trazado_197145" data-name="Trazado 197145" d="M757.824,313.72a.528.528,0,1,0-.528-.528.529.529,0,0,0,.528.528" transform="translate(-12727.522 -12426.159)" fill="#92bfb1"/>
      <path id="Trazado_197146" data-name="Trazado 197146" d="M764.276,313.748a.552.552,0,1,0-.552-.552.551.551,0,0,0,.552.552" transform="translate(-12725.687 -12426.163)" fill="#92bfb1"/>
      <path id="Trazado_197147" data-name="Trazado 197147" d="M770.724,313.748a.552.552,0,1,0-.552-.552.552.552,0,0,0,.552.552" transform="translate(-12723.844 -12426.163)" fill="#92bfb1"/>
      <path id="Trazado_197148" data-name="Trazado 197148" d="M777.17,313.748a.552.552,0,1,0-.551-.552.551.551,0,0,0,.551.552" transform="translate(-12722.004 -12426.163)" fill="#92bfb1"/>
      <path id="Trazado_197149" data-name="Trazado 197149" d="M783.613,313.72a.528.528,0,1,0-.53-.528.529.529,0,0,0,.53.528" transform="translate(-12720.156 -12426.159)" fill="#92bfb1"/>
      <path id="Trazado_197150" data-name="Trazado 197150" d="M706.142,319.578a.046.046,0,1,0-.046-.046.046.046,0,0,0,.046.046" transform="translate(-12742.151 -12424.209)" fill="#92bfb1"/>
      <path id="Trazado_197151" data-name="Trazado 197151" d="M712.645,319.886a.3.3,0,1,0-.3-.3.3.3,0,0,0,.3.3" transform="translate(-12740.364 -12424.266)" fill="#92bfb1"/>
      <path id="Trazado_197152" data-name="Trazado 197152" d="M719.108,319.97a.368.368,0,1,0-.368-.368.368.368,0,0,0,.368.368" transform="translate(-12738.539 -12424.28)" fill="#92bfb1"/>
      <path id="Trazado_197153" data-name="Trazado 197153" d="M725.565,320.027a.414.414,0,1,0-.414-.414.414.414,0,0,0,.414.414" transform="translate(-12736.707 -12424.291)" fill="#92bfb1"/>
      <path id="Trazado_197154" data-name="Trazado 197154" d="M732.027,320.111a.483.483,0,1,0-.482-.483.483.483,0,0,0,.482.483" transform="translate(-12734.879 -12424.308)" fill="#92bfb1"/>
      <path id="Trazado_197155" data-name="Trazado 197155" d="M738.483,320.167a.528.528,0,1,0-.528-.528.528.528,0,0,0,.528.528" transform="translate(-12733.049 -12424.316)" fill="#92bfb1"/>
      <path id="Trazado_197156" data-name="Trazado 197156" d="M744.946,320.252a.6.6,0,1,0-.6-.6.6.6,0,0,0,.6.6" transform="translate(-12731.223 -12424.332)" fill="#92bfb1"/>
      <path id="Trazado_197157" data-name="Trazado 197157" d="M751.4,320.307a.644.644,0,1,0-.643-.644.643.643,0,0,0,.643.644" transform="translate(-12729.391 -12424.343)" fill="#92bfb1"/>
      <path id="Trazado_197158" data-name="Trazado 197158" d="M757.86,320.364a.69.69,0,1,0-.689-.689.689.689,0,0,0,.689.689" transform="translate(-12727.558 -12424.352)" fill="#92bfb1"/>
      <path id="Trazado_197159" data-name="Trazado 197159" d="M764.312,320.391a.712.712,0,1,0-.712-.712.712.712,0,0,0,.712.712" transform="translate(-12725.723 -12424.357)" fill="#92bfb1"/>
      <path id="Trazado_197160" data-name="Trazado 197160" d="M770.764,320.42a.735.735,0,1,0-.736-.735.735.735,0,0,0,.736.735" transform="translate(-12723.886 -12424.363)" fill="#92bfb1"/>
      <path id="Trazado_197161" data-name="Trazado 197161" d="M777.206,320.391a.712.712,0,1,0-.712-.712.712.712,0,0,0,.712.712" transform="translate(-12722.038 -12424.357)" fill="#92bfb1"/>
      <path id="Trazado_197162" data-name="Trazado 197162" d="M783.648,320.364a.69.69,0,1,0-.69-.689.689.689,0,0,0,.69.689" transform="translate(-12720.192 -12424.352)" fill="#92bfb1"/>
      <path id="Trazado_197163" data-name="Trazado 197163" d="M699.69,326a.023.023,0,1,0-.023-.023.023.023,0,0,0,.023.023" transform="translate(-12743.988 -12422.363)" fill="#92bfb1"/>
      <path id="Trazado_197164" data-name="Trazado 197164" d="M706.2,326.333a.3.3,0,1,0-.3-.3.3.3,0,0,0,.3.3" transform="translate(-12742.207 -12422.424)" fill="#92bfb1"/>
      <path id="Trazado_197165" data-name="Trazado 197165" d="M712.661,326.417a.368.368,0,1,0-.368-.368.368.368,0,0,0,.368.368" transform="translate(-12740.38 -12422.438)" fill="#92bfb1"/>
      <path id="Trazado_197166" data-name="Trazado 197166" d="M719.123,326.5a.437.437,0,1,0-.437-.437.437.437,0,0,0,.437.437" transform="translate(-12738.553 -12422.454)" fill="#92bfb1"/>
      <path id="Trazado_197167" data-name="Trazado 197167" d="M725.585,326.586a.506.506,0,1,0-.505-.505.505.505,0,0,0,.505.505" transform="translate(-12736.727 -12422.47)" fill="#92bfb1"/>
      <path id="Trazado_197168" data-name="Trazado 197168" d="M732.048,326.67a.575.575,0,1,0-.575-.575.575.575,0,0,0,.575.575" transform="translate(-12734.9 -12422.484)" fill="#92bfb1"/>
      <path id="Trazado_197169" data-name="Trazado 197169" d="M738.514,326.782a.667.667,0,1,0-.666-.666.666.666,0,0,0,.666.666" transform="translate(-12733.079 -12422.505)" fill="#92bfb1"/>
      <path id="Trazado_197170" data-name="Trazado 197170" d="M744.981,326.9a.759.759,0,1,0-.759-.759.758.758,0,0,0,.759.759" transform="translate(-12731.258 -12422.525)" fill="#92bfb1"/>
      <path id="Trazado_197171" data-name="Trazado 197171" d="M751.444,326.979a.827.827,0,1,0-.828-.828.827.827,0,0,0,.828.828" transform="translate(-12729.433 -12422.54)" fill="#92bfb1"/>
      <path id="Trazado_197172" data-name="Trazado 197172" d="M757.906,327.064a.9.9,0,1,0-.9-.9.9.9,0,0,0,.9.9" transform="translate(-12727.604 -12422.557)" fill="#92bfb1"/>
      <path id="Trazado_197173" data-name="Trazado 197173" d="M764.358,327.091a.919.919,0,1,0-.919-.919.919.919,0,0,0,.919.919" transform="translate(-12725.768 -12422.562)" fill="#92bfb1"/>
      <path id="Trazado_197174" data-name="Trazado 197174" d="M770.81,327.12a.942.942,0,1,0-.943-.942.942.942,0,0,0,.943.942" transform="translate(-12723.933 -12422.566)" fill="#92bfb1"/>
      <path id="Trazado_197175" data-name="Trazado 197175" d="M777.252,327.091a.919.919,0,1,0-.919-.919.919.919,0,0,0,.919.919" transform="translate(-12722.084 -12422.562)" fill="#92bfb1"/>
      <path id="Trazado_197176" data-name="Trazado 197176" d="M783.694,327.064a.9.9,0,1,0-.9-.9.9.9,0,0,0,.9.9" transform="translate(-12720.237 -12422.557)" fill="#92bfb1"/>
      <path id="Trazado_197177" data-name="Trazado 197177" d="M699.741,332.723a.253.253,0,1,0-.253-.253.253.253,0,0,0,.253.253" transform="translate(-12744.039 -12420.571)" fill="#92bfb1"/>
      <path id="Trazado_197178" data-name="Trazado 197178" d="M706.214,332.864a.368.368,0,1,0-.368-.368.368.368,0,0,0,.368.368" transform="translate(-12742.223 -12420.597)" fill="#92bfb1"/>
      <path id="Trazado_197179" data-name="Trazado 197179" d="M712.676,332.948a.436.436,0,1,0-.437-.437.437.437,0,0,0,.437.437" transform="translate(-12740.396 -12420.612)" fill="#92bfb1"/>
      <path id="Trazado_197180" data-name="Trazado 197180" d="M719.138,333.033a.505.505,0,1,0-.505-.505.505.505,0,0,0,.505.505" transform="translate(-12738.569 -12420.627)" fill="#92bfb1"/>
      <path id="Trazado_197181" data-name="Trazado 197181" d="M725.611,333.173a.62.62,0,1,0-.621-.621.621.621,0,0,0,.621.621" transform="translate(-12736.754 -12420.654)" fill="#92bfb1"/>
      <path id="Trazado_197182" data-name="Trazado 197182" d="M732.083,333.314a.735.735,0,1,0-.735-.735.735.735,0,0,0,.735.735" transform="translate(-12734.937 -12420.679)" fill="#92bfb1"/>
      <path id="Trazado_197183" data-name="Trazado 197183" d="M738.555,333.454a.85.85,0,1,0-.85-.85.85.85,0,0,0,.85.85" transform="translate(-12733.121 -12420.704)" fill="#92bfb1"/>
      <path id="Trazado_197184" data-name="Trazado 197184" d="M745.022,333.566a.942.942,0,1,0-.942-.942.942.942,0,0,0,.942.942" transform="translate(-12731.3 -12420.726)" fill="#92bfb1"/>
      <path id="Trazado_197185" data-name="Trazado 197185" d="M751.495,333.707a1.057,1.057,0,1,0-1.057-1.057,1.057,1.057,0,0,0,1.057,1.057" transform="translate(-12729.481 -12420.751)" fill="#92bfb1"/>
      <path id="Trazado_197186" data-name="Trazado 197186" d="M757.957,333.791a1.126,1.126,0,1,0-1.126-1.126,1.126,1.126,0,0,0,1.126,1.126" transform="translate(-12727.656 -12420.767)" fill="#92bfb1"/>
      <path id="Trazado_197187" data-name="Trazado 197187" d="M764.414,333.847a1.172,1.172,0,1,0-1.173-1.172,1.172,1.172,0,0,0,1.173,1.172" transform="translate(-12725.824 -12420.774)" fill="#92bfb1"/>
      <path id="Trazado_197188" data-name="Trazado 197188" d="M770.867,333.875a1.2,1.2,0,1,0-1.2-1.2,1.2,1.2,0,0,0,1.2,1.2" transform="translate(-12723.988 -12420.781)" fill="#92bfb1"/>
      <path id="Trazado_197189" data-name="Trazado 197189" d="M777.308,333.847a1.172,1.172,0,1,0-1.173-1.172,1.172,1.172,0,0,0,1.173,1.172" transform="translate(-12722.141 -12420.774)" fill="#92bfb1"/>
      <path id="Trazado_197190" data-name="Trazado 197190" d="M783.745,333.791a1.126,1.126,0,1,0-1.126-1.126,1.125,1.125,0,0,0,1.126,1.126" transform="translate(-12720.288 -12420.767)" fill="#92bfb1"/>
      <path id="Trazado_197191" data-name="Trazado 197191" d="M693.268,339.03a.138.138,0,1,0-.138-.138.138.138,0,0,0,.138.138" transform="translate(-12745.854 -12418.705)" fill="#92bfb1"/>
      <path id="Trazado_197192" data-name="Trazado 197192" d="M699.767,339.31a.368.368,0,1,0-.368-.368.368.368,0,0,0,.368.368" transform="translate(-12744.064 -12418.756)" fill="#92bfb1"/>
      <path id="Trazado_197193" data-name="Trazado 197193" d="M706.224,339.367a.414.414,0,1,0-.414-.414.414.414,0,0,0,.414.414" transform="translate(-12742.233 -12418.766)" fill="#92bfb1"/>
      <path id="Trazado_197194" data-name="Trazado 197194" d="M712.691,339.48a.506.506,0,1,0-.505-.505.505.505,0,0,0,.505.505" transform="translate(-12740.411 -12418.786)" fill="#92bfb1"/>
      <path id="Trazado_197195" data-name="Trazado 197195" d="M719.164,339.62a.62.62,0,1,0-.621-.621.62.62,0,0,0,.621.621" transform="translate(-12738.595 -12418.812)" fill="#92bfb1"/>
      <path id="Trazado_197196" data-name="Trazado 197196" d="M725.636,339.76a.735.735,0,1,0-.735-.735.735.735,0,0,0,.735.735" transform="translate(-12736.778 -12418.838)" fill="#92bfb1"/>
      <path id="Trazado_197197" data-name="Trazado 197197" d="M732.119,339.957a.9.9,0,1,0-.9-.9.9.9,0,0,0,.9.9" transform="translate(-12734.973 -12418.873)" fill="#92bfb1"/>
      <path id="Trazado_197198" data-name="Trazado 197198" d="M738.6,340.126a1.034,1.034,0,1,0-1.034-1.035,1.035,1.035,0,0,0,1.034,1.035" transform="translate(-12733.162 -12418.902)" fill="#92bfb1"/>
      <path id="Trazado_197199" data-name="Trazado 197199" d="M745.073,340.294a1.173,1.173,0,1,0-1.173-1.173,1.173,1.173,0,0,0,1.173,1.173" transform="translate(-12731.351 -12418.934)" fill="#92bfb1"/>
      <path id="Trazado_197200" data-name="Trazado 197200" d="M751.551,340.462a1.31,1.31,0,1,0-1.31-1.31,1.31,1.31,0,0,0,1.31,1.31" transform="translate(-12729.539 -12418.966)" fill="#92bfb1"/>
      <path id="Trazado_197201" data-name="Trazado 197201" d="M758.019,340.575a1.4,1.4,0,1,0-1.4-1.4,1.4,1.4,0,0,0,1.4,1.4" transform="translate(-12727.718 -12418.984)" fill="#92bfb1"/>
      <path id="Trazado_197202" data-name="Trazado 197202" d="M764.481,340.66a1.471,1.471,0,1,0-1.471-1.471,1.47,1.47,0,0,0,1.471,1.471" transform="translate(-12725.892 -12419.001)" fill="#92bfb1"/>
      <path id="Trazado_197203" data-name="Trazado 197203" d="M770.933,340.687a1.494,1.494,0,1,0-1.494-1.494,1.493,1.493,0,0,0,1.494,1.494" transform="translate(-12724.054 -12419.006)" fill="#92bfb1"/>
      <path id="Trazado_197204" data-name="Trazado 197204" d="M777.375,340.66a1.471,1.471,0,1,0-1.471-1.471,1.47,1.47,0,0,0,1.471,1.471" transform="translate(-12722.207 -12419.001)" fill="#92bfb1"/>
      <path id="Trazado_197205" data-name="Trazado 197205" d="M783.807,340.575a1.4,1.4,0,1,0-1.4-1.4,1.4,1.4,0,0,0,1.4,1.4" transform="translate(-12720.351 -12418.984)" fill="#92bfb1"/>
      <path id="Trazado_197206" data-name="Trazado 197206" d="M693.3,345.674a.3.3,0,1,0-.3-.3.3.3,0,0,0,.3.3" transform="translate(-12745.891 -12416.898)" fill="#92bfb1"/>
      <path id="Trazado_197207" data-name="Trazado 197207" d="M699.772,345.786a.391.391,0,1,0-.391-.391.391.391,0,0,0,.391.391" transform="translate(-12744.068 -12416.918)" fill="#92bfb1"/>
      <path id="Trazado_197208" data-name="Trazado 197208" d="M706.239,345.9a.483.483,0,1,0-.482-.482.482.482,0,0,0,.482.482" transform="translate(-12742.247 -12416.94)" fill="#92bfb1"/>
      <path id="Trazado_197209" data-name="Trazado 197209" d="M712.707,346.01a.575.575,0,1,0-.575-.575.574.574,0,0,0,.575.575" transform="translate(-12740.426 -12416.96)" fill="#92bfb1"/>
      <path id="Trazado_197210" data-name="Trazado 197210" d="M719.189,346.207a.735.735,0,1,0-.735-.735.735.735,0,0,0,.735.735" transform="translate(-12738.621 -12416.996)" fill="#92bfb1"/>
      <path id="Trazado_197211" data-name="Trazado 197211" d="M725.672,346.4a.9.9,0,1,0-.9-.9.9.9,0,0,0,.9.9" transform="translate(-12736.813 -12417.031)" fill="#92bfb1"/>
      <path id="Trazado_197212" data-name="Trazado 197212" d="M732.155,346.6a1.058,1.058,0,1,0-1.057-1.057,1.057,1.057,0,0,0,1.057,1.057" transform="translate(-12735.008 -12417.066)" fill="#92bfb1"/>
      <path id="Trazado_197213" data-name="Trazado 197213" d="M738.641,346.826a1.241,1.241,0,1,0-1.241-1.241,1.241,1.241,0,0,0,1.241,1.241" transform="translate(-12733.207 -12417.107)" fill="#92bfb1"/>
      <path id="Trazado_197214" data-name="Trazado 197214" d="M745.13,347.05a1.425,1.425,0,1,0-1.425-1.425,1.424,1.424,0,0,0,1.425,1.425" transform="translate(-12731.406 -12417.148)" fill="#92bfb1"/>
      <path id="Trazado_197215" data-name="Trazado 197215" d="M751.612,347.247a1.586,1.586,0,1,0-1.587-1.587,1.587,1.587,0,0,0,1.587,1.587" transform="translate(-12729.6 -12417.184)" fill="#92bfb1"/>
      <path id="Trazado_197216" data-name="Trazado 197216" d="M758.09,347.415a1.724,1.724,0,1,0-1.724-1.724,1.724,1.724,0,0,0,1.724,1.724" transform="translate(-12727.788 -12417.215)" fill="#92bfb1"/>
      <path id="Trazado_197217" data-name="Trazado 197217" d="M764.552,347.5a1.793,1.793,0,1,0-1.792-1.792,1.792,1.792,0,0,0,1.792,1.792" transform="translate(-12725.962 -12417.23)" fill="#92bfb1"/>
      <path id="Trazado_197218" data-name="Trazado 197218" d="M771.009,347.555a1.839,1.839,0,1,0-1.839-1.839,1.838,1.838,0,0,0,1.839,1.839" transform="translate(-12724.131 -12417.241)" fill="#92bfb1"/>
      <path id="Trazado_197219" data-name="Trazado 197219" d="M777.451,347.528a1.816,1.816,0,1,0-1.816-1.815,1.815,1.815,0,0,0,1.816,1.815" transform="translate(-12722.283 -12417.235)" fill="#92bfb1"/>
      <path id="Trazado_197220" data-name="Trazado 197220" d="M783.878,347.415a1.724,1.724,0,1,0-1.724-1.724,1.725,1.725,0,0,0,1.724,1.724" transform="translate(-12720.421 -12417.215)" fill="#92bfb1"/>
      <path id="Trazado_197221" data-name="Trazado 197221" d="M686.817,351.9a.115.115,0,1,0-.115-.114.114.114,0,0,0,.115.114" transform="translate(-12747.69 -12415.015)" fill="#92bfb1"/>
      <path id="Trazado_197222" data-name="Trazado 197222" d="M693.319,352.2a.368.368,0,1,0-.368-.368.368.368,0,0,0,.368.368" transform="translate(-12745.906 -12415.072)" fill="#92bfb1"/>
      <path id="Trazado_197223" data-name="Trazado 197223" d="M699.782,352.289a.437.437,0,1,0-.437-.437.437.437,0,0,0,.437.437" transform="translate(-12744.079 -12415.087)" fill="#92bfb1"/>
      <path id="Trazado_197224" data-name="Trazado 197224" d="M706.249,352.4a.528.528,0,1,0-.528-.528.528.528,0,0,0,.528.528" transform="translate(-12742.258 -12415.108)" fill="#92bfb1"/>
      <path id="Trazado_197225" data-name="Trazado 197225" d="M712.727,352.57a.667.667,0,1,0-.666-.666.666.666,0,0,0,.666.666" transform="translate(-12740.446 -12415.138)" fill="#92bfb1"/>
      <path id="Trazado_197226" data-name="Trazado 197226" d="M719.215,352.795a.85.85,0,1,0-.85-.85.85.85,0,0,0,.85.85" transform="translate(-12738.646 -12415.18)" fill="#92bfb1"/>
      <path id="Trazado_197227" data-name="Trazado 197227" d="M725.7,353.02a1.034,1.034,0,1,0-1.034-1.034,1.035,1.035,0,0,0,1.034,1.034" transform="translate(-12736.846 -12415.22)" fill="#92bfb1"/>
      <path id="Trazado_197228" data-name="Trazado 197228" d="M732.2,353.272a1.241,1.241,0,1,0-1.241-1.241,1.241,1.241,0,0,0,1.241,1.241" transform="translate(-12735.05 -12415.267)" fill="#92bfb1"/>
      <path id="Trazado_197229" data-name="Trazado 197229" d="M738.693,353.553a1.471,1.471,0,1,0-1.471-1.471,1.471,1.471,0,0,0,1.471,1.471" transform="translate(-12733.259 -12415.316)" fill="#92bfb1"/>
      <path id="Trazado_197230" data-name="Trazado 197230" d="M745.186,353.806a1.678,1.678,0,1,0-1.678-1.678,1.677,1.677,0,0,0,1.678,1.678" transform="translate(-12731.464 -12415.362)" fill="#92bfb1"/>
      <path id="Trazado_197231" data-name="Trazado 197231" d="M751.679,354.059a1.885,1.885,0,1,0-1.885-1.885,1.884,1.884,0,0,0,1.885,1.885" transform="translate(-12729.666 -12415.408)" fill="#92bfb1"/>
      <path id="Trazado_197232" data-name="Trazado 197232" d="M758.167,354.283a2.069,2.069,0,1,0-2.069-2.069,2.068,2.068,0,0,0,2.069,2.069" transform="translate(-12727.865 -12415.449)" fill="#92bfb1"/>
      <path id="Trazado_197233" data-name="Trazado 197233" d="M764.634,354.4a2.161,2.161,0,1,0-2.16-2.16,2.16,2.16,0,0,0,2.16,2.16" transform="translate(-12726.044 -12415.471)" fill="#92bfb1"/>
      <path id="Trazado_197234" data-name="Trazado 197234" d="M771.091,354.451a2.206,2.206,0,1,0-2.206-2.206,2.206,2.206,0,0,0,2.206,2.206" transform="translate(-12724.212 -12415.479)" fill="#92bfb1"/>
      <path id="Trazado_197235" data-name="Trazado 197235" d="M777.533,354.423a2.184,2.184,0,1,0-2.183-2.183,2.183,2.183,0,0,0,2.183,2.183" transform="translate(-12722.366 -12415.476)" fill="#92bfb1"/>
      <path id="Trazado_197236" data-name="Trazado 197236" d="M783.955,354.283a2.069,2.069,0,1,0-2.07-2.069,2.069,2.069,0,0,0,2.07,2.069" transform="translate(-12720.498 -12415.449)" fill="#92bfb1"/>
      <path id="Trazado_197237" data-name="Trazado 197237" d="M686.849,358.511a.253.253,0,1,0-.255-.253.253.253,0,0,0,.255.253" transform="translate(-12747.723 -12413.203)" fill="#92bfb1"/>
      <path id="Trazado_197238" data-name="Trazado 197238" d="M693.325,358.68a.391.391,0,1,0-.391-.391.391.391,0,0,0,.391.391" transform="translate(-12745.911 -12413.235)" fill="#92bfb1"/>
      <path id="Trazado_197239" data-name="Trazado 197239" d="M699.787,358.764a.46.46,0,1,0-.459-.459.46.46,0,0,0,.459.459" transform="translate(-12744.084 -12413.249)" fill="#92bfb1"/>
      <path id="Trazado_197240" data-name="Trazado 197240" d="M706.265,358.933a.6.6,0,1,0-.6-.6.6.6,0,0,0,.6.6" transform="translate(-12742.272 -12413.281)" fill="#92bfb1"/>
      <path id="Trazado_197241" data-name="Trazado 197241" d="M712.747,359.129a.759.759,0,1,0-.758-.759.758.758,0,0,0,.758.759" transform="translate(-12740.468 -12413.315)" fill="#92bfb1"/>
      <path id="Trazado_197242" data-name="Trazado 197242" d="M719.235,359.354a.942.942,0,1,0-.942-.942.942.942,0,0,0,.942.942" transform="translate(-12738.665 -12413.358)" fill="#92bfb1"/>
      <path id="Trazado_197243" data-name="Trazado 197243" d="M725.734,359.635a1.172,1.172,0,1,0-1.173-1.173,1.172,1.172,0,0,0,1.173,1.173" transform="translate(-12736.875 -12413.409)" fill="#92bfb1"/>
      <path id="Trazado_197244" data-name="Trazado 197244" d="M732.236,359.943a1.425,1.425,0,1,0-1.424-1.425,1.425,1.425,0,0,0,1.424,1.425" transform="translate(-12735.089 -12413.466)" fill="#92bfb1"/>
      <path id="Trazado_197245" data-name="Trazado 197245" d="M738.739,360.253a1.678,1.678,0,1,0-1.678-1.678,1.677,1.677,0,0,0,1.678,1.678" transform="translate(-12733.305 -12413.521)" fill="#92bfb1"/>
      <path id="Trazado_197246" data-name="Trazado 197246" d="M745.247,360.589a1.954,1.954,0,1,0-1.954-1.953,1.954,1.954,0,0,0,1.954,1.953" transform="translate(-12731.522 -12413.582)" fill="#92bfb1"/>
      <path id="Trazado_197247" data-name="Trazado 197247" d="M751.75,360.9a2.206,2.206,0,1,0-2.206-2.206,2.206,2.206,0,0,0,2.206,2.206" transform="translate(-12729.738 -12413.638)" fill="#92bfb1"/>
      <path id="Trazado_197248" data-name="Trazado 197248" d="M758.243,361.151a2.413,2.413,0,1,0-2.413-2.413,2.413,2.413,0,0,0,2.413,2.413" transform="translate(-12727.941 -12413.684)" fill="#92bfb1"/>
      <path id="Trazado_197249" data-name="Trazado 197249" d="M764.721,361.32a2.551,2.551,0,1,0-2.551-2.551,2.551,2.551,0,0,0,2.551,2.551" transform="translate(-12726.13 -12413.716)" fill="#92bfb1"/>
      <path id="Trazado_197250" data-name="Trazado 197250" d="M771.178,361.376a2.6,2.6,0,1,0-2.6-2.6,2.6,2.6,0,0,0,2.6,2.6" transform="translate(-12724.3 -12413.726)" fill="#92bfb1"/>
      <path id="Trazado_197251" data-name="Trazado 197251" d="M777.615,361.32a2.551,2.551,0,1,0-2.551-2.551,2.551,2.551,0,0,0,2.551,2.551" transform="translate(-12722.445 -12413.716)" fill="#92bfb1"/>
      <path id="Trazado_197252" data-name="Trazado 197252" d="M784.037,361.18a2.436,2.436,0,1,0-2.438-2.436,2.436,2.436,0,0,0,2.438,2.436" transform="translate(-12720.581 -12413.689)" fill="#92bfb1"/>
      <path id="Trazado_197253" data-name="Trazado 197253" d="M686.869,365.07a.345.345,0,1,0-.346-.345.345.345,0,0,0,.346.345" transform="translate(-12747.742 -12411.382)" fill="#92bfb1"/>
      <path id="Trazado_197254" data-name="Trazado 197254" d="M693.33,365.155a.414.414,0,1,0-.414-.414.414.414,0,0,0,.414.414" transform="translate(-12745.916 -12411.398)" fill="#92bfb1"/>
      <path id="Trazado_197255" data-name="Trazado 197255" d="M699.8,365.267a.506.506,0,1,0-.505-.505.505.505,0,0,0,.505.505" transform="translate(-12744.094 -12411.42)" fill="#92bfb1"/>
      <path id="Trazado_197256" data-name="Trazado 197256" d="M706.275,365.435a.644.644,0,1,0-.644-.644.644.644,0,0,0,.644.644" transform="translate(-12742.284 -12411.449)" fill="#92bfb1"/>
      <path id="Trazado_197257" data-name="Trazado 197257" d="M712.763,365.66a.827.827,0,1,0-.828-.828.828.828,0,0,0,.828.828" transform="translate(-12740.483 -12411.49)" fill="#92bfb1"/>
      <path id="Trazado_197258" data-name="Trazado 197258" d="M719.261,365.941a1.058,1.058,0,1,0-1.057-1.057,1.057,1.057,0,0,0,1.057,1.057" transform="translate(-12738.691 -12411.542)" fill="#92bfb1"/>
      <path id="Trazado_197259" data-name="Trazado 197259" d="M725.764,366.25a1.31,1.31,0,1,0-1.31-1.31,1.31,1.31,0,0,0,1.31,1.31" transform="translate(-12736.906 -12411.598)" fill="#92bfb1"/>
      <path id="Trazado_197260" data-name="Trazado 197260" d="M732.272,366.587A1.586,1.586,0,1,0,730.687,365a1.586,1.586,0,0,0,1.585,1.586" transform="translate(-12735.125 -12411.658)" fill="#92bfb1"/>
      <path id="Trazado_197261" data-name="Trazado 197261" d="M738.785,366.953a1.885,1.885,0,1,0-1.885-1.885,1.884,1.884,0,0,0,1.885,1.885" transform="translate(-12733.35 -12411.726)" fill="#92bfb1"/>
      <path id="Trazado_197262" data-name="Trazado 197262" d="M745.3,367.345a2.206,2.206,0,1,0-2.206-2.206,2.206,2.206,0,0,0,2.206,2.206" transform="translate(-12731.579 -12411.797)" fill="#92bfb1"/>
      <path id="Trazado_197263" data-name="Trazado 197263" d="M751.817,367.71a2.505,2.505,0,1,0-2.506-2.506,2.506,2.506,0,0,0,2.506,2.506" transform="translate(-12729.806 -12411.863)" fill="#92bfb1"/>
      <path id="Trazado_197264" data-name="Trazado 197264" d="M758.309,367.963a2.712,2.712,0,1,0-2.712-2.713,2.712,2.712,0,0,0,2.712,2.713" transform="translate(-12728.008 -12411.909)" fill="#92bfb1"/>
      <path id="Trazado_197265" data-name="Trazado 197265" d="M764.787,368.132a2.85,2.85,0,1,0-2.85-2.85,2.85,2.85,0,0,0,2.85,2.85" transform="translate(-12726.196 -12411.939)" fill="#92bfb1"/>
      <path id="Trazado_197266" data-name="Trazado 197266" d="M771.249,368.216a2.919,2.919,0,1,0-2.919-2.919,2.918,2.918,0,0,0,2.919,2.919" transform="translate(-12724.37 -12411.955)" fill="#92bfb1"/>
      <path id="Trazado_197267" data-name="Trazado 197267" d="M777.686,368.16a2.873,2.873,0,1,0-2.873-2.873,2.874,2.874,0,0,0,2.873,2.873" transform="translate(-12722.519 -12411.944)" fill="#92bfb1"/>
      <path id="Trazado_197268" data-name="Trazado 197268" d="M784.1,367.992a2.735,2.735,0,1,0-2.736-2.735,2.735,2.735,0,0,0,2.736,2.735" transform="translate(-12720.646 -12411.914)" fill="#92bfb1"/>
      <path id="Trazado_197269" data-name="Trazado 197269" d="M680.355,371.151a.046.046,0,0,0,.046-.046.046.046,0,1,0-.093,0,.046.046,0,0,0,.046.046" transform="translate(-12749.518 -12409.475)" fill="#92bfb1"/>
      <path id="Trazado_197270" data-name="Trazado 197270" d="M686.874,371.545a.368.368,0,1,0-.369-.368.368.368,0,0,0,.369.368" transform="translate(-12747.749 -12409.546)" fill="#92bfb1"/>
      <path id="Trazado_197271" data-name="Trazado 197271" d="M693.33,371.6a.413.413,0,1,0-.414-.414.414.414,0,0,0,.414.414" transform="translate(-12745.916 -12409.557)" fill="#92bfb1"/>
      <path id="Trazado_197272" data-name="Trazado 197272" d="M699.8,371.742a.528.528,0,1,0-.528-.528.528.528,0,0,0,.528.528" transform="translate(-12744.101 -12409.582)" fill="#92bfb1"/>
      <path id="Trazado_197273" data-name="Trazado 197273" d="M706.285,371.938a.69.69,0,1,0-.689-.689.689.689,0,0,0,.689.689" transform="translate(-12742.293 -12409.617)" fill="#92bfb1"/>
      <path id="Trazado_197274" data-name="Trazado 197274" d="M712.778,372.191a.9.9,0,1,0-.9-.9.9.9,0,0,0,.9.9" transform="translate(-12740.497 -12409.663)" fill="#92bfb1"/>
      <path id="Trazado_197275" data-name="Trazado 197275" d="M719.276,372.472a1.126,1.126,0,1,0-1.126-1.126,1.126,1.126,0,0,0,1.126,1.126" transform="translate(-12738.707 -12409.715)" fill="#92bfb1"/>
      <path id="Trazado_197276" data-name="Trazado 197276" d="M725.784,372.809a1.4,1.4,0,1,0-1.4-1.4,1.4,1.4,0,0,0,1.4,1.4" transform="translate(-12736.927 -12409.776)" fill="#92bfb1"/>
      <path id="Trazado_197277" data-name="Trazado 197277" d="M732.3,373.2a1.724,1.724,0,1,0-1.724-1.724A1.723,1.723,0,0,0,732.3,373.2" transform="translate(-12735.155 -12409.848)" fill="#92bfb1"/>
      <path id="Trazado_197278" data-name="Trazado 197278" d="M738.826,373.624a2.069,2.069,0,1,0-2.069-2.069,2.068,2.068,0,0,0,2.069,2.069" transform="translate(-12733.391 -12409.924)" fill="#92bfb1"/>
      <path id="Trazado_197279" data-name="Trazado 197279" d="M745.349,374.045a2.413,2.413,0,1,0-2.413-2.413,2.413,2.413,0,0,0,2.413,2.413" transform="translate(-12731.625 -12410.002)" fill="#92bfb1"/>
      <path id="Trazado_197280" data-name="Trazado 197280" d="M751.862,374.41a2.712,2.712,0,1,0-2.711-2.713,2.712,2.712,0,0,0,2.711,2.713" transform="translate(-12729.851 -12410.066)" fill="#92bfb1"/>
      <path id="Trazado_197281" data-name="Trazado 197281" d="M758.366,374.72a2.965,2.965,0,1,0-2.965-2.965,2.965,2.965,0,0,0,2.965,2.965" transform="translate(-12728.064 -12410.124)" fill="#92bfb1"/>
      <path id="Trazado_197282" data-name="Trazado 197282" d="M764.859,374.973a3.172,3.172,0,1,0-3.172-3.172,3.173,3.173,0,0,0,3.172,3.172" transform="translate(-12726.269 -12410.169)" fill="#92bfb1"/>
      <path id="Trazado_197283" data-name="Trazado 197283" d="M771.321,375.056a3.241,3.241,0,1,0-3.241-3.241,3.242,3.242,0,0,0,3.241,3.241" transform="translate(-12724.441 -12410.185)" fill="#92bfb1"/>
      <path id="Trazado_197284" data-name="Trazado 197284" d="M777.753,374.973a3.172,3.172,0,1,0-3.172-3.172,3.173,3.173,0,0,0,3.172,3.172" transform="translate(-12722.585 -12410.169)" fill="#92bfb1"/>
      <path id="Trazado_197285" data-name="Trazado 197285" d="M784.159,374.748a2.988,2.988,0,1,0-2.988-2.988,2.987,2.987,0,0,0,2.988,2.988" transform="translate(-12720.702 -12410.128)" fill="#92bfb1"/>
      <path id="Trazado_197286" data-name="Trazado 197286" d="M680.365,377.655a.092.092,0,1,0-.093-.093.093.093,0,0,0,.093.093" transform="translate(-12749.528 -12407.642)" fill="#92bfb1"/>
      <path id="Trazado_197287" data-name="Trazado 197287" d="M686.874,377.992a.368.368,0,1,0-.369-.368.368.368,0,0,0,.369.368" transform="translate(-12747.749 -12407.704)" fill="#92bfb1"/>
      <path id="Trazado_197288" data-name="Trazado 197288" d="M693.335,378.076a.436.436,0,1,0-.437-.437.438.438,0,0,0,.437.437" transform="translate(-12745.921 -12407.72)" fill="#92bfb1"/>
      <path id="Trazado_197289" data-name="Trazado 197289" d="M699.808,378.217a.552.552,0,1,0-.552-.552.551.551,0,0,0,.552.552" transform="translate(-12744.104 -12407.745)" fill="#92bfb1"/>
      <path id="Trazado_197290" data-name="Trazado 197290" d="M706.29,378.413a.712.712,0,1,0-.712-.712.712.712,0,0,0,.712.712" transform="translate(-12742.298 -12407.781)" fill="#92bfb1"/>
      <path id="Trazado_197291" data-name="Trazado 197291" d="M712.783,378.667a.919.919,0,1,0-.919-.919.919.919,0,0,0,.919.919" transform="translate(-12740.503 -12407.827)" fill="#92bfb1"/>
      <path id="Trazado_197292" data-name="Trazado 197292" d="M719.286,378.975a1.173,1.173,0,1,0-1.173-1.173,1.172,1.172,0,0,0,1.173,1.173" transform="translate(-12738.717 -12407.883)" fill="#92bfb1"/>
      <path id="Trazado_197293" data-name="Trazado 197293" d="M725.8,379.341a1.471,1.471,0,1,0-1.471-1.471,1.47,1.47,0,0,0,1.471,1.471" transform="translate(-12736.942 -12407.949)" fill="#92bfb1"/>
      <path id="Trazado_197294" data-name="Trazado 197294" d="M732.318,379.734a1.793,1.793,0,1,0-1.792-1.792,1.792,1.792,0,0,0,1.792,1.792" transform="translate(-12735.172 -12408.021)" fill="#92bfb1"/>
      <path id="Trazado_197295" data-name="Trazado 197295" d="M738.846,380.183a2.161,2.161,0,1,0-2.16-2.16,2.16,2.16,0,0,0,2.16,2.16" transform="translate(-12733.411 -12408.103)" fill="#92bfb1"/>
      <path id="Trazado_197296" data-name="Trazado 197296" d="M745.38,380.661a2.551,2.551,0,1,0-2.551-2.551,2.55,2.55,0,0,0,2.551,2.551" transform="translate(-12731.656 -12408.189)" fill="#92bfb1"/>
      <path id="Trazado_197297" data-name="Trazado 197297" d="M751.893,381.026a2.85,2.85,0,1,0-2.85-2.85,2.85,2.85,0,0,0,2.85,2.85" transform="translate(-12729.881 -12408.256)" fill="#92bfb1"/>
      <path id="Trazado_197298" data-name="Trazado 197298" d="M758.412,381.42a3.172,3.172,0,1,0-3.172-3.172,3.173,3.173,0,0,0,3.172,3.172" transform="translate(-12728.111 -12408.328)" fill="#92bfb1"/>
      <path id="Trazado_197299" data-name="Trazado 197299" d="M764.915,381.728a3.424,3.424,0,1,0-3.425-3.425,3.426,3.426,0,0,0,3.425,3.425" transform="translate(-12726.325 -12408.384)" fill="#92bfb1"/>
      <path id="Trazado_197300" data-name="Trazado 197300" d="M771.392,381.9a3.563,3.563,0,1,0-3.563-3.563,3.563,3.563,0,0,0,3.563,3.563" transform="translate(-12724.514 -12408.414)" fill="#92bfb1"/>
      <path id="Trazado_197301" data-name="Trazado 197301" d="M777.814,381.756a3.448,3.448,0,1,0-3.448-3.448,3.448,3.448,0,0,0,3.448,3.448" transform="translate(-12722.646 -12408.389)" fill="#92bfb1"/>
      <path id="Trazado_197302" data-name="Trazado 197302" d="M784.2,381.447a3.195,3.195,0,1,0-3.2-3.2,3.194,3.194,0,0,0,3.2,3.2" transform="translate(-12720.749 -12408.334)" fill="#92bfb1"/>
      <path id="Trazado_197303" data-name="Trazado 197303" d="M680.365,384.1a.092.092,0,1,0-.093-.093.093.093,0,0,0,.093.093" transform="translate(-12749.528 -12405.801)" fill="#92bfb1"/>
      <path id="Trazado_197304" data-name="Trazado 197304" d="M686.874,384.439a.368.368,0,1,0-.369-.368.368.368,0,0,0,.369.368" transform="translate(-12747.749 -12405.861)" fill="#92bfb1"/>
      <path id="Trazado_197305" data-name="Trazado 197305" d="M693.335,384.523a.437.437,0,1,0-.437-.437.438.438,0,0,0,.437.437" transform="translate(-12745.921 -12405.878)" fill="#92bfb1"/>
      <path id="Trazado_197306" data-name="Trazado 197306" d="M699.808,384.664a.552.552,0,1,0-.552-.552.552.552,0,0,0,.552.552" transform="translate(-12744.104 -12405.902)" fill="#92bfb1"/>
      <path id="Trazado_197307" data-name="Trazado 197307" d="M706.3,384.889a.735.735,0,1,0-.735-.735.735.735,0,0,0,.735.735" transform="translate(-12742.305 -12405.944)" fill="#92bfb1"/>
      <path id="Trazado_197308" data-name="Trazado 197308" d="M712.788,385.141a.942.942,0,1,0-.942-.942.942.942,0,0,0,.942.942" transform="translate(-12740.508 -12405.991)" fill="#92bfb1"/>
      <path id="Trazado_197309" data-name="Trazado 197309" d="M719.291,385.45a1.2,1.2,0,1,0-1.194-1.2,1.2,1.2,0,0,0,1.194,1.2" transform="translate(-12738.722 -12406.047)" fill="#92bfb1"/>
      <path id="Trazado_197310" data-name="Trazado 197310" d="M725.8,385.815a1.494,1.494,0,1,0-1.494-1.494,1.494,1.494,0,0,0,1.494,1.494" transform="translate(-12736.947 -12406.112)" fill="#92bfb1"/>
      <path id="Trazado_197311" data-name="Trazado 197311" d="M732.328,386.237a1.839,1.839,0,1,0-1.839-1.839,1.838,1.838,0,0,0,1.839,1.839" transform="translate(-12735.182 -12406.189)" fill="#92bfb1"/>
      <path id="Trazado_197312" data-name="Trazado 197312" d="M738.856,386.686a2.206,2.206,0,1,0-2.206-2.206,2.206,2.206,0,0,0,2.206,2.206" transform="translate(-12733.422 -12406.271)" fill="#92bfb1"/>
      <path id="Trazado_197313" data-name="Trazado 197313" d="M745.39,387.164a2.6,2.6,0,1,0-2.6-2.6,2.6,2.6,0,0,0,2.6,2.6" transform="translate(-12731.667 -12406.356)" fill="#92bfb1"/>
      <path id="Trazado_197314" data-name="Trazado 197314" d="M751.908,387.557a2.919,2.919,0,1,0-2.919-2.918,2.918,2.918,0,0,0,2.919,2.918" transform="translate(-12729.896 -12406.431)" fill="#92bfb1"/>
      <path id="Trazado_197315" data-name="Trazado 197315" d="M758.427,387.95a3.241,3.241,0,1,0-3.241-3.241,3.241,3.241,0,0,0,3.241,3.241" transform="translate(-12728.126 -12406.501)" fill="#92bfb1"/>
      <path id="Trazado_197316" data-name="Trazado 197316" d="M764.946,388.343a3.563,3.563,0,1,0-3.563-3.563,3.563,3.563,0,0,0,3.563,3.563" transform="translate(-12726.354 -12406.572)" fill="#92bfb1"/>
      <path id="Trazado_197317" data-name="Trazado 197317" d="M771.444,388.624a3.792,3.792,0,1,0-3.793-3.793,3.793,3.793,0,0,0,3.793,3.793" transform="translate(-12724.565 -12406.623)" fill="#92bfb1"/>
      <path id="Trazado_197318" data-name="Trazado 197318" d="M777.85,388.4a3.608,3.608,0,1,0-3.609-3.609,3.609,3.609,0,0,0,3.609,3.609" transform="translate(-12722.682 -12406.582)" fill="#92bfb1"/>
      <path id="Trazado_197319" data-name="Trazado 197319" d="M784.225,388.007a3.287,3.287,0,1,0-3.287-3.286,3.287,3.287,0,0,0,3.287,3.286" transform="translate(-12720.769 -12406.512)" fill="#92bfb1"/>
      <path id="Trazado_197320" data-name="Trazado 197320" d="M680.365,390.549a.092.092,0,1,0-.093-.093.093.093,0,0,0,.093.093" transform="translate(-12749.528 -12403.96)" fill="#92bfb1"/>
      <path id="Trazado_197321" data-name="Trazado 197321" d="M686.874,390.885a.368.368,0,1,0-.369-.368.368.368,0,0,0,.369.368" transform="translate(-12747.749 -12404.021)" fill="#92bfb1"/>
      <path id="Trazado_197322" data-name="Trazado 197322" d="M693.335,390.97a.437.437,0,1,0-.437-.437.438.438,0,0,0,.437.437" transform="translate(-12745.921 -12404.035)" fill="#92bfb1"/>
      <path id="Trazado_197323" data-name="Trazado 197323" d="M699.808,391.11a.552.552,0,1,0-.552-.552.551.551,0,0,0,.552.552" transform="translate(-12744.104 -12404.062)" fill="#92bfb1"/>
      <path id="Trazado_197324" data-name="Trazado 197324" d="M706.29,391.308a.712.712,0,1,0-.712-.712.712.712,0,0,0,.712.712" transform="translate(-12742.298 -12404.097)" fill="#92bfb1"/>
      <path id="Trazado_197325" data-name="Trazado 197325" d="M712.783,391.56a.919.919,0,1,0-.919-.919.919.919,0,0,0,.919.919" transform="translate(-12740.503 -12404.145)" fill="#92bfb1"/>
      <path id="Trazado_197326" data-name="Trazado 197326" d="M719.286,391.869a1.173,1.173,0,1,0-1.173-1.173,1.172,1.172,0,0,0,1.173,1.173" transform="translate(-12738.717 -12404.198)" fill="#92bfb1"/>
      <path id="Trazado_197327" data-name="Trazado 197327" d="M725.8,392.234a1.471,1.471,0,1,0-1.471-1.471,1.471,1.471,0,0,0,1.471,1.471" transform="translate(-12736.942 -12404.266)" fill="#92bfb1"/>
      <path id="Trazado_197328" data-name="Trazado 197328" d="M732.323,392.656a1.816,1.816,0,1,0-1.815-1.815,1.815,1.815,0,0,0,1.815,1.815" transform="translate(-12735.176 -12404.342)" fill="#92bfb1"/>
      <path id="Trazado_197329" data-name="Trazado 197329" d="M738.851,393.105a2.184,2.184,0,1,0-2.183-2.183,2.183,2.183,0,0,0,2.183,2.183" transform="translate(-12733.417 -12404.425)" fill="#92bfb1"/>
      <path id="Trazado_197330" data-name="Trazado 197330" d="M745.38,393.555A2.551,2.551,0,1,0,742.829,391a2.551,2.551,0,0,0,2.551,2.551" transform="translate(-12731.656 -12404.505)" fill="#92bfb1"/>
      <path id="Trazado_197331" data-name="Trazado 197331" d="M751.9,393.948a2.873,2.873,0,1,0-2.873-2.874,2.874,2.874,0,0,0,2.873,2.874" transform="translate(-12729.886 -12404.577)" fill="#92bfb1"/>
      <path id="Trazado_197332" data-name="Trazado 197332" d="M758.412,394.313a3.172,3.172,0,1,0-3.172-3.172,3.172,3.172,0,0,0,3.172,3.172" transform="translate(-12728.111 -12404.644)" fill="#92bfb1"/>
      <path id="Trazado_197333" data-name="Trazado 197333" d="M764.92,394.65a3.448,3.448,0,1,0-3.447-3.448,3.449,3.449,0,0,0,3.447,3.448" transform="translate(-12726.33 -12404.705)" fill="#92bfb1"/>
      <path id="Trazado_197334" data-name="Trazado 197334" d="M771.4,394.847a3.608,3.608,0,1,0-3.609-3.609,3.609,3.609,0,0,0,3.609,3.609" transform="translate(-12724.522 -12404.741)" fill="#92bfb1"/>
      <path id="Trazado_197335" data-name="Trazado 197335" d="M777.819,394.678a3.471,3.471,0,1,0-3.47-3.47,3.47,3.47,0,0,0,3.47,3.47" transform="translate(-12722.651 -12404.711)" fill="#92bfb1"/>
      <path id="Trazado_197336" data-name="Trazado 197336" d="M784.21,394.369a3.218,3.218,0,1,0-3.218-3.218,3.218,3.218,0,0,0,3.218,3.218" transform="translate(-12720.753 -12404.654)" fill="#92bfb1"/>
      <path id="Trazado_197337" data-name="Trazado 197337" d="M680.355,396.94a.046.046,0,1,0-.046-.046.046.046,0,0,0,.046.046" transform="translate(-12749.518 -12402.106)" fill="#92bfb1"/>
      <path id="Trazado_197338" data-name="Trazado 197338" d="M686.874,397.332a.368.368,0,1,0-.369-.368.368.368,0,0,0,.369.368" transform="translate(-12747.749 -12402.179)" fill="#92bfb1"/>
      <path id="Trazado_197339" data-name="Trazado 197339" d="M693.33,397.389a.414.414,0,1,0-.414-.414.414.414,0,0,0,.414.414" transform="translate(-12745.916 -12402.189)" fill="#92bfb1"/>
      <path id="Trazado_197340" data-name="Trazado 197340" d="M699.8,397.529a.528.528,0,1,0-.528-.528.528.528,0,0,0,.528.528" transform="translate(-12744.101 -12402.214)" fill="#92bfb1"/>
      <path id="Trazado_197341" data-name="Trazado 197341" d="M706.285,397.726a.69.69,0,1,0-.689-.689.689.689,0,0,0,.689.689" transform="translate(-12742.293 -12402.251)" fill="#92bfb1"/>
      <path id="Trazado_197342" data-name="Trazado 197342" d="M712.778,397.979a.9.9,0,1,0-.9-.9.9.9,0,0,0,.9.9" transform="translate(-12740.497 -12402.297)" fill="#92bfb1"/>
      <path id="Trazado_197343" data-name="Trazado 197343" d="M719.276,398.26a1.126,1.126,0,1,0-1.126-1.126,1.126,1.126,0,0,0,1.126,1.126" transform="translate(-12738.707 -12402.348)" fill="#92bfb1"/>
      <path id="Trazado_197344" data-name="Trazado 197344" d="M725.784,398.6a1.4,1.4,0,1,0-1.4-1.4,1.4,1.4,0,0,0,1.4,1.4" transform="translate(-12736.927 -12402.407)" fill="#92bfb1"/>
      <path id="Trazado_197345" data-name="Trazado 197345" d="M732.3,398.99a1.724,1.724,0,1,0-1.724-1.724,1.723,1.723,0,0,0,1.724,1.724" transform="translate(-12735.155 -12402.481)" fill="#92bfb1"/>
      <path id="Trazado_197346" data-name="Trazado 197346" d="M738.826,399.411a2.069,2.069,0,1,0-2.069-2.069,2.068,2.068,0,0,0,2.069,2.069" transform="translate(-12733.391 -12402.557)" fill="#92bfb1"/>
      <path id="Trazado_197347" data-name="Trazado 197347" d="M745.354,399.861a2.436,2.436,0,1,0-2.436-2.436,2.436,2.436,0,0,0,2.436,2.436" transform="translate(-12731.631 -12402.64)" fill="#92bfb1"/>
      <path id="Trazado_197348" data-name="Trazado 197348" d="M751.868,400.227a2.735,2.735,0,1,0-2.735-2.735,2.734,2.734,0,0,0,2.735,2.735" transform="translate(-12729.855 -12402.704)" fill="#92bfb1"/>
      <path id="Trazado_197349" data-name="Trazado 197349" d="M758.371,400.535a2.988,2.988,0,1,0-2.988-2.988,2.987,2.987,0,0,0,2.988,2.988" transform="translate(-12728.069 -12402.762)" fill="#92bfb1"/>
      <path id="Trazado_197350" data-name="Trazado 197350" d="M764.864,400.788a3.195,3.195,0,1,0-3.195-3.2,3.2,3.2,0,0,0,3.195,3.2" transform="translate(-12726.273 -12402.807)" fill="#92bfb1"/>
      <path id="Trazado_197351" data-name="Trazado 197351" d="M771.331,400.9a3.287,3.287,0,1,0-3.286-3.286,3.286,3.286,0,0,0,3.286,3.286" transform="translate(-12724.452 -12402.827)" fill="#92bfb1"/>
      <path id="Trazado_197352" data-name="Trazado 197352" d="M777.763,400.816a3.217,3.217,0,1,0-3.218-3.218,3.218,3.218,0,0,0,3.218,3.218" transform="translate(-12722.596 -12402.811)" fill="#92bfb1"/>
      <path id="Trazado_197353" data-name="Trazado 197353" d="M784.164,400.563a3.011,3.011,0,1,0-3.011-3.011,3.01,3.01,0,0,0,3.011,3.011" transform="translate(-12720.707 -12402.766)" fill="#92bfb1"/>
      <path id="Trazado_197354" data-name="Trazado 197354" d="M686.869,403.751a.345.345,0,1,0-.346-.345.345.345,0,0,0,.346.345" transform="translate(-12747.742 -12400.332)" fill="#92bfb1"/>
      <path id="Trazado_197355" data-name="Trazado 197355" d="M693.33,403.836a.414.414,0,1,0-.414-.414.414.414,0,0,0,.414.414" transform="translate(-12745.916 -12400.347)" fill="#92bfb1"/>
      <path id="Trazado_197356" data-name="Trazado 197356" d="M699.8,403.948a.506.506,0,1,0-.505-.505.505.505,0,0,0,.505.505" transform="translate(-12744.094 -12400.367)" fill="#92bfb1"/>
      <path id="Trazado_197357" data-name="Trazado 197357" d="M706.275,404.117a.643.643,0,1,0-.644-.644.644.644,0,0,0,.644.644" transform="translate(-12742.284 -12400.398)" fill="#92bfb1"/>
      <path id="Trazado_197358" data-name="Trazado 197358" d="M712.763,404.342a.827.827,0,1,0-.828-.828.828.828,0,0,0,.828.828" transform="translate(-12740.483 -12400.438)" fill="#92bfb1"/>
      <path id="Trazado_197359" data-name="Trazado 197359" d="M719.261,404.622a1.058,1.058,0,1,0-1.057-1.057,1.057,1.057,0,0,0,1.057,1.057" transform="translate(-12738.691 -12400.491)" fill="#92bfb1"/>
      <path id="Trazado_197360" data-name="Trazado 197360" d="M725.764,404.931a1.31,1.31,0,1,0-1.31-1.31,1.31,1.31,0,0,0,1.31,1.31" transform="translate(-12736.906 -12400.547)" fill="#92bfb1"/>
      <path id="Trazado_197361" data-name="Trazado 197361" d="M732.277,405.3a1.609,1.609,0,1,0-1.608-1.608,1.608,1.608,0,0,0,1.608,1.608" transform="translate(-12735.131 -12400.613)" fill="#92bfb1"/>
      <path id="Trazado_197362" data-name="Trazado 197362" d="M738.79,405.662a1.908,1.908,0,1,0-1.908-1.908,1.907,1.907,0,0,0,1.908,1.908" transform="translate(-12733.354 -12400.679)" fill="#92bfb1"/>
      <path id="Trazado_197363" data-name="Trazado 197363" d="M745.308,406.055a2.229,2.229,0,1,0-2.23-2.229,2.229,2.229,0,0,0,2.23,2.229" transform="translate(-12731.586 -12400.751)" fill="#92bfb1"/>
      <path id="Trazado_197364" data-name="Trazado 197364" d="M751.822,406.421a2.528,2.528,0,1,0-2.528-2.528,2.527,2.527,0,0,0,2.528,2.528" transform="translate(-12729.81 -12400.817)" fill="#92bfb1"/>
      <path id="Trazado_197365" data-name="Trazado 197365" d="M758.315,406.673a2.735,2.735,0,1,0-2.735-2.735,2.734,2.734,0,0,0,2.735,2.735" transform="translate(-12728.013 -12400.863)" fill="#92bfb1"/>
      <path id="Trazado_197366" data-name="Trazado 197366" d="M764.8,406.87a2.9,2.9,0,1,0-2.9-2.9,2.9,2.9,0,0,0,2.9,2.9" transform="translate(-12726.207 -12400.898)" fill="#92bfb1"/>
      <path id="Trazado_197367" data-name="Trazado 197367" d="M771.255,406.926a2.942,2.942,0,1,0-2.942-2.942,2.942,2.942,0,0,0,2.942,2.942" transform="translate(-12724.374 -12400.909)" fill="#92bfb1"/>
      <path id="Trazado_197368" data-name="Trazado 197368" d="M777.692,406.87a2.9,2.9,0,1,0-2.9-2.9,2.9,2.9,0,0,0,2.9,2.9" transform="translate(-12722.523 -12400.898)" fill="#92bfb1"/>
      <path id="Trazado_197369" data-name="Trazado 197369" d="M784.108,406.7a2.758,2.758,0,1,0-2.759-2.758,2.757,2.757,0,0,0,2.759,2.758" transform="translate(-12720.651 -12400.869)" fill="#92bfb1"/>
      <path id="Trazado_197370" data-name="Trazado 197370" d="M686.849,410.086a.253.253,0,1,0-.255-.253.253.253,0,0,0,.255.253" transform="translate(-12747.723 -12398.47)" fill="#92bfb1"/>
      <path id="Trazado_197371" data-name="Trazado 197371" d="M693.325,410.255a.391.391,0,1,0-.391-.391.391.391,0,0,0,.391.391" transform="translate(-12745.911 -12398.5)" fill="#92bfb1"/>
      <path id="Trazado_197372" data-name="Trazado 197372" d="M699.787,410.339a.46.46,0,1,0-.459-.46.46.46,0,0,0,.459.46" transform="translate(-12744.084 -12398.516)" fill="#92bfb1"/>
      <path id="Trazado_197373" data-name="Trazado 197373" d="M706.265,410.508a.6.6,0,1,0-.6-.6.6.6,0,0,0,.6.6" transform="translate(-12742.272 -12398.546)" fill="#92bfb1"/>
      <path id="Trazado_197374" data-name="Trazado 197374" d="M712.747,410.7a.759.759,0,1,0-.758-.759.758.758,0,0,0,.758.759" transform="translate(-12740.468 -12398.581)" fill="#92bfb1"/>
      <path id="Trazado_197375" data-name="Trazado 197375" d="M719.24,410.957a.966.966,0,1,0-.966-.966.965.965,0,0,0,.966.966" transform="translate(-12738.672 -12398.628)" fill="#92bfb1"/>
      <path id="Trazado_197376" data-name="Trazado 197376" d="M725.739,411.238a1.2,1.2,0,1,0-1.2-1.2,1.2,1.2,0,0,0,1.2,1.2" transform="translate(-12736.881 -12398.679)" fill="#92bfb1"/>
      <path id="Trazado_197377" data-name="Trazado 197377" d="M732.241,411.547a1.448,1.448,0,1,0-1.448-1.448,1.448,1.448,0,0,0,1.448,1.448" transform="translate(-12735.095 -12398.734)" fill="#92bfb1"/>
      <path id="Trazado_197378" data-name="Trazado 197378" d="M738.744,411.856a1.7,1.7,0,1,0-1.7-1.7,1.7,1.7,0,0,0,1.7,1.7" transform="translate(-12733.31 -12398.791)" fill="#92bfb1"/>
      <path id="Trazado_197379" data-name="Trazado 197379" d="M745.252,412.192a1.977,1.977,0,1,0-1.976-1.976,1.976,1.976,0,0,0,1.976,1.976" transform="translate(-12731.528 -12398.853)" fill="#92bfb1"/>
      <path id="Trazado_197380" data-name="Trazado 197380" d="M751.761,412.53a2.253,2.253,0,1,0-2.253-2.252,2.253,2.253,0,0,0,2.253,2.252" transform="translate(-12729.748 -12398.913)" fill="#92bfb1"/>
      <path id="Trazado_197381" data-name="Trazado 197381" d="M758.253,412.783a2.46,2.46,0,1,0-2.459-2.46,2.46,2.46,0,0,0,2.459,2.46" transform="translate(-12727.953 -12398.961)" fill="#92bfb1"/>
      <path id="Trazado_197382" data-name="Trazado 197382" d="M764.726,412.923a2.574,2.574,0,1,0-2.574-2.574,2.573,2.573,0,0,0,2.574,2.574" transform="translate(-12726.136 -12398.985)" fill="#92bfb1"/>
      <path id="Trazado_197383" data-name="Trazado 197383" d="M771.183,412.979a2.62,2.62,0,1,0-2.62-2.62,2.62,2.62,0,0,0,2.62,2.62" transform="translate(-12724.304 -12398.996)" fill="#92bfb1"/>
      <path id="Trazado_197384" data-name="Trazado 197384" d="M777.625,412.951a2.6,2.6,0,1,0-2.6-2.6,2.6,2.6,0,0,0,2.6,2.6" transform="translate(-12722.458 -12398.99)" fill="#92bfb1"/>
      <path id="Trazado_197385" data-name="Trazado 197385" d="M784.042,412.783a2.46,2.46,0,1,0-2.461-2.46,2.46,2.46,0,0,0,2.461,2.46" transform="translate(-12720.585 -12398.961)" fill="#92bfb1"/>
      <path id="Trazado_197386" data-name="Trazado 197386" d="M686.822,416.392a.138.138,0,1,0-.138-.138.137.137,0,0,0,.138.138" transform="translate(-12747.696 -12396.603)" fill="#92bfb1"/>
      <path id="Trazado_197387" data-name="Trazado 197387" d="M693.319,416.673a.368.368,0,1,0-.368-.368.368.368,0,0,0,.368.368" transform="translate(-12745.906 -12396.653)" fill="#92bfb1"/>
      <path id="Trazado_197388" data-name="Trazado 197388" d="M699.782,416.757a.436.436,0,1,0-.437-.437.437.437,0,0,0,.437.437" transform="translate(-12744.079 -12396.668)" fill="#92bfb1"/>
      <path id="Trazado_197389" data-name="Trazado 197389" d="M706.249,416.87a.528.528,0,1,0-.528-.528.528.528,0,0,0,.528.528" transform="translate(-12742.258 -12396.688)" fill="#92bfb1"/>
      <path id="Trazado_197390" data-name="Trazado 197390" d="M712.732,417.066a.69.69,0,1,0-.689-.689.689.689,0,0,0,.689.689" transform="translate(-12740.452 -12396.726)" fill="#92bfb1"/>
      <path id="Trazado_197391" data-name="Trazado 197391" d="M719.215,417.263a.85.85,0,1,0-.85-.85.85.85,0,0,0,.85.85" transform="translate(-12738.646 -12396.761)" fill="#92bfb1"/>
      <path id="Trazado_197392" data-name="Trazado 197392" d="M725.708,417.516a1.057,1.057,0,1,0-1.057-1.057,1.057,1.057,0,0,0,1.057,1.057" transform="translate(-12736.849 -12396.807)" fill="#92bfb1"/>
      <path id="Trazado_197393" data-name="Trazado 197393" d="M732.2,417.769a1.264,1.264,0,1,0-1.264-1.264,1.264,1.264,0,0,0,1.264,1.264" transform="translate(-12735.054 -12396.852)" fill="#92bfb1"/>
      <path id="Trazado_197394" data-name="Trazado 197394" d="M738.7,418.05a1.494,1.494,0,1,0-1.494-1.494,1.494,1.494,0,0,0,1.494,1.494" transform="translate(-12733.262 -12396.903)" fill="#92bfb1"/>
      <path id="Trazado_197395" data-name="Trazado 197395" d="M745.2,418.331a1.724,1.724,0,1,0-1.724-1.724,1.724,1.724,0,0,0,1.724,1.724" transform="translate(-12731.473 -12396.955)" fill="#92bfb1"/>
      <path id="Trazado_197396" data-name="Trazado 197396" d="M751.689,418.583a1.93,1.93,0,1,0-1.931-1.931,1.931,1.931,0,0,0,1.931,1.931" transform="translate(-12729.677 -12397)" fill="#92bfb1"/>
      <path id="Trazado_197397" data-name="Trazado 197397" d="M758.172,418.781a2.092,2.092,0,1,0-2.092-2.092,2.092,2.092,0,0,0,2.092,2.092" transform="translate(-12727.871 -12397.037)" fill="#92bfb1"/>
      <path id="Trazado_197398" data-name="Trazado 197398" d="M764.644,418.92a2.206,2.206,0,1,0-2.206-2.206,2.206,2.206,0,0,0,2.206,2.206" transform="translate(-12726.055 -12397.062)" fill="#92bfb1"/>
      <path id="Trazado_197399" data-name="Trazado 197399" d="M771.1,418.977a2.253,2.253,0,1,0-2.253-2.253,2.252,2.252,0,0,0,2.253,2.253" transform="translate(-12724.223 -12397.072)" fill="#92bfb1"/>
      <path id="Trazado_197400" data-name="Trazado 197400" d="M777.543,418.949a2.229,2.229,0,1,0-2.229-2.229,2.229,2.229,0,0,0,2.229,2.229" transform="translate(-12722.375 -12397.067)" fill="#92bfb1"/>
      <path id="Trazado_197401" data-name="Trazado 197401" d="M783.965,418.808a2.114,2.114,0,1,0-2.116-2.115,2.115,2.115,0,0,0,2.116,2.115" transform="translate(-12720.509 -12397.043)" fill="#92bfb1"/>
      <path id="Trazado_197402" data-name="Trazado 197402" d="M693.309,423.064a.322.322,0,1,0-.321-.321.322.322,0,0,0,.321.321" transform="translate(-12745.896 -12394.802)" fill="#92bfb1"/>
      <path id="Trazado_197403" data-name="Trazado 197403" d="M699.772,423.149a.391.391,0,1,0-.391-.391.391.391,0,0,0,.391.391" transform="translate(-12744.068 -12394.816)" fill="#92bfb1"/>
      <path id="Trazado_197404" data-name="Trazado 197404" d="M706.239,423.261a.483.483,0,1,0-.482-.482.482.482,0,0,0,.482.482" transform="translate(-12742.247 -12394.838)" fill="#92bfb1"/>
      <path id="Trazado_197405" data-name="Trazado 197405" d="M712.712,423.4a.6.6,0,1,0-.6-.6.6.6,0,0,0,.6.6" transform="translate(-12740.433 -12394.862)" fill="#92bfb1"/>
      <path id="Trazado_197406" data-name="Trazado 197406" d="M719.189,423.57a.735.735,0,1,0-.735-.735.735.735,0,0,0,.735.735" transform="translate(-12738.621 -12394.894)" fill="#92bfb1"/>
      <path id="Trazado_197407" data-name="Trazado 197407" d="M725.672,423.766a.9.9,0,1,0-.9-.9.9.9,0,0,0,.9.9" transform="translate(-12736.813 -12394.929)" fill="#92bfb1"/>
      <path id="Trazado_197408" data-name="Trazado 197408" d="M732.16,423.991a1.08,1.08,0,1,0-1.08-1.08,1.08,1.08,0,0,0,1.08,1.08" transform="translate(-12735.014 -12394.97)" fill="#92bfb1"/>
      <path id="Trazado_197409" data-name="Trazado 197409" d="M738.647,424.216a1.264,1.264,0,1,0-1.264-1.264,1.264,1.264,0,0,0,1.264,1.264" transform="translate(-12733.212 -12395.01)" fill="#92bfb1"/>
      <path id="Trazado_197410" data-name="Trazado 197410" d="M745.135,424.441a1.448,1.448,0,1,0-1.448-1.448,1.448,1.448,0,0,0,1.448,1.448" transform="translate(-12731.412 -12395.052)" fill="#92bfb1"/>
      <path id="Trazado_197411" data-name="Trazado 197411" d="M751.617,424.637a1.609,1.609,0,1,0-1.609-1.608,1.608,1.608,0,0,0,1.609,1.608" transform="translate(-12729.604 -12395.088)" fill="#92bfb1"/>
      <path id="Trazado_197412" data-name="Trazado 197412" d="M758.1,424.805a1.747,1.747,0,1,0-1.747-1.747,1.747,1.747,0,0,0,1.747,1.747" transform="translate(-12727.795 -12395.119)" fill="#92bfb1"/>
      <path id="Trazado_197413" data-name="Trazado 197413" d="M764.563,424.918a1.839,1.839,0,1,0-1.839-1.839,1.838,1.838,0,0,0,1.839,1.839" transform="translate(-12725.972 -12395.139)" fill="#92bfb1"/>
      <path id="Trazado_197414" data-name="Trazado 197414" d="M771.02,424.975a1.885,1.885,0,1,0-1.885-1.885,1.884,1.884,0,0,0,1.885,1.885" transform="translate(-12724.142 -12395.148)" fill="#92bfb1"/>
      <path id="Trazado_197415" data-name="Trazado 197415" d="M777.456,424.918a1.839,1.839,0,1,0-1.839-1.839,1.838,1.838,0,0,0,1.839,1.839" transform="translate(-12722.288 -12395.139)" fill="#92bfb1"/>
      <path id="Trazado_197416" data-name="Trazado 197416" d="M783.888,424.833a1.77,1.77,0,1,0-1.771-1.77,1.77,1.77,0,0,0,1.771,1.77" transform="translate(-12720.432 -12395.123)" fill="#92bfb1"/>
      <path id="Trazado_197417" data-name="Trazado 197417" d="M693.268,429.286a.138.138,0,1,0-.138-.138.138.138,0,0,0,.138.138" transform="translate(-12745.854 -12392.918)" fill="#92bfb1"/>
      <path id="Trazado_197418" data-name="Trazado 197418" d="M699.767,429.567a.368.368,0,1,0-.368-.368.368.368,0,0,0,.368.368" transform="translate(-12744.064 -12392.97)" fill="#92bfb1"/>
      <path id="Trazado_197419" data-name="Trazado 197419" d="M706.224,429.623a.413.413,0,1,0-.414-.414.414.414,0,0,0,.414.414" transform="translate(-12742.233 -12392.979)" fill="#92bfb1"/>
      <path id="Trazado_197420" data-name="Trazado 197420" d="M712.691,429.736a.506.506,0,1,0-.505-.505.505.505,0,0,0,.505.505" transform="translate(-12740.411 -12393)" fill="#92bfb1"/>
      <path id="Trazado_197421" data-name="Trazado 197421" d="M719.164,429.876a.62.62,0,1,0-.621-.621.62.62,0,0,0,.621.621" transform="translate(-12738.595 -12393.026)" fill="#92bfb1"/>
      <path id="Trazado_197422" data-name="Trazado 197422" d="M725.641,430.044a.759.759,0,1,0-.759-.759.758.758,0,0,0,.759.759" transform="translate(-12736.784 -12393.057)" fill="#92bfb1"/>
      <path id="Trazado_197423" data-name="Trazado 197423" d="M732.119,430.213a.9.9,0,1,0-.9-.9.9.9,0,0,0,.9.9" transform="translate(-12734.973 -12393.086)" fill="#92bfb1"/>
      <path id="Trazado_197424" data-name="Trazado 197424" d="M738.6,430.41a1.057,1.057,0,1,0-1.057-1.057,1.057,1.057,0,0,0,1.057,1.057" transform="translate(-12733.167 -12393.123)" fill="#92bfb1"/>
      <path id="Trazado_197425" data-name="Trazado 197425" d="M745.079,430.578a1.2,1.2,0,1,0-1.2-1.2,1.2,1.2,0,0,0,1.2,1.2" transform="translate(-12731.355 -12393.153)" fill="#92bfb1"/>
      <path id="Trazado_197426" data-name="Trazado 197426" d="M751.556,430.746a1.333,1.333,0,1,0-1.333-1.333,1.333,1.333,0,0,0,1.333,1.333" transform="translate(-12729.544 -12393.184)" fill="#92bfb1"/>
      <path id="Trazado_197427" data-name="Trazado 197427" d="M758.023,430.859a1.425,1.425,0,1,0-1.424-1.424,1.425,1.425,0,0,0,1.424,1.424" transform="translate(-12727.722 -12393.204)" fill="#92bfb1"/>
      <path id="Trazado_197428" data-name="Trazado 197428" d="M764.491,430.971a1.517,1.517,0,1,0-1.517-1.517,1.516,1.516,0,0,0,1.517,1.517" transform="translate(-12725.901 -12393.226)" fill="#92bfb1"/>
      <path id="Trazado_197429" data-name="Trazado 197429" d="M770.943,431a1.54,1.54,0,1,0-1.54-1.54,1.541,1.541,0,0,0,1.54,1.54" transform="translate(-12724.064 -12393.23)" fill="#92bfb1"/>
      <path id="Trazado_197430" data-name="Trazado 197430" d="M777.385,430.971a1.517,1.517,0,1,0-1.517-1.517,1.517,1.517,0,0,0,1.517,1.517" transform="translate(-12722.216 -12393.226)" fill="#92bfb1"/>
      <path id="Trazado_197431" data-name="Trazado 197431" d="M783.817,430.888a1.448,1.448,0,1,0-1.448-1.448,1.446,1.446,0,0,0,1.448,1.448" transform="translate(-12720.36 -12393.21)" fill="#92bfb1"/>
      <path id="Trazado_197432" data-name="Trazado 197432" d="M699.741,435.873a.253.253,0,1,0-.253-.253.253.253,0,0,0,.253.253" transform="translate(-12744.039 -12391.103)" fill="#92bfb1"/>
      <path id="Trazado_197433" data-name="Trazado 197433" d="M706.214,436.013a.368.368,0,1,0-.368-.368.368.368,0,0,0,.368.368" transform="translate(-12742.223 -12391.128)" fill="#92bfb1"/>
      <path id="Trazado_197434" data-name="Trazado 197434" d="M712.676,436.1a.437.437,0,1,0-.437-.437.437.437,0,0,0,.437.437" transform="translate(-12740.396 -12391.143)" fill="#92bfb1"/>
      <path id="Trazado_197435" data-name="Trazado 197435" d="M719.143,436.211a.528.528,0,1,0-.528-.528.528.528,0,0,0,.528.528" transform="translate(-12738.573 -12391.164)" fill="#92bfb1"/>
      <path id="Trazado_197436" data-name="Trazado 197436" d="M725.611,436.323a.62.62,0,1,0-.621-.621.621.621,0,0,0,.621.621" transform="translate(-12736.754 -12391.184)" fill="#92bfb1"/>
      <path id="Trazado_197437" data-name="Trazado 197437" d="M732.083,436.463a.735.735,0,1,0-.735-.735.735.735,0,0,0,.735.735" transform="translate(-12734.937 -12391.21)" fill="#92bfb1"/>
      <path id="Trazado_197438" data-name="Trazado 197438" d="M738.555,436.6a.85.85,0,1,0-.85-.85.85.85,0,0,0,.85.85" transform="translate(-12733.121 -12391.234)" fill="#92bfb1"/>
      <path id="Trazado_197439" data-name="Trazado 197439" d="M745.027,436.744a.966.966,0,1,0-.966-.965.965.965,0,0,0,.966.965" transform="translate(-12731.306 -12391.262)" fill="#92bfb1"/>
      <path id="Trazado_197440" data-name="Trazado 197440" d="M751.5,436.885a1.08,1.08,0,1,0-1.08-1.08,1.08,1.08,0,0,0,1.08,1.08" transform="translate(-12729.488 -12391.287)" fill="#92bfb1"/>
      <path id="Trazado_197441" data-name="Trazado 197441" d="M757.962,436.969a1.149,1.149,0,1,0-1.149-1.149,1.149,1.149,0,0,0,1.149,1.149" transform="translate(-12727.66 -12391.301)" fill="#92bfb1"/>
      <path id="Trazado_197442" data-name="Trazado 197442" d="M764.42,437.025a1.2,1.2,0,1,0-1.2-1.2,1.2,1.2,0,0,0,1.2,1.2" transform="translate(-12725.829 -12391.313)" fill="#92bfb1"/>
      <path id="Trazado_197443" data-name="Trazado 197443" d="M770.877,437.082a1.241,1.241,0,1,0-1.241-1.241,1.241,1.241,0,0,0,1.241,1.241" transform="translate(-12723.997 -12391.321)" fill="#92bfb1"/>
      <path id="Trazado_197444" data-name="Trazado 197444" d="M777.319,437.053a1.218,1.218,0,1,0-1.219-1.217,1.217,1.217,0,0,0,1.219,1.217" transform="translate(-12722.151 -12391.317)" fill="#92bfb1"/>
      <path id="Trazado_197445" data-name="Trazado 197445" d="M783.755,437a1.173,1.173,0,1,0-1.172-1.173A1.173,1.173,0,0,0,783.755,437" transform="translate(-12720.3 -12391.307)" fill="#92bfb1"/>
      <path id="Trazado_197446" data-name="Trazado 197446" d="M699.69,442.039a.023.023,0,1,0-.023-.023.023.023,0,0,0,.023.023" transform="translate(-12743.988 -12389.209)" fill="#92bfb1"/>
      <path id="Trazado_197447" data-name="Trazado 197447" d="M706.2,442.405a.322.322,0,1,0-.321-.321.322.322,0,0,0,.321.321" transform="translate(-12742.212 -12389.275)" fill="#92bfb1"/>
      <path id="Trazado_197448" data-name="Trazado 197448" d="M712.666,442.489a.391.391,0,1,0-.391-.391.391.391,0,0,0,.391.391" transform="translate(-12740.386 -12389.29)" fill="#92bfb1"/>
      <path id="Trazado_197449" data-name="Trazado 197449" d="M719.123,442.545a.437.437,0,1,0-.437-.437.437.437,0,0,0,.437.437" transform="translate(-12738.553 -12389.3)" fill="#92bfb1"/>
      <path id="Trazado_197450" data-name="Trazado 197450" d="M725.585,442.629a.505.505,0,1,0-.505-.505.505.505,0,0,0,.505.505" transform="translate(-12736.727 -12389.316)" fill="#92bfb1"/>
      <path id="Trazado_197451" data-name="Trazado 197451" d="M732.053,442.742a.6.6,0,1,0-.6-.6.6.6,0,0,0,.6.6" transform="translate(-12734.905 -12389.338)" fill="#92bfb1"/>
      <path id="Trazado_197452" data-name="Trazado 197452" d="M738.519,442.855a.69.69,0,1,0-.689-.689.689.689,0,0,0,.689.689" transform="translate(-12733.084 -12389.358)" fill="#92bfb1"/>
      <path id="Trazado_197453" data-name="Trazado 197453" d="M744.987,442.966a.782.782,0,1,0-.782-.782.781.781,0,0,0,.782.782" transform="translate(-12731.263 -12389.378)" fill="#92bfb1"/>
      <path id="Trazado_197454" data-name="Trazado 197454" d="M751.449,443.051a.85.85,0,1,0-.85-.851.85.85,0,0,0,.85.851" transform="translate(-12729.437 -12389.393)" fill="#92bfb1"/>
      <path id="Trazado_197455" data-name="Trazado 197455" d="M757.911,443.135a.919.919,0,1,0-.919-.919.919.919,0,0,0,.919.919" transform="translate(-12727.609 -12389.41)" fill="#92bfb1"/>
      <path id="Trazado_197456" data-name="Trazado 197456" d="M764.363,443.163a.942.942,0,1,0-.942-.942.942.942,0,0,0,.942.942" transform="translate(-12725.772 -12389.413)" fill="#92bfb1"/>
      <path id="Trazado_197457" data-name="Trazado 197457" d="M770.815,443.191a.966.966,0,1,0-.966-.966.965.965,0,0,0,.966.966" transform="translate(-12723.938 -12389.419)" fill="#92bfb1"/>
      <path id="Trazado_197458" data-name="Trazado 197458" d="M777.262,443.191a.966.966,0,1,0-.966-.966.965.965,0,0,0,.966.966" transform="translate(-12722.095 -12389.419)" fill="#92bfb1"/>
      <path id="Trazado_197459" data-name="Trazado 197459" d="M783.7,443.135a.919.919,0,1,0-.92-.919.919.919,0,0,0,.92.919" transform="translate(-12720.242 -12389.41)" fill="#92bfb1"/>
      <path id="Trazado_197460" data-name="Trazado 197460" d="M706.142,448.514a.046.046,0,1,0-.046-.046.046.046,0,0,0,.046.046" transform="translate(-12742.151 -12387.371)" fill="#92bfb1"/>
      <path id="Trazado_197461" data-name="Trazado 197461" d="M712.65,448.851a.322.322,0,1,0-.321-.321.321.321,0,0,0,.321.321" transform="translate(-12740.371 -12387.435)" fill="#92bfb1"/>
      <path id="Trazado_197462" data-name="Trazado 197462" d="M719.108,448.907a.368.368,0,1,0-.368-.368.368.368,0,0,0,.368.368" transform="translate(-12738.539 -12387.443)" fill="#92bfb1"/>
      <path id="Trazado_197463" data-name="Trazado 197463" d="M725.565,448.964a.414.414,0,1,0-.414-.414.414.414,0,0,0,.414.414" transform="translate(-12736.707 -12387.454)" fill="#92bfb1"/>
      <path id="Trazado_197464" data-name="Trazado 197464" d="M732.027,449.048a.483.483,0,1,0-.482-.482.482.482,0,0,0,.482.482" transform="translate(-12734.879 -12387.471)" fill="#92bfb1"/>
      <path id="Trazado_197465" data-name="Trazado 197465" d="M738.488,449.132a.552.552,0,1,0-.552-.552.551.551,0,0,0,.552.552" transform="translate(-12733.054 -12387.484)" fill="#92bfb1"/>
      <path id="Trazado_197466" data-name="Trazado 197466" d="M744.946,449.189a.6.6,0,1,0-.6-.6.6.6,0,0,0,.6.6" transform="translate(-12731.223 -12387.495)" fill="#92bfb1"/>
      <path id="Trazado_197467" data-name="Trazado 197467" d="M751.408,449.273a.667.667,0,1,0-.666-.666.666.666,0,0,0,.666.666" transform="translate(-12729.396 -12387.511)" fill="#92bfb1"/>
      <path id="Trazado_197468" data-name="Trazado 197468" d="M757.865,449.328a.712.712,0,1,0-.712-.712.712.712,0,0,0,.712.712" transform="translate(-12727.565 -12387.521)" fill="#92bfb1"/>
      <path id="Trazado_197469" data-name="Trazado 197469" d="M764.317,449.357a.735.735,0,1,0-.735-.735.735.735,0,0,0,.735.735" transform="translate(-12725.728 -12387.526)" fill="#92bfb1"/>
      <path id="Trazado_197470" data-name="Trazado 197470" d="M770.769,449.385a.759.759,0,1,0-.758-.759.758.758,0,0,0,.758.759" transform="translate(-12723.891 -12387.53)" fill="#92bfb1"/>
      <path id="Trazado_197471" data-name="Trazado 197471" d="M777.211,449.357a.735.735,0,1,0-.735-.735.735.735,0,0,0,.735.735" transform="translate(-12722.043 -12387.526)" fill="#92bfb1"/>
      <path id="Trazado_197472" data-name="Trazado 197472" d="M783.653,449.328a.712.712,0,1,0-.714-.712.712.712,0,0,0,.714.712" transform="translate(-12720.197 -12387.521)" fill="#92bfb1"/>
      <path id="Trazado_197473" data-name="Trazado 197473" d="M712.584,454.933a.023.023,0,1,0-.023-.023.023.023,0,0,0,.023.023" transform="translate(-12740.304 -12385.525)" fill="#92bfb1"/>
      <path id="Trazado_197474" data-name="Trazado 197474" d="M719.082,455.214a.253.253,0,1,0-.253-.253.253.253,0,0,0,.253.253" transform="translate(-12738.514 -12385.576)" fill="#92bfb1"/>
      <path id="Trazado_197475" data-name="Trazado 197475" d="M725.555,455.354a.368.368,0,1,0-.368-.368.368.368,0,0,0,.368.368" transform="translate(-12736.696 -12385.603)" fill="#92bfb1"/>
      <path id="Trazado_197476" data-name="Trazado 197476" d="M732.007,455.383a.391.391,0,1,0-.391-.391.391.391,0,0,0,.391.391" transform="translate(-12734.86 -12385.608)" fill="#92bfb1"/>
      <path id="Trazado_197477" data-name="Trazado 197477" d="M738.463,455.439a.436.436,0,1,0-.437-.437.437.437,0,0,0,.437.437" transform="translate(-12733.03 -12385.616)" fill="#92bfb1"/>
      <path id="Trazado_197478" data-name="Trazado 197478" d="M744.92,455.494a.483.483,0,1,0-.482-.482.482.482,0,0,0,.482.482" transform="translate(-12731.197 -12385.628)" fill="#92bfb1"/>
      <path id="Trazado_197479" data-name="Trazado 197479" d="M751.372,455.523a.506.506,0,1,0-.505-.505.505.505,0,0,0,.505.505" transform="translate(-12729.359 -12385.633)" fill="#92bfb1"/>
      <path id="Trazado_197480" data-name="Trazado 197480" d="M757.83,455.579a.552.552,0,1,0-.552-.552.552.552,0,0,0,.552.552" transform="translate(-12727.528 -12385.643)" fill="#92bfb1"/>
      <path id="Trazado_197481" data-name="Trazado 197481" d="M764.282,455.607a.575.575,0,1,0-.575-.575.575.575,0,0,0,.575.575" transform="translate(-12725.692 -12385.648)" fill="#92bfb1"/>
      <path id="Trazado_197482" data-name="Trazado 197482" d="M770.729,455.607a.575.575,0,1,0-.575-.575.575.575,0,0,0,.575.575" transform="translate(-12723.85 -12385.648)" fill="#92bfb1"/>
      <path id="Trazado_197483" data-name="Trazado 197483" d="M777.176,455.607a.575.575,0,1,0-.575-.575.575.575,0,0,0,.575.575" transform="translate(-12722.007 -12385.648)" fill="#92bfb1"/>
      <path id="Trazado_197484" data-name="Trazado 197484" d="M783.618,455.579a.552.552,0,1,0-.553-.552.551.551,0,0,0,.553.552" transform="translate(-12720.161 -12385.643)" fill="#92bfb1"/>
      <path id="Trazado_197485" data-name="Trazado 197485" d="M725.5,461.52a.138.138,0,1,0-.138-.138.138.138,0,0,0,.138.138" transform="translate(-12736.645 -12383.709)" fill="#92bfb1"/>
      <path id="Trazado_197486" data-name="Trazado 197486" d="M731.991,461.745a.322.322,0,1,0-.321-.321.321.321,0,0,0,.321.321" transform="translate(-12734.844 -12383.751)" fill="#92bfb1"/>
      <path id="Trazado_197487" data-name="Trazado 197487" d="M738.448,461.8a.368.368,0,1,0-.368-.368.368.368,0,0,0,.368.368" transform="translate(-12733.014 -12383.761)" fill="#92bfb1"/>
      <path id="Trazado_197488" data-name="Trazado 197488" d="M744.9,461.83a.391.391,0,1,0-.391-.391.391.391,0,0,0,.391.391" transform="translate(-12731.176 -12383.766)" fill="#92bfb1"/>
      <path id="Trazado_197489" data-name="Trazado 197489" d="M751.352,461.858a.413.413,0,1,0-.414-.414.414.414,0,0,0,.414.414" transform="translate(-12729.339 -12383.771)" fill="#92bfb1"/>
      <path id="Trazado_197490" data-name="Trazado 197490" d="M757.8,461.886a.436.436,0,1,0-.437-.437.437.437,0,0,0,.437.437" transform="translate(-12727.502 -12383.775)" fill="#92bfb1"/>
      <path id="Trazado_197491" data-name="Trazado 197491" d="M764.251,461.886a.436.436,0,1,0-.437-.437.437.437,0,0,0,.437.437" transform="translate(-12725.661 -12383.775)" fill="#92bfb1"/>
      <path id="Trazado_197492" data-name="Trazado 197492" d="M770.7,461.913a.46.46,0,1,0-.46-.459.46.46,0,0,0,.46.459" transform="translate(-12723.824 -12383.781)" fill="#92bfb1"/>
      <path id="Trazado_197493" data-name="Trazado 197493" d="M777.15,461.913a.46.46,0,1,0-.46-.459.46.46,0,0,0,.46.459" transform="translate(-12721.983 -12383.781)" fill="#92bfb1"/>
      <path id="Trazado_197494" data-name="Trazado 197494" d="M783.592,461.886a.436.436,0,1,0-.438-.437.438.438,0,0,0,.438.437" transform="translate(-12720.136 -12383.775)" fill="#92bfb1"/>
      <path id="Trazado_197495" data-name="Trazado 197495" d="M731.925,467.827a.023.023,0,1,0-.023-.023.023.023,0,0,0,.023.023" transform="translate(-12734.779 -12381.841)" fill="#92bfb1"/>
      <path id="Trazado_197496" data-name="Trazado 197496" d="M738.4,467.967a.138.138,0,1,0-.138-.138.138.138,0,0,0,.138.138" transform="translate(-12732.962 -12381.867)" fill="#92bfb1"/>
      <path id="Trazado_197497" data-name="Trazado 197497" d="M744.869,468.107a.253.253,0,1,0-.253-.253.253.253,0,0,0,.253.253" transform="translate(-12731.146 -12381.893)" fill="#92bfb1"/>
      <path id="Trazado_197498" data-name="Trazado 197498" d="M751.336,468.22a.345.345,0,1,0-.344-.344.345.345,0,0,0,.344.344" transform="translate(-12729.325 -12381.913)" fill="#92bfb1"/>
      <path id="Trazado_197499" data-name="Trazado 197499" d="M757.789,468.248a.368.368,0,1,0-.368-.368.368.368,0,0,0,.368.368" transform="translate(-12727.487 -12381.918)" fill="#92bfb1"/>
      <path id="Trazado_197500" data-name="Trazado 197500" d="M764.236,468.248a.368.368,0,1,0-.368-.368.368.368,0,0,0,.368.368" transform="translate(-12725.646 -12381.918)" fill="#92bfb1"/>
      <path id="Trazado_197501" data-name="Trazado 197501" d="M770.682,468.248a.368.368,0,1,0-.368-.368.368.368,0,0,0,.368.368" transform="translate(-12723.803 -12381.918)" fill="#92bfb1"/>
      <path id="Trazado_197502" data-name="Trazado 197502" d="M777.13,468.248a.368.368,0,1,0-.368-.368.368.368,0,0,0,.368.368" transform="translate(-12721.962 -12381.918)" fill="#92bfb1"/>
      <path id="Trazado_197503" data-name="Trazado 197503" d="M783.577,468.248a.368.368,0,1,0-.369-.368.368.368,0,0,0,.369.368" transform="translate(-12720.12 -12381.918)" fill="#92bfb1"/>
      <path id="Trazado_197504" data-name="Trazado 197504" d="M757.722,474.33a.069.069,0,1,0,0-.138.069.069,0,1,0,0,.138" transform="translate(-12727.421 -12380.009)" fill="#92bfb1"/>
      <path id="Trazado_197505" data-name="Trazado 197505" d="M764.174,474.358a.092.092,0,1,0,0-.184.092.092,0,0,0,0,.184" transform="translate(-12725.585 -12380.017)" fill="#92bfb1"/>
      <path id="Trazado_197506" data-name="Trazado 197506" d="M770.621,474.358a.092.092,0,1,0,0-.184.092.092,0,0,0,0,.184" transform="translate(-12723.742 -12380.017)" fill="#92bfb1"/>
      <path id="Trazado_197507" data-name="Trazado 197507" d="M777.068,474.358a.092.092,0,1,0,0-.184.092.092,0,0,0,0,.184" transform="translate(-12721.9 -12380.017)" fill="#92bfb1"/>
      <path id="Trazado_197508" data-name="Trazado 197508" d="M783.511,474.33a.069.069,0,1,0-.071-.069.069.069,0,0,0,.071.069" transform="translate(-12720.055 -12380.009)" fill="#92bfb1"/>
    </g>
    <path id="Sustracción_3" data-name="Sustracción 3" d="M13142.5,11832.187h0v-127.229a20.338,20.338,0,0,1,20.19,20.354v86.52a20.34,20.34,0,0,1-20.189,20.354Z" transform="translate(-12998.166 -11400.496)" fill="#16697a" stroke="rgba(0,0,0,0)" stroke-miterlimit="10" stroke-width="1"/>
    <path id="Sustracción_2" data-name="Sustracción 2" d="M13142.5,11832.187h0v-127.229a20.338,20.338,0,0,1,20.19,20.354v86.52a20.34,20.34,0,0,1-20.189,20.354Z" transform="translate(-12997.5 -11494.188)" fill="#ffa400" stroke="rgba(0,0,0,0)" stroke-miterlimit="10" stroke-width="1"/>
  </g>
</svg>
